<svg width="301" height="73" viewBox="0 0 301 73" fill="none" xmlns="http://www.w3.org/2000/svg">
<path d="M84.179 21.5H81.8011C81.6605 20.8161 81.4144 20.2152 81.0629 19.6974C80.7177 19.1797 80.2958 18.745 79.7972 18.3935C79.305 18.0355 78.7585 17.767 78.1577 17.5881C77.5568 17.4091 76.9304 17.3196 76.2784 17.3196C75.0895 17.3196 74.0124 17.62 73.0472 18.2209C72.0884 18.8217 71.3246 19.707 70.7557 20.8768C70.1932 22.0465 69.9119 23.4815 69.9119 25.1818C69.9119 26.8821 70.1932 28.3171 70.7557 29.4869C71.3246 30.6566 72.0884 31.5419 73.0472 32.1428C74.0124 32.7436 75.0895 33.044 76.2784 33.044C76.9304 33.044 77.5568 32.9545 78.1577 32.7756C78.7585 32.5966 79.305 32.3313 79.7972 31.9798C80.2958 31.6218 80.7177 31.1839 81.0629 30.6662C81.4144 30.142 81.6605 29.5412 81.8011 28.8636H84.179C84 29.8672 83.674 30.7653 83.201 31.5579C82.728 32.3505 82.1399 33.0249 81.4368 33.581C80.7337 34.1307 79.9442 34.5494 79.0685 34.837C78.1992 35.1246 77.2692 35.2685 76.2784 35.2685C74.6037 35.2685 73.1143 34.8594 71.8104 34.0412C70.5064 33.223 69.4805 32.0597 68.7326 30.5511C67.9847 29.0426 67.6108 27.2528 67.6108 25.1818C67.6108 23.1108 67.9847 21.321 68.7326 19.8125C69.4805 18.304 70.5064 17.1406 71.8104 16.3224C73.1143 15.5043 74.6037 15.0952 76.2784 15.0952C77.2692 15.0952 78.1992 15.239 79.0685 15.5266C79.9442 15.8143 80.7337 16.2362 81.4368 16.7923C82.1399 17.342 82.728 18.0131 83.201 18.8058C83.674 19.592 84 20.4901 84.179 21.5ZM91.2092 15.3636V35H88.8314V15.3636H91.2092ZM103.422 14.4432L97.0937 37.9531H95.0227L101.351 14.4432H103.422ZM123.022 21.5H120.644C120.504 20.8161 120.258 20.2152 119.906 19.6974C119.561 19.1797 119.139 18.745 118.64 18.3935C118.148 18.0355 117.602 17.767 117.001 17.5881C116.4 17.4091 115.773 17.3196 115.121 17.3196C113.933 17.3196 112.856 17.62 111.89 18.2209C110.932 18.8217 110.168 19.707 109.599 20.8768C109.036 22.0465 108.755 23.4815 108.755 25.1818C108.755 26.8821 109.036 28.3171 109.599 29.4869C110.168 30.6566 110.932 31.5419 111.89 32.1428C112.856 32.7436 113.933 33.044 115.121 33.044C115.773 33.044 116.4 32.9545 117.001 32.7756C117.602 32.5966 118.148 32.3313 118.64 31.9798C119.139 31.6218 119.561 31.1839 119.906 30.6662C120.258 30.142 120.504 29.5412 120.644 28.8636H123.022C122.843 29.8672 122.517 30.7653 122.044 31.5579C121.571 32.3505 120.983 33.0249 120.28 33.581C119.577 34.1307 118.787 34.5494 117.912 34.837C117.042 35.1246 116.112 35.2685 115.121 35.2685C113.447 35.2685 111.957 34.8594 110.653 34.0412C109.349 33.223 108.324 32.0597 107.576 30.5511C106.828 29.0426 106.454 27.2528 106.454 25.1818C106.454 23.1108 106.828 21.321 107.576 19.8125C108.324 18.304 109.349 17.1406 110.653 16.3224C111.957 15.5043 113.447 15.0952 115.121 15.0952C116.112 15.0952 117.042 15.239 117.912 15.5266C118.787 15.8143 119.577 16.2362 120.28 16.7923C120.983 17.342 121.571 18.0131 122.044 18.8058C122.517 19.592 122.843 20.4901 123.022 21.5ZM133.734 35H127.674V15.3636H134.003C135.907 15.3636 137.537 15.7567 138.893 16.543C140.248 17.3228 141.286 18.4446 142.009 19.9084C142.731 21.3658 143.092 23.1108 143.092 25.1435C143.092 27.1889 142.728 28.9499 141.999 30.4265C141.27 31.8967 140.209 33.0281 138.816 33.8207C137.422 34.6069 135.728 35 133.734 35ZM130.052 32.8906H133.581C135.204 32.8906 136.55 32.5774 137.617 31.951C138.685 31.3246 139.481 30.4329 140.005 29.2759C140.529 28.119 140.791 26.7415 140.791 25.1435C140.791 23.5582 140.532 22.1935 140.014 21.0494C139.497 19.8988 138.723 19.0167 137.694 18.4031C136.665 17.783 135.383 17.473 133.849 17.473H130.052V32.8906ZM158.672 15.3636V35H156.294V15.3636H158.672ZM166.206 26.1406V35H163.943V20.2727H166.129V22.5739H166.321C166.666 21.826 167.19 21.2251 167.893 20.7713C168.597 20.3111 169.504 20.081 170.616 20.081C171.614 20.081 172.486 20.2855 173.234 20.6946C173.982 21.0973 174.564 21.7109 174.979 22.5355C175.395 23.3537 175.602 24.3892 175.602 25.642V35H173.339V25.7955C173.339 24.6385 173.039 23.7372 172.438 23.0916C171.837 22.4396 171.013 22.1136 169.964 22.1136C169.242 22.1136 168.597 22.2702 168.028 22.5835C167.465 22.8967 167.021 23.3537 166.695 23.9545C166.369 24.5554 166.206 25.2841 166.206 26.1406ZM186.952 20.2727V22.1903H179.32V20.2727H186.952ZM181.544 16.7443H183.807V30.7812C183.807 31.4205 183.9 31.8999 184.085 32.2195C184.277 32.5327 184.52 32.7436 184.814 32.8523C185.114 32.9545 185.431 33.0057 185.763 33.0057C186.012 33.0057 186.217 32.9929 186.377 32.9673C186.536 32.9354 186.664 32.9098 186.76 32.8906L187.22 34.9233C187.067 34.9808 186.853 35.0384 186.578 35.0959C186.303 35.1598 185.955 35.1918 185.533 35.1918C184.894 35.1918 184.267 35.0543 183.654 34.7795C183.046 34.5046 182.541 34.0859 182.139 33.5234C181.742 32.9609 181.544 32.2514 181.544 31.3949V16.7443ZM197.182 35.3068C195.763 35.3068 194.539 34.9936 193.51 34.3672C192.487 33.7344 191.698 32.8523 191.142 31.7209C190.592 30.5831 190.317 29.2599 190.317 27.7514C190.317 26.2429 190.592 24.9134 191.142 23.7628C191.698 22.6058 192.471 21.7045 193.462 21.0589C194.459 20.407 195.623 20.081 196.952 20.081C197.719 20.081 198.477 20.2088 199.224 20.4645C199.972 20.7202 200.653 21.1357 201.267 21.7109C201.88 22.2798 202.369 23.0341 202.734 23.9737C203.098 24.9134 203.28 26.0703 203.28 27.4446V28.4034H191.928V26.4474H200.979C200.979 25.6165 200.813 24.875 200.481 24.223C200.155 23.571 199.688 23.0565 199.081 22.6793C198.48 22.3022 197.77 22.1136 196.952 22.1136C196.051 22.1136 195.271 22.3374 194.613 22.7848C193.961 23.2259 193.459 23.8011 193.107 24.5107C192.756 25.2202 192.58 25.9808 192.58 26.7926V28.0966C192.58 29.2088 192.772 30.1516 193.155 30.9251C193.545 31.6921 194.085 32.277 194.776 32.6797C195.466 33.076 196.268 33.2741 197.182 33.2741C197.777 33.2741 198.314 33.1911 198.793 33.0249C199.279 32.8523 199.697 32.5966 200.049 32.2578C200.401 31.9126 200.672 31.4844 200.864 30.973L203.05 31.5866C202.82 32.3281 202.433 32.9801 201.89 33.5426C201.347 34.0987 200.675 34.5334 199.876 34.8466C199.077 35.1534 198.179 35.3068 197.182 35.3068ZM213.477 40.8295C212.384 40.8295 211.444 40.6889 210.658 40.4077C209.872 40.1328 209.217 39.7685 208.693 39.3146C208.175 38.8672 207.762 38.3878 207.456 37.8764L209.258 36.6108C209.463 36.8793 209.722 37.1861 210.035 37.5312C210.348 37.8828 210.776 38.1864 211.32 38.4421C211.869 38.7042 212.588 38.8352 213.477 38.8352C214.666 38.8352 215.647 38.5476 216.42 37.9723C217.194 37.397 217.581 36.4957 217.581 35.2685V32.277H217.389C217.223 32.5455 216.986 32.8778 216.679 33.2741C216.379 33.6641 215.944 34.0124 215.375 34.3192C214.813 34.6197 214.052 34.7699 213.093 34.7699C211.905 34.7699 210.837 34.4886 209.891 33.9261C208.951 33.3636 208.207 32.5455 207.657 31.4716C207.114 30.3977 206.842 29.0937 206.842 27.5597C206.842 26.0511 207.107 24.7376 207.638 23.619C208.168 22.494 208.907 21.6246 209.853 21.011C210.799 20.391 211.892 20.081 213.132 20.081C214.091 20.081 214.851 20.2408 215.414 20.5604C215.983 20.8736 216.417 21.2315 216.718 21.6342C217.025 22.0305 217.261 22.3565 217.427 22.6122H217.657V20.2727H219.843V35.4219C219.843 36.6875 219.556 37.7166 218.981 38.5092C218.412 39.3082 217.645 39.8931 216.679 40.2638C215.721 40.641 214.653 40.8295 213.477 40.8295ZM213.4 32.7372C214.308 32.7372 215.075 32.5295 215.701 32.114C216.328 31.6985 216.804 31.1009 217.13 30.321C217.456 29.5412 217.619 28.608 217.619 27.5213C217.619 26.4602 217.459 25.5238 217.14 24.712C216.82 23.9002 216.347 23.2642 215.721 22.804C215.094 22.3437 214.321 22.1136 213.4 22.1136C212.441 22.1136 211.642 22.3565 211.003 22.8423C210.37 23.3281 209.894 23.9801 209.575 24.7983C209.261 25.6165 209.105 26.5241 209.105 27.5213C209.105 28.544 209.265 29.4485 209.584 30.2347C209.91 31.0146 210.39 31.6282 211.022 32.0756C211.662 32.5167 212.454 32.7372 213.4 32.7372ZM224.795 35V20.2727H226.982V22.4972H227.135C227.403 21.7685 227.889 21.1772 228.592 20.7234C229.295 20.2695 230.088 20.0426 230.97 20.0426C231.136 20.0426 231.344 20.0458 231.593 20.0522C231.843 20.0586 232.031 20.0682 232.159 20.081V22.3821C232.082 22.3629 231.907 22.3342 231.632 22.2958C231.363 22.2511 231.079 22.2287 230.778 22.2287C230.063 22.2287 229.423 22.3789 228.861 22.6793C228.305 22.9734 227.864 23.3825 227.538 23.9066C227.218 24.4244 227.058 25.0156 227.058 25.6804V35H224.795ZM239.985 35.3452C239.052 35.3452 238.205 35.1694 237.444 34.8178C236.684 34.4599 236.08 33.9453 235.632 33.2741C235.185 32.5966 234.961 31.7784 234.961 30.8196C234.961 29.9759 235.127 29.2919 235.46 28.7678C235.792 28.2372 236.236 27.8217 236.792 27.5213C237.348 27.2209 237.962 26.9972 238.633 26.8501C239.311 26.6967 239.992 26.5753 240.676 26.4858C241.57 26.3707 242.296 26.2844 242.852 26.2269C243.415 26.163 243.824 26.0575 244.079 25.9105C244.341 25.7635 244.472 25.5078 244.472 25.1435V25.0668C244.472 24.1207 244.214 23.3857 243.696 22.8615C243.184 22.3374 242.408 22.0753 241.366 22.0753C240.286 22.0753 239.439 22.3118 238.825 22.7848C238.211 23.2578 237.78 23.7628 237.531 24.2997L235.383 23.5327C235.766 22.6378 236.278 21.9411 236.917 21.4425C237.563 20.9375 238.266 20.5859 239.026 20.3878C239.793 20.1832 240.548 20.081 241.289 20.081C241.762 20.081 242.305 20.1385 242.919 20.2536C243.539 20.3622 244.137 20.5891 244.712 20.9343C245.294 21.2795 245.776 21.8004 246.16 22.4972C246.543 23.1939 246.735 24.1271 246.735 25.2969V35H244.472V33.0057H244.357C244.204 33.3253 243.948 33.6673 243.59 34.0316C243.232 34.396 242.756 34.706 242.162 34.9616C241.567 35.2173 240.842 35.3452 239.985 35.3452ZM240.33 33.3125C241.225 33.3125 241.98 33.1367 242.593 32.7852C243.213 32.4336 243.68 31.9798 243.993 31.4237C244.313 30.8675 244.472 30.2827 244.472 29.669V27.598C244.377 27.7131 244.166 27.8185 243.84 27.9144C243.52 28.0039 243.149 28.0838 242.727 28.1541C242.312 28.218 241.906 28.2756 241.51 28.3267C241.12 28.3714 240.803 28.4098 240.56 28.4418C239.972 28.5185 239.423 28.6431 238.911 28.8157C238.406 28.9819 237.997 29.2344 237.684 29.5732C237.377 29.9055 237.224 30.3594 237.224 30.9347C237.224 31.7209 237.515 32.3153 238.096 32.718C238.684 33.1143 239.429 33.3125 240.33 33.3125ZM258.08 20.2727V22.1903H250.448V20.2727H258.08ZM252.672 16.7443H254.935V30.7812C254.935 31.4205 255.028 31.8999 255.213 32.2195C255.405 32.5327 255.648 32.7436 255.942 32.8523C256.242 32.9545 256.559 33.0057 256.891 33.0057C257.14 33.0057 257.345 32.9929 257.505 32.9673C257.665 32.9354 257.792 32.9098 257.888 32.8906L258.349 34.9233C258.195 34.9808 257.981 35.0384 257.706 35.0959C257.431 35.1598 257.083 35.1918 256.661 35.1918C256.022 35.1918 255.395 35.0543 254.782 34.7795C254.175 34.5046 253.67 34.0859 253.267 33.5234C252.871 32.9609 252.672 32.2514 252.672 31.3949V16.7443ZM262.294 35V20.2727H264.557V35H262.294ZM263.444 17.8182C263.003 17.8182 262.623 17.668 262.303 17.3675C261.99 17.0671 261.834 16.706 261.834 16.2841C261.834 15.8622 261.99 15.5011 262.303 15.2006C262.623 14.9002 263.003 14.75 263.444 14.75C263.885 14.75 264.263 14.9002 264.576 15.2006C264.895 15.5011 265.055 15.8622 265.055 16.2841C265.055 16.706 264.895 17.0671 264.576 17.3675C264.263 17.668 263.885 17.8182 263.444 17.8182ZM275.494 35.3068C274.164 35.3068 272.998 34.9904 271.994 34.3576C270.997 33.7248 270.217 32.8395 269.655 31.7017C269.099 30.5639 268.821 29.2344 268.821 27.7131C268.821 26.179 269.099 24.8398 269.655 23.6957C270.217 22.5515 270.997 21.663 271.994 21.0302C272.998 20.3974 274.164 20.081 275.494 20.081C276.824 20.081 277.987 20.3974 278.984 21.0302C279.988 21.663 280.767 22.5515 281.324 23.6957C281.886 24.8398 282.167 26.179 282.167 27.7131C282.167 29.2344 281.886 30.5639 281.324 31.7017C280.767 32.8395 279.988 33.7248 278.984 34.3576C277.987 34.9904 276.824 35.3068 275.494 35.3068ZM275.494 33.2741C276.504 33.2741 277.335 33.0153 277.987 32.4975C278.639 31.9798 279.121 31.299 279.435 30.4553C279.748 29.6115 279.905 28.6974 279.905 27.7131C279.905 26.7287 279.748 25.8114 279.435 24.9613C279.121 24.1112 278.639 23.424 277.987 22.8999C277.335 22.3757 276.504 22.1136 275.494 22.1136C274.484 22.1136 273.653 22.3757 273.001 22.8999C272.349 23.424 271.867 24.1112 271.553 24.9613C271.24 25.8114 271.083 26.7287 271.083 27.7131C271.083 28.6974 271.24 29.6115 271.553 30.4553C271.867 31.299 272.349 31.9798 273.001 32.4975C273.653 33.0153 274.484 33.2741 275.494 33.2741ZM288.694 26.1406V35H286.431V20.2727H288.617V22.5739H288.809C289.154 21.826 289.679 21.2251 290.382 20.7713C291.085 20.3111 291.992 20.081 293.105 20.081C294.102 20.081 294.974 20.2855 295.722 20.6946C296.47 21.0973 297.052 21.7109 297.467 22.5355C297.883 23.3537 298.091 24.3892 298.091 25.642V35H295.828V25.7955C295.828 24.6385 295.527 23.7372 294.926 23.0916C294.326 22.4396 293.501 22.1136 292.453 22.1136C291.73 22.1136 291.085 22.2702 290.516 22.5835C289.953 22.8967 289.509 23.3537 289.183 23.9545C288.857 24.5554 288.694 25.2841 288.694 26.1406Z" fill="black"/>
<path d="M77.5214 47.6364H79.0185V56.4744C79.0185 57.2633 78.8736 57.9334 78.5839 58.4847C78.2941 59.0361 77.8856 59.4547 77.3584 59.7404C76.8311 60.0262 76.2093 60.169 75.493 60.169C74.8168 60.169 74.2151 60.0463 73.6879 59.8008C73.1607 59.5513 72.7462 59.1971 72.4443 58.7383C72.1425 58.2795 71.9915 57.7341 71.9915 57.1023H73.4645C73.4645 57.4524 73.5511 57.7583 73.7241 58.0199C73.9012 58.2775 74.1427 58.4787 74.4486 58.6236C74.7544 58.7685 75.1026 58.8409 75.493 58.8409C75.9236 58.8409 76.2898 58.7504 76.5917 58.5692C76.8935 58.3881 77.1229 58.1225 77.2799 57.7724C77.4409 57.4182 77.5214 56.9856 77.5214 56.4744V47.6364ZM86.2235 60.1932C85.33 60.1932 84.5593 59.996 83.9113 59.6016C83.2674 59.2031 82.7704 58.6477 82.4202 57.9354C82.0741 57.219 81.901 56.3859 81.901 55.4361C81.901 54.4863 82.0741 53.6491 82.4202 52.9247C82.7704 52.1963 83.2573 51.6288 83.8812 51.2223C84.509 50.8118 85.2415 50.6065 86.0786 50.6065C86.5615 50.6065 87.0385 50.687 87.5093 50.848C87.9802 51.009 88.4089 51.2706 88.7952 51.6328C89.1816 51.991 89.4895 52.4659 89.7189 53.0575C89.9483 53.6491 90.063 54.3776 90.063 55.2429V55.8466H82.9152V54.6151H88.6141C88.6141 54.0919 88.5095 53.625 88.3002 53.2145C88.0949 52.804 87.8011 52.48 87.4188 52.2425C87.0405 52.0051 86.5937 51.8864 86.0786 51.8864C85.5111 51.8864 85.0201 52.0272 84.6056 52.3089C84.1951 52.5866 83.8791 52.9489 83.6578 53.3956C83.4364 53.8423 83.3258 54.3213 83.3258 54.8324V55.6534C83.3258 56.3537 83.4465 56.9473 83.688 57.4343C83.9335 57.9173 84.2736 58.2855 84.7082 58.5391C85.1429 58.7886 85.648 58.9134 86.2235 58.9134C86.5978 58.9134 86.9358 58.861 87.2377 58.7564C87.5436 58.6477 87.8072 58.4867 88.0285 58.2734C88.2499 58.0561 88.4209 57.7865 88.5417 57.4645L89.9181 57.8509C89.7732 58.3177 89.5297 58.7282 89.1876 59.0824C88.8455 59.4325 88.4229 59.7062 87.9199 59.9034C87.4168 60.0966 86.8513 60.1932 86.2235 60.1932ZM94.1649 54.4219V60H92.7402V50.7273H94.1166V52.1761H94.2374C94.4547 51.7053 94.7847 51.3269 95.2274 51.0412C95.6702 50.7514 96.2416 50.6065 96.9419 50.6065C97.5698 50.6065 98.1191 50.7353 98.59 50.9929C99.0609 51.2464 99.4271 51.6328 99.6887 52.152C99.9503 52.6671 100.081 53.3191 100.081 54.108V60H98.6564V54.2045C98.6564 53.4761 98.4673 52.9086 98.0889 52.5021C97.7106 52.0916 97.1915 51.8864 96.5314 51.8864C96.0766 51.8864 95.6702 51.985 95.312 52.1822C94.9578 52.3794 94.6781 52.6671 94.4728 53.0455C94.2676 53.4238 94.1649 53.8826 94.1649 54.4219ZM104.523 56.6193L104.499 54.8565H104.788L108.845 50.7273H110.608L106.285 55.098H106.165L104.523 56.6193ZM103.195 60V47.6364H104.619V60H103.195ZM109.087 60L105.464 55.4119L106.479 54.4219L110.898 60H109.087ZM112.952 60V50.7273H114.376V60H112.952ZM113.676 49.1818C113.398 49.1818 113.159 49.0872 112.958 48.8981C112.76 48.7089 112.662 48.4815 112.662 48.2159C112.662 47.9503 112.76 47.7229 112.958 47.5337C113.159 47.3446 113.398 47.25 113.676 47.25C113.954 47.25 114.191 47.3446 114.388 47.5337C114.59 47.7229 114.69 47.9503 114.69 48.2159C114.69 48.4815 114.59 48.7089 114.388 48.8981C114.191 49.0872 113.954 49.1818 113.676 49.1818ZM118.921 54.4219V60H117.496V50.7273H118.872V52.1761H118.993C119.21 51.7053 119.54 51.3269 119.983 51.0412C120.426 50.7514 120.997 50.6065 121.698 50.6065C122.325 50.6065 122.875 50.7353 123.346 50.9929C123.816 51.2464 124.183 51.6328 124.444 52.152C124.706 52.6671 124.837 53.3191 124.837 54.108V60H123.412V54.2045C123.412 53.4761 123.223 52.9086 122.845 52.5021C122.466 52.0916 121.947 51.8864 121.287 51.8864C120.832 51.8864 120.426 51.985 120.068 52.1822C119.713 52.3794 119.434 52.6671 119.228 53.0455C119.023 53.4238 118.921 53.8826 118.921 54.4219ZM134.518 52.804L133.239 53.1662C133.158 52.9529 133.039 52.7456 132.882 52.5444C132.729 52.3391 132.52 52.1701 132.254 52.0373C131.989 51.9045 131.649 51.8381 131.234 51.8381C130.667 51.8381 130.194 51.9689 129.816 52.2305C129.441 52.488 129.254 52.8161 129.254 53.2145C129.254 53.5687 129.383 53.8484 129.64 54.0536C129.898 54.2589 130.301 54.4299 130.848 54.5668L132.224 54.9048C133.053 55.1061 133.671 55.4139 134.078 55.8285C134.484 56.239 134.687 56.7682 134.687 57.4162C134.687 57.9474 134.534 58.4223 134.229 58.8409C133.927 59.2595 133.504 59.5895 132.961 59.831C132.417 60.0724 131.786 60.1932 131.065 60.1932C130.119 60.1932 129.337 59.9879 128.717 59.5774C128.097 59.1669 127.705 58.5672 127.54 57.7784L128.892 57.4403C129.021 57.9394 129.264 58.3137 129.622 58.5632C129.985 58.8127 130.457 58.9375 131.041 58.9375C131.705 58.9375 132.232 58.7966 132.623 58.5149C133.017 58.2292 133.214 57.8871 133.214 57.4886C133.214 57.1667 133.102 56.897 132.876 56.6797C132.651 56.4583 132.305 56.2933 131.838 56.1847L130.292 55.8224C129.443 55.6212 128.819 55.3093 128.421 54.8867C128.027 54.4601 127.829 53.9268 127.829 53.2869C127.829 52.7637 127.976 52.3009 128.27 51.8984C128.568 51.496 128.972 51.18 129.484 50.9506C129.999 50.7212 130.582 50.6065 131.234 50.6065C132.152 50.6065 132.872 50.8078 133.395 51.2102C133.923 51.6127 134.297 52.1439 134.518 52.804Z" fill="black"/>
<path d="M52.0093 35.175C52.0093 49.6334 40.5458 61.3655 26.3971 61.3655C12.2485 61.3655 0.785156 49.6334 0.785156 35.175C0.785156 20.7165 12.2487 8.98438 26.3971 8.98438C40.546 8.98438 52.0095 20.7165 52.0095 35.175" fill="#D33833"/>
<path d="M1.83875 41.6625C1.83875 41.6625 -0.0201516 14.3569 25.1582 13.5717L23.4026 10.6387L9.74957 15.2241L5.84589 19.7063L2.43784 26.2332L0.496094 33.8343L1.07458 38.9156" fill="#EF3D3A"/>
<path d="M8.86088 17.3094C4.37892 21.9154 1.59037 28.2567 1.59037 35.2793C1.59037 42.3019 4.37892 48.6429 8.86088 53.2489C13.3637 57.855 19.5397 60.6847 26.397 60.6847C33.2545 60.6847 39.4303 57.855 43.933 53.2492C48.4152 48.6429 51.2036 42.3019 51.2036 35.2793C51.2036 28.2565 48.4152 21.9154 43.933 17.3094C39.4305 12.7239 33.2545 9.87378 26.397 9.87378C19.5603 9.87378 13.3639 12.7033 8.86088 17.3094ZM7.72493 54.3437C2.95383 49.4691 0 42.7151 0 35.2793C0 27.8435 2.95383 21.0892 7.72493 16.194C12.4962 11.3195 19.1058 8.2832 26.3972 8.2832C33.6883 8.2832 40.2979 11.3195 45.0692 16.194C49.8403 21.0686 52.7941 27.8226 52.7941 35.2793C52.7941 42.7148 49.8403 49.4691 45.0692 54.3437C40.2979 59.2388 33.6883 62.2545 26.397 62.2545C19.1058 62.2545 12.4962 59.2388 7.72493 54.3437Z" fill="#231F20"/>
<path d="M37.1785 35.3195L33.2746 35.8978L28.0077 36.4969L24.5996 36.5795L21.2742 36.4763L18.7336 35.6915L16.4821 33.2539L14.7265 28.2761L14.3341 27.202L12.0001 26.4172L10.6367 24.1659L9.66602 20.9436L10.7401 18.114L13.2808 17.2258L15.3256 18.1966L16.2962 20.3449L17.4736 20.1588L17.866 19.6631L17.4736 17.4116L17.3703 14.5819L17.9486 10.6782L17.928 8.44752L19.7043 5.59714L22.8232 3.34564L28.2762 1.01172L34.3281 1.89974L39.5951 5.70039L42.0325 9.60407L43.602 12.4338L43.9946 19.4564L42.8172 25.5084L40.669 30.8788L38.645 33.7497" fill="#F0D6B7"/>
<path d="M33.8749 52.1965L19.9328 52.7748V55.1087L21.1101 63.3089L20.5317 63.9904L10.7825 60.665L10.101 59.4877L9.13014 48.4579L6.83743 41.8483L6.3418 40.2786L14.1494 34.9084L16.5868 33.9375L18.7348 36.5812L20.5937 38.2338L22.7419 38.9153L23.7126 39.2047L24.89 44.2857L25.7782 45.3598L28.0295 44.5748L26.4597 47.6109L34.9282 51.618L33.8749 52.1963" fill="#335061"/>
<path d="M10.74 18.1554L13.2807 17.2674L15.3255 18.2381L16.2961 20.3863L17.4735 20.2004L17.7628 19.0231L17.1844 16.7716L17.7626 11.4014L17.267 8.46836L19.0226 6.42358L22.8231 3.40792L21.749 1.94141L16.3788 4.58508L14.1275 6.34093L12.8675 9.06725L10.9259 11.7111L10.3477 14.83L10.74 18.1554Z" fill="#6D6B6D"/>
<path d="M14.7472 8.98576C14.7472 8.98576 16.2135 5.37122 22.0589 3.61557C27.9041 1.85992 22.3483 2.35556 22.3483 2.35556L16.0068 4.79294L13.5698 7.23012L12.4957 9.17165L14.7472 8.98576ZM11.8142 17.4751C11.8142 17.4751 9.76917 10.6382 17.5767 9.6675L17.2876 8.49013L11.9174 9.75014L10.3477 14.8314L10.74 18.1566L11.8142 17.4751Z" fill="#DCD9D8"/>
<path d="M14.9336 26.5432L16.214 25.3038C16.214 25.3038 16.7925 25.3658 16.8957 26.0473C16.999 26.7291 17.2881 32.8843 21.4811 36.1891C21.8735 36.4988 18.3622 35.6932 18.3622 35.6932L15.2431 30.8187M32.8826 24.6841C32.8826 24.6841 33.1098 21.7305 33.9153 21.9578C34.7209 22.1849 34.7209 22.9903 34.7209 22.9903C34.7209 22.9903 32.7794 24.2297 32.8826 24.6841ZM40.9794 13.8611C40.9794 13.8611 39.3682 14.1914 39.2237 15.6167C39.079 17.0418 40.9794 15.9058 41.2685 15.8026M29.1855 13.9643C29.1855 13.9643 27.0372 14.2534 27.0372 15.6167C27.0372 16.9798 29.4746 16.8765 30.1561 16.2982M15.9248 20.3054C15.9248 20.3054 12.2279 18.0539 11.8355 20.2021C11.4431 22.3502 10.5755 23.8991 12.4138 26.1506L11.1537 25.7582L9.97658 22.7425L9.58398 19.8095L11.8355 17.4756L14.3759 17.6615L15.8424 18.8389L15.9251 20.3054M17.6807 14.1502C17.6807 14.1502 19.3329 5.55764 27.719 3.90524C34.6175 2.54198 38.2528 4.19458 39.6161 5.76413C39.6161 5.76413 33.4609 -1.5476 27.6155 0.68308C21.7703 2.93457 17.474 7.02415 17.5772 9.64742C17.7425 14.15 17.6805 14.15 17.6805 14.15M40.2976 6.73501C40.2976 6.73501 37.4681 6.63176 37.3646 9.17218C37.3646 9.17218 37.3646 9.56478 37.5507 9.95717C37.5507 9.95717 39.802 7.41653 41.1652 8.77979" fill="#F7E4CD"/>
<path d="M27.9265 10.2245C27.9265 10.2245 27.4309 6.34141 24.1261 8.59269C21.9778 10.0592 22.1843 12.104 22.5563 12.4966C22.9487 12.889 22.8455 13.6737 23.1346 13.1369C23.4238 12.5998 23.3411 10.8442 24.4152 10.3483C25.4685 9.8527 27.245 9.31585 27.9265 10.2245Z" fill="#F7E4CD"/>
<path d="M18.7547 36.5802L9.58349 40.6696C9.58349 40.6696 13.3841 55.7891 11.4424 60.4778L10.0793 59.9822L9.97608 54.2194L7.43545 43.3137L6.36133 40.2978L15.9246 33.8535L18.7543 36.58M19.684 44.9453L20.9852 46.5359V52.3811H19.4363C19.4363 52.3811 19.2504 48.2915 19.2504 47.7959C19.2504 47.3 19.4363 45.5444 19.4363 45.5444M19.7254 53.2693L15.3259 53.4552L16.5859 54.3434L19.7046 54.8393" fill="#49728B"/>
<path d="M34.7424 52.2986L38.3567 52.1953L39.245 61.1594L35.5478 61.6553L34.7422 52.2984" fill="#335061"/>
<path d="M35.7129 52.2982L41.1657 52.0089C41.1657 52.0089 43.4172 46.3495 43.4172 46.0604C43.4172 45.771 45.3588 37.8604 45.3588 37.8604L40.9592 33.275L40.071 32.4902L37.7371 34.8242V43.8917L35.7129 52.2982Z" fill="#335061"/>
<path d="M38.1502 51.6173L34.7422 52.2991L35.238 55.0256C36.4978 55.6039 38.6461 54.0547 38.6461 54.0547M38.2535 34.5359L45.0904 39.617L45.2763 37.2828L40.1126 32.5117L38.2537 34.5359" fill="#49728B"/>
<path d="M23.1137 71.507L21.0895 63.3071L20.0774 57.2551L19.9121 52.773L29.0621 52.2773H34.7423L34.226 62.5221L35.1141 70.4329L35.0108 71.8994L27.5956 72.4779L23.1137 71.507Z" fill="white"/>
<path d="M33.48 52.1957C33.48 52.1957 32.9844 62.3374 34.4509 69.5665C34.4509 69.5665 31.5179 71.4254 27.2422 71.9004L35.4424 71.6113L36.413 71.033L35.2359 55.0461L34.9259 51.6172" fill="#DCD9D8"/>
<path d="M39.3884 60.3946L43.1888 59.3205L50.3975 58.9281L51.4716 55.6027L49.5299 49.8399L47.2786 49.5508L44.1597 50.5217L41.1852 51.9882L39.5949 51.6988L38.3555 52.1947" fill="white"/>
<path d="M39.3262 58.4343C39.3262 58.4343 41.8668 57.2569 42.2592 57.3602L41.1851 51.99L42.4451 51.4941C42.4451 51.4941 43.3333 56.5754 43.3333 57.1537C43.3333 57.1537 48.7861 57.4428 49.2818 57.4428C49.2818 57.4428 50.4592 55.1913 50.17 52.8574L51.2441 55.9763L51.3474 57.732L49.7776 60.0659L48.022 60.4585L45.089 60.3552L44.1181 59.0952L40.71 59.5909L39.6359 59.9834" fill="#DCD9D8"/>
<path d="M35.4855 51.5148L33.3372 46.062L31.0859 42.8396C31.0859 42.8396 31.5818 41.4766 32.2633 41.4766H34.5148L36.663 42.2613L36.4769 45.8761L35.4855 51.5148Z" fill="white"/>
<path d="M35.9192 49.6545C35.9192 49.6545 33.1927 44.3876 33.1927 43.6026C33.1927 43.6026 33.6885 42.4252 34.3701 42.7146C35.0518 43.0037 36.5183 43.7887 36.5183 43.7887V41.9296L33.1927 41.248L30.9414 41.5372L34.7418 50.5427L35.5266 50.646" fill="#DCD9D8"/>
<path d="M23.9807 36.787L21.275 36.4977L18.7344 35.7129V36.6011L19.9736 37.9644L23.8775 39.72" fill="white"/>
<path d="M19.622 37.0762C19.622 37.0762 22.6375 38.3362 23.6292 38.047L23.7322 39.2244L21.0059 38.6459L19.3535 37.4686L19.622 37.0762Z" fill="#DCD9D8"/>
<path d="M39.3893 41.8066C37.7369 41.7652 36.229 41.5587 34.9278 41.1869C35.0104 40.6498 34.8451 40.1336 34.9898 39.741C35.3616 39.4725 35.9604 39.4725 36.5181 39.4106C36.0431 39.1833 35.3616 39.0801 34.8245 39.2247C34.8037 38.853 34.6386 38.6256 34.5352 38.3365C35.4648 38.0059 37.6543 35.8373 38.8935 36.5394C39.4926 36.8906 39.7405 38.8321 39.7817 39.803C39.8229 40.5878 39.6991 41.3728 39.3893 41.8066Z" fill="#D33833"/>
<path d="M31.4773 39.1007C31.4773 39.2248 31.4773 39.3485 31.4565 39.4725C30.9403 39.8031 30.1139 39.8031 29.5356 40.0922C30.362 40.1334 31.0229 40.3399 31.6012 40.6085C31.5804 40.9184 31.5804 41.249 31.56 41.5587C30.6097 42.199 29.7423 43.1699 28.627 43.7894C28.0899 44.0788 26.2516 44.8223 25.6939 44.6776C25.384 44.595 25.3428 44.2026 25.2189 43.8308C24.9504 43.0461 24.3307 41.7652 24.2686 40.5673C24.2066 39.0595 24.0415 36.5189 25.6731 36.8286C26.995 37.0766 28.5235 37.6757 29.5356 38.2333C30.1759 38.6051 30.5271 39.0181 31.4773 39.1007Z" fill="#D33833"/>
<path d="M32.4078 40.8983C32.2631 40.0719 32.0979 39.845 32.1599 39.1218C34.37 37.6553 34.7626 41.6418 32.4078 40.8983Z" fill="#D33833"/>
<path d="M27.9247 10.2251C25.2602 9.60542 23.9383 11.3405 23.1327 13.1373C22.4098 12.9722 22.6989 11.9808 22.885 11.4851C23.3598 10.1839 25.281 8.42805 26.8505 8.67597C27.5114 8.75861 28.4203 9.37831 27.9247 10.2251ZM40.8753 13.2406H40.9992C41.5983 14.48 42.1145 15.802 42.8789 16.9174C42.3626 18.1153 39.037 19.148 39.0782 17.0412C39.8012 16.7315 41.0406 16.9792 41.6809 16.5662C41.3091 15.5541 40.7927 14.6863 40.8753 13.2406ZM29.2673 13.2822C29.8456 14.3355 30.0313 15.4302 30.8369 16.2152C31.2088 16.5662 31.911 17 31.56 17.9913C31.4774 18.2186 30.8783 18.735 30.5271 18.8383C29.2673 19.2101 26.3135 18.9209 27.3049 17.3303C28.3583 17.3718 29.7629 18.0121 30.5479 17.2477C29.9488 16.2977 28.8747 14.3973 29.2673 13.2822ZM40.4003 23.8985C38.5 25.1173 36.3723 26.46 33.233 26.15C32.5721 25.5717 32.3036 24.2703 32.9645 23.4237C33.2948 24.002 33.0883 25.0761 34.0386 25.2412C35.8149 25.5511 37.8803 24.1464 39.1609 23.6716C39.9457 22.329 39.0991 21.8539 38.3761 20.9863C36.9096 19.2307 34.9681 17.0412 35.0299 14.4181C35.629 13.9843 35.6702 15.0791 35.7528 15.265C36.517 17.0412 38.4381 19.3339 39.8218 20.8625C40.173 21.2342 40.7306 21.606 40.7927 21.8539C40.9786 22.5561 40.3176 23.4233 40.4003 23.8985ZM15.2423 22.6181C14.6434 22.2669 14.499 20.7798 13.7966 20.7384C12.7845 20.6766 12.9704 22.6801 12.9704 23.8573C12.2889 23.2378 12.1648 21.2961 12.6607 20.3048C12.0824 20.0154 11.8343 20.6145 11.5039 20.821C11.9377 17.8262 15.9032 19.4372 15.2423 22.6181ZM41.5983 25.1585C40.71 26.8524 39.45 28.7113 36.8476 28.7733C36.7855 28.2362 36.7443 27.3894 36.8476 27.0589C38.8511 26.8524 40.0903 25.8403 41.5983 25.1585ZM29.1226 26.2533C30.775 27.1209 33.8319 27.2241 36.104 27.1621C36.2279 27.6579 36.2279 28.2774 36.2279 28.8765C33.3157 29.0004 29.8868 28.2774 29.1226 26.2533ZM28.8129 27.8644C29.9694 30.756 33.9145 30.4257 37.24 30.343C37.0955 30.7148 36.7855 31.1692 36.3725 31.3137C35.2984 31.7475 32.3654 32.0781 30.8783 31.2931C29.9488 30.7975 29.3291 29.6613 28.8129 29.0004C28.5856 28.6906 27.3464 27.8851 28.8129 27.8644Z" fill="#231F20"/>
<path d="M40.2575 43.7885C38.9148 46.1018 37.6138 48.4771 36.0234 50.5013C36.6841 48.5392 36.9733 45.2344 37.0767 42.7146C38.4812 42.0534 39.6792 42.8588 40.2575 43.7885Z" fill="#81B0C4"/>
<path d="M47.5073 52.0918C45.9996 52.4015 44.9461 53.8681 43.459 53.7648C44.2852 52.6286 45.6897 52.133 47.5073 52.0918ZM48.1683 54.4463C46.9291 54.5704 45.4832 54.7769 44.244 54.6736C44.8429 53.7648 47.115 54.0952 48.1683 54.4463ZM48.6021 56.4913C47.2182 56.5119 45.5038 56.4913 44.1819 56.3879C44.9667 55.5411 47.7138 56.0781 48.6021 56.4913Z" fill="#231F20"/>
<path d="M37.6552 62.0692C37.8617 63.8042 38.5434 65.5601 38.4608 67.4602C37.6964 67.7079 37.2628 67.9352 36.2299 67.9352C36.1681 66.3241 35.9408 63.8457 36.0028 62.2965C36.4984 62.3377 37.242 61.9453 37.6552 62.0692Z" fill="#DCD9D8"/>
<path d="M35.4227 36.4553C34.7204 36.9095 34.1421 37.4672 33.4604 37.963C31.9733 38.0457 31.1677 37.8598 30.0938 37.013C30.1144 36.9509 30.2176 36.9715 30.2176 36.8889C31.808 37.5912 33.8322 36.6 35.4227 36.4553Z" fill="#F0D6B7"/>
<path d="M27.1191 47.2592C27.553 45.3794 29.2674 44.3882 30.8163 43.3555C32.4067 45.3796 33.3776 47.9821 34.4517 50.5019C31.9111 49.7377 29.3292 48.5192 27.1191 47.2592Z" fill="#81B0C4"/>
<path d="M36.0009 62.3164C35.9389 63.8655 36.1454 66.3235 36.228 67.9551C37.2609 67.9551 37.6945 67.728 38.4589 67.48C38.5415 65.5797 37.8598 63.8241 37.6533 62.089C37.2401 61.9446 36.4966 62.337 36.0009 62.3164ZM20.0552 53.5587C20.7369 59.7757 21.7076 64.9806 23.5045 70.4957C27.491 71.7143 32.2829 71.8175 35.815 70.7228C35.1747 67.6247 35.4432 63.8449 35.0715 60.5193C34.7821 58.0201 34.9268 55.5209 34.5344 52.9802C30.2587 52.0922 24.2276 52.7737 20.0552 53.5587ZM35.5465 53.0217C35.5051 55.6861 35.6704 58.3298 35.8771 60.9943C36.9095 60.8498 37.5913 60.7466 38.5415 60.5193C38.2316 57.958 38.273 55.0458 37.6327 52.7737C36.9098 52.7946 36.2692 52.7739 35.5465 53.0217ZM40.7308 52.5878C40.2352 52.4846 39.6775 52.5878 39.2231 52.5878C39.4502 54.7567 39.9666 57.1527 40.1525 59.4454C40.8755 59.466 41.2679 59.1148 41.867 59.0116C41.9082 57.008 41.7017 54.2402 40.7308 52.5878ZM48.6004 59.7757C50.1289 59.4039 51.079 57.5451 50.6452 55.6241C50.3561 54.3435 49.8604 51.9063 49.3025 51.0799C48.9102 50.481 47.8154 49.6754 46.9274 50.2331C45.5021 51.1419 43.0029 51.4105 41.9702 52.5052C42.4864 54.2402 42.6517 56.595 42.8582 58.7842C44.6347 58.8877 46.8033 58.2888 48.2907 58.9289C47.2578 59.2595 45.9359 59.2595 45.0477 59.7551C45.7912 60.1063 47.4851 60.0443 48.6004 59.7757ZM34.4312 50.5016C33.357 47.9818 32.3864 45.3794 30.7958 43.3552C29.2466 44.3877 27.553 45.3794 27.0986 47.2589C29.3293 48.5189 31.9113 49.7375 34.4312 50.5016ZM37.0748 42.7149C36.9716 45.2347 36.6824 48.5395 36.0215 50.5016C37.6119 48.4568 38.9133 46.1021 40.2558 43.7888C39.6775 42.8593 38.4795 42.0538 37.075 42.7147L37.0748 42.7149ZM34.08 41.6616C33.4809 41.5993 32.9646 42.3637 32.1797 42.0331C31.9938 42.2396 31.8285 42.4463 31.6426 42.6528C33.3776 44.7595 34.1832 47.7341 35.5259 50.1919C36.2488 47.8167 36.1662 45.2347 36.3315 42.6528C35.34 42.6941 34.7823 41.7236 34.08 41.6616ZM32.1591 39.1207C32.097 39.8437 32.2623 40.071 32.4068 40.8972C34.7615 41.6408 34.3691 37.6542 32.1591 39.1207ZM29.5358 38.2533C28.5237 37.6954 26.9954 37.0966 25.6733 36.8488C24.0417 36.5389 24.2068 39.0795 24.2688 40.5874C24.3309 41.7852 24.9506 43.0452 25.2191 43.8508C25.343 44.2226 25.3842 44.615 25.6941 44.6976C26.2518 44.8217 28.1107 44.0987 28.6272 43.8094C29.7425 43.2105 30.6099 42.2398 31.5602 41.5787C31.5808 41.269 31.5808 40.9384 31.6014 40.6287C31.0231 40.3393 30.3828 40.1536 29.5358 40.1124C30.0937 39.8231 30.9405 39.8231 31.4567 39.4927C31.4567 39.3687 31.4567 39.2448 31.4775 39.1207C30.5273 39.0175 30.1761 38.6045 29.5358 38.2533ZM19.8281 36.4977C18.9813 37.3651 22.2032 38.5218 23.2155 38.5839C23.2155 38.0468 23.5253 37.5306 23.4632 37.138C22.2447 36.9315 20.6543 37.0759 19.8281 36.4977ZM30.2383 36.8901C30.2383 36.9727 30.1349 36.9521 30.1143 37.0141C31.209 37.8609 32.0144 38.0466 33.4809 37.9642C34.142 37.4892 34.7409 36.9109 35.4432 36.4562C33.8321 36.6009 31.8081 37.5924 30.2383 36.8901ZM39.7807 39.7819C39.7395 38.8316 39.4914 36.8694 38.8925 36.5183C37.6533 35.7953 35.4639 37.9848 34.5344 38.3153C34.6377 38.6045 34.8029 38.8316 34.8235 39.2034C35.3814 39.0589 36.0421 39.1622 36.5172 39.3893C35.9595 39.4513 35.3606 39.4513 34.9888 39.7198C34.8648 40.1122 35.03 40.6287 34.9268 41.1657C36.228 41.5375 37.736 41.7234 39.3884 41.7852C39.6981 41.3722 39.822 40.5872 39.7807 39.7819ZM18.4028 37.3239C18.1343 37.138 16.3374 34.8038 16.0895 34.9071C12.8467 36.1879 9.81045 38.398 7.10454 40.5046C9.68639 46.0609 10.7399 52.8564 10.9258 59.4039C13.8796 60.7878 16.4819 62.7914 20.5096 62.9979C20.0346 59.7139 19.6216 56.7601 19.3531 53.6618C18.341 53.2282 16.8951 53.6826 15.945 53.5379C15.945 52.402 17.3907 53.0423 17.5146 52.2781C17.5974 51.6996 16.709 51.6584 16.9983 50.7496C17.7419 51.0181 18.1343 51.617 18.9193 51.8443C19.6422 50.2745 18.9193 47.4862 19.0225 46.1641C19.0433 45.9164 19.1464 44.8009 19.704 44.9868C20.1999 45.1521 19.6834 47.9818 19.7248 49.221C19.7661 50.3778 19.5802 51.4725 20.0552 52.1955C23.9385 51.6584 27.8836 51.3278 32.097 51.204C31.1676 50.8116 30.0728 50.4398 28.8749 49.7581C28.2139 49.3863 26.1692 48.6221 25.9833 48.0024C25.6733 47.0109 26.768 46.4947 26.9539 45.6477C24.9918 46.7218 24.62 44.6152 24.145 43.1485C23.7318 41.8058 23.4841 40.7939 23.3808 40.0296C21.6664 39.1622 19.8487 38.3566 18.4028 37.3239ZM38.0663 35.1756C40.7722 33.8746 41.2679 40.071 40.1937 42.0746C40.359 42.6735 40.9167 42.9008 41.144 43.4376C39.6361 46.1435 37.9633 48.6633 36.4139 51.3278C37.5501 50.6049 39.2025 51.204 40.5449 50.6669C41.0408 50.481 41.3919 49.3451 41.7637 48.4362C42.7962 45.9576 43.8703 42.8179 44.3456 40.4636C44.4488 39.9265 44.7585 38.749 44.6759 38.2739C44.5521 37.4065 43.3953 36.7662 42.7962 36.2497C41.7017 35.2583 41.0199 34.4117 39.8632 33.482C39.4296 34.1637 38.4381 34.618 38.0663 35.1758V35.1756ZM12.227 11.1952C10.9464 12.6205 11.2149 15.2644 11.3596 17.1645C13.6935 15.6982 16.7712 17.2886 16.7504 19.7672C17.8657 19.7464 17.1636 18.3833 16.9571 17.4951C16.296 14.6241 18.0724 11.5258 17.0395 8.90273C15.0362 9.0678 13.4044 9.87318 12.227 11.1952ZM21.4391 2.95405C18.5269 3.78025 14.7883 5.90768 13.5903 8.53074C14.5197 8.38628 15.16 7.93186 16.0689 7.86982C16.42 7.84921 16.8745 8.0145 17.2669 7.91125C18.0516 7.70475 18.7334 5.92828 19.3323 5.26737C19.9107 4.62706 20.6129 4.33792 21.0881 3.75964C21.3979 3.61497 21.8521 3.61497 21.8729 3.16055C21.749 3.01587 21.6044 2.91283 21.4391 2.95405ZM36.6204 3.73882C33.5843 2.0246 28.4619 0.743981 25.2397 2.35496C22.6371 3.65618 19.126 5.80422 17.9278 8.51034C19.0431 11.1332 17.5974 13.5292 17.494 16.1936C17.4527 17.6189 18.1551 18.8377 18.2169 20.3869C17.8245 21.0272 16.6678 21.089 15.8624 21.0478C15.5939 19.6843 15.1188 18.156 13.7141 17.9907C11.7314 17.7636 10.2649 19.416 10.1822 21.1304C10.079 23.1546 11.7314 26.5006 14.0859 26.2735C14.9948 26.1909 15.2221 25.282 16.2133 25.282C16.7504 26.3562 15.3874 26.6865 15.2427 27.4507C15.2013 27.6574 15.3459 28.4216 15.4492 28.7933C15.883 30.549 16.833 32.8417 17.7625 34.1843C18.9605 35.8986 21.2946 36.1465 23.8144 36.3118C24.2688 35.3409 25.9212 35.4235 26.9952 35.6715C25.6941 35.1552 24.4962 33.9158 23.5047 32.8211C22.3685 31.5611 21.212 30.2186 21.1499 28.5662C23.3188 31.5611 25.095 34.1843 29.0195 35.5064C31.9938 36.4977 35.4639 35.0518 37.7566 33.4408C38.7066 32.7797 39.2643 31.7058 39.946 30.7555C42.4658 27.1203 43.6432 21.9564 43.3953 16.9374C43.292 14.872 43.292 12.8064 42.5897 11.4225C41.867 9.97664 39.409 8.65481 37.9631 9.97664C37.6945 8.55156 39.161 7.68393 40.8753 8.20039C39.6569 6.61002 38.3763 4.73031 36.6204 3.73882ZM42.2799 50.4398C44.6553 49.2624 49.0754 47.2795 50.5419 50.4398C51.0998 51.617 51.7399 53.5793 52.0085 54.7979C52.4008 56.4917 51.5746 60.0857 49.819 60.6431C48.2698 61.139 46.473 61.1184 44.6141 60.7466C44.3868 60.5607 44.1597 60.2508 43.9738 59.9202C42.6519 59.879 41.3919 59.9824 40.359 60.5401C40.4623 61.5314 39.8013 61.676 39.161 61.8827C38.7066 63.7208 40.0905 66.1168 39.7601 67.7692C39.5328 68.9672 38.0663 69.1531 36.9924 69.3596C36.951 70.0207 37.0336 70.5784 37.1163 71.136C36.8685 72.0449 35.7736 72.5611 34.7203 72.6852C31.271 73.0982 26.0453 73.2841 22.7405 72.0861C21.8109 69.8142 21.0881 67.0671 20.3237 64.4852C17.1016 64.8362 14.4785 63.1011 12.0205 61.9446C11.1737 61.5522 9.99634 61.3249 9.66578 60.6433C9.35603 59.9824 9.47989 58.7224 9.39725 57.545C9.21136 54.5088 9.02547 51.5758 8.2407 48.4775C7.88952 47.073 7.24921 45.8544 6.8154 44.512C6.40241 43.2725 5.70006 41.7234 5.51417 40.484C5.24564 38.6459 6.98068 38.5425 8.07541 37.7369C9.78984 36.4977 11.1323 35.8159 12.9912 34.7006C13.5491 34.3702 15.2013 33.544 15.3871 33.1514C15.7591 32.3875 14.747 31.3134 14.4785 30.7143C14.0447 29.7642 13.8174 28.9586 13.7556 28.029C12.2064 27.7813 11.0084 26.8518 10.3063 25.8191C9.12872 24.0841 8.30252 20.8825 9.33542 18.466C9.41807 18.2801 9.81045 17.8875 9.87249 17.5983C9.99634 17.02 9.64517 16.2557 9.62456 15.6362C9.52131 12.4758 10.1616 9.74933 12.2891 8.79927C13.1565 5.35001 16.2546 4.21406 19.1672 2.49963C20.2619 1.85932 21.4599 1.44632 22.6991 0.991695C27.1398 -0.639887 33.9767 -0.330141 37.6739 2.4582C39.2437 3.63558 41.7429 6.13478 42.6311 7.95246C45.0063 12.7238 44.8206 20.7172 43.1682 26.5421C42.9409 27.3268 42.6311 28.4628 42.1767 29.413C41.867 30.074 40.8961 31.3752 40.9993 31.9535C41.1234 32.5526 43.2302 34.1429 43.6846 34.5767C44.4902 35.3615 46.0392 36.3944 46.163 37.3859C46.3077 38.4392 45.7088 39.8851 45.3991 40.8972C44.4074 44.2846 43.4161 47.4035 42.2799 50.4398Z" fill="#231F20"/>
<path d="M26.4796 26.9764C26.6035 26.8112 27.3056 26.5428 28.2971 27.0179C28.2971 27.0179 27.1197 27.2038 27.223 29.1661L26.7273 29.0626C26.7481 29.0835 26.2317 27.307 26.4796 26.9764Z" fill="#F7E4CD"/>
<path d="M35.0312 43.748C35.0312 44.0371 34.7834 44.2851 34.4941 44.2851C34.205 44.2851 33.957 44.0371 33.957 43.748C33.957 43.4586 34.205 43.2109 34.4941 43.2109C34.804 43.2109 35.0312 43.4586 35.0312 43.748ZM35.5682 46.2472C35.5682 46.5366 35.3205 46.7843 35.0312 46.7843C34.742 46.7843 34.4941 46.5366 34.4941 46.2472C34.4941 45.9579 34.742 45.7101 35.0312 45.7101C35.3411 45.7101 35.5682 45.9375 35.5682 46.2472Z" fill="#1D1919"/>
</svg>
