<svg width="191" height="58" viewBox="0 0 191 58" fill="none" xmlns="http://www.w3.org/2000/svg">
<path d="M72.3778 26V6.36364H84.152V8.47301H74.7557V15.108H83.2699V17.2173H74.7557V26H72.3778ZM88.5695 26V11.2727H90.7556V13.4972H90.909C91.1775 12.7685 91.6632 12.1772 92.3664 11.7234C93.0695 11.2695 93.8621 11.0426 94.7442 11.0426C94.9104 11.0426 95.1181 11.0458 95.3674 11.0522C95.6167 11.0586 95.8053 11.0682 95.9331 11.081V13.3821C95.8564 13.3629 95.6806 13.3342 95.4058 13.2958C95.1373 13.2511 94.8529 13.2287 94.5525 13.2287C93.8365 13.2287 93.1973 13.3789 92.6348 13.6793C92.0787 13.9734 91.6377 14.3825 91.3117 14.9066C90.9921 15.4244 90.8323 16.0156 90.8323 16.6804V26H88.5695ZM104.96 26.3068C103.631 26.3068 102.464 25.9904 101.46 25.3576C100.463 24.7248 99.6835 23.8395 99.121 22.7017C98.5649 21.5639 98.2868 20.2344 98.2868 18.7131C98.2868 17.179 98.5649 15.8398 99.121 14.6957C99.6835 13.5515 100.463 12.663 101.46 12.0302C102.464 11.3974 103.631 11.081 104.96 11.081C106.29 11.081 107.453 11.3974 108.45 12.0302C109.454 12.663 110.234 13.5515 110.79 14.6957C111.352 15.8398 111.633 17.179 111.633 18.7131C111.633 20.2344 111.352 21.5639 110.79 22.7017C110.234 23.8395 109.454 24.7248 108.45 25.3576C107.453 25.9904 106.29 26.3068 104.96 26.3068ZM104.96 24.2741C105.97 24.2741 106.801 24.0153 107.453 23.4975C108.105 22.9798 108.588 22.299 108.901 21.4553C109.214 20.6115 109.371 19.6974 109.371 18.7131C109.371 17.7287 109.214 16.8114 108.901 15.9613C108.588 15.1112 108.105 14.424 107.453 13.8999C106.801 13.3757 105.97 13.1136 104.96 13.1136C103.95 13.1136 103.119 13.3757 102.467 13.8999C101.815 14.424 101.333 15.1112 101.019 15.9613C100.706 16.8114 100.55 17.7287 100.55 18.7131C100.55 19.6974 100.706 20.6115 101.019 21.4553C101.333 22.299 101.815 22.9798 102.467 23.4975C103.119 24.0153 103.95 24.2741 104.96 24.2741ZM118.16 17.1406V26H115.898V11.2727H118.084V13.5739H118.275C118.621 12.826 119.145 12.2251 119.848 11.7713C120.551 11.3111 121.459 11.081 122.571 11.081C123.568 11.081 124.44 11.2855 125.188 11.6946C125.936 12.0973 126.518 12.7109 126.933 13.5355C127.349 14.3537 127.557 15.3892 127.557 16.642V26H125.294V16.7955C125.294 15.6385 124.993 14.7372 124.393 14.0916C123.792 13.4396 122.967 13.1136 121.919 13.1136C121.197 13.1136 120.551 13.2702 119.982 13.5835C119.42 13.8967 118.975 14.3537 118.649 14.9545C118.323 15.5554 118.16 16.2841 118.16 17.1406ZM138.906 11.2727V13.1903H131.274V11.2727H138.906ZM133.499 7.74432H135.761V21.7812C135.761 22.4205 135.854 22.8999 136.039 23.2195C136.231 23.5327 136.474 23.7436 136.768 23.8523C137.069 23.9545 137.385 24.0057 137.717 24.0057C137.967 24.0057 138.171 23.9929 138.331 23.9673C138.491 23.9354 138.619 23.9098 138.715 23.8906L139.175 25.9233C139.021 25.9808 138.807 26.0384 138.532 26.0959C138.257 26.1598 137.909 26.1918 137.487 26.1918C136.848 26.1918 136.222 26.0543 135.608 25.7795C135.001 25.5046 134.496 25.0859 134.093 24.5234C133.697 23.9609 133.499 23.2514 133.499 22.3949V7.74432ZM149.137 26.3068C147.718 26.3068 146.493 25.9936 145.464 25.3672C144.442 24.7344 143.652 23.8523 143.096 22.7209C142.546 21.5831 142.272 20.2599 142.272 18.7514C142.272 17.2429 142.546 15.9134 143.096 14.7628C143.652 13.6058 144.426 12.7045 145.416 12.0589C146.414 11.407 147.577 11.081 148.906 11.081C149.673 11.081 150.431 11.2088 151.179 11.4645C151.927 11.7202 152.607 12.1357 153.221 12.7109C153.835 13.2798 154.324 14.0341 154.688 14.9737C155.052 15.9134 155.235 17.0703 155.235 18.4446V19.4034H143.882V17.4474H152.933C152.933 16.6165 152.767 15.875 152.435 15.223C152.109 14.571 151.642 14.0565 151.035 13.6793C150.434 13.3022 149.725 13.1136 148.906 13.1136C148.005 13.1136 147.225 13.3374 146.567 13.7848C145.915 14.2259 145.413 14.8011 145.062 15.5107C144.71 16.2202 144.534 16.9808 144.534 17.7926V19.0966C144.534 20.2088 144.726 21.1516 145.11 21.9251C145.499 22.6921 146.04 23.277 146.73 23.6797C147.42 24.076 148.223 24.2741 149.137 24.2741C149.731 24.2741 150.268 24.1911 150.747 24.0249C151.233 23.8523 151.652 23.5966 152.003 23.2578C152.355 22.9126 152.627 22.4844 152.818 21.973L155.004 22.5866C154.774 23.3281 154.388 23.9801 153.844 24.5426C153.301 25.0987 152.63 25.5334 151.831 25.8466C151.032 26.1534 150.134 26.3068 149.137 26.3068ZM161.749 17.1406V26H159.487V11.2727H161.673V13.5739H161.865C162.21 12.826 162.734 12.2251 163.437 11.7713C164.14 11.3111 165.048 11.081 166.16 11.081C167.157 11.081 168.03 11.2855 168.778 11.6946C169.525 12.0973 170.107 12.7109 170.523 13.5355C170.938 14.3537 171.146 15.3892 171.146 16.642V26H168.883V16.7955C168.883 15.6385 168.583 14.7372 167.982 14.0916C167.381 13.4396 166.556 13.1136 165.508 13.1136C164.786 13.1136 164.14 13.2702 163.571 13.5835C163.009 13.8967 162.564 14.3537 162.238 14.9545C161.912 15.5554 161.749 16.2841 161.749 17.1406ZM181.652 26.3068C180.424 26.3068 179.341 25.9968 178.401 25.3768C177.462 24.7504 176.727 23.8683 176.196 22.7305C175.666 21.5863 175.4 20.2344 175.4 18.6747C175.4 17.1278 175.666 15.7855 176.196 14.6477C176.727 13.5099 177.465 12.631 178.411 12.011C179.357 11.391 180.45 11.081 181.69 11.081C182.649 11.081 183.406 11.2408 183.962 11.5604C184.525 11.8736 184.953 12.2315 185.247 12.6342C185.548 13.0305 185.781 13.3565 185.947 13.6122H186.139V6.36364H188.402V26H186.216V23.7372H185.947C185.781 24.0057 185.544 24.3445 185.238 24.7536C184.931 25.1562 184.493 25.5174 183.924 25.837C183.355 26.1502 182.598 26.3068 181.652 26.3068ZM181.959 24.2741C182.866 24.2741 183.633 24.0376 184.26 23.5646C184.886 23.0852 185.362 22.4237 185.688 21.5799C186.014 20.7298 186.177 19.7486 186.177 18.6364C186.177 17.5369 186.017 16.5749 185.698 15.7504C185.378 14.9194 184.905 14.2738 184.279 13.8136C183.652 13.3469 182.879 13.1136 181.959 13.1136C181 13.1136 180.201 13.3597 179.562 13.8519C178.929 14.3377 178.452 14.9993 178.133 15.8366C177.82 16.6676 177.663 17.6009 177.663 18.6364C177.663 19.6847 177.823 20.6371 178.142 21.4936C178.468 22.3437 178.948 23.0213 179.581 23.5263C180.22 24.0249 181.013 24.2741 181.959 24.2741Z" fill="black"/>
<path fill-rule="evenodd" clip-rule="evenodd" d="M64 29.9774C64 25.8164 58.6927 21.8751 50.5521 19.4265C52.4323 11.2832 51.5938 4.80644 47.9167 2.731C47.0677 2.24537 46.0781 2.01534 44.9948 2.01534V4.87289C45.5938 4.87289 46.0781 4.99046 46.4844 5.20516C48.2604 6.20198 49.026 10.0052 48.4271 14.8973C48.2813 16.0986 48.0469 17.3664 47.7604 18.6597C45.2031 18.0463 42.4115 17.5709 39.4792 17.2641C37.7188 14.8973 35.8906 12.7452 34.0521 10.864C38.3021 6.97899 42.2917 4.85755 45.0052 4.85755V2C41.4167 2 36.724 4.50994 31.974 8.86529C27.224 4.5355 22.5313 2.05112 18.9427 2.05112V4.90867C21.6406 4.90867 25.6458 7.01989 29.901 10.8743C28.0729 12.7554 26.25 14.8922 24.5156 17.2641C21.5677 17.5709 18.776 18.0463 16.2188 18.6699C15.9167 17.3919 15.6979 16.1497 15.5417 14.9587C14.9271 10.0666 15.6875 6.26333 17.4479 5.25117C17.8385 5.02114 18.349 4.9189 18.9479 4.9189V2.06645C17.8542 2.06645 16.8594 2.29649 16 2.78212C12.3333 4.85755 11.5104 11.3241 13.4063 19.4418C5.28125 21.8955 0 25.8266 0 29.9774C0 34.1385 5.30729 38.0798 13.4479 40.5284C11.5677 48.6717 12.4063 55.1485 16.0833 57.2239C16.9323 57.7095 17.9219 57.9396 19.0208 57.9396C22.6094 57.9396 27.3021 55.4296 32.0521 51.0743C36.8021 55.4041 41.4948 57.8884 45.0833 57.8884C46.1771 57.8884 47.1719 57.6584 48.0313 57.1728C51.6979 55.0973 52.5208 48.6308 50.625 40.5131C58.7188 38.0696 64 34.1232 64 29.9774ZM37.9479 29.9774C37.9479 26.7467 35.2813 24.1243 31.9844 24.1243C28.6927 24.1243 26.0208 26.7416 26.0208 29.9774C26.0208 33.2133 28.6875 35.8306 31.9844 35.8306C35.2813 35.8255 37.9479 33.2082 37.9479 29.9774ZM47.0156 21.4355C46.5312 23.0866 45.9323 24.7889 45.2552 26.4911C44.7188 25.4688 44.1615 24.4413 43.5469 23.4189C42.9479 22.3965 42.3073 21.3946 41.6667 20.4233C43.5208 20.6942 45.3073 21.0265 47.0156 21.4355ZM41.0417 35.074C40.026 36.8018 38.9792 38.4428 37.8958 39.9661C35.9531 40.1348 33.9844 40.2217 32 40.2217C30.0313 40.2217 28.0625 40.1297 26.1302 39.9763C25.0469 38.453 23.9896 36.8274 22.974 35.1098C21.9844 33.4331 21.0833 31.7308 20.2604 30.0132C21.0677 28.2956 21.9844 26.5831 22.9583 24.9064C23.974 23.1786 25.0208 21.5377 26.1042 20.0143C28.0469 19.8457 30.0156 19.7588 32 19.7588C33.9688 19.7588 35.9375 19.8508 37.8698 20.0041C38.9531 21.5275 40.0104 23.1531 41.026 24.8707C42.0156 26.5474 42.9167 28.2496 43.7396 29.9672C42.9167 31.6797 42.0208 33.3922 41.0417 35.074ZM45.2552 33.4075C45.9583 35.1251 46.5573 36.8376 47.0573 38.5041C45.349 38.9131 43.5469 39.2607 41.6823 39.5265C42.3229 38.5399 42.9583 37.5277 43.5625 36.49C44.1563 35.4676 44.7188 34.4299 45.2552 33.4075ZM32.026 47.0665C30.8125 45.8397 29.599 44.4697 28.401 42.9719C29.5729 43.023 30.776 43.0639 31.9896 43.0639C33.2135 43.0639 34.4271 43.0384 35.6146 42.9719C34.4375 44.4697 33.224 45.8397 32.026 47.0665ZM22.3229 39.5265C20.4688 39.2556 18.6823 38.9233 16.974 38.5143C17.4583 36.8632 18.0573 35.1609 18.7344 33.4587C19.2708 34.481 19.8281 35.5085 20.4427 36.5309C21.0573 37.5584 21.6823 38.5552 22.3229 39.5265ZM31.9583 12.8832C33.1719 14.1101 34.3854 15.4801 35.5833 16.9779C34.4115 16.9268 33.2083 16.8859 31.9948 16.8859C30.7708 16.8859 29.5573 16.9114 28.3698 16.9779C29.5469 15.4801 30.7604 14.1101 31.9583 12.8832ZM22.3073 20.4233C21.6667 21.4099 21.0313 22.4221 20.4271 23.4598C19.8281 24.4822 19.2656 25.5096 18.7292 26.532C18.026 24.8144 17.4271 23.1019 16.9271 21.4355C18.6406 21.0367 20.4427 20.6942 22.3073 20.4233ZM10.5 36.4542C5.88021 34.5219 2.89583 31.9864 2.89583 29.9774C2.89583 27.9685 5.88542 25.4176 10.5 23.5007C11.6198 23.0253 12.849 22.6061 14.1146 22.2074C14.8594 24.7173 15.8385 27.3295 17.0521 30.003C15.8542 32.6663 14.8854 35.2632 14.1563 37.7629C12.8646 37.3641 11.6354 36.9296 10.5 36.4542ZM17.5208 54.7497C15.7448 53.7529 14.9792 49.9497 15.5781 45.0576C15.724 43.8563 15.9583 42.5885 16.2448 41.2952C18.8021 41.9086 21.5938 42.384 24.526 42.6908C26.2865 45.0576 28.1146 47.2097 29.9531 49.0909C25.6979 52.9708 21.7083 55.0973 18.9948 55.0973C18.4063 55.082 17.9115 54.9695 17.5208 54.7497ZM48.4635 44.9962C49.0781 49.8883 48.3177 53.6916 46.5573 54.7037C46.1667 54.9338 45.6563 55.036 45.0573 55.036C42.3594 55.036 38.3542 52.9248 34.099 49.0704C35.9271 47.1892 37.75 45.0525 39.4844 42.6805C42.4323 42.3738 45.224 41.8984 47.7813 41.2696C48.0833 42.563 48.3177 43.8051 48.4635 44.9962ZM53.4844 36.4542C52.3646 36.9296 51.1354 37.3488 49.8698 37.7475C49.125 35.2376 48.1458 32.6254 46.9323 29.9519C48.1302 27.2886 49.099 24.6917 49.8281 22.192C51.1198 22.5907 52.3438 23.0253 53.4948 23.4956C58.1146 25.4279 61.099 27.9634 61.099 29.9723C61.0885 31.9864 58.1042 34.5322 53.4844 36.4542Z" fill="#00D8FF"/>
<path d="M71.4972 47V34.6364H75.6747C76.6406 34.6364 77.4335 34.8014 78.0533 35.1314C78.6731 35.4574 79.1319 35.9061 79.4297 36.4776C79.7275 37.0491 79.8764 37.6991 79.8764 38.4276C79.8764 39.156 79.7275 39.802 79.4297 40.3654C79.1319 40.9289 78.6751 41.3716 78.0593 41.6935C77.4435 42.0115 76.6567 42.1705 75.6989 42.1705H72.3182V40.8182H75.6506C76.3106 40.8182 76.8419 40.7216 77.2443 40.5284C77.6508 40.3352 77.9446 40.0616 78.1257 39.7074C78.3108 39.3492 78.4034 38.9226 78.4034 38.4276C78.4034 37.9325 78.3108 37.4999 78.1257 37.1296C77.9406 36.7594 77.6448 36.4736 77.2383 36.2724C76.8318 36.0671 76.2945 35.9645 75.6264 35.9645H72.9943V47H71.4972ZM77.3168 41.446L80.3594 47H78.6207L75.6264 41.446H77.3168ZM86.4762 47.1932C85.5827 47.1932 84.812 46.996 84.164 46.6016C83.5201 46.2031 83.0231 45.6477 82.6729 44.9354C82.3268 44.219 82.1537 43.3859 82.1537 42.4361C82.1537 41.4863 82.3268 40.6491 82.6729 39.9247C83.0231 39.1963 83.51 38.6288 84.1338 38.2223C84.7617 37.8118 85.4942 37.6065 86.3313 37.6065C86.8142 37.6065 87.2912 37.687 87.762 37.848C88.2329 38.009 88.6615 38.2706 89.0479 38.6328C89.4343 38.991 89.7422 39.4659 89.9716 40.0575C90.201 40.6491 90.3157 41.3776 90.3157 42.2429V42.8466H83.1679V41.6151H88.8668C88.8668 41.0919 88.7622 40.625 88.5529 40.2145C88.3476 39.804 88.0538 39.48 87.6715 39.2425C87.2932 39.0051 86.8464 38.8864 86.3313 38.8864C85.7638 38.8864 85.2728 39.0272 84.8583 39.3089C84.4478 39.5866 84.1318 39.9489 83.9105 40.3956C83.6891 40.8423 83.5784 41.3213 83.5784 41.8324V42.6534C83.5784 43.3537 83.6992 43.9473 83.9407 44.4343C84.1862 44.9173 84.5262 45.2855 84.9609 45.5391C85.3956 45.7886 85.9007 45.9134 86.4762 45.9134C86.8505 45.9134 87.1885 45.861 87.4904 45.7564C87.7963 45.6477 88.0599 45.4867 88.2812 45.2734C88.5026 45.0561 88.6736 44.7865 88.7944 44.4645L90.1708 44.8509C90.0259 45.3177 89.7824 45.7282 89.4403 46.0824C89.0982 46.4325 88.6756 46.7062 88.1726 46.9034C87.6695 47.0966 87.104 47.1932 86.4762 47.1932ZM95.7216 47.2173C95.134 47.2173 94.6008 47.1067 94.1218 46.8853C93.6429 46.6599 93.2626 46.3359 92.9808 45.9134C92.6991 45.4867 92.5583 44.9716 92.5583 44.3679C92.5583 43.8366 92.6629 43.406 92.8722 43.076C93.0815 42.742 93.3612 42.4804 93.7113 42.2912C94.0615 42.102 94.4478 41.9612 94.8704 41.8686C95.297 41.772 95.7256 41.6955 96.1563 41.6392C96.7197 41.5668 97.1765 41.5124 97.5267 41.4762C97.8808 41.436 98.1384 41.3696 98.2994 41.277C98.4644 41.1844 98.5469 41.0234 98.5469 40.794V40.7457C98.5469 40.1501 98.3839 39.6873 98.0579 39.3572C97.7359 39.0272 97.2469 38.8622 96.5909 38.8622C95.9108 38.8622 95.3775 39.0111 94.9911 39.3089C94.6048 39.6068 94.3331 39.9247 94.1762 40.2628L92.8239 39.7798C93.0654 39.2164 93.3873 38.7777 93.7898 38.4638C94.1963 38.1458 94.639 37.9245 95.1179 37.7997C95.6009 37.6709 96.0758 37.6065 96.5426 37.6065C96.8405 37.6065 97.1826 37.6428 97.5689 37.7152C97.9593 37.7836 98.3356 37.9265 98.6978 38.1438C99.0641 38.3612 99.3679 38.6892 99.6094 39.1278C99.8509 39.5665 99.9716 40.1541 99.9716 40.8906V47H98.5469V45.7443H98.4745C98.3779 45.9455 98.2169 46.1609 97.9915 46.3903C97.7661 46.6197 97.4663 46.8149 97.092 46.9759C96.7177 47.1368 96.2609 47.2173 95.7216 47.2173ZM95.9389 45.9375C96.5024 45.9375 96.9773 45.8268 97.3637 45.6055C97.7541 45.3841 98.0478 45.0984 98.2451 44.7482C98.4463 44.3981 98.5469 44.0298 98.5469 43.6435V42.3395C98.4865 42.4119 98.3537 42.4783 98.1485 42.5387C97.9472 42.5951 97.7138 42.6454 97.4482 42.6896C97.1866 42.7299 96.931 42.7661 96.6815 42.7983C96.436 42.8265 96.2368 42.8506 96.0838 42.8707C95.7136 42.919 95.3674 42.9975 95.0455 43.1062C94.7275 43.2108 94.47 43.3698 94.2728 43.5831C94.0796 43.7924 93.983 44.0781 93.983 44.4403C93.983 44.9354 94.1661 45.3097 94.5323 45.5632C94.9026 45.8127 95.3715 45.9375 95.9389 45.9375ZM106.849 47.1932C105.98 47.1932 105.231 46.9879 104.603 46.5774C103.975 46.1669 103.493 45.6014 103.154 44.881C102.816 44.1606 102.647 43.3376 102.647 42.4119C102.647 41.4702 102.82 40.6391 103.167 39.9187C103.517 39.1942 104.004 38.6288 104.627 38.2223C105.255 37.8118 105.988 37.6065 106.825 37.6065C107.477 37.6065 108.065 37.7273 108.588 37.9688C109.111 38.2102 109.54 38.5483 109.874 38.983C110.208 39.4176 110.415 39.9247 110.495 40.5043H109.071C108.962 40.0817 108.721 39.7074 108.346 39.3814C107.976 39.0514 107.477 38.8864 106.849 38.8864C106.294 38.8864 105.807 39.0312 105.388 39.321C104.974 39.6068 104.65 40.0112 104.416 40.5344C104.187 41.0536 104.072 41.6634 104.072 42.3636C104.072 43.08 104.185 43.7038 104.41 44.2351C104.64 44.7663 104.962 45.1789 105.376 45.4727C105.795 45.7665 106.286 45.9134 106.849 45.9134C107.219 45.9134 107.555 45.849 107.857 45.7202C108.159 45.5914 108.415 45.4062 108.624 45.1648C108.833 44.9233 108.982 44.6335 109.071 44.2955H110.495C110.415 44.8428 110.216 45.3358 109.898 45.7745C109.584 46.2092 109.167 46.5553 108.648 46.8129C108.133 47.0664 107.533 47.1932 106.849 47.1932ZM117.121 37.7273V38.9347H112.315V37.7273H117.121ZM113.716 35.5057H115.141V44.3438C115.141 44.7462 115.199 45.0481 115.316 45.2493C115.436 45.4465 115.589 45.5793 115.775 45.6477C115.964 45.7121 116.163 45.7443 116.372 45.7443C116.529 45.7443 116.658 45.7363 116.759 45.7202C116.859 45.7 116.94 45.6839 117 45.6719L117.29 46.9517C117.193 46.9879 117.058 47.0241 116.885 47.0604C116.712 47.1006 116.493 47.1207 116.227 47.1207C115.825 47.1207 115.43 47.0342 115.044 46.8612C114.662 46.6881 114.344 46.4245 114.09 46.0703C113.841 45.7161 113.716 45.2694 113.716 44.7301V35.5057ZM129.991 34.6364H131.488V43.4744C131.488 44.2633 131.344 44.9334 131.054 45.4847C130.764 46.0361 130.356 46.4547 129.828 46.7404C129.301 47.0262 128.679 47.169 127.963 47.169C127.287 47.169 126.685 47.0463 126.158 46.8008C125.631 46.5513 125.216 46.1971 124.914 45.7383C124.612 45.2795 124.461 44.7341 124.461 44.1023H125.934C125.934 44.4524 126.021 44.7583 126.194 45.0199C126.371 45.2775 126.613 45.4787 126.918 45.6236C127.224 45.7685 127.572 45.8409 127.963 45.8409C128.394 45.8409 128.76 45.7504 129.062 45.5692C129.363 45.3881 129.593 45.1225 129.75 44.7724C129.911 44.4182 129.991 43.9856 129.991 43.4744V34.6364ZM141.76 37.7273C141.688 37.1155 141.394 36.6406 140.879 36.3026C140.364 35.9645 139.732 35.7955 138.983 35.7955C138.436 35.7955 137.957 35.884 137.546 36.0611C137.14 36.2382 136.822 36.4817 136.593 36.7915C136.367 37.1014 136.254 37.4536 136.254 37.848C136.254 38.178 136.333 38.4618 136.49 38.6992C136.651 38.9326 136.856 39.1278 137.106 39.2848C137.355 39.4377 137.617 39.5645 137.89 39.6651C138.164 39.7617 138.416 39.8402 138.645 39.9006L139.901 40.2386C140.223 40.3232 140.581 40.4399 140.975 40.5888C141.374 40.7377 141.754 40.9409 142.116 41.1985C142.483 41.4521 142.784 41.7781 143.022 42.1765C143.259 42.5749 143.378 43.0639 143.378 43.6435C143.378 44.3116 143.203 44.9152 142.853 45.4545C142.507 45.9938 142 46.4225 141.332 46.7404C140.667 47.0584 139.861 47.2173 138.911 47.2173C138.025 47.2173 137.259 47.0745 136.611 46.7887C135.967 46.503 135.46 46.1045 135.089 45.5934C134.723 45.0823 134.516 44.4886 134.468 43.8125H136.013C136.053 44.2794 136.21 44.6657 136.484 44.9716C136.762 45.2734 137.112 45.4988 137.534 45.6477C137.961 45.7926 138.42 45.8651 138.911 45.8651C139.482 45.8651 139.995 45.7725 140.45 45.5874C140.905 45.3982 141.265 45.1366 141.531 44.8026C141.796 44.4645 141.929 44.0701 141.929 43.6193C141.929 43.2088 141.814 42.8748 141.585 42.6172C141.356 42.3596 141.054 42.1503 140.68 41.9893C140.305 41.8284 139.901 41.6875 139.466 41.5668L137.945 41.1321C136.979 40.8544 136.214 40.458 135.651 39.9428C135.087 39.4277 134.806 38.7536 134.806 37.9205C134.806 37.2282 134.993 36.6245 135.367 36.1094C135.745 35.5902 136.252 35.1877 136.888 34.902C137.528 34.6122 138.243 34.4673 139.031 34.4673C139.828 34.4673 140.537 34.6102 141.156 34.896C141.776 35.1777 142.267 35.564 142.629 36.055C142.996 36.546 143.189 37.1035 143.209 37.7273H141.76Z" fill="black"/>
</svg>
