<svg width="61" height="60" viewBox="0 0 61 60" fill="none" xmlns="http://www.w3.org/2000/svg">
<mask id="mask0_73_1810" style="mask-type:luminance" maskUnits="userSpaceOnUse" x="0" y="0" width="61" height="60">
<path d="M0 0H61V59.9639H0V0Z" fill="white"/>
</mask>
<g mask="url(#mask0_73_1810)">
<path d="M55.2812 39.3513H51.4688V5.62161C51.4688 2.43632 48.9918 0 45.75 0H28.2128C26.6875 0 25.1637 0.562444 24.2105 1.68733L11.2477 14.4285C10.1034 15.5534 9.53125 16.8648 9.53125 18.3642V39.3513H5.71875C2.47841 39.3513 0 41.7876 0 44.9729V54.3423C0 57.5276 2.47841 59.9639 5.71875 59.9639H55.2812C58.523 59.9639 61 57.5276 61 54.3423V44.9729C61 41.7876 58.523 39.3513 55.2812 39.3513ZM24.7812 6.37201V13.1171C24.7812 14.242 24.0193 14.991 22.875 14.991H16.0134L24.7812 6.37201ZM13.3438 18.7387H22.875C26.1168 18.7387 28.5938 16.3024 28.5938 13.1171V3.74774H45.75C46.8943 3.74774 47.6562 4.49814 47.6562 5.62161V39.3513H46.1324C44.035 39.3513 41.9375 40.4762 40.9844 42.5366L39.2693 45.9098C38.8884 46.4723 38.3162 47.0347 37.5543 47.0347H23.2574C22.494 47.0347 21.9219 46.6602 21.5409 45.9098L19.8259 42.5366C18.8727 40.6627 16.9665 39.3513 14.6793 39.3513H13.3438V18.7387ZM57.1875 54.3423C57.1875 55.4672 56.4256 56.2161 55.2812 56.2161H5.71875C4.57586 56.2161 3.8125 55.4672 3.8125 54.3423V44.9729C3.8125 43.8494 4.57586 43.099 5.71875 43.099H14.869C15.6324 43.099 16.2031 43.4735 16.5855 44.2239L18.3006 47.5972C19.2537 49.471 21.16 50.7825 23.4472 50.7825H37.744C39.8415 50.7825 41.9375 49.6576 42.8906 47.5972L44.6071 44.2239C44.9881 43.6615 45.5602 43.099 46.3222 43.099H55.2812C56.4256 43.099 57.1875 43.8494 57.1875 44.9729V54.3423Z" fill="#002244"/>
</g>
</svg>
