<svg width="61" height="60" viewBox="0 0 61 60" fill="none" xmlns="http://www.w3.org/2000/svg">
<mask id="mask0_73_1800" style="mask-type:luminance" maskUnits="userSpaceOnUse" x="0" y="0" width="61" height="60">
<path d="M0 0H60.9544V59.9639H0V0Z" fill="white"/>
</mask>
<g mask="url(#mask0_73_1800)">
<path fill-rule="evenodd" clip-rule="evenodd" d="M36.1579 41.2834C32.5536 39.9505 32.204 35.0955 35.5134 33.2425C36.2628 35.2539 37.2265 39.2542 36.1579 41.2834ZM37.7084 51.8916C38.0505 51.5569 38.6038 51.5569 38.9458 51.8916C39.2878 52.2278 39.2878 52.7732 38.9458 53.1095L36.9438 55.0775C40.4903 55.2344 43.9334 54.3662 46.8961 52.6836C50.3666 50.7141 53.1804 47.6343 54.74 43.7864C54.9164 43.3456 55.4241 43.1304 55.871 43.3053C56.3194 43.4801 56.5383 43.9777 56.3605 44.4185C54.6503 48.64 51.569 52.0141 47.7717 54.1689C44.6494 55.9427 41.0421 56.8916 37.3193 56.8094L38.9458 58.4083C39.2878 58.7445 39.2878 59.2899 38.9458 59.6262C38.6038 59.9609 38.0505 59.9609 37.7084 59.6262L34.393 56.3671C34.0525 56.0308 34.0525 55.4869 34.393 55.1507L37.7084 51.8916ZM24.3753 22.4431C25.4607 21.4643 26.464 20.7725 27.7333 20.0522C30.8572 18.28 34.4629 17.3311 38.1857 17.4118L36.5592 15.8128C36.2172 15.4766 36.2172 14.9327 36.5592 14.5965C36.9012 14.2603 37.4561 14.2603 37.7966 14.5965L41.112 17.8541C41.454 18.1903 41.454 18.7357 41.112 19.0719L37.7966 22.3296C37.4561 22.6658 36.9012 22.6658 36.5592 22.3296C36.2172 21.9933 36.2172 21.4494 36.5592 21.1132L38.5612 19.1437C35.0163 18.9868 31.5732 19.8565 28.6089 21.5391C27.7637 22.0187 26.1873 23.1798 26.1888 23.1798C25.6005 22.9034 24.9955 22.6583 24.3753 22.4431ZM20.3348 46.8483C20.9915 46.8214 21.6467 46.7825 22.2927 46.7302C22.2486 46.6436 21.975 46.2087 21.9112 46.0996C20.1995 43.1857 19.3163 39.8011 19.4759 36.3163L21.4779 38.2844C21.82 38.6206 22.3748 38.6206 22.7169 38.2844C23.0574 37.9481 23.0574 37.4027 22.7169 37.0665L19.4014 33.8089C19.0594 33.4727 18.5061 33.4727 18.164 33.8089L14.8486 37.0665C14.5066 37.4027 14.5066 37.9481 14.8486 38.2844C15.1907 38.6206 15.7455 38.6206 16.0875 38.2844L17.7141 36.6854C17.632 40.3002 18.573 43.8029 20.3348 46.8483ZM22.3079 46.7437C23.8129 46.6286 25.0883 46.4418 26.4792 46.1863C26.1858 45.9816 25.9319 45.7126 25.7419 45.3883C25.3132 44.6576 24.8846 43.9284 24.4559 43.1977C23.7399 41.9798 24.1671 40.4152 25.406 39.7129C26.2481 39.2347 26.0809 37.987 25.1415 37.7404C23.7627 37.3773 22.9373 35.9697 23.3067 34.6143C23.5286 33.7999 23.749 32.987 23.971 32.1726C24.3404 30.8173 25.7723 30.0044 27.1511 30.3675C28.0951 30.617 28.8719 29.6218 28.3824 28.7895C27.6679 27.5716 28.0936 26.0071 29.3325 25.3047L29.5195 25.1986C28.4903 24.4141 27.3745 23.7357 26.1873 23.1798C23.8372 25.0612 21.9431 27.5298 20.7665 30.4362C20.5887 30.8755 20.0809 31.0907 19.634 30.9174C19.1856 30.7425 18.9667 30.2434 19.1445 29.8041C20.315 26.9141 22.1301 24.4201 24.3753 22.4431C22.4782 21.7901 20.4382 21.433 18.313 21.433C8.20108 21.433 0.00146484 29.4933 0.00146484 39.4335C0.00146484 44.9565 10.2882 47.4609 20.3348 46.8468C22.5268 50.5796 26.0247 53.7221 30.319 55.4032C30.7675 55.5766 31.2737 55.3614 31.4515 54.9221C31.6294 54.4812 31.4105 53.9836 30.9621 53.8088C25.374 51.6226 22.4858 47.0351 22.3079 46.7437ZM52.7897 37.1547C52.4477 36.8184 52.4477 36.273 52.7897 35.9383C53.1317 35.6021 53.6851 35.6021 54.0271 35.9383L56.0291 37.9063C56.1902 34.4201 55.3055 31.0354 53.5938 28.1215C51.5903 24.7115 48.4573 21.9455 44.543 20.4123C44.096 20.2375 43.8771 19.7399 44.0535 19.2991C44.2313 18.8598 44.7391 18.6446 45.186 18.8194C49.4804 20.5005 52.9143 23.5295 55.1064 27.2608C56.9093 30.3316 57.8745 33.8761 57.7909 37.5372L59.419 35.9383C59.7595 35.6021 60.3144 35.6021 60.6564 35.9383C60.9984 36.273 60.9984 36.8184 60.6564 37.1547L57.3425 40.4123C57.0005 40.7485 56.4456 40.7485 56.1036 40.4123L52.7897 37.1547ZM48.8085 42.192C49.2584 42.31 49.7221 42.047 49.8421 41.6047L50.508 39.1615C50.6296 38.7192 50.362 38.2634 49.9106 38.1454C47.4647 37.5013 47.0314 34.2646 49.225 33.0199C49.6278 32.7898 49.7677 32.2817 49.5336 31.8842L48.2475 29.695C48.0149 29.2975 47.4981 29.1616 47.0937 29.3917C44.9002 30.6364 42.2658 28.649 42.921 26.2447C43.0426 25.8008 42.7735 25.3451 42.3236 25.227L39.8397 24.5725C39.3882 24.4545 38.9261 24.716 38.8044 25.1598C38.1493 27.5641 34.8567 27.99 33.5904 25.8352C33.3563 25.4377 32.841 25.3017 32.4366 25.5304L30.2081 26.7946C29.8052 27.0247 29.6654 27.5328 29.8995 27.9288C31.1658 30.085 29.144 32.6747 26.6981 32.0306C26.2466 31.9126 25.7845 32.1756 25.6629 32.6179L24.9971 35.0611C24.877 35.5034 25.1445 35.9592 25.5945 36.0773C28.0419 36.7213 28.4751 39.958 26.2816 41.2028C25.8772 41.4329 25.7389 41.9409 25.9715 42.3384L27.2575 44.5276C27.4916 44.9251 28.0084 45.0611 28.4128 44.831C30.6079 43.5847 33.2407 45.5706 32.584 47.978C32.464 48.4218 32.7315 48.8776 33.1815 48.9956L35.6669 49.6501C36.1168 49.7682 36.5805 49.5067 36.7006 49.0629C37.3573 46.6585 40.6499 46.2326 41.9162 48.3874C42.1487 48.7849 42.6656 48.9209 43.0699 48.6923L45.2969 47.4281C45.7013 47.1979 45.8396 46.6899 45.6071 46.2939C44.3408 44.1376 46.361 41.5479 48.8085 42.192ZM39.3791 31.143C36.0272 30.2599 32.581 32.2159 31.6826 35.5124C30.7842 38.8074 32.7741 42.195 36.126 43.0781C39.4794 43.9613 42.9255 42.0067 43.8239 38.7102C44.7223 35.4138 42.7325 32.0262 39.3791 31.143ZM6.6703 3.42198H8.09923V9.28418H6.6703C6.06681 9.28418 5.57124 8.79703 5.57124 8.20379V4.50237C5.57124 3.90763 6.06681 3.42198 6.6703 3.42198ZM12.0592 0C10.8431 0 9.85042 0.975788 9.85042 2.17124V14.468C9.85042 15.6634 10.8431 16.6392 12.0592 16.6392H24.5684C25.7845 16.6392 26.7771 15.6634 26.7771 14.468V2.17124C26.7771 0.975788 25.7845 0 24.5684 0H12.0592ZM22.4326 4.66376C23.3827 4.66376 24.1519 5.41988 24.1519 6.35383C24.1519 7.28628 23.3827 8.0424 22.4326 8.0424C21.484 8.0424 20.7148 7.28628 20.7148 6.35383C20.7148 5.41988 21.484 4.66376 22.4326 4.66376ZM20.5111 11.1147C20.9945 11.1147 21.3867 11.5002 21.3867 11.9754C21.3867 12.4506 20.9945 12.8362 20.5111 12.8362H16.1164C15.633 12.8362 15.2408 12.4506 15.2408 11.9754C15.2408 11.5002 15.633 11.1147 16.1164 11.1147H20.5111ZM14.1934 4.66376C15.1435 4.66376 15.9127 5.41988 15.9127 6.35383C15.9127 7.28628 15.1435 8.0424 14.1934 8.0424C13.2449 8.0424 12.4757 7.28628 12.4757 6.35383C12.4757 5.41988 13.2449 4.66376 14.1934 4.66376ZM28.5283 3.42198H29.9573C30.5608 3.42198 31.0548 3.90913 31.0548 4.50237V8.20379C31.0548 8.79703 30.5608 9.28418 29.9573 9.28418H28.5283V3.42198Z" fill="#002244"/>
</g>
</svg>
