<svg width="44" height="42" viewBox="0 0 44 42" fill="none" xmlns="http://www.w3.org/2000/svg">
<g id="Group 1021">
<path id="Vector 2 (Stroke)" fill-rule="evenodd" clip-rule="evenodd" d="M0 11H23.8525C24.5315 11 25.082 11.5688 25.082 12.2705C25.082 12.9722 24.5315 13.541 23.8525 13.541H2.45902V39.459H27.541V19.3852C27.541 18.6836 28.0915 18.1148 28.7705 18.1148C29.4495 18.1148 30 18.6836 30 19.3852V42H0V11Z" fill="black"/>
<path id="Arrow 2 (Stroke)" fill-rule="evenodd" clip-rule="evenodd" d="M24.918 5.77066L36.1413 6.48555C36.83 6.52942 37.3528 7.1233 37.3089 7.81202L36.594 19.0354C36.5501 19.7241 35.9563 20.2468 35.2675 20.203C34.5788 20.1591 34.0561 19.5652 34.0999 18.8765L34.6231 10.6638L14.571 28.3143C14.0529 28.7703 13.2634 28.72 12.8074 28.202C12.3514 27.684 12.4017 26.8944 12.9197 26.4384L32.9718 8.78786L24.7591 8.26474C24.0704 8.22087 23.5476 7.62699 23.5915 6.93827C23.6353 6.24955 24.2292 5.72679 24.918 5.77066Z" fill="black"/>
</g>
</svg>
