<svg width="54" height="59" viewBox="0 0 54 59" fill="none" xmlns="http://www.w3.org/2000/svg">
<path d="M52.083 50.8335L43.4816 42.1327C43.6322 41.6931 43.7441 41.248 43.8301 40.795C44.3844 37.8387 43.5363 34.6767 41.2977 32.3601C41.2563 32.3135 41.217 32.2715 41.1704 32.2275L41.1624 32.2169C38.8485 29.9189 35.658 29.0288 32.6728 29.5625C32.4516 29.5992 32.2356 29.6485 32.017 29.7004L37.0662 34.7414C37.9664 35.6394 37.9664 37.0972 37.0662 37.9974L33.3183 41.737C32.4178 42.6352 30.9577 42.6352 30.0547 41.737L25.3909 37.0813L25.0108 36.7015C24.951 36.9406 24.9042 37.1778 24.8599 37.4224C24.3577 40.3812 25.2425 43.5306 27.5328 45.8205L27.5406 45.8312C27.6135 45.9012 27.6889 45.9771 27.767 46.0391C30.0573 48.1917 33.1361 49.0086 36.0353 48.5016C36.5139 48.4156 36.9956 48.2956 37.4613 48.1344C37.4613 48.1344 37.4613 48.1344 37.464 48.1344L45.9515 56.7232C47.5411 58.3575 50.1229 58.4821 51.8745 57.0223C51.9345 56.9676 51.9944 56.9051 52.057 56.8451C53.7274 55.1928 53.7407 52.5018 52.083 50.8335Z" fill="#1D92FB"/>
<path d="M20.6932 8.93184C20.6932 5.80913 23.2359 3.27132 26.3642 3.27132C29.4898 3.27132 32.0351 5.80913 32.0351 8.93184C32.0351 9.18173 32.017 9.42353 31.9857 9.6661C30.2394 8.9945 28.3448 8.62735 26.3642 8.62735C24.381 8.62735 22.4838 8.9945 20.74 9.6661C20.7114 9.42353 20.6932 9.18173 20.6932 8.93184ZM22.5306 41.9662C22.1116 40.2953 22.0751 38.6089 22.3588 36.9979C23.2775 31.8058 27.5327 27.4125 33.1256 26.9129C34.2864 26.8115 35.4575 26.8715 36.5998 27.0901C38.2995 27.4178 39.9391 28.0741 41.3576 29.0681C41.3969 28.9069 41.4408 28.7477 41.4775 28.5892H50.2374C51.1249 28.5892 51.9211 27.9255 51.9684 27.0407C52.0177 26.0987 51.2655 25.3151 50.3314 25.3151H41.9559C41.9825 24.948 41.9925 24.5836 41.9925 24.2271C41.9925 22.9439 41.8366 21.7 41.5448 20.5081C44.6002 19.8338 47.1587 17.6218 48.21 14.5844L50.8151 7.071C51.0756 6.32411 50.8078 5.46265 50.1202 5.06691C49.1968 4.53587 48.0695 4.98896 47.739 5.94434L45.1133 13.5124C44.3897 15.5998 42.5602 17.0808 40.4155 17.39C39.1922 14.8869 37.316 12.7602 35.0099 11.2298C35.3248 10.0538 35.4081 8.77864 35.1921 7.46409C34.5493 3.52918 31.2622 0.445072 27.2881 0.0466431C21.9398 -0.491679 17.4139 3.70109 17.4139 8.93184C17.4139 9.72805 17.5181 10.4962 17.7132 11.2298C15.4074 12.7602 13.5335 14.8869 12.3103 17.39C10.1658 17.0808 8.33357 15.5998 7.61267 13.5124L4.99968 5.98303C4.74464 5.24679 4.01068 4.74976 3.23776 4.85367C2.16809 4.99693 1.55647 6.05362 1.88959 7.01372L4.51297 14.5844C5.56707 17.6218 8.12536 19.8338 11.1808 20.5081C10.8893 21.7 10.7332 22.9439 10.7332 24.2271C10.7332 24.5836 10.7436 24.948 10.7695 25.3151H2.48562C1.67619 25.3151 0.91885 25.8615 0.780935 26.6583C0.601309 27.691 1.3925 28.5892 2.39449 28.5892H11.2484C11.5894 30.1141 12.0917 31.6733 12.7293 33.1929C9.00762 33.3622 5.74142 35.7827 4.51297 39.3219L1.90785 46.8359C1.64754 47.5828 1.91824 48.4416 2.60528 48.8373C3.52926 49.3703 4.65616 48.9153 4.98929 47.9625L7.61267 40.3919C8.42984 38.0366 10.6525 36.4542 13.1509 36.4542H14.3533C16.6071 40.3346 19.7562 43.5693 23.3478 44.7745C23.4155 44.7952 23.4701 44.7172 23.4311 44.6599C23.012 44.0457 22.6321 42.3674 22.5306 41.9662Z" fill="#1D92FB"/>
</svg>
