<svg width="55" height="54" viewBox="0 0 55 54" fill="none" xmlns="http://www.w3.org/2000/svg">
<mask id="mask0_73_1755" style="mask-type:luminance" maskUnits="userSpaceOnUse" x="0" y="6" width="55" height="42">
<path d="M0.0664062 6.854H54.7288V47.2605H0.0664062V6.854Z" fill="white"/>
</mask>
<g mask="url(#mask0_73_1755)">
<path d="M52.3825 44.9206H2.41294V9.19615H31.5562C32.1823 9.19615 32.691 8.69611 32.691 8.08067C32.691 7.46391 32.1823 6.96387 31.5562 6.96387H1.27819C0.650771 6.96387 0.14209 7.46391 0.14209 8.08067V46.0361C0.14209 46.6528 0.650771 47.1529 1.27819 47.1529H53.5172C54.1446 47.1529 54.6533 46.6528 54.6533 46.0361V8.08067C54.6533 7.46391 54.1446 6.96387 53.5172 6.96387C52.8911 6.96387 52.3825 7.46391 52.3825 8.08067V44.9206Z" fill="#002244"/>
</g>
<mask id="mask1_73_1755" style="mask-type:luminance" maskUnits="userSpaceOnUse" x="0" y="40" width="55" height="3">
<path d="M0.0664062 40.1299H54.7288V42.8463H0.0664062V40.1299Z" fill="white"/>
</mask>
<g mask="url(#mask1_73_1755)">
<path d="M1.27819 42.6874H53.5172C54.1446 42.6874 54.6533 42.1873 54.6533 41.5719C54.6533 40.9551 54.1446 40.4551 53.5172 40.4551H1.27819C0.650771 40.4551 0.14209 40.9551 0.14209 41.5719C0.14209 42.1873 0.650771 42.6874 1.27819 42.6874Z" fill="#002244"/>
</g>
<mask id="mask2_73_1755" style="mask-type:luminance" maskUnits="userSpaceOnUse" x="15" y="51" width="25" height="3">
<path d="M15.9556 51.3354H39.0986V54.0001H15.9556V51.3354Z" fill="white"/>
</mask>
<g mask="url(#mask2_73_1755)">
<path d="M17.1766 53.8514H37.6183C38.2458 53.8514 38.7544 53.3514 38.7544 52.7346C38.7544 52.1192 38.2458 51.6191 37.6183 51.6191H17.1766C16.5492 51.6191 16.0405 52.1192 16.0405 52.7346C16.0405 53.3514 16.5492 53.8514 17.1766 53.8514Z" fill="#002244"/>
</g>
<mask id="mask3_73_1755" style="mask-type:luminance" maskUnits="userSpaceOnUse" x="18" y="44" width="5" height="10">
<path d="M18.0283 44.8838H22.8642V53.9999H18.0283V44.8838Z" fill="white"/>
</mask>
<g mask="url(#mask3_73_1755)">
<path d="M20.5247 53.09L22.7969 46.3919C22.9979 45.8043 22.6714 45.1703 22.0804 44.978C21.4827 44.7803 20.8391 45.1 20.6434 45.6823L18.3726 52.3804C18.1702 52.968 18.4967 53.6007 19.0877 53.793C19.6854 53.9907 20.3304 53.671 20.5247 53.09Z" fill="#002244"/>
</g>
<mask id="mask4_73_1755" style="mask-type:luminance" maskUnits="userSpaceOnUse" x="31" y="44" width="6" height="10">
<path d="M31.8447 44.8838H36.6806V53.9999H31.8447V44.8838Z" fill="white"/>
</mask>
<g mask="url(#mask4_73_1755)">
<path d="M34.2706 53.09L31.9984 46.3919C31.7973 45.8043 32.1239 45.1703 32.7149 44.978C33.3126 44.7803 33.9562 45.1 34.1519 45.6823L36.4227 52.3804C36.6251 52.968 36.2986 53.6007 35.7076 53.793C35.1098 53.9907 34.4649 53.671 34.2706 53.09Z" fill="#002244"/>
</g>
<path d="M48.7032 10.2841L25.4644 30.3441C25.2445 30.5298 24.2096 29.0934 23.056 27.9779C21.8025 26.7616 20.4424 25.8437 20.6488 25.6103L41.0555 2.76625C43.1604 0.434491 46.7036 0.329708 48.9394 2.53413C51.1873 4.73723 51.0753 8.21497 48.7032 10.2841ZM47.3364 4.10986C46.0181 2.8193 43.9956 2.87634 42.7583 4.24382L23.056 26.2974L24.7655 27.9779L47.1947 8.61554C48.5912 7.39395 48.656 5.40572 47.3364 4.10986Z" fill="#002244"/>
<path d="M10.9011 35.7741C10.221 35.2329 10.3924 34.1692 11.2087 33.8615C12.67 33.315 13.4323 32.2977 14.4618 29.9593C15.3848 27.8663 15.6384 27.3782 16.3603 26.6632C18.5785 24.4827 22.1744 24.4827 24.3926 26.6632C26.6108 28.8438 26.6108 32.3786 24.3926 34.5591C21.4053 37.4891 14.7924 38.8446 10.9011 35.7741ZM22.7843 32.9781C24.1147 31.669 24.1147 29.5534 22.7843 28.2443C21.4525 26.9365 19.3004 26.9365 17.9686 28.2443C17.5436 28.6634 17.3183 29.0878 16.5492 30.844C15.7153 32.7393 14.9651 34.0007 13.9059 34.8788C16.8514 35.8961 20.9087 34.827 22.7843 32.9781Z" fill="#002244"/>
<path d="M25.3749 22.4711L28.651 25.6756C29.0949 26.1107 29.8113 26.1107 30.2539 25.6756C30.6978 25.2392 30.6978 24.5296 30.2539 24.0932L26.9778 20.8901C26.5339 20.4537 25.8121 20.4603 25.3681 20.8954C24.9256 21.3317 24.931 22.0347 25.3749 22.4711Z" fill="#002244"/>
</svg>
