<svg width="55" height="55" viewBox="0 0 55 55" fill="none" xmlns="http://www.w3.org/2000/svg">
<mask id="mask0_73_1784" style="mask-type:luminance" maskUnits="userSpaceOnUse" x="0" y="37" width="55" height="9">
<path d="M0 37.0581H55.0001V45.5846H0V37.0581Z" fill="white"/>
</mask>
<g mask="url(#mask0_73_1784)">
<path d="M0 39.7635C0 42.9731 2.65667 45.5846 5.92323 45.5846H49.0769C52.3434 45.5846 55.0001 42.9731 55.0001 39.7635V37.1035H0V39.7635ZM48.5301 40.2843C49.1231 40.2843 49.6082 40.7597 49.6082 41.3441C49.6082 41.9284 49.1231 42.4053 48.5301 42.4053C47.9356 42.4053 47.4505 41.9284 47.4505 41.3441C47.4505 40.7597 47.9356 40.2843 48.5301 40.2843ZM43.1367 40.2843H44.2163C44.8108 40.2843 45.2944 40.7597 45.2944 41.3441C45.2944 41.93 44.8108 42.4053 44.2163 42.4053H43.1367C42.5422 42.4053 42.0586 41.93 42.0586 41.3441C42.0586 40.7597 42.5422 40.2843 43.1367 40.2843ZM37.7448 40.2843H38.8229C39.4189 40.2843 39.9025 40.7597 39.9025 41.3441C39.9025 41.93 39.4189 42.4053 38.8229 42.4053H37.7448C37.1503 42.4053 36.6667 41.93 36.6667 41.3441C36.6667 40.7597 37.1503 40.2843 37.7448 40.2843Z" fill="#002244"/>
</g>
<mask id="mask1_73_1784" style="mask-type:luminance" maskUnits="userSpaceOnUse" x="0" y="0" width="55" height="36">
<path d="M0 0H55.0001V35.1204H0V0Z" fill="white"/>
</mask>
<g mask="url(#mask1_73_1784)">
<path d="M49.0769 0H5.92323C2.65667 0 0 2.61155 0 5.82262V34.9842H55.0001V5.82262C55.0001 2.61155 52.3434 0 49.0769 0ZM11.5461 21.5131C11.9681 21.9264 11.9681 22.5986 11.5461 23.0119C11.1257 23.4267 10.4434 23.4267 10.0214 23.0119L5.70762 18.7714C5.28717 18.3581 5.28717 17.6874 5.70762 17.2726L10.0214 13.032C10.4434 12.6187 11.1257 12.6187 11.5461 13.032C11.9681 13.4468 11.9681 14.1175 11.5461 14.5308L7.99621 18.022L11.5461 21.5131ZM18.301 14.0388L16.1449 22.5199C16.0001 23.0861 15.4164 23.4328 14.8358 23.2905C14.2583 23.1497 13.9071 22.5729 14.0519 22.0051L16.208 13.524C16.3528 12.9563 16.938 12.6111 17.5171 12.7534C18.0946 12.8958 18.4458 13.4711 18.301 14.0388ZM20.8068 23.0119C20.3848 22.5986 20.3848 21.9264 20.8068 21.5131L24.3567 18.022L20.8052 14.5308C20.3848 14.1175 20.3848 13.4468 20.8052 13.032C21.2272 12.6187 21.9095 12.6187 22.3315 13.032L26.6453 17.2726C27.0657 17.6859 27.0657 18.3581 26.6453 18.7714L22.3315 23.0119C21.9095 23.4267 21.2272 23.4267 20.8068 23.0119ZM48.5301 31.8034H26.961C26.365 31.8034 25.8829 31.3295 25.8829 30.7436C25.8829 30.1577 26.365 29.6839 26.961 29.6839H28.0391V26.5031C28.0391 25.9172 28.5227 25.4433 29.1172 25.4433C29.7132 25.4433 30.1968 25.9172 30.1968 26.5031V29.6839H32.3529V23.3223C32.3529 22.7379 32.8365 22.2625 33.431 22.2625C34.027 22.2625 34.5106 22.7379 34.5106 23.3223V29.6839H36.6667V25.4433C36.6667 24.8574 37.1503 24.3835 37.7448 24.3835C38.3408 24.3835 38.8229 24.8574 38.8229 25.4433V29.6839H40.9806V19.0817C40.9806 18.4973 41.4641 18.022 42.0586 18.022C42.6546 18.022 43.1367 18.4973 43.1367 19.0817V29.6839H45.2944V21.2028C45.2944 20.6169 45.7764 20.143 46.3724 20.143C46.9685 20.143 47.4505 20.6169 47.4505 21.2028V29.6839H48.5301C49.1246 29.6839 49.6082 30.1577 49.6082 30.7436C49.6082 31.3295 49.1246 31.8034 48.5301 31.8034ZM28.0391 10.6006C28.0391 10.0162 28.5227 9.54086 29.1172 9.54086H42.0586C42.6546 9.54086 43.1367 10.0162 43.1367 10.6006C43.1367 11.1865 42.6546 11.6619 42.0586 11.6619H29.1172C28.5227 11.6619 28.0391 11.1865 28.0391 10.6006ZM48.5301 7.42134H29.1172C28.5227 7.42134 28.0391 6.94596 28.0391 6.36158C28.0391 5.77569 28.5227 5.30031 29.1172 5.30031H48.5301C49.1246 5.30031 49.6082 5.77569 49.6082 6.36158C49.6082 6.94596 49.1246 7.42134 48.5301 7.42134Z" fill="#002244"/>
</g>
<mask id="mask2_73_1784" style="mask-type:luminance" maskUnits="userSpaceOnUse" x="16" y="47" width="23" height="8">
<path d="M16.5596 47.5225H38.6385V54.0657H16.5596V47.5225Z" fill="white"/>
</mask>
<g mask="url(#mask2_73_1784)">
<path d="M33.9706 49.8251H32.8925V48.7653C32.8925 48.1794 32.4104 47.7056 31.8144 47.7056H23.1868C22.5907 47.7056 22.1087 48.1794 22.1087 48.7653V49.8251H21.0306C18.6481 49.8251 16.7168 51.7236 16.7168 54.0656H38.2844C38.2844 51.7236 36.3531 49.8251 33.9706 49.8251Z" fill="#002244"/>
</g>
</svg>
