<svg xmlns="http://www.w3.org/2000/svg" width="301" height="62" fill="none" xmlns:v="https://vecta.io/nano"><path d="M300.406 61.286H103.52V36.607h196.886v24.679zm-196.767 0v-2.488l-7.232 1.224 7.232 1.264zm0-2.488v-2.488l-10.292 1.224 10.292 1.264zm0-2.488v-2.488l-13.351 1.224 13.351 1.264zm0-2.488v-2.488L87.228 52.56l16.411 1.264zm0-2.488v-2.488l-19.47 1.224 19.471 1.264zm0-2.488V46.36l-22.53 1.224 22.53 1.264zm0-2.488v-2.488l-25.59 1.224 25.59 1.264zm0-2.448v-2.488L74.99 42.649l28.649 1.264zm0-2.488v-2.488L71.93 40.161l31.709 1.264zm0-2.488v-2.488l-34.768 1.224 34.768 1.264z" fill="#f7e022"/><path d="M300.407 2.924H73.067v35.668h227.34V2.924z" fill="#1e1e1e"/><path d="M93.763 13.46v2.389l-3.826.229v-2.16c0-2.094-.785-3.01-2.223-3.01s-2.223.949-2.223 2.65v14.398c0 1.734.785 2.651 2.223 2.651s2.223-.949 2.223-3.011v-2.945l3.826.229v3.174c0 3.96-2.289 6.348-6.18 6.348s-6.114-2.291-6.114-6.348V13.525c0-3.96 2.223-6.348 6.114-6.348 3.891-.033 6.18 2.323 6.18 6.283zm15.923.361v13.842c0 4.188-2.452 6.708-6.408 6.708s-6.409-2.52-6.409-6.708V13.821c0-4.188 2.452-6.708 6.409-6.708s6.408 2.552 6.408 6.708zm-8.861 0v13.777c0 1.931.851 3.011 2.453 3.011s2.452-1.08 2.452-3.011V13.821c0-1.931-.85-3.01-2.452-3.01s-2.453 1.08-2.453 3.01zm18.507-6.316c4.316 0 6.637 2.291 6.637 6.708v13.024c0 4.32-2.288 6.708-6.637 6.708h-5.754V7.57h5.754v-.065zm-1.733 22.677h1.569c1.93 0 2.812-1.014 2.812-3.24V14.409c0-2.225-.85-3.239-2.812-3.239h-1.569v19.012zm16.184-18.947v7.494h5.821v3.665h-5.821v7.854h7.194v3.665h-11.149V7.57h11.247v3.665h-7.292zm19.357 22.71l-.85-5.988h-4.382l-.85 5.988h-3.957l4.512-26.375h5.101l4.545 26.375h-4.119zm-4.742-9.686h3.368l-1.668-11.093h-.131l-1.569 11.093zm23.673 3.763c0 4.189-2.388 6.283-6.18 6.283-3.728 0-6.114-2.16-6.114-6.283V7.57h3.826v20.386c0 1.931.85 2.651 2.223 2.651s2.223-.72 2.223-2.651V7.57h3.957v20.452h.065zm10.527-16.721v22.612h-3.955V11.301h-4.251V7.57h12.522v3.73h-4.316zm19.162 2.52v13.842c0 4.188-2.452 6.708-6.408 6.708s-6.409-2.52-6.409-6.708V13.821c0-4.188 2.452-6.708 6.409-6.708 3.956.033 6.408 2.552 6.408 6.708zm-8.861 0v13.777c0 1.931.85 3.011 2.453 3.011s2.452-1.08 2.452-3.011V13.821c0-1.931-.85-3.01-2.452-3.01s-2.453 1.08-2.453 3.01zm25.635 20.124V15.62h-.066l-3.302 14.562h-2.388l-3.302-14.562h-.065v18.292h-3.727V7.57h5.263l3.107 14.202h.066l3.105-14.202h5.396v26.375h-4.087zm17.034 0l-.85-5.988h-4.382l-.85 5.988h-3.957l4.545-26.375h5.101l4.545 26.375h-4.152zm-4.742-9.686h3.368l-1.667-11.093h-.131l-1.57 11.093zm16.84-12.958v22.612h-3.957V11.301h-4.251V7.57h12.524v3.73h-4.316zm6.769 22.644V7.57h3.955v26.375h-3.955zm20.728-20.124v13.842c0 4.188-2.453 6.708-6.409 6.708s-6.408-2.52-6.408-6.708V13.821c0-4.188 2.452-6.708 6.408-6.708s6.409 2.552 6.409 6.708zm-8.861 0v13.777c0 1.931.85 3.011 2.452 3.011s2.452-1.08 2.452-3.011V13.821c0-1.931-.85-3.01-2.452-3.01s-2.452 1.08-2.452 3.01zm21.809 20.124l-5.264-17.507h-.065v17.507h-3.728V7.57h4.447l4.675 15.707h.065V7.57h3.728v26.375h-3.858z" fill="#fff"/><path d="M114.281 47.266c.013-.351-.088-.622-.307-.812s-.543-.286-.981-.286c-.298 0-.556.042-.775.126s-.394.195-.526.341-.209.309-.24.497c-.031.154-.021.289.029.404a.8.8 0 0 0 .248.299c.116.081.252.153.409.215a4.18 4.18 0 0 0 .501.152l.741.185a4.64 4.64 0 0 1 .977.337c.292.14.536.313.732.518a1.71 1.71 0 0 1 .421.724c.082.278.093.596.034.956-.09.528-.299.985-.628 1.372s-.758.683-1.292.897-1.151.316-1.852.316-1.284-.107-1.764-.32-.829-.529-1.048-.947-.281-.941-.194-1.562h1.765c-.032.289.011.53.125.724s.293.335.527.434.506.143.821.143.587-.045.828-.135.443-.215.594-.375.244-.344.278-.551c.034-.194.005-.356-.088-.488s-.242-.244-.446-.337-.454-.18-.754-.253l-.901-.236c-.695-.177-1.222-.453-1.578-.829s-.485-.883-.383-1.52c.089-.522.307-.978.652-1.368s.786-.697 1.313-.913 1.11-.328 1.739-.328c.64 0 1.18.111 1.62.333s.762.525.964.918.264.85.185 1.372h-1.746zm4.976 6.243c-.659 0-1.205-.14-1.637-.421s-.737-.676-.913-1.179-.207-1.093-.097-1.764c.106-.662.328-1.242.665-1.738a3.52 3.52 0 0 1 1.283-1.158c.52-.278 1.105-.417 1.756-.417.657 0 1.201.142 1.634.425s.736.673.913 1.179.21 1.093.1 1.764c-.109.659-.333 1.238-.672 1.734s-.768.884-1.284 1.162-1.1.413-1.748.413zm.178-1.389a1.32 1.32 0 0 0 .803-.257c.236-.174.432-.41.585-.707s.267-.64.329-1.019c.062-.373.065-.704.012-.993s-.165-.522-.336-.69-.4-.253-.695-.253c-.303 0-.572.087-.808.261s-.431.407-.585.707-.263.641-.325 1.023c-.059.37-.063.702-.012.993s.161.518.333.686.404.248.699.248zm8.722-5.203l-.224 1.347h-3.991l.224-1.347h3.991zm-4.159 6.466l1.157-6.933c.076-.469.23-.857.463-1.166s.526-.54.871-.694.724-.232 1.128-.232c.276 0 .524.021.745.063l.489.114-.535 1.347c-.067-.023-.15-.044-.248-.063a1.59 1.59 0 0 0-.312-.029c-.261 0-.453.062-.576.185s-.202.29-.245.509l-1.149 6.899h-1.788zm8.689-6.466l-.223 1.347h-3.898l.228-1.347h3.893zm-2.758-1.549h1.794l-1.002 6.028c-.029.166-.024.295.012.387s.097.153.182.189.191.055.311.055a1.62 1.62 0 0 0 .257-.021l.197-.038.068 1.334a4.97 4.97 0 0 1-.409.101c-.168.037-.367.059-.597.067-.438.017-.808-.041-1.111-.173s-.521-.341-.652-.619-.161-.627-.085-1.048l1.035-6.264zm4.124 8.015l-.682-6.466h1.815l.277 4.344h.059l1.768-4.344h1.78l.337 4.319h.055l1.709-4.319h1.81l-2.832 6.466h-1.899l-.438-4.066h-.081l-1.784 4.066h-1.894zm10.634.122c-.41 0-.764-.072-1.065-.215s-.517-.362-.657-.648-.175-.641-.105-1.065c.062-.359.179-.66.349-.901s.386-.441.636-.589a3.17 3.17 0 0 1 .83-.341c.305-.079.622-.132.947-.16l.918-.114c.238-.036.416-.088.534-.156a.44.44 0 0 0 .215-.311v-.025c.042-.264-.008-.469-.148-.615s-.358-.223-.66-.223c-.321 0-.593.07-.818.21s-.38.318-.475.535l-1.633-.135a2.72 2.72 0 0 1 .661-1.019c.297-.289.655-.511 1.073-.665s.887-.236 1.406-.236c.359 0 .695.042 1.006.126s.585.215.813.392.395.404.497.682.124.605.062.989l-.728 4.361h-1.7l.151-.897h-.05c-.138.202-.306.38-.506.535a2.36 2.36 0 0 1-.686.358 2.78 2.78 0 0 1-.867.126zm.72-1.238a1.65 1.65 0 0 0 .719-.156 1.54 1.54 0 0 0 .548-.429 1.31 1.31 0 0 0 .278-.61l.109-.686c-.056.036-.138.069-.244.097l-.341.08-.367.063-.332.05a2.61 2.61 0 0 0-.581.147c-.17.067-.309.158-.416.273s-.173.253-.198.421c-.04.244.018.431.173.56s.374.19.652.19zm4.33 1.115l1.077-6.466h1.738l-.189 1.128h.067c.186-.401.434-.704.746-.909s.652-.312 1.014-.312c.09 0 .184.006.283.017s.19.023.268.042l-.268 1.595c-.079-.028-.192-.05-.338-.067s-.279-.029-.407-.029a1.58 1.58 0 0 0-.73.173c-.223.112-.413.269-.568.471a1.65 1.65 0 0 0-.299.699l-.601 3.658h-1.793zm7.479.126c-.663 0-1.211-.135-1.646-.404a2.18 2.18 0 0 1-.918-1.153c-.174-.499-.203-1.09-.088-1.772.112-.665.338-1.249.677-1.751s.773-.894 1.289-1.174 1.091-.421 1.726-.421c.427 0 .812.069 1.157.206s.637.34.867.614.387.613.472 1.023.086.89-.005 1.44l-.08.492h-5.455l.173-1.111h3.772c.041-.258.025-.487-.051-.686a.93.93 0 0 0-.379-.467 1.17 1.17 0 0 0-.653-.173c-.263 0-.51.065-.741.194s-.423.299-.58.509-.254.434-.299.678l-.198 1.103c-.056.34-.045.622.033.846a.92.92 0 0 0 .421.505c.2.109.452.164.758.164a1.81 1.81 0 0 0 .56-.084c.177-.056.334-.139.472-.248s.249-.251.336-.417l1.638.109a2.82 2.82 0 0 1-.691 1.044c-.308.295-.68.525-1.115.69a4.1 4.1 0 0 1-1.452.244zm15.472-5.729h-1.818c.005-.241-.026-.455-.093-.64s-.168-.348-.304-.48a1.27 1.27 0 0 0-.484-.299c-.191-.07-.405-.105-.644-.105-.46 0-.882.115-1.266.345s-.709.564-.973 1.002-.446.961-.547 1.579c-.098.595-.092 1.093.016 1.494s.304.704.581.909.63.303 1.048.303c.259 0 .505-.032.737-.097s.445-.163.636-.286a2.12 2.12 0 0 0 .505-.459c.146-.18.259-.383.341-.61h1.831c-.114.396-.295.777-.539 1.145s-.539.696-.896.985a4.33 4.33 0 0 1-1.217.682c-.454.168-.953.253-1.494.253-.783 0-1.455-.18-2.016-.539s-.962-.877-1.208-1.553-.294-1.492-.14-2.446c.155-.923.456-1.706.905-2.349s1.001-1.135 1.646-1.469a4.48 4.48 0 0 1 2.08-.501c.514 0 .978.07 1.393.211a2.92 2.92 0 0 1 1.061.615c.295.267.516.593.665.981s.214.831.194 1.33zm3.281 5.729c-.659 0-1.206-.14-1.637-.421a2.27 2.27 0 0 1-.914-1.179c-.174-.505-.206-1.093-.096-1.764.106-.662.328-1.242.665-1.738a3.52 3.52 0 0 1 1.283-1.158c.52-.278 1.104-.417 1.756-.417s1.201.142 1.633.425.736.673.914 1.179.21 1.093.1 1.764c-.109.659-.334 1.238-.673 1.734s-.767.884-1.284 1.162-1.099.413-1.747.413zm.177-1.389c.303 0 .57-.086.804-.257s.43-.41.585-.707a3.35 3.35 0 0 0 .328-1.019c.063-.373.066-.704.013-.993s-.166-.522-.337-.69-.399-.253-.694-.253a1.32 1.32 0 0 0-.808.261c-.236.171-.431.407-.586.707s-.262.641-.324 1.023c-.059.37-.063.702-.013.993s.162.518.333.686.405.248.699.248zm6.588-2.475l-.623 3.738h-1.789l1.077-6.466h1.705l-.185 1.141h.071c.205-.379.494-.678.868-.897s.804-.328 1.284-.328c.449 0 .823.098 1.123.295a1.56 1.56 0 0 1 .64.838c.127.362.148.796.063 1.301l-.689 4.117h-1.794l.635-3.797c.065-.396.015-.704-.151-.926s-.426-.337-.787-.337c-.241 0-.463.052-.665.156s-.372.255-.51.455a1.77 1.77 0 0 0-.273.711zm11.091-.884l-1.63.101c-.007-.143-.047-.271-.117-.383s-.167-.206-.299-.274-.291-.101-.488-.101c-.294 0-.558.067-.788.202s-.36.307-.39.518c-.026.135.009.248.105.341s.287.171.576.236l1.136.236c.606.129 1.044.344 1.314.644s.369.693.29 1.179a2.04 2.04 0 0 1-.543 1.082 2.97 2.97 0 0 1-1.111.716c-.449.168-.947.253-1.494.253-.879 0-1.547-.18-2.004-.539s-.678-.846-.661-1.461l1.751-.093c.014.264.107.463.278.598s.405.199.703.202c.334.005.617-.063.851-.206s.369-.323.399-.53c.023-.146-.019-.264-.126-.354s-.295-.164-.573-.223l-1.078-.223c-.61-.126-1.05-.352-1.317-.678s-.358-.739-.273-1.242c.067-.401.234-.745.501-1.031s.615-.511 1.04-.665.907-.232 1.444-.232c.838 0 1.469.173 1.894.518s.63.815.61 1.41zm5.119 1.869l.619-3.713h1.794l-1.078 6.466h-1.722l.194-1.174h-.067c-.199.379-.49.683-.872.913s-.815.345-1.301.345c-.432 0-.797-.098-1.094-.295a1.59 1.59 0 0 1-.627-.838c-.123-.362-.145-.796-.063-1.301l.69-4.117h1.793l-.631 3.797c-.059.382-.005.683.159.905s.419.333.759.333a1.42 1.42 0 0 0 .627-.147c.205-.101.381-.25.53-.446s.245-.439.29-.728zm5.994-5.868l-1.432 8.621h-1.792l1.431-8.621h1.793zm4.523 2.155l-.224 1.347h-3.898l.227-1.347h3.895zm-2.759-1.549h1.794l-1.002 6.028c-.028.166-.024.295.012.387s.097.153.182.189.191.055.312.055c.083 0 .169-.007.256-.021l.197-.038.068 1.334c-.1.031-.237.064-.408.101a3.45 3.45 0 0 1-.598.067c-.438.017-.808-.041-1.112-.173s-.52-.341-.651-.619-.16-.627-.085-1.048l1.035-6.264zm4.675 8.137a2.45 2.45 0 0 1-1.064-.215c-.298-.146-.517-.362-.657-.648s-.175-.641-.105-1.065c.061-.359.178-.66.349-.901a2.09 2.09 0 0 1 .635-.589c.25-.149.526-.262.83-.341s.621-.132.947-.16l.918-.114c.238-.036.417-.088.534-.156s.19-.174.215-.311v-.025c.042-.264-.007-.469-.147-.615s-.358-.223-.662-.223c-.319 0-.591.07-.816.21s-.38.318-.475.535l-1.634-.135a2.72 2.72 0 0 1 .661-1.019 3.03 3.03 0 0 1 1.073-.665 3.98 3.98 0 0 1 1.407-.236c.359 0 .694.042 1.006.126s.585.215.811.392.397.404.497.682.126.605.063.989l-.728 4.361h-1.7l.151-.897h-.05a2.35 2.35 0 0 1-.505.535c-.2.152-.428.271-.686.358a2.8 2.8 0 0 1-.868.126zm.721-1.238c.261 0 .5-.052.719-.156s.404-.25.547-.429a1.3 1.3 0 0 0 .278-.61l.11-.686a.88.88 0 0 1-.244.097l-.341.08-.367.063-.332.05a2.57 2.57 0 0 0-.581.147c-.172.067-.311.158-.417.273a.76.76 0 0 0-.198.421c-.039.244.019.431.173.56s.374.19.653.19zm6.753-2.623l-.623 3.738h-1.788l1.077-6.466h1.704l-.185 1.141h.073c.204-.379.493-.678.867-.897a2.5 2.5 0 0 1 1.283-.328c.45 0 .824.098 1.125.295a1.57 1.57 0 0 1 .639.838c.126.362.147.796.063 1.301l-.69 4.117h-1.794l.636-3.797c.065-.396.014-.704-.152-.926s-.424-.337-.786-.337a1.43 1.43 0 0 0-.665.156 1.38 1.38 0 0 0-.51.455 1.77 1.77 0 0 0-.274.711zm7.854 3.864c-.665 0-1.212-.14-1.641-.421s-.726-.676-.897-1.179-.198-1.081-.089-1.734c.107-.662.33-1.243.67-1.743a3.6 3.6 0 0 1 1.292-1.174c.525-.284 1.115-.425 1.768-.425.565 0 1.041.102 1.432.307s.676.493.858.863.245.806.185 1.305h-1.688c.003-.32-.08-.58-.248-.779s-.416-.299-.741-.299a1.4 1.4 0 0 0-.774.227c-.233.149-.432.366-.594.653s-.272.633-.337 1.04c-.067.413-.068.763-.004 1.052s.188.509.37.661.413.227.691.227c.208 0 .4-.042.577-.126a1.37 1.37 0 0 0 .471-.366c.135-.163.238-.358.311-.585h1.693c-.115.497-.324.932-.628 1.305s-.677.665-1.132.876-.969.316-1.545.316zm4.764 2.298c-.23 0-.44-.018-.631-.055s-.349-.077-.472-.13l.632-1.339a1.88 1.88 0 0 0 .543.101.81.81 0 0 0 .455-.126c.137-.087.264-.23.379-.429l.159-.274-1.212-6.638h1.818l.548 4.757h.068l2.142-4.757h1.966l-3.701 7.165c-.182.351-.398.655-.648.913s-.54.457-.879.598-.726.215-1.167.215zm17.541-8.028h-1.819c.006-.241-.026-.455-.092-.64a1.26 1.26 0 0 0-.304-.48 1.28 1.28 0 0 0-.484-.299 1.86 1.86 0 0 0-.644-.105 2.42 2.42 0 0 0-1.267.345c-.385.23-.709.564-.973 1.002s-.446.961-.546 1.579c-.098.595-.093 1.093.016 1.494s.303.704.581.909.63.303 1.048.303c.258 0 .504-.032.737-.097s.445-.163.636-.286.362-.279.504-.459a2.03 2.03 0 0 0 .341-.61h1.831a4.14 4.14 0 0 1-.538 1.145 4.31 4.31 0 0 1-.897.985c-.356.286-.762.514-1.217.682s-.952.253-1.493.253c-.784 0-1.455-.18-2.017-.539s-.961-.877-1.207-1.553-.294-1.492-.14-2.446c.154-.923.456-1.706.905-2.349s1-1.135 1.646-1.469 1.341-.501 2.079-.501c.514 0 .978.07 1.394.211s.768.345 1.061.615.516.593.665.981.213.831.194 1.33zm3.281 5.729c-.66 0-1.206-.14-1.637-.421s-.737-.676-.915-1.179-.205-1.093-.096-1.764c.106-.662.329-1.242.665-1.738a3.53 3.53 0 0 1 1.284-1.158c.519-.278 1.104-.417 1.755-.417.657 0 1.202.142 1.634.425s.736.673.913 1.179.21 1.093.101 1.764c-.11.659-.334 1.238-.673 1.734a3.61 3.61 0 0 1-1.285 1.162c-.516.275-1.098.413-1.746.413zm.177-1.389c.302 0 .571-.086.804-.257s.43-.41.585-.707a3.38 3.38 0 0 0 .328-1.019c.062-.373.066-.704.012-.993s-.165-.522-.336-.69-.4-.253-.694-.253c-.304 0-.573.087-.809.261s-.431.407-.586.707-.261.641-.324 1.023c-.058.37-.063.702-.012.993s.162.518.333.686.404.248.699.248zm4.176 1.263l1.077-6.466h1.705l-.185 1.141h.071a2.26 2.26 0 0 1 .822-.897c.353-.219.75-.328 1.191-.328s.793.111 1.069.333.438.516.479.892h.068a2.15 2.15 0 0 1 .863-.888 2.51 2.51 0 0 1 1.288-.337c.597 0 1.055.192 1.373.577s.416.926.298 1.625l-.724 4.348h-1.793l.673-3.995c.053-.362 0-.631-.16-.808s-.383-.27-.669-.27c-.326 0-.597.104-.812.312s-.35.476-.4.813l-.669 3.948h-1.739l.682-4.033c.047-.32-.005-.572-.156-.758s-.371-.282-.669-.282a1.11 1.11 0 0 0-.56.152c-.174.098-.321.237-.442.417s-.2.385-.236.623l-.657 3.881h-1.788zm10.408 2.425l1.49-8.89h1.768l-.182 1.086h.08a3.07 3.07 0 0 1 .426-.53c.179-.182.403-.334.669-.455s.58-.185.939-.185c.474 0 .888.123 1.241.37s.61.613.767 1.107.178 1.107.054 1.848c-.117.721-.335 1.33-.652 1.827s-.691.868-1.133 1.124-.902.379-1.393.379c-.348 0-.634-.057-.859-.173a1.42 1.42 0 0 1-.517-.433c-.124-.177-.211-.355-.261-.535h-.068l-.572 3.46h-1.797zm2.706-5.658c-.061.384-.065.72-.008 1.006s.176.509.353.669.41.236.699.236.551-.08.779-.24.417-.387.568-.674a3.36 3.36 0 0 0 .324-.998c.059-.373.061-.702.004-.985s-.171-.505-.345-.665-.41-.24-.707-.24c-.289 0-.548.077-.779.232s-.416.373-.568.657a3.18 3.18 0 0 0-.32 1.002zm7.025 3.355c-.41 0-.765-.072-1.065-.215s-.516-.362-.657-.648-.175-.641-.105-1.065c.062-.359.178-.66.349-.901s.387-.441.636-.589.526-.262.829-.341.622-.132.947-.16l.918-.114c.238-.036.416-.088.535-.156a.44.44 0 0 0 .214-.311v-.025c.042-.264-.006-.469-.148-.615-.136-.149-.357-.223-.66-.223-.319 0-.593.07-.816.21s-.381.318-.477.535l-1.633-.135c.147-.393.367-.733.661-1.019s.655-.511 1.074-.665.886-.236 1.406-.236a3.83 3.83 0 0 1 1.005.126c.315.084.586.215.813.392a1.48 1.48 0 0 1 .497.682c.104.275.124.605.063.989l-.728 4.361h-1.701l.152-.897h-.051a2.33 2.33 0 0 1-.505.535c-.199.152-.428.271-.686.358a2.79 2.79 0 0 1-.867.126zm.719-1.238c.261 0 .502-.052.721-.156s.404-.25.546-.429.239-.383.279-.61l.108-.686a.83.83 0 0 1-.244.097l-.34.08-.366.063-.333.05c-.216.031-.41.08-.581.147s-.31.158-.416.273a.76.76 0 0 0-.199.421c-.039.244.018.431.173.56s.375.19.652.19zm6.755-2.623l-.623 3.738h-1.79l1.079-6.466h1.704l-.185 1.141h.071c.206-.379.495-.678.867-.897s.805-.328 1.285-.328c.448 0 .823.098 1.123.295a1.56 1.56 0 0 1 .64.838c.127.362.147.796.064 1.301l-.691 4.117h-1.793l.636-3.797c.064-.396.013-.704-.152-.926s-.425-.337-.788-.337c-.24 0-.463.052-.665.156s-.371.255-.509.455a1.77 1.77 0 0 0-.273.711zm5.429 6.163c-.23 0-.44-.018-.631-.055s-.349-.077-.472-.13l.631-1.339c.2.065.381.098.543.101a.81.81 0 0 0 .455-.126c.138-.087.264-.23.379-.429l.16-.274-1.213-6.638h1.819l.547 4.757h.068l2.142-4.757h1.966l-3.7 7.165a3.88 3.88 0 0 1-.648.913c-.247.258-.54.457-.88.598s-.726.215-1.166.215z" fill="#000"/><path d="M56.576.754v3.995C53.018 1.783 48.441 0 43.45 0a20.45 20.45 0 0 0-9.701 2.432l5.742 6.128c1.334-.462 2.767-.715 4.261-.715 6.496 0 11.873 4.773 12.824 11.001.127.812.175 1.647.142 2.498-.021.495-.067.981-.142 1.46-.932 5.999-6.041 10.697-12.223 10.977-2.526.112-4.894-.495-6.928-1.633a13.03 13.03 0 0 1-1.556-1.024c-.246-.189-.485-.386-.717-.591a13.07 13.07 0 0 1-1.297-1.325c-.601-.708-1.127-1.481-1.566-2.307l-.003-.003c-.962-1.813-1.509-3.883-1.509-6.08a12.96 12.96 0 0 1 .77-4.414l-.187-.356a13.07 13.07 0 0 0-5.114-5.256l-.661-.374c-1.687 2.981-2.652 6.427-2.652 10.099 0 4.421 1.397 8.515 3.778 11.864a12.88 12.88 0 0 1-5.89 1.412c-7.167 0-12.975-5.808-12.975-12.975S13.654 7.845 20.82 7.845c4.755 0 8.916 2.559 11.173 6.376l6.345-3.877C34.805 4.164 28.146 0 20.518 0a20.45 20.45 0 0 0-9.701 2.432 20.64 20.64 0 0 0-8.165 7.987C.966 13.4 0 16.846 0 20.518a20.52 20.52 0 0 0 20.518 20.518c4.245 0 8.189-1.288 11.463-3.5 3.491 2.354 7.745 3.666 12.314 3.482 4.668-.187 8.928-1.952 12.281-4.761v4.025h7.242V22.989v-4.97V.754h-7.242z" fill="#fff"/></svg>