<svg xmlns="http://www.w3.org/2000/svg" width="2398.841" height="1419.849" viewBox="0 0 2398.841 1419.849"><defs><style>.a{opacity:0.1;}.b{fill:#1d92fb;}</style></defs><g class="a" transform="translate(-27.298 763.786) rotate(-21)"><path class="b" d="M.109,325.621v2.149q.777.315,1.554.625,10.871,4.382,22,8.566a1202.985,1202.985,0,0,0,119.548,37.914c130.928,34.352,279.913,51.676,443.767,51.676q36.451,0,73.838-1.141c271.53-8.308,521-59.914,663.851-95.5q10.736-2.678,20.687-5.226c28.636-7.344,52.047-13.793,69.377-18.742q5.433-1.56,10.092-2.915l3.444-1.007q26.318-7.682,52.634-15.762,5.43-1.659,10.867-3.324,23.118-7.113,46.024-14.313l9.314-2.933q18.36-5.76,36.49-11.516l5.522-1.746,8.385-2.645q19.59-6.181,39.282-12.363l7.764-2.4q18.634-5.806,37.333-11.543c2.426-.746,4.869-1.485,7.295-2.223q17.906-5.462,35.942-10.808l6.988-2.055q17.542-5.157,35.214-10.156,3.373-.956,6.745-1.918,17.372-4.875,34.874-9.539l6.648-1.766q17.4-4.588,34.923-8.938c2.216-.554,4.432-1.1,6.664-1.64q17.542-4.318,35.23-8.309c2.232-.508,4.448-1.008,6.681-1.5q17.858-3.99,35.91-7.648c2.265-.477,4.562-.914,6.826-1.367q18.367-3.639,36.9-6.891c2.346-.414,4.707-.82,7.069-1.223q19.071-3.252,38.32-6.039c2.459-.355,4.917-.7,7.392-1.047q12.811-1.786,25.719-3.359,7.23-.867,14.461-1.664,3.906-.434,7.813-.84,21.255-2.226,42.51-3.805c2.782-.207,5.564-.4,8.33-.589A1412.77,1412.77,0,0,1,2329,130.48v-2.4a1420.25,1420.25,0,0,0-206.239.207c-2.766.2-5.516.414-8.282.629q-21.157,1.688-42.3,3.992-3.882.427-7.764.875c-2.588.3-5.273.614-7.926.93q-15.917,1.922-32.108,4.25c-2.443.352-4.9.707-7.36,1.074q-18.9,2.813-38.239,6.184c-2.329.41-4.707.824-7.069,1.246q-18.222,3.258-36.864,7.019c-2.281.481-4.562.918-6.859,1.391q-17.76,3.645-35.974,7.758c-2.216.48-4.464,1.008-6.7,1.523q-17.445,4-35.36,8.426l-6.681,1.664q-14.412,3.609-29.132,7.5l-5.888,1.563-6.7,1.8q-17.518,4.71-34.988,9.664l-6.81,1.922q-17.712,5.05-35.392,10.289l-7.036,2.089q-18.2,5.415-36.266,10.961l-7.392,2.266q-18.95,5.824-37.786,11.73l-7.861,2.461q-20.037,6.282-39.871,12.559l-6.281,1.988-2.274.719q-21.221,6.72-42.8,13.488l-9.61,3.008q-23.5,7.353-47.213,14.617-5.629,1.723-11.253,3.426-22.757,6.9-45.513,13.551-4.36,1.266-9.238,2.668-6.794,1.939-14.558,4.121c-20.181,5.648-45.2,12.383-74.356,19.723q-10.987,2.765-22.748,5.64c-162.16,39.586-432.064,92.465-716.508,92.465-183.593-.016-373.106-21.98-543.783-83.7q-11.771-4.248-23.417-8.762Q9.347,329.395.109,325.621Zm0,0"/><path class="b" d="M.109,338.648v2.329q54.441,20.912,113.047,36.953c139.25,38.105,300.5,57.414,479.653,57.414q9.555,0,19.191-.078c146.08-1.11,301.6-14.7,462.245-40.395,154.934-24.777,266.786-53.367,307.693-64.5q22.189-6.047,44.3-12.433,6.4-1.846,12.763-3.711,25.421-7.43,50.631-15.153,5.195-1.581,10.382-3.179,22.434-6.885,44.629-13.871l9.01-2.832q20.529-6.463,40.8-12.9l3.1-.961,5.023-1.594q19.042-6.017,38.2-12.066l7.538-2.367q18.076-5.689,36.314-11.321l7.085-2.191q17.445-5.355,35-10.633c2.265-.679,4.529-1.359,6.777-2.031q17.082-5.08,34.228-10.027l6.6-1.891q16.863-4.8,33.872-9.465l6.47-1.762q16.863-4.563,33.84-8.9,3.227-.827,6.454-1.64,17.009-4.318,34.115-8.333,3.251-.772,6.5-1.523,17.276-4.008,34.681-7.715c2.2-.48,4.4-.929,6.6-1.39q17.688-3.7,35.522-7.036c2.281-.429,4.545-.851,6.826-1.257q18.27-3.365,36.7-6.266,3.542-.557,7.085-1.1c2.378-.359,4.788-.726,7.182-1.082q15.6-2.3,31.235-4.269c2.458-.32,4.95-.629,7.425-.922q20.09-2.449,40.213-4.32c2.62-.254,5.241-.477,7.845-.719q21.157-1.875,42.316-3.145c2.782-.168,5.548-.324,8.331-.476a1468.738,1468.738,0,0,1,161.433.09v-2.637q-63.959-3.5-128.079-1.438-20.454.663-41.022,1.918c-2.734.164-5.483.336-8.233.52q-20.94,1.383-42.008,3.359c-2.6.246-5.192.481-7.764.754q-20.017,1.981-40.019,4.5c-2.475.321-4.933.641-7.408.961q-12.569,1.647-25.121,3.5-6.575.962-13.135,2.008-3.543.557-7.085,1.129-18.392,2.976-36.654,6.387c-2.281.422-4.545.847-6.826,1.285q-17.834,3.387-35.506,7.156-3.3.7-6.6,1.41-17.421,3.756-34.7,7.832c-2.184.508-4.351,1.024-6.519,1.539q-17.154,4.091-34.211,8.446l-6.454,1.664q-17.033,4.389-33.953,9.012-3.251.883-6.5,1.785-17.082,4.7-34.05,9.6l-6.664,1.922q-17.276,5-34.438,10.149l-6.859,2.062q-17.737,5.345-35.344,10.785l-7.166,2.223q-18.44,5.714-36.767,11.488l-7.635,2.4q-18.27,5.76-36.431,11.519l-2.326.739-8.29,2.625q-20.643,6.539-41.539,13.117l-9.269,2.9q-22.708,7.113-45.671,14.133-5.433,1.658-10.812,3.293-26.122,7.91-52.451,15.535-6.738,1.945-13.5,3.867-15.764,4.477-31.549,8.789c-62.346,16.981-392.369,101.832-768.415,104.7C371.121,434.7,166.625,403.125.109,338.648Zm0,0" transform="translate(0)"/><path class="b" d="M.109,351.723v2.211q40.367,14.789,82.938,26.972c138.12,39.578,299.649,61.157,480.077,64.141q22.017.363,44.318.363c131.371,0,269.579-9.472,411.571-28.23,164.36-21.715,278.557-48.8,320.027-59.446,53.872-13.82,107-29.484,159.222-45.7l9.781-3.047q21.345-6.668,42.468-13.437l8.612-2.75q19.685-6.294,39.176-12.571l5.6-1.8,2.237-.719q18.385-5.9,36.86-11.828,3.639-1.167,7.279-2.328,17.518-5.6,35.15-11.153l6.858-2.156q16.936-5.3,33.953-10.523,3.3-1.02,6.6-2.016,16.572-5.045,33.209-9.965l6.406-1.879q16.378-4.8,32.837-9.441l6.292-1.766q16.354-4.559,32.8-8.922l6.26-1.652q16.451-4.318,33.015-8.383c2.087-.523,4.189-1.031,6.292-1.539q16.669-4.061,33.484-7.832l6.406-1.441q17.082-3.774,34.228-7.2c2.167-.434,4.351-.868,6.535-1.293q16.208-3.183,32.546-6.036l2.734-.48c2.265-.387,4.545-.777,6.81-1.156q18.319-3.083,36.492-5.723c2.345-.348,4.723-.684,7.069-1.016q19-2.677,37.916-4.882c2.458-.286,4.9-.567,7.36-.84q19.8-2.221,39.517-3.922,3.858-.34,7.764-.649,20.745-1.687,41.426-2.808c2.718-.145,5.451-.285,8.169-.418q65.245-3.182,130.57-.621v-2.3q-68.811-2.666-137.526.961c-2.718.137-5.435.285-8.136.445-2.329.133-4.74.278-7.1.426q-17.033,1.066-34.212,2.535-3.858.322-7.716.676-19.653,1.77-39.453,4.055l-7.327.867q-18.926,2.274-37.884,5.008c-2.362.336-4.707.679-7.069,1.031q-18.246,2.718-36.493,5.84l-3.947.683c-.938.168-1.893.332-2.847.481q-17.664,3.117-35.263,6.625c-2.167.433-4.335.875-6.5,1.312q-17.178,3.5-34.244,7.325-3.2.714-6.406,1.437-16.815,3.838-33.516,7.934c-2.1.515-4.222,1.035-6.325,1.566q-16.6,4.113-33.063,8.488c-2.071.551-4.173,1.106-6.292,1.668q-16.5,4.419-32.917,9.028l-6.341,1.793q-16.548,4.688-33,9.543c-2.168.64-4.3,1.281-6.454,1.922q-16.766,4.974-33.435,10.078l-6.664,2.047q-17.179,5.278-34.244,10.66l-6.988,2.191q-17.858,5.631-35.554,11.309l-7.392,2.367q-16.3,5.226-32.6,10.457l-4.79,1.539L1589.3,280.4q-19.818,6.37-39.846,12.77l-8.821,2.8q-21.582,6.861-43.391,13.648l-10.1,3.137c-49.127,15.156-99.05,29.754-149.6,42.715-168.8,43.3-472.861,92.113-774.329,87.125C342.4,438.98,154.227,408.531.109,351.723Zm0,0" transform="translate(0)"/><path class="b" d="M.109,364.973v1.7Q25.9,375.709,52.9,383.824c132.193,39.723,287.377,63.563,461.248,70.864,37.937,1.593,76.809,2.4,116.326,2.4,38.309,0,77.226-.746,116.5-2.246Q856,450.633,963.713,439.359c121.59-12.7,242.757-32.488,332.437-54.289,88.86-21.593,174.88-48.586,258.5-75.859l8.188-2.672q18.824-6.158,37.482-12.3l5.333-1.75,2.167-.711q17.674-5.818,35.48-11.648l7.02-2.3q16.936-5.537,33.969-11.039l6.664-2.141q16.378-5.279,32.869-10.457l6.39-2q16.038-5.026,32.189-9.941l6.212-1.891q15.868-4.8,31.818-9.449l6.147-1.777q15.82-4.576,31.753-8.969c2.038-.559,4.06-1.117,6.1-1.668q15.892-4.359,31.915-8.484,3.057-.786,6.114-1.563,16.135-4.113,32.335-7.965c2.054-.48,4.109-.961,6.211-1.441q16.451-3.839,33-7.4c2.119-.457,4.222-.907,6.341-1.344q7.886-1.669,15.8-3.254,9.075-1.811,18.084-3.52c2.167-.406,4.335-.816,6.487-1.214q17.518-3.242,34.939-6.09,3.373-.55,6.745-1.094,18.027-2.877,35.991-5.352,3.494-.48,6.988-.957,18.683-2.5,37.317-4.543,3.64-.4,7.279-.781,19.484-2.051,38.886-3.609,3.81-.311,7.619-.594,20.381-1.553,40.7-2.539c2.685-.133,5.37-.258,8.039-.375q51.827-2.29,103.751-1.012V152.8h-.243q-55.491-1.342-110.852,1.379c-2.653.129-5.306.265-7.975.41q-20.26,1.089-40.52,2.719c-2.523.2-5.063.406-7.587.628q-5.119.429-10.239.9-14.146,1.295-28.437,2.879c-2.41.269-4.82.535-7.23.816q-18.513,2.115-37.172,4.691-3.494.476-6.988.961-17.882,2.532-35.894,5.481c-2.248.363-4.481.734-6.729,1.113q-17.4,2.907-34.875,6.2l-6.486,1.235q-6.406,1.236-12.844,2.519-10.53,2.11-21.028,4.364-3.179.667-6.357,1.363-16.548,3.6-33.015,7.5l-6.211,1.48q-16.208,3.9-32.351,8.055l-6.131,1.586q-16.063,4.184-32.012,8.586c-2.038.554-4.076,1.121-6.114,1.687q-15.99,4.447-31.866,9.067c-2.07.593-4.125,1.2-6.179,1.8q-16.038,4.7-32,9.555c-2.071.641-4.157,1.278-6.276,1.918q-16.232,4.963-32.4,10.047l-6.454,2.039q-16.62,5.244-33.144,10.559-3.373,1.077-6.745,2.172-17.227,5.571-34.341,11.183l-7.134,2.332q-15.747,5.157-31.4,10.313l-4.518,1.484q-3.809,1.26-7.633,2.508-18.945,6.24-38.037,12.476l-8.392,2.731c-81.111,26.4-164.505,52.379-250.489,73.277-131.491,31.957-389.993,72.785-670.079,72.785C413.739,455.625,190.591,432.488.109,364.973Zm0,0" transform="translate(0)"/><path class="b" d="M.109,376.492v2.879q11.2,3.78,22.671,7.395C149.228,426.7,298.073,452.8,465.168,464.316Q563.842,471,663.116,470.9q123.1-.047,245.242-9.468c128.482-9.895,250.981-27.3,344.919-49.032,121.214-28.027,235.985-66.648,347-104.14l4.05-1.367,3.159-1.067q17.018-5.76,34.153-11.515c2.248-.766,4.513-1.524,6.778-2.278q16.354-5.49,32.8-10.953,3.227-1.084,6.454-2.141,15.868-5.279,31.833-10.433,3.106-1.008,6.212-2.012,15.5-5.027,31.186-9.945c2.006-.637,4.044-1.27,6.05-1.918q15.407-4.8,30.847-9.492l5.969-1.8q15.359-4.606,30.782-9.047c1.973-.57,3.947-1.129,5.92-1.692q15.407-4.394,30.9-8.6l5.9-1.563q15.577-4.189,31.251-8.125l6.017-1.476q15.868-3.932,31.817-7.6c2.038-.468,4.076-.933,6.131-1.394l.647-.149q16.014-3.6,31.9-6.9c2.087-.438,4.141-.867,6.211-1.285q16.718-3.411,33.289-6.473c2.135-.394,4.254-.789,6.389-1.172q17.13-3.1,34.146-5.84c2.216-.359,4.416-.711,6.616-1.054q17.64-2.784,35.133-5.157c2.3-.32,4.594-.625,6.875-.918q18.27-2.4,36.427-4.386,3.567-.393,7.133-.762,19-1.986,37.883-3.5,3.737-.3,7.473-.578,19.9-1.506,39.663-2.484,3.931-.194,7.861-.368,33.168-1.47,66.077-1.468,8.4,0,16.806.1V159.23q-10.627-.127-21.19-.1-33.993.089-68.067,1.7c-2.6.125-5.225.258-7.829.4q-19.8,1.036-39.646,2.593-3.736.288-7.473.6-18.853,1.57-37.851,3.613-3.567.375-7.133.778-18.149,2.032-36.411,4.492c-2.281.3-4.562.617-6.858.937q-17.494,2.425-35.134,5.278c-2.184.347-4.383.707-6.583,1.07q-17.008,2.782-34.163,5.945c-2.119.391-4.238.785-6.373,1.188q-16.547,3.111-33.273,6.574c-2.087.422-4.173.859-6.211,1.3q-13.466,2.825-27.013,5.875c-1.86.418-3.72.844-5.564,1.265-2.038.469-4.076.938-6.1,1.411q-15.941,3.708-31.833,7.679c-1.99.481-3.979,1-5.985,1.512q-15.7,3.99-31.3,8.215l-5.953,1.617q-15.5,4.236-30.96,8.684l-5.953,1.711q-15.529,4.494-30.9,9.148c-2.006.6-4,1.207-6,1.812q-15.5,4.724-30.992,9.6-3.057.955-6.114,1.918-15.747,4.974-31.4,10.051-3.13,1.014-6.26,2.039-16.111,5.232-32.108,10.558l-6.519,2.168q-16.645,5.532-33.144,11.086l-6.858,2.313q-15.747,5.279-31.342,10.558l-3.192,1.079-7.323,2.476C1483.115,345.148,1370.574,382.758,1252,410.2c-128.513,29.668-344.589,58.434-587.128,58.434q-99.943.059-199.281-6.719C324.069,452.164,154.819,428.8.109,376.492Zm0,0" transform="translate(0)"/><path class="b" d="M.109,389.641v2.472c119.3,38.957,259.216,66.434,416.015,81.7,91.493,8.906,187.9,13.406,284.6,13.406,50.878,0,101.827-1.242,152.211-3.75,67.534-3.36,132.944-8.91,194.418-16.492,59.909-7.391,114.761-16.543,163.023-27.2,137.942-30.457,266.375-75.16,390.587-118.39q18.511-6.439,37.167-12.918c2.184-.766,4.384-1.52,6.567-2.277q15.8-5.467,31.7-10.918,3.105-1.066,6.26-2.133,15.359-5.25,30.831-10.434l6.034-2.027q15.092-5.04,30.281-9.985l5.888-1.921q14.9-4.834,29.909-9.555c1.925-.61,3.866-1.219,5.807-1.82q14.874-4.647,29.828-9.145l5.742-1.723q14.947-4.452,29.941-8.73l5.742-1.625q15.068-4.26,30.216-8.293c1.925-.52,3.882-1.035,5.807-1.543q11.671-3.082,23.407-6.012c2.426-.613,4.853-1.215,7.3-1.8,1.957-.489,3.931-.965,5.888-1.442q15.675-3.8,31.268-7.324,3.009-.674,6.017-1.344,15.99-3.568,31.882-6.808c2.087-.422,4.125-.836,6.147-1.247q16.378-3.3,32.61-6.238c2.087-.387,4.189-.762,6.276-1.133q16.79-3.01,33.5-5.656c2.167-.344,4.335-.683,6.519-1.019q17.276-2.684,34.487-4.985l6.778-.89q17.955-2.327,35.765-4.239c2.313-.25,4.691-.48,7.036-.738q18.634-1.922,37.188-3.383l7.36-.562q19.532-1.441,38.951-2.4c2.556-.129,5.128-.246,7.7-.355q32.2-1.413,64.186-1.442v-2.488q-21.085,0-42.122.6-14.462.416-28.955,1.109c-2.556.121-5.128.246-7.684.387q-19.362,1.008-38.822,2.543c-2.443.187-4.869.383-7.312.586q-18.513,1.535-37.091,3.519-3.494.369-6.988.766-17.737,1.968-35.652,4.367-3.372.445-6.745.91-17.13,2.361-34.39,5.106c-2.167.34-4.335.687-6.486,1.047q-16.645,2.7-33.387,5.757-3.106.575-6.26,1.157-16.232,3.01-32.61,6.367l-6.13,1.262q-15.844,3.292-31.834,6.91c-1.99.449-4,.9-6,1.363q-15.529,3.557-31.268,7.414l-5.9,1.438-2.637.66q-14.073,3.521-28.1,7.25c-1.941.515-3.882,1.031-5.807,1.554q-15.165,4.079-30.281,8.379-2.887.814-5.775,1.649-15.019,4.319-30.006,8.816l-5.775,1.742q-15.019,4.53-29.941,9.231l-5.839,1.84q-15.044,4.763-30.055,9.648c-1.973.641-3.963,1.281-5.936,1.922q-15.262,4.992-30.443,10.078l-6.115,2.047q-15.577,5.244-31.041,10.559l-6.357,2.171q-16.038,5.508-31.979,11.036l-6.632,2.3q-15.8,5.479-31.48,10.942c-124.067,43.191-252.355,87.824-389.976,118.222-212.029,46.821-523.047,60.137-792.348,33.926C289.492,459.035,139.183,435.18.109,389.641Zm0,0" transform="translate(0)"/><path class="b" d="M.109,402.406v2.766c48.527,15.566,100.827,29.582,156.039,41.8,66.3,14.683,137.261,26.875,210.924,36.281,118.247,15.074,243.609,22.871,366.173,22.871q32.3,0,64.273-.726c138.568-3.145,266.529-16.379,370.021-38.27,152.931-32.34,293.034-82.684,428.513-131.363q36.628-13.161,73.836-26.395l6.115-2.152q14.874-5.28,29.86-10.461l5.888-2.039q14.631-5.057,29.327-10.039l5.742-1.922q14.486-4.881,29.036-9.649l5.645-1.843q14.461-4.705,28.939-9.262l5.6-1.758q14.485-4.518,29-8.875c1.86-.558,3.72-1.113,5.6-1.668q14.583-4.318,29.214-8.472l5.645-1.579q4.756-1.335,9.544-2.644,10.094-2.76,20.107-5.4c1.893-.5,3.785-1,5.678-1.492q15.092-3.937,30.038-7.605,2.888-.709,5.775-1.406,15.31-3.722,30.507-7.157c1.973-.445,3.931-.882,5.888-1.32q15.626-3.492,31.122-6.676c2.006-.414,4-.824,6-1.222q16.014-3.252,31.834-6.157c2.054-.382,4.125-.757,6.163-1.125q16.426-2.964,32.691-5.574c2.119-.348,4.254-.683,6.389-1.019q16.912-2.649,33.694-4.934c2.216-.3,4.432-.6,6.632-.887q17.543-2.321,34.94-4.218c2.281-.254,4.578-.481,6.875-.743q18.271-1.922,36.412-3.39c2.41-.2,4.8-.387,7.214-.567q19.1-1.464,38.094-2.433,3.809-.193,7.57-.364,25.234-1.153,50.291-1.441V169.7q-27.976.316-56.081,1.684-3.494.164-6.988.355l-.583.032q-18.974,1.013-38.078,2.531c-2.394.183-4.8.379-7.2.582q-18.125,1.518-36.379,3.48c-2.329.242-4.594.481-6.891.754q-17.4,1.945-34.94,4.321c-2.2.292-4.416.593-6.632.9q-16.766,2.32-33.726,5.015l-6.357,1.028q-16.305,2.66-32.724,5.656-3.106.551-6.163,1.133-15.844,2.954-31.882,6.238c-2.006.406-4.012.82-6,1.238q-15.529,3.218-31.171,6.754c-1.957.438-3.915.883-5.888,1.332q-15.189,3.476-30.572,7.235c-1.909.465-3.834.945-5.742,1.437q-15,3.7-30.119,7.68l-5.694,1.508q-7.813,2.079-15.691,4.234-6.988,1.915-13.976,3.891c-1.876.527-3.769,1.058-5.645,1.6q-14.655,4.173-29.294,8.551c-1.86.559-3.736,1.121-5.613,1.688q-14.558,4.388-29.084,8.953l-5.613,1.777q-14.558,4.6-29.052,9.348c-1.876.613-3.769,1.234-5.662,1.863q-14.631,4.8-29.2,9.734l-5.791,1.965q-14.777,5.022-29.488,10.137l-5.92,2.063q-15.092,5.279-30.1,10.558l-6.163,2.184c-23.067,8.156-45.985,16.406-68.726,24.574-135.34,48.625-275.286,98.906-427.843,131.168-214.418,45.351-520.356,51.5-798.427,16.047C230.09,463.332,106.358,436.738.109,402.406Zm0,0" transform="translate(0)"/><path class="b" d="M.109,416v2.824c36.49,11.7,75.047,22.641,115.183,32.7,63.92,16.015,132.1,29.839,202.608,41.1a2812.8,2812.8,0,0,0,424.084,34.633h10.527c137.873,0,266.313-11.308,372.093-32.793,167.78-34.074,319.054-90.223,465.339-144.555,35.187-13.062,70.823-26.3,106.8-39.242,1.909-.691,3.834-1.375,5.742-2.058q14.194-5.1,28.486-10.121l5.6-1.969q14.073-4.922,28.195-9.75l5.5-1.875q14.024-4.758,28.081-9.395l5.435-1.789q14.048-4.593,28.114-9.027l5.435-1.707q14.121-4.424,28.308-8.641l2.329-.691,3.154-.934q14.388-4.248,28.631-8.265l5.516-1.543q14.558-4.061,28.971-7.871l5.581-1.465q14.752-3.862,29.424-7.461l5.646-1.379q15.019-3.651,29.909-7.02c1.941-.437,3.882-.875,5.791-1.3q15.335-3.429,30.556-6.551,2.96-.615,5.92-1.211,15.723-3.182,31.316-6.047,3.033-.562,6.066-1.109,16.111-2.907,32.141-5.485,3.178-.51,6.309-1,16.645-2.613,33.176-4.859,3.276-.445,6.551-.875,17.251-2.286,34.39-4.164c2.265-.25,4.529-.481,6.794-.731q17.979-1.892,35.862-3.359c2.362-.195,4.723-.387,7.1-.566q18.8-1.441,37.528-2.4c2.491-.129,4.982-.254,7.457-.363q18.635-.879,37.2-1.274v-2.433q-21.813.456-43.675,1.547-3.712.181-7.425.386-16.426.9-32.9,2.164l-4.594.368c-2.329.179-4.723.379-7.085.578q-17.907,1.512-35.829,3.453-3.4.357-6.794.746-17.154,1.922-34.406,4.258c-2.168.293-4.352.594-6.519.9q-16.5,2.286-33.112,4.961c-2.071.32-4.174.66-6.292,1.02q-15.942,2.619-32.093,5.59c-2.006.367-4.011.742-6.033,1.128-6.389,1.192-12.795,2.43-19.265,3.719q-5.969,1.2-11.986,2.426c-1.973.406-3.931.816-5.9,1.227q-15.165,3.182-30.491,6.648-2.888.651-5.775,1.32-14.825,3.4-29.86,7.117c-1.876.457-3.753.926-5.645,1.4q-14.583,3.627-29.375,7.547c-1.844.492-3.7.984-5.564,1.484q-14.34,3.838-28.955,7.957c-1.828.52-3.672,1.035-5.5,1.563q-13.685,3.879-27.6,8.019l-1.084.324-5.484,1.641q-14.194,4.278-28.388,8.738l-5.435,1.719q-14.1,4.476-28.194,9.117l-5.484,1.809q-14.121,4.67-28.178,9.476l-5.532,1.918q-14.219,4.864-28.34,9.832l-5.629,1.989q-14.364,5.068-28.664,10.218l-5.791,2.082c-34.406,12.411-68.472,25.067-102.129,37.559-146.108,54.227-297.186,110.34-464.549,144.332-218.36,44.348-519.117,43.637-804.517-1.922C201.606,471.574,94.169,446.355.109,416Zm0,0" transform="translate(0)"/><path class="b" d="M.109,430.75v2.688c82.086,26.71,173.246,49.992,268.683,68.484,137.444,26.629,281.89,42.918,417.708,47.1q35.772,1.1,70.769,1.106,67.315.052,134.255-4.32c67.8-4.508,131.807-12.582,190.192-24,182.552-35.688,344.539-97.872,501.19-158.012,44.848-17.219,90.528-34.754,136.629-51.613q2.742-1,5.484-2,13.661-4.98,27.386-9.863c1.8-.64,3.575-1.277,5.37-1.918q13.612-4.822,27.256-9.527c1.779-.61,3.542-1.219,5.322-1.824q13.612-4.671,27.272-9.2l5.306-1.746q8.977-2.952,17.971-5.836c3.171-1.011,6.341-2.015,9.479-3.015l5.306-1.668q13.9-4.354,27.677-8.5l5.338-1.594q14.048-4.189,27.952-8.156,2.693-.774,5.386-1.528,14.194-4.013,28.259-7.769l5.435-1.438q14.437-3.843,28.728-7.379l5.532-1.371q14.679-3.621,29.23-6.965l5.661-1.293q15-3.4,29.877-6.519c1.925-.406,3.882-.809,5.791-1.207q15.407-3.169,30.653-6.031c1.974-.379,3.963-.743,5.953-1.106q15.8-2.918,31.494-5.488l6.211-1.008q16.306-2.619,32.514-4.871,3.227-.451,6.454-.883,16.96-2.3,33.791-4.187c2.232-.25,4.464-.481,6.7-.739q17.664-1.921,35.247-3.39,3.518-.294,6.988-.571,18.537-1.47,36.994-2.46c2.458-.137,4.9-.262,7.344-.375q14.024-.686,28.049-1.09v-2.051q-16.694.48-33.339,1.332c-2.458.125-4.9.258-7.344.391q-18.489,1.036-36.978,2.539c-2.33.195-4.659.386-6.988.593q-10.094.863-20.269,1.871-7.522.746-15.043,1.567c-2.232.246-4.465.48-6.713.75q-16.912,1.922-33.9,4.226c-2.151.29-4.3.586-6.47.891q-16.306,2.28-32.643,4.918c-2.054.332-4.141.672-6.212,1.012q-15.723,2.6-31.591,5.539l-5.969,1.117q-15.262,2.883-30.67,6.1-2.911.591-5.823,1.218-14.849,3.135-29.876,6.594-2.839.639-5.678,1.3-14.51,3.357-29.23,7.043c-1.844.457-3.688.918-5.548,1.387q-14.243,3.591-28.728,7.46l-5.435,1.469q-14.025,3.786-28.275,7.844c-1.8.508-3.575,1.023-5.37,1.543q-13.855,3.978-27.952,8.215-2.669.8-5.338,1.613-13.733,4.161-27.693,8.57c-1.779.551-3.559,1.118-5.338,1.684l-5.435,1.723q-11.064,3.545-22.1,7.2c-1.779.578-3.542,1.168-5.305,1.765q-13.733,4.554-27.386,9.27l-5.354,1.84q-13.685,4.746-27.353,9.6-2.718.955-5.435,1.918-13.782,4.923-27.531,9.95l-5.516,2.023c-44.645,16.371-88.87,33.352-132.323,50.031C1424.347,421.8,1262.576,483.906,1080.478,519.5c-223.933,43.777-519.4,36.519-810.624-19.9C172.451,480.738,81.462,457.359.109,430.75Zm0,0" transform="translate(0)"/><path class="b" d="M.109,446.633v2.883q106.238,35.631,219.527,61.652,99.063,22.845,201.911,38.023c70.751,10.4,141.215,17.645,209.418,21.551q60.7,3.476,118.651,3.473c103.9,0,200.8-8.375,289.252-25.051,197.305-37.2,369.606-105.621,536.241-171.809,53.627-21.3,108.511-43.089,163.783-63.613,1.763-.652,3.51-1.3,5.257-1.941q13.248-4.9,26.512-9.676,2.6-.943,5.193-1.867,13.248-4.752,26.512-9.363c1.714-.6,3.429-1.2,5.16-1.79,2.119-.738,4.222-1.464,6.341-2.191q10.045-3.439,20.252-6.855c1.714-.579,3.429-1.149,5.16-1.719q13.175-4.4,26.69-8.738,2.548-.832,5.144-1.649,13.3-4.254,26.884-8.422c1.714-.527,3.445-1.054,5.176-1.578q13.466-4.095,27.175-8.082c1.731-.508,3.494-1.012,5.225-1.516q13.685-3.932,27.612-7.722l5.338-1.438q13.9-3.744,28.113-7.336,2.717-.691,5.435-1.367,14.218-3.551,28.712-6.918c1.86-.433,3.721-.867,5.6-1.289q14.582-3.357,29.5-6.469,2.863-.6,5.726-1.195,15.019-3.105,30.313-5.969,2.985-.556,5.92-1.093,15.529-2.837,31.267-5.411c2.071-.32,4.157-.648,6.212-.988q16.014-2.543,32.335-4.8,3.227-.439,6.454-.867,16.645-2.214,33.661-4.086c2.216-.246,4.432-.488,6.664-.722q17.4-1.835,35.134-3.29,3.494-.292,6.988-.554,18.222-1.413,36.8-2.4c2.443-.132,4.869-.254,7.3-.363q9.148-.434,18.343-.754v-2.539q-12.35.434-24.7,1.082-3.64.188-7.279.4-18.27,1.054-36.557,2.554c-2.329.184-4.659.379-6.923.578q-17.445,1.512-34.939,3.442c-2.216.246-4.416.48-6.632.754q-4.416.5-8.832,1.039-12.3,1.482-24.635,3.18c-2.135.289-4.254.585-6.406.894q-16.038,2.256-32.206,4.9c-2.038.332-4.092.671-6.147,1.011q-15.529,2.584-31.138,5.516c-1.958.363-3.915.734-5.888,1.113q-15.019,2.877-30.232,6.059c-1.893.394-3.8.8-5.71,1.207q-14.631,3.123-29.407,6.551-2.79.637-5.581,1.3-14.267,3.359-28.728,6.985l-5.435,1.379q-13.976,3.568-28.146,7.394l-5.354,1.442q-13.733,3.75-27.693,7.769l-5.257,1.527q-13.539,3.933-27.321,8.125c-1.731.528-3.461,1.055-5.208,1.59q-13.418,4.114-27.046,8.469l-5.176,1.66q-13.3,4.278-26.835,8.8c-1.715.57-3.445,1.141-5.176,1.727q-8.128,2.73-16.386,5.55-5.168,1.776-10.3,3.563-2.6.891-5.192,1.8-13.3,4.64-26.593,9.433c-1.731.625-3.478,1.254-5.225,1.887q-13.3,4.8-26.593,9.746-2.645.961-5.289,1.969c-53.946,20.086-107.455,41.336-159.783,62.117C1406.637,441.371,1234.58,509.7,1037.763,546.8c-311.88,58.8-645.591,1.441-816.742-37.953Q106.935,482.666.109,446.633Zm0,0" transform="translate(0)"/><path class="b" d="M.109,464.793v2.762q82.865,29.262,170.349,52.824,96.134,25.957,196.755,44.285c70.312,12.742,140.36,22.074,208.215,27.738q77.757,6.593,156.246,6.684c93.307,0,181.754-7.539,264.312-22.555,212.065-38.621,394.349-113.492,570.632-185.9,61.627-25.313,125.052-51.348,188.638-75.313l5.079-1.918q12.859-4.827,25.751-9.531l.776-.269c1.44-.52,2.863-1.043,4.319-1.563q12.787-4.641,25.816-9.246l5.014-1.766q12.835-4.506,25.9-8.949c1.682-.566,3.348-1.137,5.031-1.7q12.932-4.365,26.091-8.637l5.031-1.637q13.078-4.218,26.4-8.335,2.548-.792,5.1-1.571,13.248-4.061,26.754-8l5.176-1.5q13.49-3.9,27.207-7.644l5.273-1.438q13.757-3.714,27.774-7.265c1.779-.457,3.575-.91,5.37-1.356q14.073-3.516,28.4-6.851c1.844-.434,3.7-.86,5.548-1.282q14.437-3.311,29.148-6.4l5.694-1.191q14.9-3.077,30.022-5.911,2.936-.55,5.872-1.085,15.359-2.825,30.96-5.368l6.131-.957q15.868-2.519,32.044-4.746c2.1-.293,4.238-.582,6.373-.867q16.523-2.2,33.322-4.066c1.99-.223,4-.438,6-.649l.615-.066q17.227-1.834,34.761-3.293c2.3-.192,4.594-.379,6.907-.559q18.027-1.436,36.4-2.4c2.394-.133,4.788-.254,7.2-.371q5.241-.258,10.5-.477v-2.82q-8.784.351-17.534.82-3.591.188-7.182.4-18.125,1.054-36.233,2.558c-2.3.188-4.578.387-6.875.582q-17.3,1.518-34.6,3.442c-2.184.246-4.384.5-6.567.746q-16.572,1.922-33.144,4.211c-1.553.211-3.106.425-4.642.648l-1.7.242q-15.941,2.268-31.882,4.883l-6.082,1.008q-15.359,2.579-30.782,5.484c-1.941.367-3.882.735-5.855,1.114q-14.874,2.881-29.86,6.027l-5.661,1.211q-14.412,3.111-29,6.515c-1.828.422-3.672.856-5.5,1.293q-14.073,3.335-28.291,6.957c-1.8.45-3.575.907-5.37,1.375q-11.525,2.948-23.163,6.106l-4.545,1.238c-1.731.477-3.494.957-5.257,1.442q-13.466,3.72-27.159,7.722-2.6.75-5.192,1.516-13.248,3.9-26.77,8.066l-5.079,1.578q-13.1,4.078-26.431,8.4l-5.063,1.648q-12.957,4.231-26.172,8.711-2.524.838-5.047,1.707-12.884,4.383-26.026,9.012l-5.031,1.781q-12.811,4.53-25.913,9.3l-.5.184-4.578,1.668q-12.908,4.74-25.849,9.6l-5.1,1.922c-62.324,23.563-124.455,49.078-184.854,73.906-176.036,72.3-358.074,147.075-569.576,185.594-81.7,14.879-170.089,22.25-262.866,22.25-175.814,0-367.494-26.437-560.016-78.3Q83.723,494.395.109,464.793Zm0,0"/><path class="b" d="M.109,485.215v2.808c36.927,13.821,77.4,27.832,121.168,41.477,134.3,41.809,268.382,70.246,398.616,84.508a1720.164,1720.164,0,0,0,187.484,10.5c85.485,0,167.68-6.887,245.759-20.633,226.843-39.977,418.786-121.512,604.418-200.356,66.02-28.05,134.3-57.05,202.238-83.261q4.562-1.77,9.156-3.52l4.934-1.883q12.472-4.746,25.073-9.433l4.885-1.821q12.52-4.617,25.121-9.164l4.885-1.753q12.593-4.489,25.315-8.891c1.618-.567,3.251-1.129,4.869-1.684q12.714-4.365,25.526-8.605l4.95-1.629q12.836-4.219,25.849-8.3c1.65-.523,3.3-1.043,4.966-1.558q13.054-4.061,26.254-7.977l5.1-1.5q13.272-3.9,26.739-7.633c1.715-.48,3.445-.961,5.176-1.441q13.563-3.728,27.3-7.262l5.306-1.359q13.9-3.528,27.952-6.852,2.718-.649,5.435-1.281,14.267-3.316,28.729-6.418l5.629-1.188q14.7-3.081,29.634-5.921l5.823-1.094q15.189-2.824,30.6-5.371,3.033-.481,6.066-.992,15.747-2.538,31.721-4.762c2.1-.293,4.206-.578,6.325-.863q16.378-2.222,33.047-4.086l2.151-.239.372-.039c1.343-.152,2.685-.3,4.028-.445q17.082-1.834,34.5-3.3c2.281-.2,4.562-.379,6.859-.562q17.907-1.441,36.169-2.4c2.362-.133,4.756-.258,7.15-.371l5.532-.266V186q-5.751.258-11.5.57c-2.378.125-4.756.254-7.134.4q-18,1.054-35.975,2.554c-2.265.188-4.546.383-6.826.586q-17.179,1.512-34.325,3.43a3.909,3.909,0,0,0-.615.074q-2.96.322-5.92.672-16.451,1.915-32.9,4.2c-2.087.289-4.189.578-6.292.887q-13.078,1.875-26.2,3.984-2.693.434-5.435.883c-2.006.332-4.028.668-6.034,1.008q-15.238,2.566-30.524,5.465c-1.925.359-3.866.73-5.775,1.109q-14.777,2.842-29.586,6c-1.876.4-3.737.793-5.629,1.2q-14.291,3.1-28.712,6.489-2.717.631-5.435,1.293-13.9,3.315-27.952,6.925-2.645.675-5.29,1.371-13.588,3.516-27.3,7.313l-5.193,1.441q-11.938,3.328-24,6.871l-2.782.817c-1.682.48-3.381,1-5.079,1.508q-13.03,3.879-26.318,8.031c-1.666.519-3.332,1.043-5.014,1.57q-12.812,4.049-25.914,8.352l-4.966,1.636q-12.69,4.2-25.623,8.637l-4.917,1.7q-12.569,4.348-25.412,8.942l-4.917,1.762q-12.472,4.494-25.267,9.222l-4.9,1.824q-12.423,4.635-25.2,9.5l-4.95,1.895-5.435,2.1c-68.02,26.243-136.331,55.258-202.4,83.317-185.36,78.738-377.045,160.156-603.273,200.027-82.295,14.5-164.7,20.629-245.047,20.629-223.8,0-432.269-47.644-583.912-94.863C78.518,513.512,37.5,499.258.109,485.215Zm0,0" transform="translate(0)"/><path class="b" d="M.109,508.605v2.852Q34.391,525.1,72.085,538.594c131.555,46.922,263.526,79.547,392.242,96.941a1597.164,1597.164,0,0,0,214.252,14.778,1376.259,1376.259,0,0,0,231.678-19.129c241.625-41.274,442.931-129.661,637.62-215.153,60.387-26.519,122.827-53.941,184.845-79.156q23.511-9.557,47.427-18.9l4.8-1.868q12.18-4.722,24.474-9.367l4.8-1.8q12.229-4.6,24.619-9.122c1.585-.582,3.187-1.16,4.788-1.734q12.35-4.476,24.83-8.84c1.6-.562,3.2-1.121,4.82-1.676q12.5-4.317,25.153-8.55c1.634-.547,3.267-1.086,4.885-1.618q12.69-4.2,25.525-8.257l4.95-1.547q12.908-4.038,25.962-7.93,2.524-.756,5.047-1.492,13.2-3.879,26.48-7.586l5.144-1.441q13.442-3.7,27.078-7.2c1.763-.457,3.526-.9,5.289-1.347,5.047-1.282,10.142-2.547,15.221-3.8,4.157-1.02,8.314-2.024,12.536-3.016l5.435-1.269q14.17-3.3,28.534-6.371c1.876-.4,3.753-.793,5.613-1.188q14.607-3.07,29.424-5.883c1.941-.371,3.882-.73,5.807-1.09q15.092-2.807,30.41-5.343c1.99-.321,4.011-.641,6.033-.957q15.626-2.532,31.51-4.742c2.054-.293,4.157-.583,6.292-.864q16.305-2.2,32.8-4.066l6.519-.727q16.984-1.827,34.26-3.3c2.281-.195,4.545-.382,6.81-.558q17.785-1.441,35.878-2.434c2.345-.137,4.691-.262,7.052-.379h0v-2.64c-2.167.1-4.319.222-6.47.336-2.362.129-4.707.261-7.069.4q-17.93,1.061-35.781,2.559c-2.249.187-4.513.382-6.778.585q-17.057,1.506-34.147,3.418l-4.011.481-.34.035-2.135.25q-16.378,1.922-32.723,4.18c-2.087.293-4.19.586-6.276.89q-15.7,2.256-31.4,4.844-3.009.5-6.017,1-7.764,1.313-15.464,2.7c-4.95.887-9.883,1.8-14.833,2.75-1.909.36-3.833.731-5.759,1.1q-14.655,2.841-29.359,5.98c-1.86.395-3.72.8-5.6,1.207q-14.17,3.076-28.469,6.457c-1.812.422-3.607.856-5.435,1.289q-13.806,3.31-27.709,6.9-2.621.673-5.241,1.363-13.418,3.51-27,7.3l-5.128,1.437q-13.126,3.7-26.447,7.68l-5,1.508q-12.86,3.873-25.914,8l-4.933,1.57q-12.641,4.032-25.509,8.32-2.426.809-4.853,1.633-12.471,4.184-25.169,8.613l-4.837,1.684q-12.35,4.324-24.911,8.9l-4.8,1.754q-12.229,4.471-24.717,9.161l-4.8,1.812q-12.156,4.611-24.571,9.426l-4.836,1.879q-21.595,8.438-44,17.535c-62.05,25.238-124.535,52.676-184.953,79.183-194.406,85.372-395.433,173.653-636.4,214.8-321.973,54.981-631.907-19.894-835.128-92.39C48.245,527.313,23.545,517.953.109,508.605Zm0,0" transform="translate(0)"/><path class="b" d="M.109,535.34v2.879q11.231,4.722,22.772,9.406C151.231,599.684,281.059,636.5,408.757,657.047a1494.2,1494.2,0,0,0,237.807,19.387q55.91.034,111.359-4.457t109.45-13.438c256.446-42.488,466.842-137.961,670.313-230.293,54.908-24.914,111.67-50.68,167.961-74.711q42.1-17.97,83.66-34.449L1794,317.23q12.01-4.728,24-9.32l4.707-1.785q12.107-4.605,24.215-9.062l4.707-1.731q12.229-4.482,24.457-8.809l4.74-1.671q12.423-4.348,24.765-8.528l4.8-1.613q7.594-2.543,15.173-5.016c3.332-1.082,6.648-2.16,9.98-3.222,1.618-.524,3.251-1.043,4.869-1.555q12.787-4.061,25.622-7.926c1.65-.5,3.316-1,4.966-1.5q13.054-3.9,26.107-7.594l5.079-1.437q13.321-3.732,26.722-7.235c1.731-.476,3.462-.906,5.193-1.351q13.66-3.544,27.4-6.84c1.8-.43,3.575-.859,5.37-1.281q14.073-3.334,28.21-6.4l5.532-1.195q14.509-3.105,29.116-5.922c1.909-.371,3.817-.738,5.742-1.1q14.995-2.843,30.1-5.379c1.99-.336,3.979-.668,5.985-1q15.5-2.544,31.251-4.77c2.071-.3,4.157-.586,6.211-.871q16.208-2.226,32.594-4.09c2.152-.25,4.319-.492,6.487-.73q16.936-1.858,34.082-3.321c2.248-.191,4.513-.379,6.777-.562q17.737-1.436,35.764-2.434,2.111-.117,4.222-.23V191.1H2329v-.48h-.049v-.918l-2.232.117q-3.518.2-7.036.406-17.858,1.056-35.619,2.551-3.373.282-6.745.582-17.033,1.5-34.017,3.407c-2.151.238-4.319.48-6.47.738q-16.3,1.922-32.61,4.168c-2.07.285-4.157.578-6.244.883q-15.65,2.232-31.267,4.8c-2.006.321-4,.657-5.985,1q-15.092,2.55-30.151,5.422l-5.759,1.106-5.419,1.058q-11.889,2.362-23.778,4.907c-1.86.394-3.7.8-5.564,1.2q-14.1,3.075-28.275,6.441-2.693.633-5.386,1.293-6.187,1.482-12.423,3.035-7.5,1.875-15.076,3.84c-1.731.445-3.462.9-5.208,1.363q-13.345,3.5-26.8,7.278c-1.682.468-3.381.949-5.079,1.437q-13.029,3.7-26.188,7.645c-1.65.48-3.3,1-4.966,1.5q-12.762,3.861-25.622,7.98c-1.634.512-3.251,1.031-4.869,1.559q-12.423,4-25.008,8.23l-.21.067-4.8,1.625q-12.326,4.178-24.846,8.589l-4.74,1.68q-12.156,4.318-24.522,8.867c-1.553.578-3.09,1.153-4.691,1.742q-12.01,4.437-24.247,9.118l-4.691,1.8q-11.889,4.564-24.069,9.387l-4.707,1.867c-25.477,10.125-52.069,21.118-80.263,33.157-56.323,24.05-113.129,49.82-168.056,74.746-203.1,92.238-413.2,187.562-668.936,229.929q-53.36,8.836-108.129,13.27t-110.007,4.4c-247.347,0-468-65.32-623.2-128.265Q12.374,540.514.109,535.34Zm0,0"/><path class="b" d="M.109,565.574v2.953c116.263,51.024,234.9,88,353.073,110.02a1413.467,1413.467,0,0,0,259,24.234q53.749-.006,107.051-4.242t105.3-12.641a1749.858,1749.858,0,0,0,194.234-42.753c58.284-16.262,116.743-35.559,178.73-58.989,114.993-43.465,224.071-94.586,329.548-144.023,89.819-42.1,178.243-83.543,269.118-120.176l4.594-1.848q11.743-4.7,23.536-9.3,2.33-.909,4.61-1.789,11.841-4.594,23.762-9.055l4.659-1.731q12.01-4.464,24.069-8.8l4.659-1.668q12.18-4.324,24.458-8.532,2.378-.809,4.755-1.609,12.375-4.207,24.846-8.238l4.821-1.547q12.641-4.055,25.38-7.926c1.65-.48,3.284-1,4.934-1.488q12.908-3.885,25.946-7.578c1.666-.485,3.365-.965,5.063-1.438q13.2-3.708,26.593-7.2,2.572-.691,5.192-1.352,13.563-3.521,27.321-6.812l5.354-1.277q13.976-3.3,28.162-6.364c1.844-.4,3.7-.8,5.548-1.187q14.461-3.076,29.084-5.879c1.909-.371,3.834-.735,5.742-1.086q14.971-2.818,30.119-5.336c1.99-.332,3.979-.656,5.985-.961q15.529-2.52,31.268-4.723c2.071-.289,4.157-.578,6.244-.859q16.184-2.2,32.594-4.043c2.184-.246,4.335-.488,6.5-.723q16.887-1.821,34.05-3.273c2.265-.191,4.513-.375,6.778-.555q17.688-1.412,35.716-2.4l.469-.024v-2.2q-2.887.159-5.775.332-16.014.955-31.866,2.235c-1.213.1-2.442.195-3.656.3-2.249.188-4.481.379-6.729.578q-17.009,1.5-33.92,3.391c-2.168.238-4.319.484-6.47.738q-16.306,1.875-32.5,4.137l-6.211.879q-15.6,2.226-31.171,4.8c-1.99.32-3.979.656-5.969.992q-15.019,2.549-30.055,5.41c-1.892.36-3.817.731-5.726,1.1q-14.51,2.825-29.052,5.953-2.766.591-5.532,1.2-14.049,3.064-28.146,6.426l-5.338,1.285q-13.636,3.3-27.337,6.863c-1.714.453-3.461.9-5.192,1.364-4.9,1.281-9.835,2.6-14.736,3.968q-5.9,1.623-11.857,3.293c-1.682.469-3.365.95-5.063,1.438q-12.908,3.68-25.962,7.621l-4.95,1.508q-12.617,3.837-25.4,7.969c-1.618.515-3.219,1.035-4.837,1.558-3.3,1.067-6.583,2.145-9.9,3.238-4.982,1.645-10.013,3.325-15.027,5.039l-4.772,1.622q-12.18,4.166-24.522,8.566l-4.659,1.68q-11.986,4.323-24.183,8.847l-4.659,1.735q-11.841,4.441-23.875,9.121l-4.659,1.8q-11.743,4.564-23.665,9.355-2.329.914-4.61,1.852-13.83,5.572-27.952,11.441c-80.62,33.535-160.814,71.121-238.364,107.5-211.7,99.223-430.615,201.82-701.154,245.356C490.828,737.121,195.95,651.7.109,565.574Zm0,0" transform="translate(0)"/><path class="b" d="M.109,232.145v2.5c162.186,29.872,326,45.25,485.106,45.25q20.784,0,41.469-.347C619.062,277.98,716.268,267.07,824,246.16c95.993-18.625,191.284-43.277,283.435-67.117,178.286-46.125,362.637-93.824,560.58-100.055,15.076-.477,30.151-.7,45.1-.7,108.781,0,214.182,12.172,312.514,31.195,2.588.5,5.144,1,7.683,1.5q19.653,3.891,38.935,8.161,3.809.831,7.586,1.683,17.494,3.909,34.616,8.086,3.785.919,7.522,1.844,14.971,3.7,29.666,7.574c2.524.668,5.063,1.34,7.57,2.016q12.181,3.246,24.069,6.6c2.329.641,4.643,1.3,6.956,1.965q9.9,2.813,19.637,5.691c2.426.711,4.836,1.426,7.247,2.149q7.425,2.22,14.736,4.469,3.2.96,6.357,1.957,6.017,1.863,11.97,3.75l6.858,2.187c2.766.887,5.516,1.77,8.25,2.668,1.941.625,3.866,1.254,5.791,1.887,2.264.738,4.513,1.48,6.761,2.226,2.151.711,4.3,1.442,6.438,2.145l4,1.34c1.763.594,3.526,1.191,5.273,1.789,1.132.383,2.281.773,3.413,1.16,2.119.727,4.238,1.453,6.341,2.18l.922.316c2.038.707,4.06,1.414,6.082,2.121l.938.324c1.391.485,2.782.965,4.157,1.438l.857.3,3.413,1.207,2.216.789,1.278.453,1.553.551,3.753,1.34.485.172v-2.4h.032v-.48h-.032l-.485-.172-1.747-.629-3.3-1.172c-.307-.113-.631-.227-.938-.332l-4.028-1.438-1.019-.355q-3.008-1.066-6.017-2.117l-.776-.281c-2.119-.743-4.238-1.477-6.373-2.207l-3.332-1.145q-2.645-.907-5.29-1.809l-3.882-1.308c-2.167-.731-4.319-1.453-6.47-2.172s-4.351-1.449-6.616-2.2c-1.925-.641-3.882-1.274-5.791-1.918-2.7-.883-5.435-1.766-8.1-2.637-2.329-.746-4.594-1.48-6.907-2.215Q2252,164.644,2246.1,162.8l-6.389-1.981q-7.255-2.254-14.542-4.449c-2.426-.738-4.869-1.465-7.3-2.191q-9.729-2.877-19.459-5.7c-2.313-.671-4.659-1.335-6.972-1.992q-11.962-3.4-23.907-6.633c-2.572-.691-5.112-1.378-7.683-2.058q-14.777-3.949-29.553-7.645l-4.076-1.015-3.494-.864q-17.4-4.294-34.729-8.222c-2.539-.586-5.1-1.16-7.635-1.723q-19.581-4.371-39.048-8.289-3.882-.774-7.716-1.535c-126.219-24.867-248.895-35.59-365.8-31.91-89.108,2.8-183.129,14.211-287.425,34.867-92.928,18.406-185.2,42.281-274.449,65.367-183.979,47.61-374.308,96.844-579.354,100.3C354.6,280.066,176.393,264.672.109,232.145Zm0,0"/><path class="b" d="M.109,238.125v2.5c165.865,31.453,333.639,47.676,496.5,47.676q14.578,0,29.066-.176c92.3-1.1,189.649-11.516,297.59-31.871,96.2-18.129,191.747-42.289,284.177-65.656,178.8-45.2,363.684-91.942,561.612-97.176,12.6-.332,25.234-.48,37.754-.48,93.157,0,183.79,8.981,269.635,23.606q3.737.644,7.522,1.3,19.532,3.416,38.692,7.2,3.688.72,7.376,1.469,17.349,3.486,34.374,7.257,3.639.8,7.279,1.621,15.214,3.423,30.152,7.047c2.426.582,4.82,1.168,7.23,1.758q12.714,3.129,25.234,6.379l6.826,1.793q10.434,2.748,20.721,5.578c2.345.641,4.659,1.281,6.972,1.922q8.056,2.232,15.982,4.523c2.119.61,4.222,1.215,6.325,1.829,4.335,1.265,8.638,2.546,12.94,3.839,2.232.668,4.481,1.34,6.729,2.016,3.09.938,6.2,1.879,9.269,2.824l5.759,1.774q3.761,1.166,7.489,2.34c2.135.671,4.271,1.343,6.39,2.019,1.553.488,3.09.984,4.659,1.481,1.763.558,3.51,1.121,5.257,1.695l3.9,1.262c2.022.656,4.044,1.316,6.05,1.976l1.553.524c2.135.7,4.271,1.41,6.389,2.121.146.043.291.093.421.144,1.65.543,3.3,1.09,4.917,1.641.129.039.259.082.388.133,1.359.449,2.718.9,4.06,1.359l1.909.656c.566.184,1.148.379,1.7.574.421.141.841.278,1.262.426,1.278.434,2.556.871,3.817,1.313q22.007,7.541,42.963,15.23v-2.933q-18.052-6.593-36.186-12.856l-3.817-1.312-1.294-.45-1.634-.554-1.973-.672-3.947-1.344-.469-.156-4.772-1.609-.518-.176c-2.119-.707-4.238-1.414-6.341-2.114l-1.5-.48c-2.022-.672-4.06-1.344-6.082-2.008-1.294-.422-2.556-.84-3.85-1.25-1.747-.578-3.51-1.148-5.273-1.715l-4.546-1.441c-2.119-.68-4.254-1.359-6.389-2.035q-3.688-1.171-7.376-2.321c-1.925-.6-3.833-1.2-5.775-1.789-3.025-.961-6.066-1.894-9.091-2.8-2.265-.684-4.513-1.364-6.761-2.039q-6.406-1.923-12.8-3.809l-6.325-1.848c-5.29-1.535-10.547-3.043-15.82-4.523-2.362-.668-4.707-1.324-7.053-1.973q-10.288-2.877-20.543-5.6c-2.3-.614-4.562-1.215-6.858-1.813q-7.813-2.057-15.626-4.043l-9.463-2.4q-3.639-.9-7.279-1.793-15.019-3.738-30.1-7.164c-2.443-.563-4.869-1.11-7.312-1.656q-17.251-3.869-34.454-7.383c-2.475-.508-4.934-1.008-7.392-1.5q-19.411-3.9-38.741-7.336-3.785-.674-7.57-1.332c-108.265-18.828-213.8-26.992-315.17-24.313-89.1,2.355-183.2,13.278-287.739,33.4-93.157,17.929-185.669,41.324-275.167,63.953-184.518,46.656-375.329,94.9-580.339,97.347-9.636.11-19.324.168-28.99.168C333.742,285.9,165.974,269.648.109,238.125Zm0,0" transform="translate(0)"/><path class="b" d="M.109,244.1v2.511c169.5,33.071,341.216,50.16,507.814,50.16,5.6,0,11.14,0,16.726-.058,92.278-.637,189.705-10.559,297.875-30.36,96.385-17.636,192.227-41.3,284.9-64.187,179.325-44.281,364.728-90.07,562.612-94.3,10.175-.219,20.365-.328,30.459-.328a1567.609,1567.609,0,0,1,228.791,17.277c2.491.364,4.982.739,7.457,1.118q19.532,2.964,38.725,6.336c2.426.418,4.853.847,7.247,1.281q17.276,3.087,34.276,6.484c2.362.469,4.723.949,7.1,1.438q15.262,3.1,30.313,6.433,3.519.768,6.988,1.559,13.151,2.954,26.108,6.051c2.232.539,4.48,1.078,6.7,1.621q10.919,2.66,21.692,5.41c2.249.578,4.5,1.156,6.761,1.742q8.614,2.232,17.13,4.527c2.1.567,4.206,1.133,6.292,1.7q6.988,1.892,13.879,3.839c2.2.606,4.384,1.223,6.567,1.852q5.144,1.441,10.239,2.937c1.925.551,3.834,1.11,5.742,1.668q4.1,1.2,8.153,2.4c2.135.636,4.254,1.277,6.373,1.918l5.273,1.593q2.669.8,5.338,1.633c1.44.434,2.879.883,4.319,1.328l5.791,1.793,2.232.7c2.2.691,4.416,1.382,6.616,2.082l.064.023,5.532,1.762,4.61,1.476,1.634.528c.7.226,1.391.453,2.071.683l1.084.352c1.294.41,2.572.828,3.85,1.25,29.1,9.527,56.971,19.355,83.5,29.277v-2.945q-38.361-14.292-77.013-27.043l-3.882-1.262-1.1-.359-2.022-.668-1.666-.539-4.562-1.477h-.032l-5.516-1.765c-2.216-.708-4.432-1.415-6.665-2.11l-2.119-.672-5.839-1.828-4.238-1.316L2208.936,186c-1.715-.531-3.446-1.055-5.176-1.574L2197.4,182.5q-4.052-1.218-8.072-2.4-2.863-.851-5.726-1.68-5.047-1.482-10.094-2.922-3.3-.962-6.6-1.875-6.891-1.945-13.75-3.84c-2.1-.578-4.189-1.152-6.292-1.719q-8.541-2.309-17-4.531l-3.478-.91-3.332-.863q-10.8-2.79-21.546-5.434-3.373-.837-6.745-1.648-13.006-3.159-25.979-6.11-3.518-.8-7.036-1.586-15.214-3.4-30.346-6.527l-7.134-1.441q-17.179-3.476-34.293-6.6c-2.426-.441-4.837-.879-7.263-1.309q-19.411-3.462-38.709-6.464-3.736-.58-7.473-1.145c-91.167-13.84-180.36-19.875-266.61-18.035-89.1,1.922-183.321,12.355-288.059,31.941-93.307,17.449-186.122,40.367-275.874,62.532-185.081,45.707-376.5,92.968-581.393,94.378-5.535.039-11.121.059-16.676.059C341.318,294.375,169.609,277.25.109,244.1Zm0,0" transform="translate(0)"/><path class="b" d="M.109,250.082V252.6C174.715,287.641,351.9,305.617,523.623,305.3c92.253-.168,189.783-9.6,298.175-28.844,96.575-17.14,192.69-40.312,285.677-62.723,179.825-43.359,365.779-88.195,563.645-91.421a1521.358,1521.358,0,0,1,212.584,11.82c2.491.309,4.982.621,7.457.957q19.629,2.536,38.968,5.5,3.615.545,7.182,1.113,17.349,2.719,34.439,5.758,3.518.621,6.988,1.262,15.286,2.783,30.378,5.805,3.421.686,6.843,1.382,13.393,2.708,26.593,5.633c2.248.481,4.464.961,6.681,1.477,7.554,1.687,15.076,3.414,22.517,5.179,2.2.52,4.384,1.036,6.567,1.563q9.148,2.2,18.182,4.465c2.071.519,4.157,1.043,6.276,1.578,4.95,1.25,9.851,2.523,14.736,3.812q3.252.839,6.454,1.7,5.6,1.488,11.194,3.007l5.742,1.575c2.96.812,5.888,1.628,8.816,2.453,2.119.59,4.222,1.187,6.341,1.785l5.84,1.668,5.484,1.59q2.329.679,4.659,1.367c1.86.543,3.7,1.086,5.548,1.637q1.432.415,2.863.851c2.135.637,4.271,1.277,6.389,1.918l.6.18q2.669.8,5.338,1.621c.146.039.275.082.421.129q2.4.72,4.756,1.441c.453.129.906.266,1.343.406l2.475.77c.34.094.647.2.97.3q1.917.585,3.834,1.2c43.335,13.535,84.26,27.9,122.339,42.406v-2.964c-38.467-14.625-77.273-28.094-116.079-40.313q-1.917-.609-3.882-1.207c-.323-.1-.663-.207-.987-.3l-2.41-.754-1.375-.425-4.74-1.465-.356-.106-5.387-1.644-.5-.153c-2.151-.64-4.287-1.281-6.438-1.921-.922-.278-1.844-.551-2.75-.821-1.876-.562-3.737-1.113-5.613-1.664-1.553-.457-3.106-.914-4.643-1.359q-2.742-.809-5.484-1.594c-1.909-.559-3.834-1.109-5.759-1.656-2.1-.613-4.238-1.215-6.357-1.809-2.9-.824-5.807-1.64-8.687-2.441-1.925-.539-3.85-1.067-5.759-1.59-3.688-1.016-7.36-2.012-11.048-3l-4.222-1.125-2.265-.6q-7.3-1.946-14.639-3.84c-2.087-.539-4.19-1.074-6.276-1.6q-9.026-2.3-18.036-4.477c-2.216-.531-4.416-1.066-6.616-1.59q-11.234-2.684-22.42-5.214-3.349-.756-6.7-1.5-13.321-2.97-26.609-5.71c-2.281-.477-4.578-.946-6.842-1.407q-15.238-3.1-30.395-5.9-3.518-.663-6.988-1.281-17.251-3.129-34.406-5.879c-2.41-.387-4.8-.77-7.2-1.145q-19.533-3.053-38.936-5.629c-2.475-.32-4.966-.64-7.441-.961a1532.705,1532.705,0,0,0-219.831-12.675c-89.073,1.437-183.393,11.421-288.354,30.468-93.5,16.969-186.58,39.414-276.589,61.117-185.619,44.75-377.539,91.028-582.4,91.4h-4.448C348.84,302.9,173.23,284.887.109,250.082Zm0,0"/><path class="b" d="M.109,256.063v2.527C174.143,294.469,351,313.332,522.553,313.883c92.208.285,189.843-8.641,298.448-27.328,96.776-16.653,193.161-39.352,286.367-61.266,180.333-42.437,366.815-86.316,564.663-88.547,5.322-.058,10.66-.09,15.982-.09a1501.584,1501.584,0,0,1,151.049,7.746c2.507.25,5,.512,7.489.778q19.823,2.091,39.388,4.66c2.394.32,4.8.637,7.214.957q17.494,2.361,34.778,5.074c2.329.363,4.659.735,6.972,1.11q15.432,2.472,30.637,5.214,3.4.6,6.794,1.231,13.515,2.472,26.868,5.144c2.216.438,4.432.883,6.632,1.332q11.7,2.379,23.261,4.891c2.151.465,4.3.938,6.47,1.418q9.633,2.121,19.184,4.34l6.211,1.441q7.837,1.846,15.626,3.754,3.154.774,6.308,1.555c4.06,1,8.088,2.016,12.116,3.047l5.759,1.484q4.756,1.226,9.5,2.481l6.26,1.664c2.151.574,4.3,1.156,6.47,1.742,1.86.508,3.737,1.015,5.6,1.535,1.7.461,3.381.926,5.063,1.4,1.8.481,3.607,1,5.4,1.5,1.132.325,2.281.641,3.413.961q3.105.869,6.211,1.758c.372.1.776.211,1.116.321,1.747.5,3.478,1,5.209,1.5.275.074.534.144.777.226,1.65.481,3.284.961,4.933,1.441l1.052.305,2.863.848.89.258,3.817,1.132q82.3,24.627,159.638,54.778V262.7q-74.489-28.95-153.6-52.757c-1.278-.387-2.54-.766-3.817-1.145-.307-.09-.6-.18-.89-.262-.938-.281-1.876-.562-2.814-.836l-1.1-.324-4.9-1.441-.728-.215c-1.731-.508-3.494-1.016-5.225-1.516-.34-.105-.7-.2-1.035-.3q-3.106-.9-6.211-1.781c-1.1-.32-2.216-.633-3.332-.961-1.8-.512-3.607-1.019-5.419-1.527l-5-1.391-5.613-1.539-2.621-.715-3.753-1.011c-2.087-.575-4.189-1.137-6.276-1.688q-4.707-1.254-9.4-2.48-2.888-.756-5.775-1.493c-4-1.031-7.974-2.043-11.97-3.043-2.119-.531-4.222-1.058-6.341-1.578q-7.764-1.922-15.529-3.761c-2.087-.481-4.157-1-6.244-1.481q-9.536-2.232-19.055-4.367c-2.151-.481-4.319-.957-6.486-1.438q-11.6-2.561-23.163-4.933c-2.216-.481-4.432-.914-6.648-1.363q-13.466-2.726-26.852-5.219-3.4-.639-6.794-1.254-15.335-2.8-30.621-5.281c-2.313-.387-4.642-.762-6.972-1.133q-17.421-2.784-34.729-5.184c-2.394-.336-4.8-.66-7.2-.984q-19.678-2.649-39.258-4.8c-2.507-.277-5-.543-7.506-.8a1504.368,1504.368,0,0,0-174.131-8.367c-89.072,1.008-183.491,10.492-288.657,29.008-93.7,16.492-187.038,38.453-277.307,59.7-184.794,43.484-375.857,88.438-579,88.438H522.59C351,310.93,174.156,292.027.109,256.063Zm0,0" transform="translate(0)"/><path class="b" d="M.109,262.047v2.539c173.467,36.723,349.947,56.461,521.461,57.875,92.2.766,189.916-7.676,298.735-25.809,96.966-16.144,193.649-38.343,287.1-59.816,180.88-41.512,367.856-84.461,565.688-85.668q61.315-.345,122.16,4.391c2.523.2,5.047.394,7.57.6q20.066,1.647,39.889,3.8c2.426.258,4.853.523,7.3.8q17.761,2,35.28,4.371c2.378.32,4.739.641,7.1.961q15.65,2.174,31.106,4.637c2.265.351,4.513.718,6.778,1.086q13.685,2.226,27.224,4.656l6.583,1.2q11.938,2.191,23.714,4.523l6.438,1.286q10.094,2.026,20.074,4.168c2.087.445,4.157.894,6.2,1.343q8.274,1.794,16.467,3.664,3.105.7,6.211,1.438,6.551,1.506,13.005,3.055c1.941.48,3.882.921,5.791,1.39,3.413.82,6.81,1.653,10.223,2.5l6.163,1.543c2.378.594,4.756,1.195,7.117,1.8,1.908.48,3.817.961,5.726,1.476,1.893.512,3.656.958,5.484,1.438s3.494.918,5.241,1.379l3.963,1.058q3.009.792,5.969,1.61l1.65.445c1.7.481,3.4.922,5.1,1.391.388.1.76.207,1.148.32,1.7.461,3.4.93,5.079,1.406l.776.211,3.3.918.777.231,3.817,1.078a2051.762,2051.762,0,0,1,195.437,66.4v-3c-62.7-24.777-126.43-46.437-189.694-64.488-1.278-.371-2.54-.731-3.817-1.09l-.825-.23-3.219-.911-.777-.226-3.834-1.07-1.229-.336-1.1-.309c-1.715-.477-3.413-.957-5.112-1.406-.517-.141-1.035-.285-1.553-.422q-3.009-.826-6.017-1.637c-1.294-.347-2.588-.7-3.882-1.039-1.747-.476-3.51-.941-5.257-1.4s-3.559-.938-5.435-1.438c-1.909-.48-3.8-1-5.694-1.484-2.346-.606-4.691-1.2-7.02-1.793q-3.106-.786-6.212-1.563-5.071-1.264-10.094-2.5c-1.941-.476-3.882-.957-5.791-1.4q-6.454-1.559-12.892-3.055-3.106-.732-6.212-1.437-8.177-1.881-16.305-3.676c-2.087-.481-4.173-.914-6.244-1.36-6.681-1.445-13.313-2.847-19.961-4.2-2.135-.441-4.287-.879-6.438-1.3q-11.841-2.4-23.665-4.586c-2.2-.411-4.4-.813-6.616-1.211q-13.588-2.49-27.159-4.739l-6.778-1.109q-15.5-2.52-31.041-4.727c-2.329-.339-4.723-.671-7.069-1q-17.639-2.443-35.182-4.484c-2.426-.289-4.837-.562-7.263-.828q-19.945-2.238-39.76-3.945c-2.523-.223-5.047-.434-7.554-.637q-64.323-5.29-129.213-4.93c-89.067.551-183.589,9.559-288.971,27.535-93.935,16.016-187.5,37.5-278.022,58.282C919.37,277.453,726.34,321.758,521.6,320.063,350.1,318.648,173.588,298.859.109,262.047Zm0,0" transform="translate(0)"/><path class="b" d="M.109,268.031v2.543c172.9,37.574,349.031,58.192,520.444,60.469,92.163,1.223,189.97-6.719,299-24.3,97.17-15.664,194.072-37.355,287.842-58.34,181.358-40.59,368.9-82.543,566.694-82.793h1.65q38.288,0,75.913,2.012c2.556.133,5.111.273,7.651.422q20.382,1.178,40.52,2.879c2.491.207,4.966.422,7.441.648q18.1,1.611,35.975,3.645c2.426.273,4.837.551,7.247.832q15.965,1.881,31.785,4.062c2.264.313,4.545.633,6.81.957q13.976,1.987,27.758,4.192c2.2.347,4.416.7,6.616,1.066q12.108,1.986,24.1,4.125c2.151.379,4.3.77,6.438,1.156q10.433,1.923,20.77,3.93c2.087.406,4.173.813,6.211,1.231q8.687,1.716,17.292,3.527c2.054.43,4.109.863,6.131,1.3,4.659.988,9.3,2,13.895,3.019q2.936.639,5.823,1.3,5.435,1.224,10.919,2.488c2.038.465,4.06.946,6.1,1.442q3.931.913,7.861,1.863c1.925.457,3.85.926,5.759,1.394,2.006.481,4,.961,5.985,1.442l5.128,1.273,4.5,1.133c1.941.488,3.866.981,5.791,1.477.712.175,1.44.363,2.167.55,1.666.426,3.348.856,5.014,1.3.485.129.987.254,1.472.387,1.763.457,3.542.922,5.306,1.391q.218.053.437.117c1.246.324,2.507.66,3.769,1l.728.2,3.817,1.028A2017.151,2017.151,0,0,1,2328.955,301.8v-3a2026.583,2026.583,0,0,0-202.084-69.363q-11.234-3.194-22.452-6.243l-3.817-1.031-.776-.2-3.688-.988-.485-.133-5.273-1.391-1.44-.375c-1.666-.441-3.348-.875-5.031-1.308l-2.07-.539c-1.941-.477-3.882-1-5.823-1.493-1.472-.379-2.96-.754-4.432-1.117q-2.572-.656-5.144-1.285c-1.973-.48-3.947-.984-5.9-1.465l-5.759-1.406c-2.588-.625-5.16-1.242-7.764-1.852l-6.115-1.441q-5.435-1.266-10.821-2.488c-1.941-.45-3.882-.891-5.807-1.317-4.594-1.035-9.172-2.043-13.766-3.027-2.07-.445-4.125-.883-6.147-1.316q-8.589-1.829-17.179-3.551c-2.071-.422-4.157-.84-6.212-1.242q-10.336-2.062-20.689-3.973c-2.135-.4-4.271-.789-6.422-1.176q-12.035-2.191-24.053-4.191-3.3-.556-6.6-1.09-13.854-2.256-27.661-4.262c-2.265-.332-4.545-.656-6.81-.961q-15.868-2.244-31.64-4.16c-2.41-.293-4.8-.578-7.2-.859q-17.979-2.092-35.846-3.766c-2.459-.234-4.934-.461-7.392-.676q-20.26-1.8-40.359-3.054c-2.54-.161-5.079-.313-7.6-.481q-42.7-2.443-84.632-2.4c-89.041.105-183.663,8.64-289.26,26.074-94.085,15.535-187.956,36.547-278.743,56.863-187.2,41.9-380.762,85.231-585.442,82.492C349.2,326.363,173.033,305.7.109,268.031Zm0,0" transform="translate(0)"/><path class="b" d="M.109,274.016v2.554c172.342,38.422,348.111,59.91,519.423,63.059,92.133,1.7,190.028-5.758,299.291-22.781,97.359-15.168,194.565-36.371,288.576-56.875,181.87-39.668,369.953-80.672,567.707-79.914q16.451.064,32.756.507c2.588.071,5.193.145,7.829.231q20.746.668,41.233,1.922c2.572.156,5.111.316,7.651.48q18.586,1.219,36.978,2.879c2.459.219,4.918.449,7.392.68q16.4,1.57,32.675,3.465c2.313.269,4.61.543,6.907.82q14.315,1.74,28.486,3.715c2.232.308,4.448.621,6.665.961q12.423,1.781,24.684,3.738c2.167.344,4.3.688,6.454,1.035q10.7,1.746,21.3,3.621,3.13.546,6.212,1.117,9.075,1.629,18.084,3.36c2.038.387,4.076.781,6.1,1.18q7.4,1.44,14.752,2.953c1.941.4,3.9.8,5.856,1.207q5.848,1.212,11.647,2.468,3.009.645,6.017,1.305,4.319.961,8.638,1.918c1.925.434,3.85.871,5.791,1.313,2.184.488,4.351.988,6.519,1.5,1.7.39,3.381.785,5.063,1.179,1.7.391,3.365.789,5.063,1.188,1.86.445,3.737.891,5.6,1.348.906.21,1.812.433,2.7.648l4.966,1.215,1.8.437,5.516,1.375.114.024,4.27,1.07.647.168c1.294.324,2.588.652,3.866.984a1985.338,1985.338,0,0,1,263.6,87.868V316.91a2007.049,2007.049,0,0,0-201.988-70.722q-28.194-8.187-56.243-15.4l-3.882-.988c-.226-.063-.453-.113-.679-.172l-4.173-1.055-.162-.043c-1.844-.48-3.672-.922-5.516-1.375-.566-.148-1.148-.293-1.731-.429-1.65-.414-3.316-.821-4.982-1.227l-2.588-.637c-1.893-.457-3.769-.91-5.662-1.359-1.65-.4-3.3-.8-4.966-1.18-1.65-.383-3.365-.8-5.063-1.2-2.151-.5-4.3-1-6.438-1.492-1.925-.446-3.882-.883-5.791-1.321-2.847-.64-5.678-1.277-8.541-1.918-2.006-.445-4.028-.886-6.034-1.324q-5.775-1.26-11.55-2.469c-1.957-.417-3.882-.824-5.872-1.222-4.869-1.012-9.754-2-14.623-2.961q-3.057-.615-6.115-1.2-8.978-1.752-17.971-3.4-3.106-.574-6.26-1.133-10.628-1.916-21.207-3.664c-2.168-.359-4.3-.711-6.438-1.058q-12.3-2.01-24.587-3.8l-6.632-.957q-14.219-2.022-28.356-3.793c-2.329-.289-4.61-.567-6.907-.844q-16.305-1.958-32.481-3.566c-2.459-.246-4.9-.481-7.36-.711q-18.416-1.752-36.735-3.028c-2.54-.179-5.079-.351-7.6-.515q-20.576-1.342-41.022-2.1-3.906-.146-7.764-.265-20.066-.645-39.954-.723c-89.043-.34-183.766,7.68-289.559,24.6-94.283,15.059-188.412,35.59-279.464,55.45C918.3,298.664,724.181,341.008,519.576,337.238,348.3,334.082,172.451,312.539.109,274.016Zm0,0"/><path class="b" d="M.109,280v2.559C171.869,321.828,347.293,344.2,518.5,348.215c92.106,2.16,190.1-4.8,299.566-21.27,97.56-14.675,195.037-35.382,289.312-55.41,178.424-37.914,362.8-77.074,555.9-77.1,2.717,0,5.451.007,8.185.023l4.659.035q18.78.163,37.4.828,3.979.141,7.958.3,19.241.774,38.272,2.059,3.785.25,7.57.523,16.984,1.218,33.823,2.82c2.345.219,4.707.449,7.053.688q14.8,1.464,29.456,3.211,3.373.4,6.745.812,12.787,1.576,25.477,3.36,3.251.456,6.5.921,10.991,1.583,21.9,3.305l6.276,1q9.414,1.518,18.715,3.137c2.022.355,4.06.707,6.1,1.074q7.813,1.383,15.577,2.84,2.96.545,5.92,1.117c4.125.789,8.282,1.59,12.423,2.4l5.953,1.188q4.732.962,9.431,1.922c1.941.4,3.866.805,5.807,1.215,2.378.5,4.74,1.007,7.117,1.523,1.682.363,3.381.731,5.063,1.106,1.86.4,3.72.812,5.564,1.226,1.828.4,3.656.813,5.484,1.227,1.068.238,2.151.48,3.219.738,1.65.367,3.284.742,4.934,1.129.712.156,1.423.324,2.135.476,1.86.43,3.7.864,5.548,1.3l.226.055c1.5.355,3.041.715,4.545,1.078l.566.133,3.963.961c110.787,26.726,211.109,62.141,296.128,97.8v-3.039a1993.363,1993.363,0,0,0-201.889-72.09q-44.669-13.242-89.047-24.028l-3.947-.961-.582-.144c-1.553-.363-3.025-.723-4.529-1.078l-.162-.039c-1.86-.442-3.721-.883-5.581-1.309-.679-.168-1.375-.328-2.07-.48-1.634-.387-3.284-.77-4.934-1.145l-3.154-.719c-1.844-.422-3.672-.836-5.5-1.242s-3.656-.816-5.484-1.223q-2.524-.573-5.047-1.117-3.542-.767-7.036-1.519c-1.941-.414-3.9-.824-5.791-1.227q-4.658-.99-9.317-1.922-2.984-.609-5.969-1.211c-4.109-.828-8.2-1.636-12.31-2.425-1.973-.383-3.947-.762-5.9-1.133q-7.764-1.478-15.464-2.879c-2.038-.367-4.06-.731-6.1-1.09q-9.317-1.653-18.634-3.172c-2.087-.351-4.173-.687-6.26-1.023q-10.919-1.758-21.8-3.36c-2.151-.32-4.319-.64-6.47-.961q-12.69-1.811-25.347-3.41c-2.248-.289-4.481-.566-6.729-.836q-14.655-1.8-29.246-3.3-3.518-.365-7.036-.711-16.839-1.659-33.581-2.938-3.761-.293-7.522-.555-19.047-1.365-37.964-2.222c-2.637-.121-5.257-.235-7.894-.336q-20.964-.851-41.814-1.07l-2.7-.032-5.386-.035c-87.457-.449-180.594,7.141-284.5,23.18C1291.8,229.754,1197.4,249.809,1106.1,269.2c-188.251,40.051-382.9,81.41-587.432,76.613C347.408,341.8,171.913,319.383.109,280Zm0,0" transform="translate(0)"/><path class="b" d="M.109,286v2.567C171.3,328.676,346.338,351.91,517.479,356.8c92.082,2.625,190.191-3.84,299.844-19.754,97.756-14.184,195.512-34.395,290.038-53.949,164.405-34,333.845-69.028,510.022-73.754q4.377-.123,8.741-.211,21.352-.457,42.849-.285,4.076.041,8.153.09h.227q20.09.286,39.954,1.129,3.907.163,7.813.351,17.737.845,35.312,2.117c2.443.168,4.869.348,7.3.535q15.407,1.184,30.653,2.676c2.313.219,4.61.449,6.923.684q13.272,1.365,26.447,2.933c2.2.262,4.384.528,6.584.8q11.379,1.413,22.695,2.981l6.357.886q9.705,1.389,19.314,2.879l6.147.961q8.177,1.294,16.305,2.672l5.985,1.027q6.648,1.155,13.2,2.352l5.92,1.086q5.144.962,10.256,1.945c1.941.364,3.866.735,5.791,1.117q3.882.762,7.764,1.543c1.715.336,3.413.684,5.128,1.036,2.006.406,4.028.824,6.034,1.242,1.8.371,3.624.746,5.435,1.133,1.262.257,2.523.527,3.785.8l4.95,1.059,2.475.539,5.435,1.2.582.125,4.74,1.067c.162.027.307.062.453.1,1.391.305,2.75.618,4.108.934,123.631,28.105,234.952,67.613,327.784,107.309v-3.063A1972.3,1972.3,0,0,0,2127.2,279.6q-59.155-17.965-120.93-32.184l-4.092-.93c-.162-.039-.307-.078-.469-.105-1.569-.36-3.138-.715-4.74-1.067l-.5-.113-5.435-1.215-2.426-.527-4.934-1.074-3.7-.789c-1.812-.387-3.607-.766-5.435-1.141q-2.984-.633-5.969-1.246c-1.7-.348-3.4-.7-5.1-1.039-2.588-.524-5.144-1.039-7.683-1.547l-5.791-1.133q-5.071-.984-10.142-1.918c-1.973-.375-3.947-.738-5.92-1.105q-6.575-1.207-13.1-2.36c-2.006-.351-4-.7-5.985-1.043q-8.1-1.394-16.176-2.707c-2.054-.328-4.108-.66-6.147-.98q-9.608-1.518-19.2-2.918c-2.119-.32-4.238-.625-6.341-.914-7.538-1.067-15.027-2.078-22.516-3.031-2.2-.286-4.384-.559-6.584-.821q-13.151-1.629-26.253-3.011c-2.3-.246-4.578-.481-6.875-.711q-15.237-1.548-30.41-2.774-3.615-.293-7.23-.566-17.542-1.336-34.988-2.25l-7.764-.387q-19.848-.926-39.582-1.312c-2.523-.051-5.063-.094-7.586-.129h-.712q-21.085-.288-42.623.054c-2.863.047-5.726.1-8.606.161-73.91,1.589-152.375,8.671-238.239,21.468-94.66,14.1-189.338,33.68-280.883,52.614-188.775,39.011-383.984,79.375-588.472,73.562C346.51,349.52,171.351,326.219.109,286Zm0,0" transform="translate(0)"/><path class="b" d="M.109,291.984v2.579c170.616,40.957,345.351,65.074,516.352,70.812,92.045,3.094,190.191-2.879,300.129-18.234,97.946-13.688,195.967-33.414,290.765-52.485,149.669-30.109,303.529-61.058,462.462-69.375q4.7-.252,9.395-.48,21.638-1.014,43.4-1.438c2.976-.066,5.969-.113,8.961-.144q20.939-.282,42.073.051l4.481.078,3.753.074q18.707.4,37.252,1.3c2.54.121,5.079.246,7.6.386q16.184.856,32.206,2.067c2.378.179,4.756.363,7.117.554q13.879,1.115,27.66,2.473,3.373.334,6.745.684,11.865,1.224,23.649,2.629c2.167.261,4.319.519,6.454.789q10.094,1.236,20.106,2.609,3.106.428,6.211.863,8.492,1.2,16.936,2.477c2.006.305,4.028.613,6.018.926,4.707.73,9.382,1.48,14.057,2.25l5.872.961,11.113,1.922c1.925.335,3.882.679,5.791,1.023q4.246.768,8.476,1.547l5.241.961c2.168.406,4.351.824,6.519,1.242,1.8.34,3.591.691,5.37,1.043l4.3.844c1.666.332,3.316.66,4.966,1,.97.187,1.925.378,2.879.574,1.8.363,3.575.73,5.37,1.105.307.055.615.125.938.192q2.5.515,5,1.047l.291.062c1.44.3,2.879.6,4.319.906,136.2,29.078,258.374,72.688,358.631,116.364v-3.016a1956.506,1956.506,0,0,0-201.662-74.863q-73.931-22.969-152.035-39.9-2.135-.462-4.27-.914l-.324-.074c-1.65-.348-3.316-.7-4.966-1.039-.291-.067-.582-.125-.874-.184-1.8-.379-3.607-.754-5.419-1.117-.938-.2-1.876-.383-2.8-.57-1.666-.344-3.316-.68-4.982-1.008q-2.111-.428-4.222-.84c-1.779-.359-3.575-.711-5.354-1.058-2.151-.422-4.319-.836-6.47-1.243-1.747-.336-3.478-.664-5.209-.984-2.782-.523-5.581-1.039-8.363-1.543-1.925-.352-3.882-.7-5.791-1.043-3.672-.656-7.311-1.3-10.967-1.918l-5.888-1q-6.988-1.166-13.927-2.266c-2.006-.32-4-.64-6.017-.957-5.613-.867-11.21-1.7-16.823-2.507q-3.106-.452-6.212-.883-10-1.407-19.961-2.656c-2.135-.282-4.287-.543-6.422-.809q-11.743-1.441-23.471-2.691c-2.232-.239-4.481-.481-6.713-.707q-13.733-1.407-27.418-2.555c-2.346-.207-4.707-.4-7.069-.582q-15.99-1.278-31.866-2.188-3.761-.222-7.521-.418-18.489-.96-36.816-1.441-4.076-.111-8.153-.195l-2.766-.059q-19.193-.369-38.822-.215c-2.944.024-5.888.051-8.848.094q-21.335.287-43.2,1.191-4.586.2-9.212.407c-59.774,2.8-122.8,9.019-190.425,18.718-94.854,13.625-189.793,32.723-281.6,51.2C916.8,330.477,721.084,369.859,516.633,363,345.612,357.238,170.795,333.059.109,291.984Zm0,0" transform="translate(0)"/><path class="b" d="M.109,297.977v2.582l.935.226q9.013,2.215,18.039,4.363c164.03,39.051,331.808,62.45,496.349,68.813,92.018,3.559,190.278-1.918,300.418-16.719,98.14-13.2,196.4-32.429,291.5-51.023,134.068-26.223,271.465-53.1,412.66-63.895q5.061-.392,10.136-.746,21.733-1.541,43.548-2.543,4.843-.222,9.7-.414,22.235-.879,44.609-1.137c2.944-.031,5.872-.054,8.816-.07h7.651q16.062,0,32.141.359l2.539.059c1.828.039,3.656.09,5.484.141q17.178.48,34.2,1.375,3.712.188,7.424.4,14.655.839,29.181,1.969,3.47.264,6.988.551,12.471,1.024,24.846,2.25,3.3.321,6.6.668,10.555,1.095,21.044,2.328c2.119.25,4.222.48,6.324.757q8.9,1.079,17.712,2.262c2.054.274,4.092.547,6.13.828q7.352,1.02,14.7,2.094,2.96.439,5.92.887,5.993.9,11.921,1.851c1.941.3,3.866.614,5.807.934,3.089.5,6.179,1.008,9.236,1.531l5.435.914,6.988,1.231,5.37.957c1.618.289,3.219.582,4.836.879,1.682.308,3.381.621,5.063.937l3.267.613c1.763.332,3.542.672,5.306,1.008l1.31.254c1.763.34,3.51.684,5.273,1.031a.275.275,0,0,1,.081,0l4.561.9c148.686,29.66,281.52,77.394,388.845,125.031v-3.1a1944.706,1944.706,0,0,0-201.564-76.277,1766.236,1766.236,0,0,0-182.428-47.2q-2.256-.48-4.513-.91h-.113q-2.62-.522-5.241-1.032c-.4-.085-.841-.168-1.245-.242-1.8-.351-3.559-.691-5.322-1.027q-1.6-.311-3.2-.606c-1.682-.328-3.365-.64-5.047-.96s-3.154-.59-4.739-.879c-1.8-.329-3.591-.653-5.387-.957-2.329-.418-4.659-.832-6.955-1.231-1.779-.316-3.559-.625-5.354-.93q-4.537-.785-9.107-1.531c-1.925-.328-3.882-.64-5.791-.961-3.931-.64-7.877-1.261-11.808-1.867l-5.9-.9q-7.3-1.1-14.606-2.121c-2.022-.289-4.06-.567-6.1-.844q-8.783-1.2-17.55-2.3l-6.308-.777q-10.458-1.266-20.883-2.4c-2.184-.234-4.384-.461-6.551-.687q-12.326-1.272-24.619-2.324-3.445-.306-6.891-.579-14.485-1.177-28.873-2.066c-2.443-.156-4.9-.3-7.344-.437q-16.936-.962-33.775-1.512c-2.653-.086-5.289-.168-7.926-.235l-4.5-.121q-17.2-.415-34.745-.418-4.343,0-8.686.028-21.74.117-43.993.879-4.748.157-9.523.355-21.4.851-43.37,2.289-4.976.316-9.964.676c-44.748,3.176-91.411,8.137-140.512,14.934-95.044,13.148-190.247,31.769-282.316,49.777C933.4,337.734,755.155,372.6,570.387,372.6q-27.238,0-54.63-1.039C346.52,365.027,173.922,340.43,5.543,299.3Zm0,0"/><path class="b" d="M.109,303.973v2.59Q17.3,310.88,34.565,314.98q10.738,2.562,21.5,5.012c151.686,34.672,306.3,55.9,458.343,62.551,91.993,4.02,190.348-.961,300.7-15.2,98.331-12.7,196.909-31.442,292.237-49.563,116.65-22.172,235.818-44.816,357.655-57.011q5.991-.6,11.98-1.161,22.056-2.079,44.249-3.667c3.559-.254,7.129-.481,10.692-.731q23.771-1.553,47.68-2.457,4.768-.176,9.562-.332,21.476-.674,43.081-.77h8.541q18.368.03,36.832.536l2.539.066,5.273.164q15.626.522,31.122,1.375c2.426.125,4.837.266,7.247.41q13.2.792,26.3,1.821l6.81.546q11.137.921,22.193,2.008c2.151.211,4.319.426,6.47.653q9.317.954,18.635,2.023,3.105.351,6.211.73c5.176.614,10.32,1.254,15.464,1.918l6.018.8q6.333.838,12.649,1.743l5.856.839q5,.733,9.98,1.493l5.6.859c2.507.4,5.031.8,7.554,1.207q2.718.434,5.435.891c1.8.3,3.591.6,5.37.894,1.715.285,3.445.578,5.16.875l3.688.641c1.747.3,3.494.613,5.257.926.582.093,1.148.2,1.714.3,1.812.325,3.607.649,5.435.961l.178.035c1.553.282,3.138.571,4.707.864,161.046,29.863,304.4,81.769,418.483,133.351v-3.129l-.259-.117a1931.734,1931.734,0,0,0-201.194-77.582,1741.585,1741.585,0,0,0-212.274-54.137c-1.537-.3-3.138-.586-4.707-.875l-.13-.023q-2.693-.5-5.435-.988c-.55-.106-1.1-.2-1.65-.3-1.763-.321-3.526-.641-5.273-.961-1.213-.215-2.394-.426-3.607-.633-1.715-.3-3.413-.594-5.144-.887-1.715-.293-3.526-.6-5.29-.894s-3.623-.61-5.435-.9q-3.737-.615-7.473-1.2c-1.844-.3-3.7-.59-5.548-.875q-4.95-.773-9.867-1.5-2.912-.439-5.823-.855-6.284-.915-12.536-1.766c-2.006-.277-4-.547-6-.8q-7.667-1.038-15.335-1.961-3.105-.387-6.211-.746-9.22-1.1-18.44-2.071c-2.151-.23-4.3-.453-6.438-.672q-10.991-1.125-21.983-2.066c-2.249-.2-4.481-.391-6.729-.574q-13.054-1.066-26.043-1.918c-2.394-.16-4.772-.309-7.166-.446q-15.383-.919-30.734-1.488c-2.572-.1-5.144-.187-7.7-.269l-4.254-.133q-15.869-.481-32.028-.578-4.2-.036-8.444-.032-20.915-.028-42.343.532-4.663.117-9.395.269-23.1.732-46.885,2.149-5.193.311-10.438.66-21.459,1.389-43.529,3.359-5.707.5-11.449,1.043-42.064,3.949-86.59,9.883c-95.241,12.668-190.71,30.816-283.038,48.359-190.367,36.188-387.22,73.6-591.532,64.664-157.587-6.89-317.916-29.476-474.9-66.5q-10.084-2.4-20.182-4.843Q9.84,306.426.109,303.973Zm0,0"/><path class="b" d="M.109,309.961v2.6q5.583,1.44,11.171,2.855,32.708,8.268,65.632,15.691,13.8,3.123,27.625,6.082C240.116,366.25,377.7,384.5,513.385,391.129c91.967,4.488,190.419,0,300.975-13.691,98.526-12.211,197.382-30.458,292.969-48.1,94.995-17.531,191.645-35.363,289.975-47.649q7.886-.984,15.778-1.921,25.013-2.977,50.164-5.4,6.056-.586,12.119-1.133,25.826-2.331,51.8-3.992,5.309-.334,10.629-.641,23.608-1.353,47.351-2.07,4.654-.141,9.314-.246,20.073-.48,40.239-.437c2.766,0,5.532.015,8.314.039q16.815.123,33.678.648c1.488.043,2.993.09,4.481.145l3.106.109q14.146.522,28.178,1.309c2.362.132,4.707.269,7.053.414q11.865.732,23.616,1.648c2.232.168,4.432.348,6.648.527q9.924.82,19.734,1.766,3.179.3,6.357.625,8.225.82,16.37,1.731c2.054.226,4.092.48,6.131.7,4.48.519,8.929,1.055,13.377,1.613q2.985.369,5.92.75,5.386.691,10.741,1.438c1.909.261,3.834.523,5.742.793q4.1.573,8.2,1.164c1.844.269,3.7.543,5.548.824,1.99.289,3.963.59,5.936.894l5.306.817,4.093.648,5.29.856,2.119.343q2.742.445,5.484.907l.469.082,4.8.816c173.323,29.692,327.04,85.813,447.582,141.324v-3.14l-1.116-.516A1914.842,1914.842,0,0,0,2127.636,346.5a1715.58,1715.58,0,0,0-241.584-60.715c-1.585-.285-3.187-.558-4.772-.828l-.437-.07c-1.812-.313-3.64-.621-5.419-.918-.7-.121-1.375-.231-2.07-.34-1.747-.3-3.51-.586-5.273-.863l-4.028-.649c-1.763-.285-3.51-.558-5.273-.832-1.941-.3-3.866-.6-5.839-.894-1.941-.293-3.688-.559-5.532-.832-2.7-.4-5.386-.793-8.088-1.176q-2.863-.411-5.726-.8-5.314-.72-10.595-1.441c-1.974-.262-3.931-.516-5.92-.766q-6.6-.849-13.232-1.637l-6.1-.715q-8.128-.926-16.208-1.765c-2.119-.227-4.222-.438-6.341-.645q-9.754-.96-19.492-1.82l-6.632-.555q-11.646-.96-23.277-1.715-3.518-.228-6.988-.441-13.927-.849-27.79-1.41c-2.491-.106-5-.2-7.489-.289l-2.054-.074q-15.408-.528-31.106-.727c-2.718-.031-5.435-.062-8.2-.078q-19.508-.147-39.491.226-4.549.088-9.125.2-22.822.545-46.321,1.765-5.166.258-10.357.559-24.916,1.441-50.643,3.6-5.84.48-11.734,1.027-23.657,2.121-48.129,4.875-7.337.82-14.747,1.7-10.72,1.266-21.572,2.66c-95.437,12.192-191.171,29.86-283.751,46.942-190.9,35.23-388.3,71.66-592.524,61.7C371,381.785,226.108,361.9,83.711,330.078Q71.1,327.26,58.506,324.32,29.163,317.465.109,309.961Zm0,0" transform="translate(0)"/><path class="b" d="M.109,315.961v2.613q14.463,3.809,28.971,7.453,13.326,3.364,26.69,6.551,39.761,9.545,79.8,17.836,20.747,4.318,41.564,8.254a2527.768,2527.768,0,0,0,335.238,41.043c91.93,4.949,190.47.957,301.255-12.176,98.724-11.715,197.851-29.469,293.706-46.633,65.619-11.754,132.035-23.648,199.215-33.757q11.962-1.811,23.948-3.528,30.963-4.441,62.1-8.269,8.085-.985,16.189-1.918,29.847-3.445,59.888-6.141,6.124-.533,12.221-1.047,26.644-2.2,53.43-3.687,5.146-.288,10.306-.535,22.284-1.09,44.686-1.606,4.494-.1,8.966-.172,18.416-.322,36.915-.187c2.685,0,5.37.035,8.056.074q15.262.182,30.54.691c2.459.082,4.934.168,7.408.27l.954.035q12.229.474,24.393,1.168c2.3.133,4.61.27,6.923.41q10.531.645,21.029,1.438c2.2.164,4.384.332,6.568.515q8.735.7,17.405,1.512c2.1.191,4.19.395,6.276.594q7.158.691,14.251,1.441c2.022.215,4.028.438,6.05.66q5.727.633,11.437,1.317l5.872.711q4.464.545,8.9,1.121l5.694.746,6.535.883,5.435.757,4.546.653c1.8.254,3.575.519,5.354.781l2.556.379c1.86.273,3.688.551,5.532.836l.825.125c1.634.254,3.268.48,4.885.762,185.537,29.136,349.576,89.531,476.33,148.988v-3.16l-1.99-.934A1902.262,1902.262,0,0,0,2127.7,363.164c-90.665-30.351-181.12-52.726-270.444-66.969-1.634-.261-3.251-.515-4.885-.769-.259-.043-.5-.082-.776-.117q-2.766-.434-5.532-.848-1.237-.193-2.475-.375c-1.779-.273-3.543-.539-5.338-.8l-4.465-.652-5.435-.77c-2.151-.3-4.3-.6-6.438-.887-1.893-.257-3.785-.507-5.662-.757-2.944-.391-5.856-.77-8.783-1.133-1.941-.25-3.9-.492-5.84-.727q-5.653-.686-11.307-1.332c-2.006-.234-4.028-.461-6.034-.683q-7.037-.774-14.073-1.485c-2.087-.211-4.174-.414-6.244-.617q-8.638-.832-17.227-1.555-3.251-.281-6.5-.535-10.409-.837-20.786-1.519l-6.859-.43c-8.331-.508-16.677-.941-24.992-1.3-1.747-.082-3.51-.152-5.241-.219l-2.087-.078q-14.9-.568-30.039-.82c-2.653-.047-5.306-.086-7.975-.109q-17.907-.223-36.192,0c-2.939.031-5.87.074-8.821.129q-21.524.375-43.668,1.339-5.006.211-10.035.477-25.494,1.248-51.85,3.269-5.886.451-11.817.961-28.063,2.309-57.229,5.5-7.488.814-15.052,1.688-8.424.961-16.972,2.02-20.954,2.565-41.918,5.468-10.775,1.483-21.566,3.047c-74.465,10.774-148.7,24.067-221,37.016C914.713,372.871,716.761,408.313,512.6,397.313a2526.326,2526.326,0,0,1-366.977-47.352q-17.771-3.615-35.492-7.477-37.457-8.156-74.681-17.433-12.208-3.042-24.377-6.2Q5.651,317.426.109,315.961Zm0,0" transform="translate(0)"/><path class="b" d="M.109,321.965v2.609q40.841,11,82.054,20.668,19.7,4.623,39.441,8.93,59.768,13.049,119.99,23.25a2501.046,2501.046,0,0,0,269.75,30.867c91.906,5.422,190.539,1.922,301.532-10.656q11.45-1.3,22.9-2.707c91.33-11.18,182.825-27.059,271.539-42.465q15.211-2.637,30.48-5.277,31.438-5.432,63.092-10.762c30.577-5.113,61.329-10.078,92.215-14.668q13.126-1.951,26.279-3.84,39.826-5.643,79.957-10.289,7.648-.873,15.335-1.7,31.458-3.4,63.144-5.953,5.874-.475,11.765-.907,25.457-1.875,51.043-3.086,4.918-.228,9.844-.425,20.53-.85,41.14-1.2,4.321-.075,8.644-.121,16.727-.2,33.506,0c2.588.024,5.209.055,7.829.1q13.733.211,27.515.684c2.41.082,4.82.175,7.247.265l6.794.289c5.306.235,10.611.5,15.885.8,2.249.125,4.513.254,6.778.391q9.366.574,18.683,1.254l6.454.48c5.1.395,10.191.817,15.254,1.266,2.07.187,4.125.375,6.211.57,4.109.379,8.185.777,12.261,1.2,1.99.2,4,.4,5.985.621q4.828.5,9.625,1.047c1.925.215,3.882.442,5.791.668q3.64.417,7.231.852l5.613.7,5.063.645c1.812.23,3.623.48,5.435.711l3.041.4,5.548.758,1.229.172c1.682.23,3.349.48,5.031.711,197.748,28.2,371.977,92.949,504.7,156.351v-3.187l-2.863-1.36a1886.12,1886.12,0,0,0-198.282-80.691c-100.192-34.2-200.288-58.578-298.944-72.9-1.682-.247-3.349-.481-5.031-.719-.372-.059-.777-.113-1.149-.16-1.844-.27-3.688-.524-5.548-.774l-2.944-.406c-1.812-.246-3.607-.488-5.435-.719-1.666-.222-3.3-.437-4.966-.648-1.86-.242-3.721-.477-5.6-.7-2.313-.3-4.723-.586-7.069-.864-1.941-.234-3.882-.48-5.807-.687-3.154-.363-6.325-.715-9.479-1.059-1.99-.222-3.963-.437-5.953-.636-4.044-.43-8.072-.84-12.116-1.227-2.071-.2-4.109-.395-6.147-.578q-7.546-.7-15.076-1.313-3.2-.263-6.406-.511-9.22-.709-18.424-1.3c-2.249-.148-4.513-.289-6.762-.418q-10.749-.651-21.514-1.125l-.825-.031c-2.378-.106-4.756-.207-7.166-.3-8.945-.344-17.987-.609-27.078-.789q-3.882-.082-7.716-.141-16.305-.246-32.9-.129-4.237,0-8.536.071-19.838.234-40.168.961c-3.2.117-6.414.234-9.629.375q-24.339.99-49.475,2.707-5.649.381-11.343.8-29.58,2.18-60.394,5.316-7.146.72-14.337,1.5-11.166,1.2-22.513,2.531-25.875,3.041-51.762,6.57-11.591,1.57-23.157,3.227-40.831,5.824-81.448,12.477-22.4,3.621-44.653,7.386-42.415,7.149-84.153,14.465c-139.275,24.176-281.995,48.949-427.8,56.149q-66.9,3.416-133.929,1.152-16.388-.574-32.832-1.539-122.769-7.359-242.2-26.4-38.47-6.087-76.854-13.367-50.611-9.6-100.921-21.222-16.861-3.891-33.678-8.02Q29.011,329.763.109,321.965Zm0,0"/><path class="b" d="M.109,327.957v2.625q11.762,3.24,23.556,6.371,9.193,2.432,18.4,4.8,65.7,16.893,132.237,30.34A2512.948,2512.948,0,0,0,510.32,416.867q8.72.557,17.534,1.012c82.174,4.219,170.01,1.465,267.418-8.391q8.388-.849,16.87-1.765c99.1-10.731,198.772-27.493,295.169-43.7q25.523-4.3,51.232-8.582c47.534-7.9,95.487-15.622,143.768-22.45q11.164-1.587,22.361-3.09,43.436-5.871,87.26-10.515,7.155-.744,14.325-1.442,30.366-2.988,60.911-5.16,5.564-.4,11.108-.75,23.429-1.517,46.96-2.457,4.7-.187,9.409-.351,18.632-.645,37.324-.864c2.768-.039,5.548-.062,8.321-.082q15.1-.111,30.234.082,3.81.048,7.619.114,12.326.216,24.684.644c2.362.074,4.707.16,7.069.254q7.158.288,14.315.637,2.936.146,5.872.3c2.232.121,4.464.246,6.681.375q8.25.474,16.451,1.058,3.178.217,6.357.457,6.624.48,13.248,1.051,3.057.252,6.114.523c3.462.321,6.939.641,10.4.957,1.973.188,3.963.379,5.937.579q3.955.4,7.91.808l5.742.617,5.661.629q2.79.316,5.581.641l3.559.422c1.86.222,3.736.449,5.6.679l1.666.207c1.715.211,3.445.43,5.176.653,209.977,26.875,394.347,96.051,532.811,163.418v-3.2l-3.72-1.8a1867.1,1867.1,0,0,0-197.344-81.731c-109.623-38.136-219.229-64.418-327.186-78.527-1.715-.223-3.445-.449-5.16-.66l-1.553-.207c-1.86-.231-3.721-.461-5.6-.688l-3.462-.425c-1.844-.219-3.7-.442-5.548-.653s-3.7-.425-5.548-.633-3.818-.425-5.726-.628q-3.882-.429-7.764-.825c-1.973-.2-3.931-.4-5.888-.593-3.445-.34-6.859-.661-10.272-.961-2.022-.188-4.044-.371-6.082-.547q-6.527-.568-13.054-1.082c-2.1-.168-4.222-.324-6.325-.477q-8.1-.6-16.224-1.1c-2.2-.141-4.416-.274-6.616-.4q-5.678-.334-11.355-.613c-2.847-.137-5.678-.274-8.557-.395q-3.494-.158-6.988-.285-12.035-.48-24.263-.734c-2.507-.055-5.015-.1-7.538-.145q-14.679-.252-29.666-.211c-2.724,0-5.435,0-8.2.039q-18.028.123-36.484.664-4.588.135-9.212.293-22.436.768-45.564,2.141-5.355.311-10.768.664-28.565,1.84-58.276,4.586-6.758.621-13.584,1.293-16.427,1.611-33.243,3.5-23.4,2.625-46.833,5.66-10.152,1.3-20.315,2.684c-39.593,5.351-79.141,11.4-118.367,17.711q-32.253,5.2-64.172,10.558l-36.193,6.059c-82.964,13.949-167.147,28.105-252.422,38.656-112.56,13.918-227.049,21.559-343.116,14.117q-14.464-.926-28.938-2.027a2507.729,2507.729,0,0,1-284.023-38.25q-33.629-6.486-67.1-13.871-56.3-12.41-112.01-27.356-8.5-2.267-16.985-4.605Zm0,0" transform="translate(0)"/></g></svg>