<svg width="65" height="59" viewBox="0 0 65 59" fill="none" xmlns="http://www.w3.org/2000/svg">
<path d="M32.835 0C28.8688 0 25.6401 3.22607 25.6401 7.18963C25.6401 11.1533 28.8688 14.3767 32.835 14.3767C36.8011 14.3767 40.0299 11.1533 40.0299 7.18963C40.0299 3.22607 36.8011 0 32.835 0Z" fill="#1D92FB"/>
<path d="M47.5368 6.54865C44.1805 6.54865 41.4521 9.27439 41.4521 12.6282C41.4521 15.9794 44.1805 18.7078 47.5368 18.7078C50.891 18.7078 53.6215 15.9794 53.6215 12.6282C53.6215 9.27439 50.891 6.54865 47.5368 6.54865Z" fill="#1D92FB"/>
<path d="M17.9259 6.54865C14.5721 6.54865 11.8438 9.27439 11.8438 12.6282C11.8438 15.9794 14.5721 18.7078 17.9259 18.7078C21.2823 18.7078 24.0107 15.9794 24.0107 12.6282C24.0107 9.27439 21.2823 6.54865 17.9259 6.54865Z" fill="#1D92FB"/>
<path d="M64.6943 41.8638C63.7923 38.9243 60.4988 37.9184 57.6036 38.7601L46.3514 42.1687C46.0592 42.2574 45.9425 42.6036 46.1166 42.8538C47.0732 44.2454 47.3935 46.0959 46.7524 47.8131C45.7157 50.5882 42.617 51.9905 39.907 50.9791L28.8476 46.8511C28.6052 46.763 28.4905 46.4869 28.5948 46.2494C28.6912 46.0305 28.9414 45.9265 29.1628 46.0099L40.0633 50.0772C42.3928 50.9451 45.0226 49.7937 45.8824 47.4635C46.8258 44.9178 45.3768 42.4869 42.8284 41.5354L24.8136 34.8122C22.2338 33.7385 19.4194 33.5952 16.6102 34.6089L5.77751 38.4709C2.44457 39.6591 0.258262 42.8565 0.362455 46.3901C0.521418 51.8597 5.92348 55.6336 11.1118 53.8871C13.3633 53.1293 15.4611 52.5769 16.7718 52.5869C22.5152 52.6316 29.869 56.7383 32.3837 57.6215C33.9603 58.1766 34.9609 58.1793 36.389 57.6322C36.892 57.4394 37.3949 57.2467 37.9108 57.0952C37.9238 57.0899 37.9395 57.0872 37.9525 57.0799L60.5949 47.683C60.6082 47.675 60.6236 47.6696 60.6396 47.667C63.5215 46.8177 65.4915 44.4615 64.6943 41.8638Z" fill="#1D92FB"/>
<path d="M53.8278 23.1534C52.1467 21.4753 49.9139 20.5502 47.537 20.5502C45.6711 20.5502 43.8786 21.1287 42.3802 22.1945C41.8693 21.1417 41.1813 20.1723 40.3292 19.3228C38.3279 17.3215 35.6672 16.2192 32.8346 16.2192C30.0046 16.2192 27.3415 17.3215 25.3401 19.3228C24.4593 20.201 23.7531 21.2095 23.2371 22.304C21.7101 21.1652 19.8625 20.5502 17.9263 20.5502C15.5524 20.5502 13.3165 21.4753 11.6357 23.1534C9.95494 24.8317 9.02979 27.0649 9.02979 29.4389V33.8429C9.02979 34.6533 9.13926 35.4481 9.34773 36.209L16.7276 33.577C18.4553 32.9542 20.183 32.7692 21.8612 32.9699V28.9437C21.8612 27.6877 22.0723 26.4604 22.4892 25.2903C22.6039 24.9724 22.9531 24.8082 23.271 24.9229C23.589 25.0349 23.7531 25.3841 23.6411 25.702C23.271 26.7391 23.0834 27.8284 23.0834 28.9437V33.1836C23.7088 33.3294 24.3264 33.5301 24.931 33.7803L40.4022 39.555C40.4022 39.555 40.6003 39.6332 40.9025 39.7557C41.9006 38.2051 42.4269 36.4201 42.4269 34.5439V28.9437C42.4269 27.7659 42.2161 26.6167 41.8041 25.53C41.6843 25.2148 41.8432 24.8603 42.1588 24.743C42.4736 24.6232 42.8285 24.7821 42.9453 25.0975C43.4122 26.3248 43.6464 27.6173 43.6464 28.9437V34.5439C43.6464 35.7947 43.4383 37.0194 43.024 38.1869C42.7712 38.8983 42.4449 39.5784 42.052 40.2195C42.9246 40.5713 43.8525 40.9517 44.0293 41.0377C45.0273 41.5224 46.1741 41.2253 46.4689 41.1368L55.1047 38.5204C55.9699 37.1289 56.4336 35.521 56.4336 33.8429V29.4389C56.4336 27.0649 55.5083 24.8317 53.8278 23.1534Z" fill="#1D92FB"/>
</svg>
