<svg width="75" height="69" viewBox="0 0 75 69" fill="none" xmlns="http://www.w3.org/2000/svg">
<path fill-rule="evenodd" clip-rule="evenodd" d="M32.3666 14.8544C32.3666 6.65198 39.6147 0 48.5486 0C57.4848 0 64.7329 6.64922 64.7329 14.8516C64.7329 23.054 57.4848 29.706 48.5486 29.706C45.7358 29.706 43.0896 29.0428 40.7825 27.882L34.1164 29.6646C33.0658 29.905 32.1261 29.0151 32.4213 28.0589L34.5681 22.3078C33.1768 20.1136 32.3666 17.5738 32.3666 14.8544ZM49.3372 18.0823H58.4846V18.0795C58.8939 17.0736 59.1051 15.9874 59.1051 14.8516C59.1051 9.50405 54.3777 5.1652 48.5509 5.1652C42.725 5.1652 37.9975 9.50405 37.9975 14.8516C37.9975 15.9874 38.2079 17.0736 38.615 18.0795H44.3145L48.1686 12.5191C48.8045 11.6155 50.1111 11.3557 51.0986 11.925C52.0682 12.5053 52.3634 13.7075 51.7429 14.6112L49.3372 18.0823ZM69.6533 24.5381C69.4305 24.5381 69.2077 24.5077 68.988 24.4387C67.8796 24.1015 67.2837 23.0043 67.6483 21.9901L67.652 21.9794C67.7286 21.7597 68.9487 18.256 68.9487 14.8517C68.9487 11.5657 68.0846 8.39314 66.3773 5.42227C65.8323 4.47708 66.23 3.30534 67.2598 2.80508C68.2866 2.31042 69.5692 2.66967 70.1111 3.61763C72.1407 7.14952 73.1674 10.9301 73.1674 14.8544C73.1674 18.9943 71.716 23.0458 71.6528 23.2171C71.3576 24.0268 70.5359 24.5409 69.6502 24.5409L69.6533 24.5381ZM32.6608 6.36507C31.7304 7.90166 31.029 9.58193 30.6497 11.3644L30.6466 11.3617L26.9189 6.98413L4.92328 22.4437L18.0389 38.785C18.0305 38.796 17.0007 44.9588 17.0007 44.973L1.0422 25.3759C0.355379 24.5634 0 23.6072 0 22.6565C0 21.2554 0.653652 19.8763 1.95716 18.9561L23.908 3.53789C24.8292 2.89118 25.9191 2.58442 26.9998 2.58442C28.4367 2.58442 29.9452 3.19519 30.9295 4.33658L32.6608 6.36507ZM43.6227 50.3701C44.7758 50.3701 45.7902 49.7121 46.2119 48.7945C47.2933 49.3994 48.2653 49.9413 49.1541 50.433L35.8958 59.7463C34.9416 60.4185 33.7707 60.7029 32.6892 60.7029C31.9731 56.8393 30.9579 54.3108 29.2991 50.9007L41.0211 42.6206H44.1738C43.7036 43.3087 43.6227 44.4003 43.6227 45.2047C42.0748 45.2047 40.8099 46.365 40.8099 47.7856C40.8099 49.2091 42.0748 50.3701 43.6227 50.3701ZM25.3284 46.4954V39.5422C25.3284 38.3897 24.3171 37.4777 23.11 37.4556C22.0285 37.4363 20.9925 38.1355 20.8121 39.2244L18.7918 51.2795L8.72865 39.1497C7.94314 40.7775 7.03666 43.577 7.03666 46.4954V49.1705C7.03666 53.247 8.80112 57.1573 11.9415 60.0395L21.1074 68.4522H30.9593L30.2124 62.9806C29.516 57.8616 28.1705 54.9797 27.0683 52.6188C26.1075 50.5607 25.3315 48.8985 25.3315 46.4954H25.3284ZM52.1135 32.2899H56.2868H56.2899C61.9169 32.2899 67.1231 36.5321 68.8544 39.4422L74.5816 49.0815V63.2864C74.2146 63.1419 73.8597 63.003 73.5158 62.8683C68.0905 60.7442 65.4039 59.6923 61.0351 55.0923C58.9144 52.8571 57.4237 52.0214 51.2823 48.5782C50.2022 47.9726 48.9783 47.2864 47.5818 46.4978C46.579 45.9672 46.1813 44.8451 46.6121 43.8916C47.0847 42.8359 48.3796 42.3274 49.5298 42.7309L63.013 47.8908L59.2406 40.4869C58.2979 38.638 56.2775 37.4552 54.0522 37.4552H48.8129C47.785 37.4552 47.282 37.6846 45.4019 38.5422C44.672 38.8752 43.7345 39.3028 42.4782 39.8484C41.3273 40.3486 39.9545 39.8291 39.5266 38.7237C39.1713 37.8089 39.5929 36.7726 40.5565 36.3083L44.1848 34.3074C46.5821 32.9864 49.3193 32.2899 52.1135 32.2899Z" fill="#002244"/>
</svg>
