<svg xmlns="http://www.w3.org/2000/svg" xmlns:xlink="http://www.w3.org/1999/xlink" width="157.42" height="157.807" viewBox="0 0 157.42 157.807"><defs><style>.a{clip-path:url(#a);}.b{fill:#f7f7f7;}</style><clipPath id="a"><path d="M1133.88,567.59H1291.3V725.4H1133.88Zm0,0" transform="translate(-1133.88 -567.59)"/></clipPath></defs><g class="a"><path class="b" d="M1278.652,627.652a157.17,157.17,0,0,1-84.814,84.819,155.432,155.432,0,0,1-29.36,8.9,158.579,158.579,0,0,1-30.6,2.993v-1.421a156.833,156.833,0,0,0,30.319-2.968A155.133,155.133,0,0,0,1286.156,598.02a157.24,157.24,0,0,0,2.972-30.325h1.413a157.849,157.849,0,0,1-2.985,30.6,154.773,154.773,0,0,1-8.9,29.362" transform="translate(-1133.88 -567.555)"/></g></svg>