<svg xmlns="http://www.w3.org/2000/svg" xmlns:xlink="http://www.w3.org/1999/xlink" width="213.317" height="213.567" viewBox="0 0 213.317 213.567"><defs><style>.a{clip-path:url(#a);}.b{fill:#f7f7f7;}</style><clipPath id="a"><path d="M857.938,82h213.317V295.567H857.938Zm0,0" transform="translate(-857.938 -82)"/></clipPath></defs><g class="a"><path class="b" d="M1066.79,253.786a211.866,211.866,0,0,0-31.825-76.8,212.657,212.657,0,0,0-177.027-94.6v1.421a212.879,212.879,0,0,1,41.235,4.035,211.485,211.485,0,0,1,108.308,57.906,211.792,211.792,0,0,1,45.875,68.592,209.894,209.894,0,0,1,12.034,39.716,212.49,212.49,0,0,1,4.038,41.242h1.426a215.259,215.259,0,0,0-4.065-41.513" transform="translate(-857.938 -81.871)"/></g></svg>