<svg xmlns="http://www.w3.org/2000/svg" xmlns:xlink="http://www.w3.org/1999/xlink" width="62.672" height="62.672" viewBox="0 0 62.672 62.672"><defs><style>.a{fill:#fff;}.b{clip-path:url(#a);}.c{clip-path:url(#b);}.d{clip-path:url(#c);}.e{clip-path:url(#d);}</style><clipPath id="a"><path class="a" d="M144.906,41h27.915V80.514H144.906Zm0,0" transform="translate(-144.906 -41)"/></clipPath><clipPath id="b"><path class="a" d="M186,37.5h27.854V65.03H186Zm0,0" transform="translate(-186 -37.5)"/></clipPath><clipPath id="c"><path class="a" d="M154,90h20.729v28.664H154Zm0,0" transform="translate(-154 -90)"/></clipPath><clipPath id="d"><path class="a" d="M196,83h29.575v28.5H196Zm0,0" transform="translate(-196 -83)"/></clipPath></defs><g class="b" transform="translate(0 2.267)"><path class="a" d="M170.671,49.183a15.582,15.582,0,0,1,1.69-4.577l-1.455-1.857a4.243,4.243,0,0,0-5.9-.731L146.559,56.134a4.235,4.235,0,0,0-1.645,3.388,4.068,4.068,0,0,0,.876,2.49L159.2,79.955c0-.013.865-5.656.873-5.666L149.051,59.328l18.484-14.155,3.133,4.008Zm0,0" transform="translate(-144.909 -41.051)"/></g><path class="a" d="M197.135,103.387a2.364,2.364,0,1,1-2.176-3.287,4.822,4.822,0,0,1,.463-2.366h-2.649l-9.851,7.581a33.718,33.718,0,0,1,2.849,8.975,4.442,4.442,0,0,0,2.695-.876l11.142-8.527C198.86,104.437,198.044,103.941,197.135,103.387Zm0,0" transform="translate(-158.296 -58.716)"/><path class="a" d="M233.672,61.245a1.714,1.714,0,0,1-.559-.091,1.775,1.775,0,0,1-1.126-2.242,24.179,24.179,0,0,0,1.093-6.536,18.334,18.334,0,0,0-2.161-8.634,1.773,1.773,0,1,1,3.138-1.652,21.845,21.845,0,0,1,2.568,10.288,27.435,27.435,0,0,1-1.273,7.657,1.775,1.775,0,0,1-1.683,1.212Zm0,0" transform="translate(-175.13 -38.783)"/><g class="c" transform="translate(26.619)"><path class="a" d="M200.5,37.492a13.582,13.582,0,0,0-11.749,20.425l-1.8,5.266a1.182,1.182,0,0,0,1.424,1.47l5.6-1.632A13.6,13.6,0,1,0,200.5,37.492Zm8.35,16.556h-7.687l2.022-3.178a1.781,1.781,0,1,0-3-1.915l-3.239,5.091h-4.79a8.462,8.462,0,0,1-.519-2.955,8.869,8.869,0,0,1,17.738,0,8.419,8.419,0,0,1-.521,2.955Zm0,0" transform="translate(-186.318 -37.497)"/></g><g class="d" transform="translate(5.891 34.008)"><path class="a" d="M169.415,98.71V92.344a1.909,1.909,0,0,0-3.8-.291l-1.7,11.038-8.457-11.106a17.646,17.646,0,0,0-1.422,6.726v2.449a14.075,14.075,0,0,0,4.122,9.952l7.7,7.7h8.279l-.628-5.01c-1.1-8.773-4.1-10.37-4.1-15.094Zm0,0" transform="translate(-154.015 -90.153)"/></g><g class="e" transform="translate(33.097 29.474)"><path class="a" d="M210.218,83.133h-3.507a12.937,12.937,0,0,0-6.663,1.847L197,86.812a1.811,1.811,0,0,0,1.615,3.241c3.775-1.786,4.124-2.191,5.323-2.191h4.4a4.814,4.814,0,0,1,4.36,2.776l3.17,6.779L204.54,92.692a1.915,1.915,0,0,0-1.637,3.449c7.846,4.828,9.21,5.463,11.306,7.869,3.9,4.479,6.21,5.284,11.384,7.5V98.507l-4.813-8.826c-1.455-2.664-5.83-6.549-10.559-6.549Zm0,0" transform="translate(-196.01 -83.047)"/></g></svg>