<svg xmlns="http://www.w3.org/2000/svg" xmlns:xlink="http://www.w3.org/1999/xlink" width="62.672" height="62.672" viewBox="0 0 62.672 62.672"><defs><style>.a{fill:#fff;}.b{clip-path:url(#a);}.c{clip-path:url(#b);}.d{clip-path:url(#c);}.e{clip-path:url(#d);}</style><clipPath id="a"><path class="a" d="M85,167h31.9v31.741H85Zm0,0" transform="translate(-85 -167)"/></clipPath><clipPath id="b"><path class="a" d="M37.5,155H68.917v31.741H37.5Zm0,0" transform="translate(-37.5 -155)"/></clipPath><clipPath id="c"><path class="a" d="M70,130.914H90.081v14.307H70Zm0,0" transform="translate(-70 -130.914)"/></clipPath><clipPath id="d"><path class="a" d="M49,188H96.935v25.693H49Zm0,0" transform="translate(-49 -188)"/></clipPath></defs><g class="b" transform="translate(30.769 23.375)"><path class="a" d="M115.7,168.736a5.259,5.259,0,0,0-7.247,0L90.321,186.871a1.719,1.719,0,0,0-.195.194c0,.021-.04.021-.04.041-.038.017-.038.058-.058.078a14.985,14.985,0,0,0-4.152,10.4.97.97,0,0,0,.979.979,15.036,15.036,0,0,0,10.4-4.152c.021-.02.058-.02.079-.061.02,0,.02-.038.038-.038a1.822,1.822,0,0,0,.2-.2L115.7,175.98a5.031,5.031,0,0,0,1.508-3.624A5.111,5.111,0,0,0,115.7,168.736Zm-1.371,5.876L96.647,192.276l-4.484-4.484,17.665-17.687a3.232,3.232,0,0,1,2.252-.919,3.141,3.141,0,0,1,3.173,3.17A3.247,3.247,0,0,1,114.332,174.612Zm0,0" transform="translate(-85.308 -167.101)"/></g><g class="c" transform="translate(0 15.602)"><path class="a" d="M67.778,168.2l-2.351-1.156a12.5,12.5,0,0,0-.959-2.31l.843-2.487a1.912,1.912,0,0,0-.471-1.959L63.666,159.1a1.918,1.918,0,0,0-1.371-.569,2.188,2.188,0,0,0-.607.1l-2.487.843a12.527,12.527,0,0,0-2.31-.962l-1.156-2.348a1.944,1.944,0,0,0-1.723-1.057H52.325a1.944,1.944,0,0,0-1.723,1.057l-1.156,2.348a12.527,12.527,0,0,0-2.31.962l-2.487-.843a1.941,1.941,0,0,0-1.979.471L41.5,160.291a1.912,1.912,0,0,0-.471,1.959l.843,2.487a12.5,12.5,0,0,0-.959,2.31L38.558,168.2a1.943,1.943,0,0,0-1.058,1.723v1.683a1.95,1.95,0,0,0,1.058,1.726l2.351,1.154a12.449,12.449,0,0,0,.959,2.311l-.843,2.487a1.911,1.911,0,0,0,.471,1.958l1.174,1.2a1.984,1.984,0,0,0,1.979.468l2.487-.84a12.646,12.646,0,0,0,2.31.959L50.6,185.38a1.949,1.949,0,0,0,1.723,1.058h1.685a1.949,1.949,0,0,0,1.723-1.058l1.156-2.351a12.646,12.646,0,0,0,2.31-.959l2.487.84a1.984,1.984,0,0,0,1.979-.468l1.174-1.2a1.911,1.911,0,0,0,.471-1.958l-.843-2.487a12.45,12.45,0,0,0,.959-2.311l2.351-1.154a1.95,1.95,0,0,0,1.058-1.726v-1.683A1.943,1.943,0,0,0,67.778,168.2ZM61,170.77a7.834,7.834,0,1,1-7.834-7.834A7.832,7.832,0,0,1,61,170.77Zm0,0" transform="translate(-37.5 -155.036)"/></g><path class="a" d="M62.581,178.224a1.957,1.957,0,0,1-.149.749,1.921,1.921,0,0,1-.425.635,1.956,1.956,0,0,1-2.768,0,1.921,1.921,0,0,1-.425-.635,1.959,1.959,0,1,1,3.768-.749Zm0,0" transform="translate(-44.955 -146.888)"/><g class="d" transform="translate(21.053)"><path class="a" d="M87.405,134.831H86.089a5.875,5.875,0,0,0-11.078,0H73.7a2.94,2.94,0,0,0-2.938,2.938v5.875a.98.98,0,0,0,.979.979H89.364a.98.98,0,0,0,.979-.979v-5.875A2.94,2.94,0,0,0,87.405,134.831Zm-6.855,3.917a1.959,1.959,0,1,1,1.958-1.959A1.962,1.962,0,0,1,80.55,138.748Zm0,0" transform="translate(-70.267 -130.914)"/></g><path class="a" d="M91.7,166.1a.978.978,0,0,1-.979-.979V148.883H55.469v5.5a.98.98,0,0,1-.612.909l-3.917,1.576a.978.978,0,0,1-1.346-.911V147.9a4.9,4.9,0,0,1,4.9-4.9h9.792a.979.979,0,1,1,0,1.958H54.49a2.94,2.94,0,0,0-2.938,2.938v6.6l1.958-.787V147.9a.978.978,0,0,1,.979-.979H91.7a.978.978,0,0,1,.979.979v14.92l1.959-1.88V147.9a2.94,2.94,0,0,0-2.938-2.938H81.909a.979.979,0,1,1,0-1.958H91.7a4.9,4.9,0,0,1,4.9,4.9v13.457a.988.988,0,0,1-.3.706l-3.917,3.76A1,1,0,0,1,91.7,166.1Zm0,0" transform="translate(-41.76 -135.174)"/><path class="a" d="M100.735,160.083H92.9a.979.979,0,1,1,0-1.958h7.834a.979.979,0,1,1,0,1.958Zm0,0" transform="translate(-56.669 -140.499)"/><path class="a" d="M95.29,169.154H77.444a.979.979,0,0,1,0-1.959H95.29a.979.979,0,0,1,0,1.959Zm0,0" transform="translate(-51.224 -143.693)"/><path class="a" d="M97.533,178.224H83.811a.979.979,0,1,1,0-1.958H97.533a.979.979,0,1,1,0,1.958Zm0,0" transform="translate(-53.467 -146.888)"/><path class="a" d="M75.483,211.482H65.69a.979.979,0,0,1,0-1.959h9.792a.979.979,0,0,1,0,1.959Zm0,0" transform="translate(-47.084 -158.602)"/><g class="e" transform="translate(7.449 36.979)"><path class="a" d="M91.7,213.818H54.49a4.9,4.9,0,0,1-4.9-4.9v-15.89a.975.975,0,0,1,1.245-.941l3.917,1.106a.978.978,0,0,1,.714.941v13.806H90.722V193.254a.983.983,0,0,1,.286-.693l3.917-3.917a.98.98,0,0,1,1.673.693v19.585A4.9,4.9,0,0,1,91.7,213.818ZM51.552,194.324v14.6a2.942,2.942,0,0,0,2.938,2.938H91.7a2.942,2.942,0,0,0,2.938-2.938V191.7l-1.959,1.958v15.263a.979.979,0,0,1-.979.979H54.49a.98.98,0,0,1-.979-.979V194.879Zm0,0" transform="translate(-49.209 -188.125)"/></g></svg>