<svg xmlns="http://www.w3.org/2000/svg" xmlns:xlink="http://www.w3.org/1999/xlink" width="157.343" height="157.593" viewBox="0 0 157.343 157.593"><defs><style>.a{clip-path:url(#a);}.b{fill:#f7f7f7;}</style><clipPath id="a"><path d="M857.938,124h157.343V281.593H857.938Zm0,0" transform="translate(-857.938 -124)"/></clipPath></defs><g class="a"><path class="b" d="M1002.713,221.3a156.518,156.518,0,0,0-144.775-96.71v1.421a156.39,156.39,0,0,1,30.319,2.968,154.147,154.147,0,0,1,29.09,8.808,155.738,155.738,0,0,1,84.054,84.055,153.716,153.716,0,0,1,8.813,29.09,156.837,156.837,0,0,1,2.968,30.325h1.421a158.584,158.584,0,0,0-2.993-30.6,155.39,155.39,0,0,0-8.9-29.357" transform="translate(-857.938 -123.804)"/></g></svg>