<svg xmlns="http://www.w3.org/2000/svg" xmlns:xlink="http://www.w3.org/1999/xlink" width="213.655" height="213.572" viewBox="0 0 213.655 213.572"><defs><style>.a{clip-path:url(#a);}.b{fill:#f7f7f7;}</style><clipPath id="a"><path d="M581.684,567.746H795.339V781.318H581.684Zm0,0" transform="translate(-581.684 -567.746)"/></clipPath></defs><g class="a"><path class="b" d="M790.535,609.363a212.882,212.882,0,0,1-58.3,109.037,212.478,212.478,0,0,1-150.554,62.362v-1.421a212.971,212.971,0,0,0,41.241-4.034A211.441,211.441,0,0,0,731.233,717.4a211.718,211.718,0,0,0,45.875-68.588,210.441,210.441,0,0,0,12.037-39.721,212.917,212.917,0,0,0,4.034-41.235H794.6a214.147,214.147,0,0,1-4.065,41.511" transform="translate(-581.684 -567.711)"/></g></svg>