<svg xmlns="http://www.w3.org/2000/svg" xmlns:xlink="http://www.w3.org/1999/xlink" width="69.662" height="62.672" viewBox="0 0 69.662 62.672"><defs><style>.a{fill:#fff;}.b{clip-path:url(#a);}.c{clip-path:url(#b);}</style><clipPath id="a"><path class="a" d="M75,37.5H90.848V53.708H75Zm0,0" transform="translate(-75 -37.5)"/></clipPath><clipPath id="b"><path class="a" d="M37.523,88.172h69.662v26.17H37.523Zm0,0" transform="translate(-37.523 -88.172)"/></clipPath></defs><g class="b" transform="translate(26.997)"><path class="a" d="M83.187,37.5a7.762,7.762,0,1,0,7.769,7.764A7.777,7.777,0,0,0,83.187,37.5" transform="translate(-75.117 -37.5)"/></g><path class="a" d="M105.692,47.316a6.565,6.565,0,1,0,6.57,6.565,6.573,6.573,0,0,0-6.57-6.565" transform="translate(-54.748 -40.245)"/><path class="a" d="M61.306,47.316a6.565,6.565,0,1,0,6.571,6.565,6.573,6.573,0,0,0-6.571-6.565" transform="translate(-42.337 -40.245)"/><g class="c" transform="translate(0 36.502)"><path class="a" d="M106.993,96.925c-.974-3.174-4.53-4.26-7.657-3.351l-12.15,3.681a.482.482,0,0,0-.254.74,5.861,5.861,0,0,1,.686,5.355,5.785,5.785,0,0,1-7.392,3.419l-11.942-4.458a.485.485,0,0,1,.34-.908L80.4,105.794a4.874,4.874,0,0,0,6.284-2.822c1.019-2.749-.546-5.374-3.3-6.4l-19.453-7.26a12,12,0,0,0-8.858-.22l-11.7,4.17a8.808,8.808,0,0,0,5.76,16.647,22.242,22.242,0,0,1,6.112-1.4c6.2.048,14.143,4.483,16.858,5.437a5.461,5.461,0,0,0,4.325.012c.543-.208,1.086-.416,1.643-.58a.379.379,0,0,0,.045-.017l24.45-10.147a.138.138,0,0,1,.048-.017c3.112-.917,5.239-3.461,4.378-6.266" transform="translate(-37.523 -88.222)"/></g><path class="a" d="M98.894,69.3a9.616,9.616,0,0,0-12.362-1.036,11.464,11.464,0,0,0-20.671.118,9.609,9.609,0,0,0-15.342,7.7v4.756a9.665,9.665,0,0,0,.343,2.555l7.969-2.842a12.005,12.005,0,0,1,5.543-.656V75.553a11.711,11.711,0,0,1,.678-3.945.66.66,0,0,1,1.244.445,10.381,10.381,0,0,0-.6,3.5v4.578a12.864,12.864,0,0,1,2,.644L84.4,87.011s.214.084.54.217A10.326,10.326,0,0,0,86.583,81.6V75.553a10.364,10.364,0,0,0-.673-3.686.659.659,0,1,1,1.232-.467,11.627,11.627,0,0,1,.757,4.153V81.6a11.646,11.646,0,0,1-1.722,6.129c.942.38,1.944.791,2.135.884a3.868,3.868,0,0,0,2.634.107l9.325-2.825a9.53,9.53,0,0,0,1.435-5.051V76.088A9.531,9.531,0,0,0,98.894,69.3" transform="translate(-41.157 -44.299)"/></svg>