<svg width="54" height="49" viewBox="0 0 54 49" fill="none" xmlns="http://www.w3.org/2000/svg">
<path d="M4.74037 11.7605C25.0918 11.7605 29.0601 11.7605 49.4102 11.7605C50.6733 11.7605 51.8213 12.2763 52.6519 13.1082C53.4824 13.9387 53.9996 15.0868 53.9996 16.3499V43.8323C53.9996 45.0954 53.4824 46.2435 52.6519 47.074C51.8199 47.9059 50.6733 48.4217 49.4102 48.4217H4.74037C3.47724 48.4217 2.33058 47.9059 1.49866 47.074C0.668132 46.2435 0.152344 45.0954 0.152344 43.8323V16.3499C0.152344 15.0868 0.668132 13.9387 1.49866 13.1082C2.33058 12.2763 3.47724 11.7605 4.74037 11.7605ZM30.7031 37.3406C30.3537 37.3406 30.0722 37.6234 30.0722 37.9714C30.0722 38.3208 30.3537 38.6023 30.7031 38.6023H47.7713C48.1207 38.6023 48.4021 38.3208 48.4021 37.9714C48.4021 37.6234 48.1207 37.3406 47.7713 37.3406H30.7031ZM30.7031 29.4595C30.3537 29.4595 30.0722 29.7424 30.0722 30.0918C30.0722 30.4398 30.3537 30.7227 30.7031 30.7227H47.7713C48.1207 30.7227 48.4021 30.4398 48.4021 30.0918C48.4021 29.7424 48.1207 29.4595 47.7713 29.4595H30.7031ZM30.7031 21.5799C30.3537 21.5799 30.0722 21.8614 30.0722 22.2108C30.0722 22.5588 30.3537 22.8416 30.7031 22.8416H47.7713C48.1207 22.8416 48.4021 22.5588 48.4021 22.2108C48.4021 21.8614 48.1207 21.5799 47.7713 21.5799H30.7031ZM11.8865 30.7878C8.97482 30.7878 6.59415 33.1685 6.59415 36.0816V40.7431C6.59415 41.0911 6.87562 41.374 7.22503 41.374H25.738C26.086 41.374 26.3688 41.0911 26.3688 40.7431V36.0816C26.3688 33.1685 23.9882 30.7878 21.0751 30.7878H11.8865ZM16.4815 18.8082C13.7029 18.8082 11.4512 21.0599 11.4512 23.8385C11.4512 26.6171 13.7029 28.8689 16.4815 28.8689C19.2601 28.8689 21.5118 26.6171 21.5118 23.8385C21.5118 21.0599 19.2601 18.8082 16.4815 18.8082Z" fill="#002244"/>
<path d="M21.499 0.578369H32.6509C33.3469 0.578369 33.9126 1.14269 33.9126 1.84011V10.499H20.2373V1.84011C20.2373 1.14269 20.803 0.578369 21.499 0.578369Z" fill="#002244"/>
</svg>
