<svg xmlns="http://www.w3.org/2000/svg" xmlns:xlink="http://www.w3.org/1999/xlink" width="213.394" height="213.78" viewBox="0 0 213.394 213.78"><defs><style>.a{clip-path:url(#a);}.b{fill:#f7f7f7;}</style><clipPath id="a"><path d="M1133.88,567.59h213.394V781.37H1133.88Zm0,0" transform="translate(-1133.88 -567.59)"/></clipPath></defs><g class="a"><path class="b" d="M1342.729,609.208a211.892,211.892,0,0,1-31.825,76.8,213.417,213.417,0,0,1-95.529,78.426,211.7,211.7,0,0,1-39.981,12.109,214.161,214.161,0,0,1-41.514,4.066v-1.421a212.835,212.835,0,0,0,41.234-4.036,210.485,210.485,0,0,0,76.285-31.609,212.244,212.244,0,0,0,77.91-94.889,209.974,209.974,0,0,0,12.021-39.72,212.446,212.446,0,0,0,4.038-41.237h1.426a215.291,215.291,0,0,1-4.065,41.513" transform="translate(-1133.88 -567.555)"/></g></svg>