<svg xmlns="http://www.w3.org/2000/svg" xmlns:xlink="http://www.w3.org/1999/xlink" width="214.76" height="214.9" viewBox="0 0 214.76 214.9"><defs><style>.a{clip-path:url(#a);}.b{fill:#1d92fb;}</style><clipPath id="a"><path d="M697.16,81H911.92V295.9H697.16Zm0,0" transform="translate(-697.16 -81)"/></clipPath></defs><g class="a"><path class="b" d="M697.16,295.76h61.357a154.929,154.929,0,0,1,2.936-29.966,151.917,151.917,0,0,1,8.705-28.736A153.861,153.861,0,0,1,853.218,154a152.044,152.044,0,0,1,28.736-8.7,154.829,154.829,0,0,1,29.966-2.936V81a216.162,216.162,0,0,0-41.871,4.1,213.75,213.75,0,0,0-77.469,32.1,215.229,215.229,0,0,0-79.1,96.356,213.5,213.5,0,0,0-12.218,40.336,216.262,216.262,0,0,0-4.1,41.871" transform="translate(-697.16 -81)"/></g></svg>