<svg xmlns="http://www.w3.org/2000/svg" xmlns:xlink="http://www.w3.org/1999/xlink" width="214.9" height="214.9" viewBox="0 0 214.9 214.9"><defs><style>.a{clip-path:url(#a);}.b{fill:#1d92fb;}</style><clipPath id="a"><path d="M305.742,81.156h214.9v214.9h-214.9Zm0,0" transform="translate(-305.742 -81.156)"/></clipPath></defs><g class="a"><path class="b" d="M520.5,295.916H459.145a155.248,155.248,0,0,0-2.932-29.966,151.6,151.6,0,0,0-8.709-28.736,153.288,153.288,0,0,0-111.792-91.765,155.34,155.34,0,0,0-29.97-2.931V81.156a216.178,216.178,0,0,1,41.876,4.1,213.918,213.918,0,0,1,77.464,32.1A214.463,214.463,0,0,1,520.5,295.916" transform="translate(-305.742 -81.156)"/></g></svg>