<svg xmlns="http://www.w3.org/2000/svg" xmlns:xlink="http://www.w3.org/1999/xlink" width="214.759" height="214.9" viewBox="0 0 214.759 214.9"><defs><style>.a{clip-path:url(#a);}.b{fill:#1d92fb;}</style><clipPath id="a"><path d="M144.969,81.156H359.728v214.9H144.969Zm0,0" transform="translate(-144.969 -81.156)"/></clipPath></defs><g class="a"><path class="b" d="M144.969,295.916h61.357a154.83,154.83,0,0,1,2.936-29.966,151.284,151.284,0,0,1,8.7-28.736,153.875,153.875,0,0,1,83.056-83.06,152.155,152.155,0,0,1,28.736-8.705,155.4,155.4,0,0,1,29.97-2.931V81.156a216.2,216.2,0,0,0-41.876,4.1,214.047,214.047,0,0,0-77.464,32.1,214.451,214.451,0,0,0-95.418,178.563" transform="translate(-144.969 -81.156)"/></g></svg>