<svg xmlns="http://www.w3.org/2000/svg" xmlns:xlink="http://www.w3.org/1999/xlink" width="157.604" height="157.801" viewBox="0 0 157.604 157.801"><defs><style>.a{clip-path:url(#a);}.b{fill:#f7f7f7;}</style><clipPath id="a"><path d="M305.742,124h157.6V281.8h-157.6Zm0,0" transform="translate(-305.742 -124)"/></clipPath></defs><g class="a"><path class="b" d="M450.524,221.457a157.113,157.113,0,0,0-84.826-84.82,155.218,155.218,0,0,0-29.356-8.9,158.545,158.545,0,0,0-30.6-2.993v1.422a156.443,156.443,0,0,1,30.325,2.967,153.814,153.814,0,0,1,29.09,8.813,155.058,155.058,0,0,1,95.83,143.465h1.422a157.746,157.746,0,0,0-2.993-30.6,155.048,155.048,0,0,0-8.892-29.356" transform="translate(-305.742 -123.752)"/></g></svg>