<svg width="70" height="74" viewBox="0 0 70 74" fill="none" xmlns="http://www.w3.org/2000/svg">
<path fill-rule="evenodd" clip-rule="evenodd" d="M33.9112 4.14234C29.7688 4.14234 26.4017 7.35587 26.4017 11.31C26.4017 11.6265 26.4258 11.9326 26.4637 12.2398C28.7728 11.3894 31.2851 10.9245 33.9112 10.9245C36.5339 10.9245 39.0428 11.3894 41.3553 12.2398C41.3967 11.9326 41.4207 11.6265 41.4207 11.31C41.4207 7.35587 38.0503 4.14234 33.9112 4.14234ZM28.6073 46.849C28.2317 48.8889 28.2799 51.0243 28.8348 53.1401C28.8484 53.1916 28.8658 53.2596 28.8866 53.3411C29.0716 54.0646 29.5285 55.852 30.0273 56.5511C30.0789 56.6236 30.0065 56.7223 29.917 56.6961C25.161 55.17 20.991 51.0741 18.0065 46.1605H16.4142C13.1058 46.1605 10.1625 48.1643 9.08046 51.1466L5.60656 60.733C5.16543 61.9395 3.67318 62.5157 2.44966 61.8408C1.53987 61.3396 1.18141 60.2522 1.52611 59.3065L4.97583 49.7917C6.60254 45.3102 10.9276 42.2452 15.856 42.0309C15.0115 40.1066 14.3464 38.1323 13.895 36.2013H2.17052C0.843687 36.2013 -0.204009 35.064 0.0338513 33.7564C0.216479 32.7474 1.21935 32.0555 2.2912 32.0555H13.2608C13.2264 31.5907 13.2126 31.1292 13.2126 30.6778C13.2126 29.0529 13.4193 27.4778 13.8053 25.9686C9.75936 25.1148 6.37166 22.3138 4.97583 18.4677L1.50194 8.88119C1.06081 7.66546 1.87073 6.32741 3.28719 6.14601C4.31069 6.01443 5.2826 6.6438 5.62033 7.57607L9.08046 17.1102C10.0351 19.7534 12.4613 21.6288 15.301 22.0203C16.9208 18.8506 19.4022 16.1577 22.4556 14.2198C22.1972 13.2909 22.0593 12.3182 22.0593 11.31C22.0593 4.68654 28.0525 -0.622594 35.1347 0.0590623C40.3973 0.563576 44.75 4.46885 45.6012 9.45148C45.8872 11.116 45.7769 12.7307 45.36 14.2198C48.4137 16.1577 50.8982 18.8506 52.518 22.0203C55.358 21.6288 57.7807 19.7534 58.7388 17.1102L62.2158 7.52707C62.6534 6.31732 64.1462 5.7436 65.369 6.41602C66.2795 6.91713 66.6342 8.00797 66.2892 8.95373L62.8396 18.4677C61.4474 22.3138 58.0595 25.1148 54.0134 25.9686C54.3999 27.4778 54.6063 29.0529 54.6063 30.6778C54.6063 31.1292 54.5931 31.5907 54.5578 32.0555H65.6487C66.8856 32.0555 67.8817 33.0477 67.8164 34.2406C67.7538 35.361 66.6994 36.2013 65.5243 36.2013H53.9243C53.8962 36.3175 53.8649 36.4341 53.8334 36.5512C53.8104 36.6363 53.7874 36.7218 53.7655 36.8078C51.8872 35.5491 49.716 34.718 47.4653 34.3031C45.9527 34.0263 44.4018 33.9503 42.8648 34.0787C35.4586 34.7114 29.8239 40.2744 28.6073 46.849ZM56.5707 53.3514L67.9607 64.3688C70.1557 66.4813 70.1381 69.8888 67.9262 71.9811C67.8931 72.0114 67.8606 72.0422 67.8284 72.0728C67.7799 72.1187 67.7322 72.1639 67.6845 72.2055C65.365 74.054 61.9463 73.8962 59.8412 71.8267L48.6021 60.9511H48.5986C47.9819 61.1553 47.344 61.3071 46.7103 61.416C42.8711 62.058 38.7941 61.0236 35.7613 58.2979C35.6758 58.2329 35.5926 58.1559 35.5117 58.081C35.4949 58.0654 35.4781 58.0499 35.4615 58.0346L35.4511 58.0211C32.4184 55.1214 31.2466 51.1335 31.9118 47.3869C31.9704 47.0772 32.0324 46.7769 32.1116 46.4741L32.6148 46.9549L38.7907 52.8504C39.9865 53.9876 41.9199 53.9876 43.1123 52.8504L48.0754 48.115C49.2673 46.9751 49.2673 45.1292 48.0754 43.992L41.3892 37.6089C41.6787 37.5432 41.9647 37.4807 42.2576 37.4342C46.2106 36.7584 50.4354 37.8856 53.4995 40.7953L53.5101 40.8089C53.5719 40.8645 53.6239 40.9177 53.6786 40.9768C56.643 43.9102 57.7661 47.9141 57.0321 51.6575C56.9183 52.2311 56.7701 52.7947 56.5707 53.3514Z" fill="#002244"/>
</svg>
