<svg xmlns="http://www.w3.org/2000/svg" xmlns:xlink="http://www.w3.org/1999/xlink" width="214.902" height="214.9" viewBox="0 0 214.902 214.9"><defs><style>.a{clip-path:url(#a);}.b{fill:#1d92fb;}</style><clipPath id="a"><path d="M857.938,81h214.9V295.9h-214.9Zm0,0" transform="translate(-857.938 -81)"/></clipPath></defs><g class="a"><path class="b" d="M1072.694,295.76h-61.359a155.246,155.246,0,0,0-2.931-29.966,151.644,151.644,0,0,0-8.709-28.736A153.837,153.837,0,0,0,916.639,154a152.136,152.136,0,0,0-28.736-8.7,154.824,154.824,0,0,0-29.965-2.936V81a216.158,216.158,0,0,1,41.87,4.1A214.716,214.716,0,0,1,1009.794,143.9a214.288,214.288,0,0,1,62.9,151.857" transform="translate(-857.938 -81)"/></g></svg>