<svg xmlns="http://www.w3.org/2000/svg" xmlns:xlink="http://www.w3.org/1999/xlink" width="157.681" height="157.599" viewBox="0 0 157.681 157.599"><defs><style>.a{clip-path:url(#a);}.b{fill:#f7f7f7;}</style><clipPath id="a"><path d="M581.684,567.746H739.365v157.6H581.684Zm0,0" transform="translate(-581.684 -567.746)"/></clipPath></defs><g class="a"><path class="b" d="M726.464,627.808a157.1,157.1,0,0,1-84.824,84.819,155.148,155.148,0,0,1-29.356,8.9,158.553,158.553,0,0,1-30.6,2.993V723.1a156.441,156.441,0,0,0,30.325-2.968,153.764,153.764,0,0,0,29.09-8.813,155.695,155.695,0,0,0,84.054-84.054,154.06,154.06,0,0,0,8.813-29.086,156.413,156.413,0,0,0,2.963-30.323h1.421a157.756,157.756,0,0,1-2.993,30.6,154.983,154.983,0,0,1-8.892,29.356" transform="translate(-581.684 -567.711)"/></g></svg>