<svg xmlns="http://www.w3.org/2000/svg" xmlns:xlink="http://www.w3.org/1999/xlink" width="213.567" height="213.78" viewBox="0 0 213.567 213.78"><defs><style>.a{clip-path:url(#a);}.b{fill:#f7f7f7;}</style><clipPath id="a"><path d="M974,567.59h213.567V781.37H974Zm0,0" transform="translate(-974 -567.59)"/></clipPath></defs><g class="a"><path class="b" d="M978.549,609.208a212.038,212.038,0,0,0,31.819,76.8,213.416,213.416,0,0,0,95.529,78.426,211.528,211.528,0,0,0,39.995,12.109,213.958,213.958,0,0,0,41.514,4.066v-1.421a212.971,212.971,0,0,1-41.247-4.036,210.741,210.741,0,0,1-76.284-31.609,212.047,212.047,0,0,1-77.9-94.889,210.207,210.207,0,0,1-12.031-39.72,213.393,213.393,0,0,1-4.039-41.237h-1.417a214.566,214.566,0,0,0,4.061,41.513" transform="translate(-973.838 -567.555)"/></g></svg>