<svg xmlns="http://www.w3.org/2000/svg" xmlns:xlink="http://www.w3.org/1999/xlink" width="214.753" height="214.9" viewBox="0 0 214.753 214.9"><defs><style>.a{clip-path:url(#a);}.b{fill:#1d92fb;}</style><clipPath id="a"><path d="M1133.88,567.59h214.753v214.9H1133.88Zm0,0" transform="translate(-1133.88 -567.59)"/></clipPath></defs><g class="a"><path class="b" d="M1348.633,567.695h-61.358a155.566,155.566,0,0,1-2.932,29.966,152.225,152.225,0,0,1-8.7,28.736,153.842,153.842,0,0,1-83.055,83.056,151.689,151.689,0,0,1-28.747,8.709,155.115,155.115,0,0,1-29.959,2.931v61.362a216.4,216.4,0,0,0,41.874-4.1,214.589,214.589,0,0,0,172.879-210.663" transform="translate(-1133.88 -567.555)"/></g></svg>