<svg xmlns="http://www.w3.org/2000/svg" xmlns:xlink="http://www.w3.org/1999/xlink" width="157.667" height="157.593" viewBox="0 0 157.667 157.593"><defs><style>.a{clip-path:url(#a);}.b{fill:#f7f7f7;}</style><clipPath id="a"><path d="M740,124H897.667V281.593H740Zm0,0" transform="translate(-740 -124)"/></clipPath></defs><g class="a"><path class="b" d="M752.635,221.3a156.527,156.527,0,0,1,144.782-96.71v1.421a156.424,156.424,0,0,0-30.324,2.968A154.085,154.085,0,0,0,838,137.787a155.746,155.746,0,0,0-84.056,84.055,154.187,154.187,0,0,0-8.808,29.09,156.526,156.526,0,0,0-2.968,30.325H740.75a158.176,158.176,0,0,1,2.993-30.6,155.478,155.478,0,0,1,8.892-29.357" transform="translate(-739.75 -123.804)"/></g></svg>