<svg xmlns="http://www.w3.org/2000/svg" xmlns:xlink="http://www.w3.org/1999/xlink" width="157.411" height="157.801" viewBox="0 0 157.411 157.801"><defs><style>.a{clip-path:url(#a);}.b{fill:#f7f7f7;}</style><clipPath id="a"><path d="M188,124H345.411V281.8H188Zm0,0" transform="translate(-188 -124)"/></clipPath></defs><g class="a"><path class="b" d="M200.444,221.457a157.1,157.1,0,0,1,84.824-84.82,155.248,155.248,0,0,1,29.356-8.9,158.555,158.555,0,0,1,30.6-2.993v1.422a156.443,156.443,0,0,0-30.325,2.967,153.843,153.843,0,0,0-29.09,8.813A155.749,155.749,0,0,0,201.756,222a154.051,154.051,0,0,0-8.813,29.085,156.438,156.438,0,0,0-2.963,30.325h-1.421a157.753,157.753,0,0,1,2.993-30.6,155.341,155.341,0,0,1,8.892-29.356" transform="translate(-187.814 -123.752)"/></g></svg>