<svg xmlns="http://www.w3.org/2000/svg" xmlns:xlink="http://www.w3.org/1999/xlink" width="157.333" height="157.599" viewBox="0 0 157.333 157.599"><defs><style>.a{clip-path:url(#a);}.b{fill:#f7f7f7;}</style><clipPath id="a"><path d="M464,567.746H621.333v157.6H464Zm0,0" transform="translate(-464 -567.746)"/></clipPath></defs><g class="a"><path class="b" d="M476.385,627.808a157.109,157.109,0,0,0,84.824,84.819,155.161,155.161,0,0,0,29.357,8.9,158.543,158.543,0,0,0,30.6,2.993V723.1a156.421,156.421,0,0,1-30.325-2.968,153.7,153.7,0,0,1-29.09-8.813,155.068,155.068,0,0,1-95.831-143.464H464.5a157.756,157.756,0,0,0,2.993,30.6,155.081,155.081,0,0,0,8.892,29.356" transform="translate(-463.834 -567.711)"/></g></svg>