<svg width="69" height="67" viewBox="0 0 69 67" fill="none" xmlns="http://www.w3.org/2000/svg">
<path fill-rule="evenodd" clip-rule="evenodd" d="M34.9958 0C30.7868 0 27.3604 3.68303 27.3604 8.20801C27.3604 12.7331 30.7868 16.4131 34.9958 16.4131C39.2048 16.4131 42.6312 12.7331 42.6312 8.20801C42.6312 3.68303 39.2048 0 34.9958 0ZM50.6038 7.47548C47.042 7.47548 44.1466 10.5873 44.1466 14.4162C44.1466 18.242 47.042 21.3569 50.6038 21.3569C54.1634 21.3569 57.061 18.242 57.061 14.4162C57.061 10.5873 54.1634 7.47548 50.6038 7.47548ZM12.7267 14.4162C12.7267 10.5873 15.6222 7.47548 19.1813 7.47548C22.7432 7.47548 25.6387 10.5873 25.6387 14.4162C25.6387 18.242 22.7432 21.3569 19.1813 21.3569C15.6222 21.3569 12.7267 18.242 12.7267 14.4162ZM68.8109 47.7929C67.8538 44.437 64.3586 43.2886 61.286 44.2496L49.3449 48.1409C49.0348 48.2422 48.9109 48.6375 49.0957 48.9231C50.1109 50.5118 50.4508 52.6245 49.7704 54.5849C48.6702 57.7531 45.3818 59.354 42.5058 58.1994L30.7692 53.4866C30.512 53.3861 30.3903 53.0708 30.501 52.7997C30.6033 52.5498 30.8688 52.431 31.1038 52.5262L42.6718 57.1697C45.1439 58.1606 47.9347 56.846 48.8472 54.1858C49.8483 51.2795 48.3106 48.5042 45.6062 47.418L26.4883 39.7425C23.7505 38.5167 20.7638 38.3531 17.7826 39.5104L6.28656 43.9194C2.74953 45.2759 0.429347 48.9262 0.53992 52.9604C0.708616 59.2047 6.44146 63.5131 11.9475 61.5192C14.3368 60.6541 16.5631 60.0234 17.9541 60.0349C22.596 60.0737 28.2292 62.8024 31.8302 64.5467L31.8305 64.5468C32.9577 65.0928 33.8857 65.5423 34.5219 65.7827C36.195 66.4163 37.2569 66.4194 38.7725 65.7949C39.3062 65.5748 39.84 65.3547 40.3875 65.1818C40.3929 65.1794 40.3987 65.1775 40.4045 65.1756C40.4138 65.1725 40.4233 65.1694 40.4317 65.1643L64.4605 54.4363C64.4747 54.4272 64.491 54.4211 64.508 54.4181C67.5663 53.4485 69.657 50.7586 68.8109 47.7929ZM50.6046 23.4613C53.1271 23.4613 55.4966 24.5174 57.2807 26.4333C59.064 28.3493 60.046 30.8988 60.046 33.6091V38.6369C60.046 40.5528 59.5539 42.3884 58.6357 43.977L49.4712 46.9639C49.1583 47.065 47.9413 47.4042 46.8822 46.8508C46.6946 46.7527 45.7098 46.3183 44.7838 45.9167C45.2008 45.1848 45.547 44.4084 45.8153 43.5962C46.2549 42.2634 46.4758 40.8652 46.4758 39.4372V33.0438C46.4758 31.5295 46.2273 30.0539 45.7318 28.6527C45.6079 28.2927 45.2312 28.1113 44.8971 28.2481C44.5622 28.382 44.3936 28.7866 44.5207 29.1465C44.958 30.3871 45.1817 31.6991 45.1817 33.0438V39.4372C45.1817 41.5792 44.6231 43.617 43.5639 45.3872C43.2432 45.2474 43.033 45.1581 43.033 45.1581L26.6144 38.5654C25.9728 38.2798 25.3174 38.0507 24.6537 37.8842V33.0438C24.6537 31.7705 24.8528 30.5269 25.2455 29.3429C25.3644 28.98 25.1902 28.5813 24.8528 28.4534C24.5154 28.3225 24.1449 28.5099 24.0232 28.8729C23.5807 30.2087 23.3567 31.6099 23.3567 33.0438V37.6402C21.5758 37.4111 19.7422 37.6223 17.9087 38.3334L10.077 41.3381C9.85573 40.4694 9.73956 39.5621 9.73956 38.6369V33.6091C9.73956 30.8988 10.7214 28.3493 12.505 26.4333C14.2888 24.5174 16.6615 23.4613 19.1809 23.4613C21.2356 23.4613 23.1963 24.1635 24.8169 25.4635C25.3644 24.214 26.1138 23.0627 27.0486 22.0601C29.1725 19.7753 31.9987 18.5169 35.002 18.5169C38.0081 18.5169 40.8316 19.7753 42.9555 22.0601C43.8598 23.03 44.5899 24.1367 45.1321 25.3385C46.7222 24.1218 48.6245 23.4613 50.6046 23.4613Z" fill="#002244"/>
</svg>
