<svg xmlns="http://www.w3.org/2000/svg" xmlns:xlink="http://www.w3.org/1999/xlink" width="213.64" height="213.567" viewBox="0 0 213.64 213.567"><defs><style>.a{clip-path:url(#a);}.b{fill:#f7f7f7;}</style><clipPath id="a"><path d="M698,82H911.64V295.567H698Zm0,0" transform="translate(-698 -82)"/></clipPath></defs><g class="a"><path class="b" d="M702.608,253.786A212.8,212.8,0,0,1,869.946,86.447a214.434,214.434,0,0,1,41.513-4.061v1.421a212.946,212.946,0,0,0-41.242,4.035,210.463,210.463,0,0,0-76.282,31.61,211.857,211.857,0,0,0-77.9,94.888A209.972,209.972,0,0,0,704,254.056a213.328,213.328,0,0,0-4.041,41.242h-1.415a214.52,214.52,0,0,1,4.061-41.513" transform="translate(-697.818 -81.871)"/></g></svg>