<svg xmlns="http://www.w3.org/2000/svg" xmlns:xlink="http://www.w3.org/1999/xlink" width="214.9" height="214.9" viewBox="0 0 214.9 214.9"><defs><style>.a{clip-path:url(#a);}.b{fill:#1d92fb;}</style><clipPath id="a"><path d="M973,567.59h214.9v214.9H973Zm0,0" transform="translate(-973 -567.59)"/></clipPath></defs><g class="a"><path class="b" d="M973.1,567.695h61.355a155.556,155.556,0,0,0,2.932,29.966,151.286,151.286,0,0,0,8.716,28.736,153.842,153.842,0,0,0,83.055,83.056,151.563,151.563,0,0,0,28.733,8.709,155.254,155.254,0,0,0,29.973,2.931v61.362a216.2,216.2,0,0,1-41.874-4.1A214.767,214.767,0,0,1,1036,719.552a215.172,215.172,0,0,1-46.586-69.65A213.625,213.625,0,0,1,977.2,609.566a216.051,216.051,0,0,1-4.1-41.871" transform="translate(-972.966 -567.555)"/></g></svg>