<svg width="72" height="71" viewBox="0 0 72 71" fill="none" xmlns="http://www.w3.org/2000/svg">
<path fill-rule="evenodd" clip-rule="evenodd" d="M41.9002 4.42719H43.3953C45.2355 4.42719 46.7333 5.91419 46.7333 7.74745V8.8537H56.7533C59.8212 8.8537 62.3164 11.3356 62.3164 14.3872V27.4552C64.5399 26.1359 67.6372 26.3915 69.5021 28.2659C70.5915 29.3274 71.2157 30.8313 71.2157 32.3585C71.2157 33.9084 70.615 35.3705 69.5021 36.454L62.3164 43.6024V65.2991C62.3164 68.3485 59.8212 70.8333 56.7533 70.8333H14.4699C11.4021 70.8333 8.90642 68.3485 8.90642 65.2991V48.8748L8.12254 49.1382C7.32032 49.3842 6.47503 49.1843 5.87412 48.6096L4.54 47.2566C3.96205 46.6819 3.73778 45.818 4.00519 45.0434L4.96265 42.232C4.51697 41.3908 4.14033 40.5298 3.87292 39.6205L1.20184 38.3166C0.468645 37.9387 0 37.1869 0 36.3662V34.4641C0 33.6434 0.468645 32.8915 1.20184 32.5166L3.87292 31.2097C4.14033 30.3034 4.51697 29.4395 4.96265 28.599L4.00519 25.7876C3.73778 25.0123 3.96205 24.1484 4.54 23.5737L5.87412 22.2243C6.47503 21.6459 7.32032 21.4263 8.12254 21.6921L8.90642 21.9562V14.3872C8.90642 11.3356 11.4021 8.8537 14.4699 8.8537H24.4792V7.74745C24.4792 5.91419 25.9772 4.42719 27.8174 4.42719H29.3125C30.2411 1.81351 32.757 0 35.6064 0C38.4557 0 40.9716 1.81351 41.9002 4.42719ZM15.5827 52.7234V64.1929H55.6404V50.2437L48.8954 56.9537C48.8536 57.0097 48.8105 57.0475 48.762 57.0902C48.7504 57.1004 48.7384 57.1109 48.7261 57.122C48.7085 57.1379 48.6902 57.1549 48.6709 57.1741C48.6685 57.1741 48.6664 57.1747 48.6645 57.1758C48.6631 57.1766 48.6618 57.1777 48.6606 57.179C48.6582 57.1814 48.6562 57.1846 48.6544 57.1881L48.6512 57.1942C48.6457 57.2052 48.64 57.2165 48.6283 57.2165C48.6133 57.2458 48.5906 57.2565 48.57 57.2662C48.5582 57.2718 48.5471 57.277 48.5385 57.2853C45.3127 60.3171 41.1494 61.9783 36.7216 61.9783C36.0977 61.9783 35.6089 61.4892 35.6089 60.8721C35.6089 56.4646 37.2765 52.3031 40.3271 49.1176C40.3358 49.1091 40.3412 49.0971 40.3469 49.0845C40.3563 49.0638 40.3664 49.0414 40.3932 49.0291C40.3932 49.0178 40.4046 49.0121 40.416 49.0064C40.4276 49.0006 40.4392 48.9948 40.4392 48.983C40.4707 48.9517 40.4964 48.9233 40.5205 48.8967L40.5205 48.8966C40.5646 48.8479 40.603 48.8055 40.6606 48.7633L55.6405 33.8627L55.6404 33.8465V15.4942H45.6574L45.6358 15.4947L45.6208 15.4948H25.5919C25.5796 15.4948 25.5674 15.4946 25.5552 15.4942H15.5827V18.1089C15.9469 17.8532 16.3861 17.7085 16.8459 17.7085H18.7609C19.5832 17.7085 20.3393 18.1712 20.7189 18.9034L22.0329 21.5573C22.9443 21.8239 23.8127 22.2009 24.658 22.6445L27.4843 21.6921C27.7057 21.6262 27.9501 21.5807 28.1743 21.5807C28.7523 21.5807 29.3101 21.8004 29.7327 22.2243L31.0668 23.5737C31.6448 24.1484 31.869 25.0123 31.6016 25.7876L31.3378 26.5622H50.0715C50.6869 26.5622 51.1844 27.0571 51.1844 27.6692C51.1844 28.2783 50.6869 28.7762 50.0715 28.7762H30.7369C31.1421 29.5609 31.4852 30.367 31.7339 31.2097L34.405 32.5166C34.7275 32.6815 34.9988 32.9193 35.2016 33.2039H50.0692C50.6845 33.2039 51.1821 33.6981 51.1821 34.3101C51.1821 34.9192 50.6845 35.4171 50.0692 35.4171H35.6068V36.3662C35.6068 37.1869 35.1382 37.9387 34.405 38.3166L31.7339 39.6205C31.4665 40.5298 31.0898 41.3908 30.6442 42.232L31.6016 45.0434C31.869 45.818 31.6448 46.6819 31.0668 47.2566L29.7327 48.6096C29.1318 49.1843 28.2865 49.3842 27.4843 49.1382L24.658 48.1886C23.8127 48.6293 22.9443 49.0071 22.0329 49.2729L20.7189 51.9298C20.3393 52.659 19.5832 53.1254 18.7609 53.1254H16.8459C16.3861 53.1254 15.9469 52.9795 15.5827 52.7234ZM60.4858 42.3166C60.4618 42.3368 60.4385 42.3581 60.4159 42.3805L55.965 46.8077C55.9597 46.813 55.9544 46.8183 55.9492 46.8237L47.8488 54.8715L42.7538 49.8037L62.8261 29.8136C63.5158 29.1495 64.427 28.7754 65.3846 28.7754C66.3422 28.7754 67.2763 29.1495 67.9439 29.8136C68.6108 30.4798 68.9906 31.4089 68.9906 32.3585C68.9906 33.311 68.6108 34.2203 67.9439 34.907L60.4858 42.3166ZM46.7333 13.2809V11.067H56.7533C58.5935 11.067 60.0913 12.5547 60.0913 14.3872V29.1243L57.8655 31.2497V14.3872C57.8655 13.7751 57.3686 13.2809 56.7533 13.2809H46.7333ZM24.4792 11.067V13.2809H14.4699C13.8546 13.2809 13.3572 13.7751 13.3572 14.3872V20.9625L11.1318 21.852V14.3872C11.1318 12.5547 12.6298 11.067 14.4699 11.067H24.4792ZM33.3809 6.64041C33.3809 7.8587 34.3786 8.85441 35.6064 8.85441C36.8341 8.85441 37.8317 7.8587 37.8317 6.64041C37.8317 5.41923 36.8341 4.42719 35.6064 4.42719C34.3786 4.42719 33.3809 5.41923 33.3809 6.64041ZM17.8034 44.271C22.7229 44.271 26.7052 40.3072 26.7052 35.4166C26.7052 30.523 22.7229 26.5622 17.8034 26.5622C12.8839 26.5622 8.90174 30.523 8.90174 35.4166C8.90174 40.3072 12.8839 44.271 17.8034 44.271ZM20.0236 35.4171C20.0236 35.7092 19.9661 35.9918 19.854 36.2634C19.7418 36.5351 19.5808 36.773 19.3709 36.9817C19.1639 37.1874 18.9224 37.3477 18.6493 37.462C18.3761 37.5732 18.0943 37.6311 17.7982 37.6311C17.5021 37.6311 17.2202 37.5732 16.9471 37.462C16.674 37.3477 16.4324 37.1874 16.2254 36.9817C16.0155 36.773 15.8545 36.5351 15.7424 36.2634C15.6303 35.9918 15.5728 35.7092 15.5728 35.4171C15.5728 35.1228 15.6303 34.8395 15.7424 34.5678C15.8545 34.2992 16.0155 34.059 16.2254 33.8496C16.4324 33.6439 16.674 33.4835 16.9471 33.3694C17.2202 33.2581 17.5021 33.2039 17.7982 33.2039C18.0943 33.2039 18.3761 33.2581 18.6493 33.3694C18.9224 33.4835 19.1639 33.6439 19.3709 33.8496C19.5808 34.059 19.7418 34.2992 19.854 34.5678C19.9661 34.8395 20.0236 35.1228 20.0236 35.4171ZM41.1703 22.1349H50.0717C50.6871 22.1349 51.1847 21.6378 51.1847 21.0286C51.1847 20.4166 50.6871 19.9217 50.0717 19.9217H41.1703C40.555 19.9217 40.0576 20.4166 40.0576 21.0286C40.0576 21.6378 40.555 22.1349 41.1703 22.1349ZM32.2737 59.7658H21.1466C20.5313 59.7658 20.0338 59.2679 20.0338 58.6588C20.0338 58.0468 20.5313 57.5518 21.1466 57.5518H32.2737C32.889 57.5518 33.3864 58.0468 33.3864 58.6588C33.3864 59.2679 32.889 59.7658 32.2737 59.7658ZM11.1318 65.2991V48.8006L13.3572 49.4272V65.2991C13.3572 65.909 13.8546 66.4061 14.4699 66.4061H56.7533C57.3686 66.4061 57.8655 65.909 57.8655 65.2991V48.0486L60.0913 45.8354V65.2991C60.0913 67.1295 58.5935 68.6201 56.7533 68.6201H14.4699C12.6298 68.6201 11.1318 67.1295 11.1318 65.2991Z" fill="#002244"/>
</svg>
