<svg xmlns="http://www.w3.org/2000/svg" xmlns:xlink="http://www.w3.org/1999/xlink" width="43.979" height="123.942" viewBox="0 0 43.979 123.942"><defs><style>.a{clip-path:url(#a);}.b{clip-path:url(#b);}.c{clip-path:url(#c);}.d{clip-path:url(#d);}</style><clipPath id="a"><path d="M93.527,266.945h43.979v28.06H93.527Zm0,0" transform="translate(-93.527 -266.945)"/></clipPath><clipPath id="b"><path d="M93.527,291h43.979v27.987H93.527Zm0,0" transform="translate(-93.527 -291)"/></clipPath><clipPath id="c"><path d="M93.527,315h43.979v27.987H93.527Zm0,0" transform="translate(-93.527 -315)"/></clipPath><clipPath id="d"><path d="M93.527,339h43.979v27.914H93.527Zm0,0" transform="translate(-93.527 -339)"/></clipPath></defs><g transform="translate(-125.14 -4263.811)"><g class="a" transform="translate(125.14 4263.811)"><path d="M99.008,294.45a.407.407,0,0,0,.3.125.4.4,0,0,0,.3-.125L115.5,278.6l15.9,15.851a.385.385,0,0,0,.3.12.376.376,0,0,0,.3-.12l5.336-5.32a.405.405,0,0,0,.125-.3.4.4,0,0,0-.125-.3l-21.531-21.47a.42.42,0,0,0-.6,0l-21.537,21.47a.4.4,0,0,0-.125.3.407.407,0,0,0,.125.3Zm16.5-26.488,20.938,20.87-4.736,4.722-15.9-15.846a.406.406,0,0,0-.3-.125.4.4,0,0,0-.3.125l-15.9,15.846-4.743-4.722Zm0,0" transform="translate(-93.521 -266.946)"/></g><g class="b" transform="translate(125.14 4295.87)"><path d="M115.807,291.143a.433.433,0,0,0-.6,0l-21.537,21.47a.4.4,0,0,0-.125.3.391.391,0,0,0,.125.3l5.336,5.32a.415.415,0,0,0,.3.125.4.4,0,0,0,.3-.125l15.9-15.846,15.9,15.846a.409.409,0,0,0,.3.125.4.4,0,0,0,.3-.125l5.336-5.32a.389.389,0,0,0,.125-.3.4.4,0,0,0-.125-.3Zm15.9,26.493-15.9-15.851a.4.4,0,0,0-.3-.12.378.378,0,0,0-.3.12l-15.9,15.851-4.743-4.727L115.5,292.044l20.938,20.865Zm0,0" transform="translate(-93.521 -290.992)"/></g><g class="c" transform="translate(125.14 4327.854)"><path d="M115.807,315.226a.41.41,0,0,0-.3-.124.406.406,0,0,0-.3.124L93.672,336.7a.394.394,0,0,0-.125.3.45.45,0,0,0,.125.3l5.336,5.32a.423.423,0,0,0,.3.12.411.411,0,0,0,.3-.12l15.9-15.851,15.9,15.851a.385.385,0,0,0,.3.12.416.416,0,0,0,.3-.12l5.336-5.32a.424.424,0,0,0,.125-.3.392.392,0,0,0-.125-.3Zm15.9,26.488-15.9-15.846a.406.406,0,0,0-.3-.125.4.4,0,0,0-.3.125l-15.9,15.846-4.743-4.722,20.938-20.87,20.938,20.87Zm0,0" transform="translate(-93.521 -314.966)"/></g><g class="d" transform="translate(125.14 4359.84)"><path d="M115.807,339.308a.41.41,0,0,0-.3-.124.406.406,0,0,0-.3.124L93.672,360.773a.45.45,0,0,0-.125.3.405.405,0,0,0,.125.3l5.336,5.32a.415.415,0,0,0,.3.125.4.4,0,0,0,.3-.125l15.9-15.857,15.9,15.851a.425.425,0,0,0,.3.12.416.416,0,0,0,.3-.12l5.336-5.32a.4.4,0,0,0,.125-.3.427.427,0,0,0-.125-.3Zm15.9,26.488-15.9-15.851a.406.406,0,0,0-.3-.125.4.4,0,0,0-.3.125L99.31,365.8l-4.743-4.727L115.5,340.2l20.938,20.865Zm0,0" transform="translate(-93.521 -338.939)"/></g></g></svg>