<svg xmlns="http://www.w3.org/2000/svg" xmlns:xlink="http://www.w3.org/1999/xlink" width="157.593" height="157.807" viewBox="0 0 157.593 157.807"><defs><style>.a{clip-path:url(#a);}.b{fill:#f7f7f7;}</style><clipPath id="a"><path d="M1016,567.59h157.593V725.4H1016Zm0,0" transform="translate(-1016 -567.59)"/></clipPath></defs><g class="a"><path class="b" d="M1028.578,627.652a157.137,157.137,0,0,0,84.827,84.819,155.436,155.436,0,0,0,29.36,8.9,158.475,158.475,0,0,0,30.6,2.993v-1.421a156.867,156.867,0,0,1-30.333-2.968A155.133,155.133,0,0,1,1021.075,598.02a156.185,156.185,0,0,1-2.959-30.325h-1.426a158.917,158.917,0,0,0,3,30.6,154.726,154.726,0,0,0,8.889,29.362" transform="translate(-1015.771 -567.555)"/></g></svg>