<svg xmlns="http://www.w3.org/2000/svg" xmlns:xlink="http://www.w3.org/1999/xlink" width="213.307" height="213.572" viewBox="0 0 213.307 213.572"><defs><style>.a{clip-path:url(#a);}.b{fill:#f7f7f7;}</style><clipPath id="a"><path d="M422,567.746H635.307V781.318H422Zm0,0" transform="translate(-422 -567.746)"/></clipPath></defs><g class="a"><path class="b" d="M426.358,609.363a211.919,211.919,0,0,0,31.824,76.8,212.62,212.62,0,0,0,177.027,94.6v-1.421a212.985,212.985,0,0,1-41.242-4.034A211.442,211.442,0,0,1,485.658,717.4a211.718,211.718,0,0,1-45.875-68.588,210.433,210.433,0,0,1-12.036-39.721,212.808,212.808,0,0,1-4.035-41.235H422.3a213.719,213.719,0,0,0,4.061,41.511" transform="translate(-421.901 -567.711)"/></g></svg>