<svg xmlns="http://www.w3.org/2000/svg" width="56.759" height="62.672" viewBox="0 0 56.759 62.672"><defs><style>.a{fill:#fff;}</style></defs><path class="a" d="M111.952,308.742l-9.288-9.4a10.454,10.454,0,0,0,.376-1.445,10.342,10.342,0,0,0-2.735-9.108c-.045-.05-.087-.1-.137-.143l-.009-.012a10.4,10.4,0,0,0-9.167-2.866c-.239.04-.472.093-.708.149l5.452,5.443a2.484,2.484,0,0,1,0,3.516l-4.047,4.038a2.5,2.5,0,0,1-3.524,0l-5.036-5.027-.41-.41c-.065.258-.115.514-.163.778a10.339,10.339,0,0,0,2.886,9.069l.008.012c.079.076.16.158.245.224a10.389,10.389,0,0,0,8.928,2.659,10.276,10.276,0,0,0,1.54-.4h0l9.165,9.274a4.713,4.713,0,0,0,6.4.323c.065-.059.129-.127.2-.191a4.583,4.583,0,0,0,.028-6.492" transform="translate(-56.527 -253.85)"/><path class="a" d="M67.964,251.11a6.124,6.124,0,1,1,12.194.793,16.994,16.994,0,0,0-12.143,0A6.71,6.71,0,0,1,67.964,251.11Zm1.984,35.672a12.844,12.844,0,0,1-.185-5.365,13.172,13.172,0,0,1,11.626-10.89,13.658,13.658,0,0,1,3.752.191,13.36,13.36,0,0,1,5.138,2.136c.042-.174.09-.346.13-.517h9.459a1.839,1.839,0,0,0,1.869-1.672,1.771,1.771,0,0,0-1.768-1.863H90.924c.029-.4.04-.79.04-1.175a16.858,16.858,0,0,0-.483-4.016,9.866,9.866,0,0,0,7.2-6.4l2.813-8.113a1.807,1.807,0,0,0-.75-2.164,1.773,1.773,0,0,0-2.571.947l-2.835,8.172a6.329,6.329,0,0,1-5.073,4.187,16.905,16.905,0,0,0-5.837-6.652,9.662,9.662,0,1,0-18.678,0,16.9,16.9,0,0,0-5.834,6.652,6.325,6.325,0,0,1-5.073-4.187l-2.822-8.13a1.8,1.8,0,0,0-1.9-1.22,1.767,1.767,0,0,0-1.456,2.332l2.833,8.175a9.875,9.875,0,0,0,7.2,6.4,16.876,16.876,0,0,0-.483,4.016c0,.385.011.778.039,1.175H48.3a1.839,1.839,0,0,0-1.841,1.451,1.77,1.77,0,0,0,1.742,2.085h9.561a29.679,29.679,0,0,0,1.6,4.971,9.871,9.871,0,0,0-8.872,6.618l-2.813,8.114a1.805,1.805,0,0,0,.753,2.161,1.776,1.776,0,0,0,2.574-.945l2.833-8.175a6.33,6.33,0,0,1,5.98-4.252h1.3c2.434,4.19,5.834,7.683,9.713,8.984a.081.081,0,0,0,.09-.124,12.4,12.4,0,0,1-.972-2.909" transform="translate(-46.434 -241.465)"/></svg>