<svg width="32" height="32" viewBox="0 0 32 32" fill="none" xmlns="http://www.w3.org/2000/svg">
<path fill-rule="evenodd" clip-rule="evenodd" d="M20.668 6.66699H11.3346C8.7682 6.66699 6.66797 8.76629 6.66797 11.3337V20.667C6.66797 23.2334 8.7682 25.3337 11.3346 25.3337H20.668C23.2344 25.3337 25.3346 23.2334 25.3346 20.667V11.3337C25.3346 8.76629 23.2344 6.66699 20.668 6.66699ZM16.0014 19.8891C13.8533 19.8891 12.1124 18.1475 12.1124 16.0004C12.1124 13.8523 13.8533 12.1114 16.0014 12.1114C18.1485 12.1114 19.8903 13.8523 19.8903 16.0004C19.8903 18.1475 18.1485 19.8891 16.0014 19.8891ZM19.8902 10.9448C19.8902 11.589 20.4119 12.1114 21.0569 12.1114C21.7018 12.1114 22.2235 11.589 22.2235 10.9448C22.2235 10.3005 21.7018 9.7781 21.0569 9.7781C20.4119 9.7781 19.8902 10.3005 19.8902 10.9448Z" fill="white"/>
</svg>
