<svg width="36" height="60" viewBox="0 0 36 60" fill="none" xmlns="http://www.w3.org/2000/svg">
<mask id="mask0_73_1805" style="mask-type:luminance" maskUnits="userSpaceOnUse" x="0" y="0" width="36" height="60">
<path d="M0 0H35.3303V59.9639H0V0Z" fill="white"/>
</mask>
<g mask="url(#mask0_73_1805)">
<path d="M31.4961 26.2342C30.5559 26.2342 29.7049 26.5833 29.0407 27.1386C28.3737 26.042 27.1661 25.2973 25.7731 25.2973C24.6273 25.2973 23.6124 25.806 22.9122 26.5917C22.6621 26.3119 22.376 26.066 22.0511 25.8682C26.039 23.3301 28.6353 18.9097 28.6353 14.054C28.6353 6.30559 22.2164 0 14.3269 0C6.43741 0 0.0185547 6.30559 0.0185547 14.054C0.0185547 20.3568 4.39028 25.9247 10.5116 27.5908V36.2084L6.90463 40.6415C6.7695 40.8069 6.69618 41.0132 6.69618 41.2252V51.5498C6.69618 51.7985 6.79681 52.0374 6.97795 52.214L10.5302 55.6876C10.7401 58.0801 12.7916 59.9639 15.2815 59.9639H29.5884C32.2192 59.9639 34.3584 57.8625 34.3584 55.2792V53.6272L35.2123 51.9512C35.2784 51.8212 35.3129 51.677 35.3129 51.5315V29.9819C35.3129 27.9159 33.6008 26.2342 31.4961 26.2342ZM10.5116 14.991V20.532C8.1884 19.2107 6.69618 16.7574 6.69618 14.054C6.69618 9.92191 10.1191 6.55855 14.3269 6.55855C18.5348 6.55855 21.9577 9.92191 21.9577 14.054C21.9577 16.7574 20.4655 19.2107 18.1423 20.532V14.991C18.1423 12.9249 16.4316 11.2432 14.3269 11.2432C12.2223 11.2432 10.5116 12.9249 10.5116 14.991ZM1.92624 14.054C1.92624 7.33862 7.48973 1.87387 14.3269 1.87387C21.1641 1.87387 26.7276 7.33862 26.7276 14.054C26.7276 19.3421 23.1811 24.0367 18.1423 25.6421V22.6419C21.5925 21.1623 23.8654 17.7933 23.8654 14.054C23.8654 8.88746 19.5871 4.68468 14.3269 4.68468C9.06677 4.68468 4.78849 8.88746 4.78849 14.054C4.78849 17.7933 7.06277 21.1623 10.5116 22.6419V25.6421C5.47279 24.0367 1.92624 19.3421 1.92624 14.054ZM33.4052 51.311L32.5513 52.987C32.4852 53.1156 32.4507 53.2598 32.4507 53.4053V55.2792C32.4507 56.8295 31.1669 58.09 29.5884 58.09H15.2815C13.703 58.09 12.4192 56.8295 12.4192 55.2792C12.4192 55.0305 12.3186 54.7917 12.1375 54.615L8.60387 51.1598V41.5544L10.5116 39.21V43.099H12.4192V14.991C12.4192 13.9579 13.2746 13.1171 14.3269 13.1171C15.3793 13.1171 16.2346 13.9579 16.2346 14.991V36.5405H18.1423V29.045C18.1423 28.012 18.9977 27.1711 20.05 27.1711C21.1023 27.1711 21.9577 28.012 21.9577 29.045V36.5405H23.8654V29.045C23.8654 28.012 24.7222 27.1711 25.7731 27.1711C26.8254 27.1711 27.6807 28.012 27.6807 29.045V37.4774H29.5884V29.9819C29.5884 28.9489 30.4452 28.1081 31.4961 28.1081C32.5484 28.1081 33.4052 28.9489 33.4052 29.9819V51.311Z" fill="#002244"/>
</g>
</svg>
