<svg width="32" height="32" viewBox="0 0 32 32" fill="none" xmlns="http://www.w3.org/2000/svg">
<path d="M7.10938 12.2955H10.8131V24.8881H7.10938V12.2955ZM8.95012 10.8141H8.92937C7.82419 10.8141 7.10938 9.99035 7.10938 8.96146C7.10938 7.91035 7.84641 7.11035 8.9716 7.11035C10.0983 7.11035 10.7923 7.91035 10.8131 8.96146C10.8131 9.98961 10.0983 10.8141 8.95012 10.8141ZM24.8872 24.8881H21.1834V18.1481C21.1834 16.52 20.276 15.4089 18.819 15.4089C17.7072 15.4089 17.1057 16.1585 16.8138 16.8829C16.7072 17.1422 16.739 17.8592 16.739 18.2215V24.8881H13.0353V12.2955H16.739V14.2333C17.2731 13.4066 18.1094 12.2955 20.2486 12.2955C22.899 12.2955 24.8864 13.9622 24.8864 17.6837L24.8872 24.8881Z" fill="white"/>
</svg>
