<svg xmlns="http://www.w3.org/2000/svg" width="266.093" height="54.285" viewBox="0 0 266.093 54.285"><defs><style>.a{fill:#f7e022;}.b{fill:#1e1e1e;}.c{fill:#fff;}.d{fill:#0a8ffc;}</style></defs><g transform="translate(-982.996 87.285)"><path class="a" d="M270.089,55H95.691V33.14h174.4ZM95.8,55V52.8l-6.406,1.084Zm0-2.2v-2.2l-9.116,1.084Zm0-2.2v-2.2L83.971,49.474Zm0-2.2v-2.2L81.261,47.27Zm0-2.2v-2.2L78.551,45.067Zm0-2.2v-2.2L75.84,42.863Zm0-2.2v-2.2L73.13,40.66Zm0-2.168v-2.2L70.42,38.491Zm0-2.2V35.2L67.71,36.288Zm0-2.2V33L65,34.084Z" transform="translate(979 -88)"/><path class="b" d="M270.089,3.3H68.716V34.9H270.089Z" transform="translate(979 -88)"/><path class="c" d="M87.049,12.637v2.116l-3.389.2V13.043c0-1.855-.7-2.667-1.969-2.667s-1.969.84-1.969,2.348V25.478c0,1.536.7,2.348,1.969,2.348s1.969-.84,1.969-2.667V22.551l3.389.2v2.812c0,3.507-2.027,5.623-5.474,5.623s-5.416-2.029-5.416-5.623V12.7c0-3.507,1.969-5.623,5.416-5.623C85.021,7.043,87.049,9.13,87.049,12.637Z" transform="translate(979 -88)"/><path class="c" d="M101.153,12.956V25.217c0,3.71-2.172,5.942-5.676,5.942S89.8,28.927,89.8,25.217V12.956c0-3.71,2.172-5.942,5.677-5.942S101.153,9.275,101.153,12.956Zm-7.848,0v12.2c0,1.71.753,2.667,2.172,2.667s2.172-.957,2.172-2.667v-12.2c0-1.71-.753-2.667-2.172-2.667S93.3,11.246,93.3,12.956Z" transform="translate(979 -88)"/><path class="c" d="M109.7,7.362c3.823,0,5.879,2.029,5.879,5.942V24.841c0,3.826-2.027,5.942-5.879,5.942h-5.1V7.42h5.1Zm-1.535,20.087h1.39c1.709,0,2.491-.9,2.491-2.87v-11.1c0-1.971-.753-2.87-2.491-2.87h-1.39Z" transform="translate(979 -88)"/><path class="c" d="M122.5,10.667V17.3h5.156v3.246H122.5v6.956h6.372v3.246h-9.876V7.42h9.963v3.246Z" transform="translate(979 -88)"/><path class="c" d="M139.644,30.782l-.753-5.3H135.01l-.753,5.3h-3.505l4-23.362h4.518l4.026,23.362Zm-4.2-8.58h2.983l-1.477-9.826h-.116Z" transform="translate(979 -88)"/><path class="c" d="M156.413,25.536c0,3.71-2.115,5.565-5.474,5.565-3.3,0-5.416-1.913-5.416-5.565V7.42h3.389V25.478c0,1.71.753,2.348,1.969,2.348s1.969-.638,1.969-2.348V7.42h3.5V25.536Z" transform="translate(979 -88)"/><path class="c" d="M165.738,10.724V30.753h-3.5V10.724h-3.765V7.42h11.092v3.3Z" transform="translate(979 -88)"/><path class="c" d="M182.71,12.956V25.217c0,3.71-2.172,5.942-5.676,5.942s-5.677-2.232-5.677-5.942V12.956c0-3.71,2.172-5.942,5.677-5.942C180.538,7.043,182.71,9.275,182.71,12.956Zm-7.849,0v12.2c0,1.71.753,2.667,2.173,2.667s2.172-.957,2.172-2.667v-12.2c0-1.71-.753-2.667-2.172-2.667S174.861,11.246,174.861,12.956Z" transform="translate(979 -88)"/><path class="c" d="M197.568,30.782V14.551h-.058l-2.925,12.9H192.47l-2.925-12.9h-.058v16.2h-3.3V7.42h4.662L193.6,20h.058l2.751-12.58h4.779V30.782Z" transform="translate(979 -88)"/><path class="c" d="M212.657,30.782l-.753-5.3h-3.881l-.753,5.3h-3.505L207.791,7.42h4.518l4.026,23.362Zm-4.2-8.58h2.983l-1.477-9.826h-.116Z" transform="translate(979 -88)"/><path class="c" d="M223.373,10.724V30.753h-3.505V10.724H216.1V7.42H227.2v3.3Z" transform="translate(979 -88)"/><path class="c" d="M229.368,30.782V7.42h3.5V30.782Z" transform="translate(979 -88)"/><path class="c" d="M247.73,12.956V25.217c0,3.71-2.173,5.942-5.677,5.942s-5.676-2.232-5.676-5.942V12.956c0-3.71,2.172-5.942,5.676-5.942S247.73,9.275,247.73,12.956Zm-7.849,0v12.2c0,1.71.753,2.667,2.172,2.667s2.172-.957,2.172-2.667v-12.2c0-1.71-.753-2.667-2.172-2.667S239.881,11.246,239.881,12.956Z" transform="translate(979 -88)"/><path class="c" d="M259.2,30.782l-4.663-15.507h-.058V30.782h-3.3V7.42h3.939l4.141,13.913h.058V7.42h3.3V30.782Z" transform="translate(979 -88)"/><path d="M105.224,42.582a.856.856,0,0,0-.272-.72,1.282,1.282,0,0,0-.869-.254,1.906,1.906,0,0,0-.686.112,1.158,1.158,0,0,0-.466.3.851.851,0,0,0-.213.44.6.6,0,0,0,.026.358.706.706,0,0,0,.22.265,1.707,1.707,0,0,0,.362.19,3.685,3.685,0,0,0,.444.134l.656.164a4.1,4.1,0,0,1,.865.3,2.214,2.214,0,0,1,.649.459,1.522,1.522,0,0,1,.373.641,1.908,1.908,0,0,1,.03.846,2.491,2.491,0,0,1-.556,1.216,2.875,2.875,0,0,1-1.145.794,4.446,4.446,0,0,1-1.64.28,3.842,3.842,0,0,1-1.563-.283,1.855,1.855,0,0,1-.928-.839,2.285,2.285,0,0,1-.172-1.383H101.9a1.02,1.02,0,0,0,.111.641.974.974,0,0,0,.467.384,1.9,1.9,0,0,0,.727.127,2.1,2.1,0,0,0,.734-.119,1.354,1.354,0,0,0,.526-.332.912.912,0,0,0,.246-.488.558.558,0,0,0-.078-.432.943.943,0,0,0-.4-.3,3.542,3.542,0,0,0-.668-.224l-.8-.209a2.845,2.845,0,0,1-1.4-.735,1.505,1.505,0,0,1-.339-1.346,2.4,2.4,0,0,1,.578-1.212,3.09,3.09,0,0,1,1.163-.809,4,4,0,0,1,1.54-.291,3.166,3.166,0,0,1,1.435.295,1.844,1.844,0,0,1,.854.813,1.958,1.958,0,0,1,.164,1.215Zm4.408,5.53a2.611,2.611,0,0,1-1.45-.373,2.006,2.006,0,0,1-.809-1.044,3.179,3.179,0,0,1-.086-1.562,3.772,3.772,0,0,1,.589-1.54,3.12,3.12,0,0,1,1.137-1.025,3.243,3.243,0,0,1,1.555-.369,2.587,2.587,0,0,1,1.447.377,1.991,1.991,0,0,1,.809,1.044,3.153,3.153,0,0,1,.089,1.562,3.777,3.777,0,0,1-.6,1.536,3.2,3.2,0,0,1-1.137,1.029A3.244,3.244,0,0,1,109.632,48.112Zm.157-1.23a1.17,1.17,0,0,0,.712-.228,1.77,1.77,0,0,0,.518-.626,2.973,2.973,0,0,0,.291-.9,2.563,2.563,0,0,0,.011-.88,1.107,1.107,0,0,0-.3-.611.831.831,0,0,0-.615-.224,1.173,1.173,0,0,0-.716.231,1.727,1.727,0,0,0-.518.626,3.029,3.029,0,0,0-.288.906,2.694,2.694,0,0,0-.011.88,1.088,1.088,0,0,0,.295.608A.852.852,0,0,0,109.789,46.881Zm7.726-4.609-.2,1.193h-3.535l.2-1.193ZM113.831,48l1.025-6.141a2.3,2.3,0,0,1,.41-1.033,1.972,1.972,0,0,1,.772-.615,2.433,2.433,0,0,1,1-.205,3.547,3.547,0,0,1,.66.056,3.667,3.667,0,0,1,.433.1l-.474,1.193a1.829,1.829,0,0,0-.22-.056,1.405,1.405,0,0,0-.276-.026.694.694,0,0,0-.51.164.851.851,0,0,0-.217.451L115.415,48Zm7.7-5.727-.2,1.193h-3.453l.2-1.193ZM119.085,40.9h1.589l-.888,5.34a.664.664,0,0,0,.011.343.3.3,0,0,0,.161.168.711.711,0,0,0,.276.049,1.43,1.43,0,0,0,.227-.019l.175-.034.06,1.182c-.089.027-.21.057-.362.089a3.046,3.046,0,0,1-.529.06,2.239,2.239,0,0,1-.984-.153,1.109,1.109,0,0,1-.578-.548,1.519,1.519,0,0,1-.075-.928Zm3.653,7.1-.6-5.727h1.607l.246,3.848h.052l1.566-3.848h1.577l.3,3.826h.049l1.514-3.826h1.6L128.137,48h-1.682l-.388-3.6H126L124.415,48Zm9.419.108a2.172,2.172,0,0,1-.943-.19,1.228,1.228,0,0,1-.582-.574,1.548,1.548,0,0,1-.093-.943,1.936,1.936,0,0,1,.309-.8,1.859,1.859,0,0,1,.563-.522,2.823,2.823,0,0,1,.735-.3,5.154,5.154,0,0,1,.839-.142q.5-.052.813-.1a1.422,1.422,0,0,0,.473-.138.389.389,0,0,0,.191-.276V44.1a.608.608,0,0,0-.131-.544.764.764,0,0,0-.585-.2,1.339,1.339,0,0,0-.724.186,1.066,1.066,0,0,0-.421.474l-1.447-.119a2.41,2.41,0,0,1,.586-.9,2.669,2.669,0,0,1,.95-.589,3.524,3.524,0,0,1,1.246-.209,3.4,3.4,0,0,1,.891.112,2.01,2.01,0,0,1,.72.347,1.319,1.319,0,0,1,.44.6,1.7,1.7,0,0,1,.055.876L135.4,48h-1.506l.134-.794h-.044a2.065,2.065,0,0,1-.448.473,2.1,2.1,0,0,1-.608.317A2.466,2.466,0,0,1,132.157,48.108Zm.638-1.1a1.463,1.463,0,0,0,.637-.138,1.363,1.363,0,0,0,.485-.38,1.16,1.16,0,0,0,.246-.541l.1-.608a.768.768,0,0,1-.216.086c-.092.025-.193.049-.3.071s-.215.038-.325.056-.207.03-.294.045a2.3,2.3,0,0,0-.515.131.994.994,0,0,0-.369.242.671.671,0,0,0-.175.373.5.5,0,0,0,.153.5A.9.9,0,0,0,132.795,47.012ZM136.63,48l.954-5.727h1.54l-.168,1h.06a1.869,1.869,0,0,1,.66-.805,1.6,1.6,0,0,1,.9-.276,2.223,2.223,0,0,1,.25.015,1.5,1.5,0,0,1,.238.037l-.238,1.413a1.427,1.427,0,0,0-.3-.06,2.66,2.66,0,0,0-.361-.026,1.4,1.4,0,0,0-.646.153,1.44,1.44,0,0,0-.5.418,1.456,1.456,0,0,0-.265.619L138.218,48Zm6.625.112a2.724,2.724,0,0,1-1.458-.358,1.932,1.932,0,0,1-.813-1.022,3.157,3.157,0,0,1-.078-1.57,3.878,3.878,0,0,1,.6-1.551,3.24,3.24,0,0,1,1.141-1.04,3.148,3.148,0,0,1,1.529-.373,2.748,2.748,0,0,1,1.025.183,1.858,1.858,0,0,1,.768.544,2,2,0,0,1,.418.906,3.472,3.472,0,0,1,0,1.275l-.071.436H141.48l.153-.984h3.341a1.168,1.168,0,0,0-.045-.608.822.822,0,0,0-.336-.414,1.035,1.035,0,0,0-.578-.153,1.322,1.322,0,0,0-.656.172,1.623,1.623,0,0,0-.514.451,1.428,1.428,0,0,0-.265.6l-.175.977a1.535,1.535,0,0,0,.029.75.815.815,0,0,0,.373.447,1.383,1.383,0,0,0,.671.145,1.6,1.6,0,0,0,.5-.075,1.293,1.293,0,0,0,.418-.22,1.172,1.172,0,0,0,.3-.369l1.451.1a2.511,2.511,0,0,1-.612.925,2.91,2.91,0,0,1-.988.611A3.628,3.628,0,0,1,143.255,48.112Zm13.705-5.075h-1.611a1.561,1.561,0,0,0-.082-.567,1.106,1.106,0,0,0-.269-.425,1.129,1.129,0,0,0-.429-.265,1.644,1.644,0,0,0-.57-.093,2.141,2.141,0,0,0-1.122.306,2.525,2.525,0,0,0-.862.887,3.887,3.887,0,0,0-.484,1.4,3.167,3.167,0,0,0,.014,1.324,1.427,1.427,0,0,0,.515.805,1.548,1.548,0,0,0,.928.269,2.436,2.436,0,0,0,.653-.086,2.111,2.111,0,0,0,.563-.254,1.859,1.859,0,0,0,.447-.406,1.807,1.807,0,0,0,.3-.541h1.622A3.672,3.672,0,0,1,156.1,46.4a3.772,3.772,0,0,1-3.2,1.7,3.241,3.241,0,0,1-1.786-.477,2.661,2.661,0,0,1-1.07-1.376,4.3,4.3,0,0,1-.124-2.166,5.029,5.029,0,0,1,.8-2.081,4.032,4.032,0,0,1,1.458-1.3,3.964,3.964,0,0,1,1.842-.444,3.839,3.839,0,0,1,1.234.187,2.588,2.588,0,0,1,.94.544,2.233,2.233,0,0,1,.589.869A2.945,2.945,0,0,1,156.96,43.037Zm2.906,5.075a2.611,2.611,0,0,1-1.45-.373,2.013,2.013,0,0,1-.81-1.044,3.192,3.192,0,0,1-.085-1.562,3.773,3.773,0,0,1,.589-1.54,3.12,3.12,0,0,1,1.137-1.025A3.243,3.243,0,0,1,160.8,42.2a2.587,2.587,0,0,1,1.447.377,2,2,0,0,1,.809,1.044,3.165,3.165,0,0,1,.089,1.562,3.791,3.791,0,0,1-.6,1.536,3.2,3.2,0,0,1-1.138,1.029A3.237,3.237,0,0,1,159.866,48.112Zm.157-1.23a1.172,1.172,0,0,0,.712-.228,1.78,1.78,0,0,0,.518-.626,2.974,2.974,0,0,0,.291-.9,2.563,2.563,0,0,0,.011-.88,1.114,1.114,0,0,0-.3-.611.831.831,0,0,0-.615-.224,1.171,1.171,0,0,0-.716.231,1.739,1.739,0,0,0-.519.626,3.057,3.057,0,0,0-.287.906,2.694,2.694,0,0,0-.011.88,1.088,1.088,0,0,0,.3.608A.852.852,0,0,0,160.023,46.881Zm5.835-2.193L165.306,48h-1.584l.954-5.727h1.51l-.164,1.01h.063a2.02,2.02,0,0,1,.769-.794,2.218,2.218,0,0,1,1.137-.291,1.779,1.779,0,0,1,.995.261,1.385,1.385,0,0,1,.567.742,2.322,2.322,0,0,1,.056,1.152L169,48h-1.589l.563-3.363a1.05,1.05,0,0,0-.134-.82.8.8,0,0,0-.7-.3,1.268,1.268,0,0,0-.589.138,1.227,1.227,0,0,0-.452.4A1.569,1.569,0,0,0,165.858,44.689Zm9.824-.783-1.443.09a.7.7,0,0,0-.1-.339.63.63,0,0,0-.265-.242.926.926,0,0,0-.432-.09,1.358,1.358,0,0,0-.7.179.637.637,0,0,0-.346.459.313.313,0,0,0,.093.3,1.123,1.123,0,0,0,.511.209l1.006.209a2.118,2.118,0,0,1,1.164.57,1.19,1.19,0,0,1,.257,1.044,1.812,1.812,0,0,1-.481.958,2.639,2.639,0,0,1-.984.634,3.745,3.745,0,0,1-1.324.224,2.829,2.829,0,0,1-1.775-.477,1.5,1.5,0,0,1-.585-1.294l1.551-.082a.68.68,0,0,0,.246.529,1.012,1.012,0,0,0,.623.179,1.37,1.37,0,0,0,.753-.183.676.676,0,0,0,.354-.47.318.318,0,0,0-.112-.313,1.188,1.188,0,0,0-.507-.2l-.955-.2a1.974,1.974,0,0,1-1.167-.6,1.313,1.313,0,0,1-.242-1.1,1.733,1.733,0,0,1,.444-.913,2.309,2.309,0,0,1,.921-.589,3.742,3.742,0,0,1,1.279-.2,2.615,2.615,0,0,1,1.678.459A1.454,1.454,0,0,1,175.682,43.906Zm4.535,1.656.548-3.289h1.589L181.4,48h-1.525l.172-1.04h-.06a2.041,2.041,0,0,1-.772.809,2.186,2.186,0,0,1-1.152.306,1.718,1.718,0,0,1-.969-.261,1.406,1.406,0,0,1-.556-.742,2.394,2.394,0,0,1-.056-1.152l.612-3.647h1.588l-.559,3.363a1.039,1.039,0,0,0,.141.8.785.785,0,0,0,.672.295,1.255,1.255,0,0,0,.555-.131,1.315,1.315,0,0,0,.47-.4A1.406,1.406,0,0,0,180.217,45.561Zm5.309-5.2L184.258,48H182.67l1.268-7.636Zm4.006,1.909-.2,1.193h-3.453l.2-1.193ZM187.089,40.9h1.589l-.888,5.34a.664.664,0,0,0,.011.343.3.3,0,0,0,.161.168.711.711,0,0,0,.276.049,1.43,1.43,0,0,0,.227-.019l.175-.034.06,1.182c-.089.027-.21.057-.362.089a3.046,3.046,0,0,1-.529.06,2.247,2.247,0,0,1-.985-.153,1.11,1.11,0,0,1-.577-.548,1.519,1.519,0,0,1-.075-.928Zm4.141,7.208a2.172,2.172,0,0,1-.943-.19,1.228,1.228,0,0,1-.582-.574,1.548,1.548,0,0,1-.093-.943,1.922,1.922,0,0,1,.309-.8,1.848,1.848,0,0,1,.563-.522,2.794,2.794,0,0,1,.735-.3,5.135,5.135,0,0,1,.839-.142q.5-.052.813-.1a1.422,1.422,0,0,0,.473-.138.385.385,0,0,0,.19-.276V44.1a.6.6,0,0,0-.13-.544.765.765,0,0,0-.586-.2,1.338,1.338,0,0,0-.723.186,1.066,1.066,0,0,0-.421.474l-1.447-.119a2.407,2.407,0,0,1,.585-.9,2.682,2.682,0,0,1,.951-.589,3.524,3.524,0,0,1,1.246-.209,3.4,3.4,0,0,1,.891.112,2,2,0,0,1,.719.347,1.305,1.305,0,0,1,.44.6,1.7,1.7,0,0,1,.056.876L194.47,48h-1.506l.134-.794h-.045a2.082,2.082,0,0,1-.447.473A2.109,2.109,0,0,1,192,48,2.475,2.475,0,0,1,191.23,48.108Zm.638-1.1a1.467,1.467,0,0,0,.637-.138,1.363,1.363,0,0,0,.485-.38,1.16,1.16,0,0,0,.246-.541l.1-.608a.768.768,0,0,1-.216.086c-.092.025-.193.049-.3.071s-.215.038-.325.056-.207.03-.294.045a2.285,2.285,0,0,0-.515.131.978.978,0,0,0-.369.242.671.671,0,0,0-.175.373.5.5,0,0,0,.153.5A.9.9,0,0,0,191.868,47.012Zm5.982-2.323L197.3,48h-1.584l.954-5.727h1.51l-.164,1.01h.064a2.011,2.011,0,0,1,.768-.794,2.218,2.218,0,0,1,1.137-.291,1.783,1.783,0,0,1,1,.261,1.388,1.388,0,0,1,.566.742,2.322,2.322,0,0,1,.056,1.152L200.99,48H199.4l.563-3.363a1.046,1.046,0,0,0-.134-.82.8.8,0,0,0-.7-.3,1.268,1.268,0,0,0-.589.138,1.217,1.217,0,0,0-.451.4A1.556,1.556,0,0,0,197.85,44.689Zm6.957,3.423a2.608,2.608,0,0,1-1.454-.373,1.98,1.98,0,0,1-.794-1.044,3.148,3.148,0,0,1-.079-1.536,3.778,3.778,0,0,1,.593-1.544,3.192,3.192,0,0,1,1.145-1.04,3.242,3.242,0,0,1,1.566-.377,2.7,2.7,0,0,1,1.268.272,1.7,1.7,0,0,1,.76.764,2.022,2.022,0,0,1,.164,1.156h-1.495a1.016,1.016,0,0,0-.22-.69.811.811,0,0,0-.656-.265,1.243,1.243,0,0,0-.686.2,1.613,1.613,0,0,0-.526.578,2.756,2.756,0,0,0-.3.921,2.488,2.488,0,0,0,0,.932,1.023,1.023,0,0,0,.328.585.927.927,0,0,0,.612.2,1.174,1.174,0,0,0,.511-.112,1.213,1.213,0,0,0,.417-.324,1.536,1.536,0,0,0,.276-.518h1.5a2.807,2.807,0,0,1-.556,1.156,2.735,2.735,0,0,1-1,.776A3.216,3.216,0,0,1,204.807,48.112Zm4.22,2.036a2.982,2.982,0,0,1-.559-.048,1.909,1.909,0,0,1-.418-.116l.559-1.186a1.674,1.674,0,0,0,.481.09.716.716,0,0,0,.4-.112,1.069,1.069,0,0,0,.336-.38l.141-.242-1.074-5.88h1.611l.485,4.213h.06l1.9-4.213h1.741l-3.278,6.346a3.42,3.42,0,0,1-.574.809,2.258,2.258,0,0,1-.779.529A2.624,2.624,0,0,1,209.027,50.148Zm15.537-7.111h-1.611a1.561,1.561,0,0,0-.082-.567,1.106,1.106,0,0,0-.269-.425,1.129,1.129,0,0,0-.429-.265,1.644,1.644,0,0,0-.57-.093,2.141,2.141,0,0,0-1.122.306,2.525,2.525,0,0,0-.862.887,3.887,3.887,0,0,0-.484,1.4,3.167,3.167,0,0,0,.014,1.324,1.427,1.427,0,0,0,.515.805,1.548,1.548,0,0,0,.928.269,2.436,2.436,0,0,0,.653-.086,2.111,2.111,0,0,0,.563-.254,1.86,1.86,0,0,0,.447-.406,1.808,1.808,0,0,0,.3-.541h1.622A3.672,3.672,0,0,1,223.7,46.4a3.772,3.772,0,0,1-3.195,1.7,3.241,3.241,0,0,1-1.786-.477,2.661,2.661,0,0,1-1.07-1.376,4.3,4.3,0,0,1-.124-2.166,5.029,5.029,0,0,1,.8-2.081,4.032,4.032,0,0,1,1.458-1.3,3.964,3.964,0,0,1,1.842-.444,3.839,3.839,0,0,1,1.234.187,2.587,2.587,0,0,1,.94.544,2.233,2.233,0,0,1,.589.869A2.945,2.945,0,0,1,224.564,43.037Zm2.906,5.075a2.61,2.61,0,0,1-1.45-.373,2.013,2.013,0,0,1-.81-1.044,3.192,3.192,0,0,1-.085-1.562,3.772,3.772,0,0,1,.589-1.54,3.12,3.12,0,0,1,1.137-1.025,3.243,3.243,0,0,1,1.555-.369,2.587,2.587,0,0,1,1.447.377,2,2,0,0,1,.809,1.044,3.165,3.165,0,0,1,.089,1.562,3.791,3.791,0,0,1-.6,1.536,3.2,3.2,0,0,1-1.138,1.029A3.237,3.237,0,0,1,227.47,48.112Zm.157-1.23a1.17,1.17,0,0,0,.712-.228,1.78,1.78,0,0,0,.518-.626,2.973,2.973,0,0,0,.291-.9,2.563,2.563,0,0,0,.011-.88,1.114,1.114,0,0,0-.3-.611.831.831,0,0,0-.615-.224,1.173,1.173,0,0,0-.716.231,1.739,1.739,0,0,0-.519.626,3.057,3.057,0,0,0-.287.906,2.694,2.694,0,0,0-.011.88,1.088,1.088,0,0,0,.295.608A.852.852,0,0,0,227.627,46.881Zm3.7,1.119.954-5.727h1.51l-.164,1.01h.063a2.011,2.011,0,0,1,.728-.794,1.963,1.963,0,0,1,1.055-.291,1.462,1.462,0,0,1,.947.294,1.121,1.121,0,0,1,.425.791h.06a1.9,1.9,0,0,1,.764-.787,2.223,2.223,0,0,1,1.141-.3,1.487,1.487,0,0,1,1.216.511,1.728,1.728,0,0,1,.264,1.439L239.648,48H238.06l.6-3.539a.846.846,0,0,0-.142-.716.751.751,0,0,0-.592-.239,1,1,0,0,0-.72.276,1.2,1.2,0,0,0-.354.72l-.593,3.5h-1.54l.6-3.572a.828.828,0,0,0-.138-.671.71.71,0,0,0-.593-.25.986.986,0,0,0-.5.134,1.153,1.153,0,0,0-.391.369,1.312,1.312,0,0,0-.209.552L232.91,48Zm9.219,2.148,1.32-7.875h1.566l-.161.962h.071a2.675,2.675,0,0,1,.377-.47,1.96,1.96,0,0,1,1.424-.567,1.872,1.872,0,0,1,1.1.328,1.809,1.809,0,0,1,.679.981,3.489,3.489,0,0,1,.048,1.637,4.245,4.245,0,0,1-.578,1.618,2.939,2.939,0,0,1-1,1,2.431,2.431,0,0,1-1.234.336,1.665,1.665,0,0,1-.761-.153,1.258,1.258,0,0,1-.458-.384,1.541,1.541,0,0,1-.231-.474h-.06l-.507,3.065Zm2.4-5.011a2.568,2.568,0,0,0-.007.891,1.057,1.057,0,0,0,.313.593.9.9,0,0,0,.619.209,1.173,1.173,0,0,0,.69-.213,1.689,1.689,0,0,0,.5-.6,2.98,2.98,0,0,0,.287-.884,2.5,2.5,0,0,0,0-.873,1.053,1.053,0,0,0-.306-.589.889.889,0,0,0-.626-.213,1.211,1.211,0,0,0-.69.205,1.592,1.592,0,0,0-.5.582A2.81,2.81,0,0,0,242.942,45.136Zm6.223,2.972a2.177,2.177,0,0,1-.944-.19,1.237,1.237,0,0,1-.582-.574,1.547,1.547,0,0,1-.093-.943,1.923,1.923,0,0,1,.31-.8,1.848,1.848,0,0,1,.563-.522,2.8,2.8,0,0,1,.734-.3,5.153,5.153,0,0,1,.839-.142q.5-.052.813-.1a1.436,1.436,0,0,0,.474-.138.391.391,0,0,0,.19-.276V44.1a.6.6,0,0,0-.131-.544.762.762,0,0,0-.585-.2,1.336,1.336,0,0,0-.723.186,1.068,1.068,0,0,0-.422.474l-1.447-.119a2.422,2.422,0,0,1,.586-.9,2.664,2.664,0,0,1,.951-.589,3.514,3.514,0,0,1,1.245-.209,3.4,3.4,0,0,1,.891.112,1.994,1.994,0,0,1,.72.347,1.312,1.312,0,0,1,.44.6,1.711,1.711,0,0,1,.056.876L252.4,48H250.9l.135-.794h-.045a2.065,2.065,0,0,1-.448.473,2.1,2.1,0,0,1-.607.317A2.475,2.475,0,0,1,249.165,48.108Zm.637-1.1a1.471,1.471,0,0,0,.638-.138,1.359,1.359,0,0,0,.484-.38,1.152,1.152,0,0,0,.247-.541l.1-.608a.744.744,0,0,1-.216.086c-.092.025-.192.049-.3.071s-.215.038-.324.056-.208.03-.295.045a2.276,2.276,0,0,0-.514.131.978.978,0,0,0-.369.242.672.672,0,0,0-.176.373.5.5,0,0,0,.153.5A.9.9,0,0,0,249.8,47.012Zm5.983-2.323L255.233,48h-1.585l.955-5.727h1.51l-.164,1.01h.063a2.024,2.024,0,0,1,.768-.794,2.221,2.221,0,0,1,1.138-.291,1.782,1.782,0,0,1,.995.261,1.385,1.385,0,0,1,.567.742,2.334,2.334,0,0,1,.056,1.152L258.924,48h-1.588l.563-3.363a1.054,1.054,0,0,0-.134-.82.8.8,0,0,0-.7-.3,1.271,1.271,0,0,0-.589.138,1.224,1.224,0,0,0-.451.4A1.569,1.569,0,0,0,255.785,44.689Zm4.809,5.459a2.983,2.983,0,0,1-.559-.048,1.909,1.909,0,0,1-.418-.116l.559-1.186a1.674,1.674,0,0,0,.481.09.716.716,0,0,0,.4-.112,1.069,1.069,0,0,0,.336-.38l.141-.242-1.074-5.88h1.611l.485,4.213h.06l1.9-4.213h1.742l-3.278,6.346a3.42,3.42,0,0,1-.574.809,2.258,2.258,0,0,1-.779.529A2.627,2.627,0,0,1,260.594,50.148Z" transform="translate(979 -88)"/><path class="d" d="M-3615.386-846.832v3.539a18.094,18.094,0,0,0-11.626-4.207,18.116,18.116,0,0,0-8.593,2.154l5.086,5.428a11.518,11.518,0,0,1,3.774-.633,11.494,11.494,0,0,1,11.359,9.745,11.451,11.451,0,0,1,.126,2.213,11.52,11.52,0,0,1-.126,1.294,11.556,11.556,0,0,1-10.827,9.723,11.473,11.473,0,0,1-6.136-1.446,11.537,11.537,0,0,1-1.378-.907q-.327-.251-.635-.523a11.587,11.587,0,0,1-1.149-1.174,11.5,11.5,0,0,1-1.387-2.043l0,0a11.456,11.456,0,0,1-1.336-5.385,11.481,11.481,0,0,1,.682-3.91l-.166-.315a11.578,11.578,0,0,0-4.53-4.656l-.585-.331a18.11,18.11,0,0,0-2.349,8.946,18.074,18.074,0,0,0,3.346,10.509,11.409,11.409,0,0,1-5.217,1.251,11.492,11.492,0,0,1-11.493-11.493,11.492,11.492,0,0,1,11.493-11.493,11.485,11.485,0,0,1,9.9,5.647l5.621-3.434a18.165,18.165,0,0,0-15.785-9.162,18.116,18.116,0,0,0-8.593,2.154,18.284,18.284,0,0,0-7.232,7.075,18.11,18.11,0,0,0-2.349,8.946,18.173,18.173,0,0,0,18.175,18.174,18.072,18.072,0,0,0,10.154-3.1,18.126,18.126,0,0,0,10.907,3.084,18.021,18.021,0,0,0,10.878-4.218v3.565h6.415v-35.013Z" transform="translate(4648.496 760.215)"/></g></svg>