<svg width="266" height="63" viewBox="0 0 266 63" fill="none" xmlns="http://www.w3.org/2000/svg">
<path d="M73.3778 26V6.36364H85.152V8.47301H75.7557V15.108H84.2699V17.2173H75.7557V26H73.3778ZM89.5695 26V11.2727H91.7556V13.4972H91.909C92.1775 12.7685 92.6632 12.1772 93.3664 11.7234C94.0695 11.2695 94.8621 11.0426 95.7442 11.0426C95.9104 11.0426 96.1181 11.0458 96.3674 11.0522C96.6167 11.0586 96.8053 11.0682 96.9331 11.081V13.3821C96.8564 13.3629 96.6806 13.3342 96.4058 13.2958C96.1373 13.2511 95.8529 13.2287 95.5525 13.2287C94.8365 13.2287 94.1973 13.3789 93.6348 13.6793C93.0787 13.9734 92.6377 14.3825 92.3117 14.9066C91.9921 15.4244 91.8323 16.0156 91.8323 16.6804V26H89.5695ZM105.96 26.3068C104.631 26.3068 103.464 25.9904 102.46 25.3576C101.463 24.7248 100.683 23.8395 100.121 22.7017C99.5649 21.5639 99.2868 20.2344 99.2868 18.7131C99.2868 17.179 99.5649 15.8398 100.121 14.6957C100.683 13.5515 101.463 12.663 102.46 12.0302C103.464 11.3974 104.631 11.081 105.96 11.081C107.29 11.081 108.453 11.3974 109.45 12.0302C110.454 12.663 111.234 13.5515 111.79 14.6957C112.352 15.8398 112.633 17.179 112.633 18.7131C112.633 20.2344 112.352 21.5639 111.79 22.7017C111.234 23.8395 110.454 24.7248 109.45 25.3576C108.453 25.9904 107.29 26.3068 105.96 26.3068ZM105.96 24.2741C106.97 24.2741 107.801 24.0153 108.453 23.4975C109.105 22.9798 109.588 22.299 109.901 21.4553C110.214 20.6115 110.371 19.6974 110.371 18.7131C110.371 17.7287 110.214 16.8114 109.901 15.9613C109.588 15.1112 109.105 14.424 108.453 13.8999C107.801 13.3757 106.97 13.1136 105.96 13.1136C104.95 13.1136 104.119 13.3757 103.467 13.8999C102.815 14.424 102.333 15.1112 102.019 15.9613C101.706 16.8114 101.55 17.7287 101.55 18.7131C101.55 19.6974 101.706 20.6115 102.019 21.4553C102.333 22.299 102.815 22.9798 103.467 23.4975C104.119 24.0153 104.95 24.2741 105.96 24.2741ZM119.16 17.1406V26H116.898V11.2727H119.084V13.5739H119.275C119.621 12.826 120.145 12.2251 120.848 11.7713C121.551 11.3111 122.459 11.081 123.571 11.081C124.568 11.081 125.44 11.2855 126.188 11.6946C126.936 12.0973 127.518 12.7109 127.933 13.5355C128.349 14.3537 128.557 15.3892 128.557 16.642V26H126.294V16.7955C126.294 15.6385 125.993 14.7372 125.393 14.0916C124.792 13.4396 123.967 13.1136 122.919 13.1136C122.197 13.1136 121.551 13.2702 120.982 13.5835C120.42 13.8967 119.975 14.3537 119.649 14.9545C119.323 15.5554 119.16 16.2841 119.16 17.1406ZM139.906 11.2727V13.1903H132.274V11.2727H139.906ZM134.499 7.74432H136.761V21.7812C136.761 22.4205 136.854 22.8999 137.039 23.2195C137.231 23.5327 137.474 23.7436 137.768 23.8523C138.069 23.9545 138.385 24.0057 138.717 24.0057C138.967 24.0057 139.171 23.9929 139.331 23.9673C139.491 23.9354 139.619 23.9098 139.715 23.8906L140.175 25.9233C140.021 25.9808 139.807 26.0384 139.532 26.0959C139.257 26.1598 138.909 26.1918 138.487 26.1918C137.848 26.1918 137.222 26.0543 136.608 25.7795C136.001 25.5046 135.496 25.0859 135.093 24.5234C134.697 23.9609 134.499 23.2514 134.499 22.3949V7.74432ZM150.137 26.3068C148.718 26.3068 147.493 25.9936 146.464 25.3672C145.442 24.7344 144.652 23.8523 144.096 22.7209C143.546 21.5831 143.272 20.2599 143.272 18.7514C143.272 17.2429 143.546 15.9134 144.096 14.7628C144.652 13.6058 145.426 12.7045 146.416 12.0589C147.414 11.407 148.577 11.081 149.906 11.081C150.673 11.081 151.431 11.2088 152.179 11.4645C152.927 11.7202 153.607 12.1357 154.221 12.7109C154.835 13.2798 155.324 14.0341 155.688 14.9737C156.052 15.9134 156.235 17.0703 156.235 18.4446V19.4034H144.882V17.4474H153.933C153.933 16.6165 153.767 15.875 153.435 15.223C153.109 14.571 152.642 14.0565 152.035 13.6793C151.434 13.3022 150.725 13.1136 149.906 13.1136C149.005 13.1136 148.225 13.3374 147.567 13.7848C146.915 14.2259 146.413 14.8011 146.062 15.5107C145.71 16.2202 145.534 16.9808 145.534 17.7926V19.0966C145.534 20.2088 145.726 21.1516 146.11 21.9251C146.499 22.6921 147.04 23.277 147.73 23.6797C148.42 24.076 149.223 24.2741 150.137 24.2741C150.731 24.2741 151.268 24.1911 151.747 24.0249C152.233 23.8523 152.652 23.5966 153.003 23.2578C153.355 22.9126 153.627 22.4844 153.818 21.973L156.004 22.5866C155.774 23.3281 155.388 23.9801 154.844 24.5426C154.301 25.0987 153.63 25.5334 152.831 25.8466C152.032 26.1534 151.134 26.3068 150.137 26.3068ZM162.749 17.1406V26H160.487V11.2727H162.673V13.5739H162.865C163.21 12.826 163.734 12.2251 164.437 11.7713C165.14 11.3111 166.048 11.081 167.16 11.081C168.157 11.081 169.03 11.2855 169.778 11.6946C170.525 12.0973 171.107 12.7109 171.523 13.5355C171.938 14.3537 172.146 15.3892 172.146 16.642V26H169.883V16.7955C169.883 15.6385 169.583 14.7372 168.982 14.0916C168.381 13.4396 167.556 13.1136 166.508 13.1136C165.786 13.1136 165.14 13.2702 164.571 13.5835C164.009 13.8967 163.564 14.3537 163.238 14.9545C162.912 15.5554 162.749 16.2841 162.749 17.1406ZM182.652 26.3068C181.424 26.3068 180.341 25.9968 179.401 25.3768C178.462 24.7504 177.727 23.8683 177.196 22.7305C176.666 21.5863 176.4 20.2344 176.4 18.6747C176.4 17.1278 176.666 15.7855 177.196 14.6477C177.727 13.5099 178.465 12.631 179.411 12.011C180.357 11.391 181.45 11.081 182.69 11.081C183.649 11.081 184.406 11.2408 184.962 11.5604C185.525 11.8736 185.953 12.2315 186.247 12.6342C186.548 13.0305 186.781 13.3565 186.947 13.6122H187.139V6.36364H189.402V26H187.216V23.7372H186.947C186.781 24.0057 186.544 24.3445 186.238 24.7536C185.931 25.1562 185.493 25.5174 184.924 25.837C184.355 26.1502 183.598 26.3068 182.652 26.3068ZM182.959 24.2741C183.866 24.2741 184.633 24.0376 185.26 23.5646C185.886 23.0852 186.362 22.4237 186.688 21.5799C187.014 20.7298 187.177 19.7486 187.177 18.6364C187.177 17.5369 187.017 16.5749 186.698 15.7504C186.378 14.9194 185.905 14.2738 185.279 13.8136C184.652 13.3469 183.879 13.1136 182.959 13.1136C182 13.1136 181.201 13.3597 180.562 13.8519C179.929 14.3377 179.452 14.9993 179.133 15.8366C178.82 16.6676 178.663 17.6009 178.663 18.6364C178.663 19.6847 178.823 20.6371 179.142 21.4936C179.468 22.3437 179.948 23.0213 180.581 23.5263C181.22 24.0249 182.013 24.2741 182.959 24.2741Z" fill="black"/>
<path d="M82.2077 43.2871H80.7106C80.622 42.8565 80.4671 42.4782 80.2457 42.1522C80.0284 41.8262 79.7628 41.5525 79.4489 41.3311C79.139 41.1058 78.7949 40.9367 78.4165 40.824C78.0382 40.7114 77.6438 40.655 77.2333 40.655C76.4847 40.655 75.8066 40.8442 75.1989 41.2225C74.5952 41.6008 74.1142 42.1582 73.756 42.8947C73.4019 43.6312 73.2248 44.5347 73.2248 45.6053C73.2248 46.6758 73.4019 47.5794 73.756 48.3159C74.1142 49.0524 74.5952 49.6098 75.1989 49.9881C75.8066 50.3664 76.4847 50.5556 77.2333 50.5556C77.6438 50.5556 78.0382 50.4992 78.4165 50.3865C78.7949 50.2739 79.139 50.1068 79.4489 49.8855C79.7628 49.6601 80.0284 49.3844 80.2457 49.0584C80.4671 48.7284 80.622 48.3501 80.7106 47.9235H82.2077C82.0951 48.5553 81.8898 49.1208 81.592 49.6199C81.2942 50.1189 80.9239 50.5435 80.4812 50.8936C80.0385 51.2398 79.5414 51.5034 78.9901 51.6845C78.4427 51.8656 77.8571 51.9561 77.2333 51.9561C76.1789 51.9561 75.2411 51.6986 74.4201 51.1834C73.5991 50.6683 72.9531 49.9358 72.4822 48.986C72.0114 48.0362 71.7759 46.9093 71.7759 45.6053C71.7759 44.3013 72.0114 43.1744 72.4822 42.2246C72.9531 41.2748 73.5991 40.5423 74.4201 40.0272C75.2411 39.512 76.1789 39.2544 77.2333 39.2544C77.8571 39.2544 78.4427 39.345 78.9901 39.5261C79.5414 39.7072 80.0385 39.9728 80.4812 40.323C80.9239 40.6691 81.2942 41.0917 81.592 41.5907C81.8898 42.0858 82.0951 42.6512 82.2077 43.2871ZM91.8984 42.5144C91.826 41.9026 91.5322 41.4277 91.017 41.0897C90.5019 40.7516 89.87 40.5826 89.1214 40.5826C88.5741 40.5826 88.0951 40.6711 87.6846 40.8482C87.2781 41.0253 86.9602 41.2688 86.7308 41.5787C86.5054 41.8886 86.3927 42.2407 86.3927 42.6351C86.3927 42.9651 86.4712 43.2489 86.6282 43.4863C86.7891 43.7198 86.9944 43.9149 87.2439 44.0719C87.4935 44.2248 87.7551 44.3516 88.0287 44.4522C88.3024 44.5488 88.5539 44.6273 88.7833 44.6877L90.039 45.0257C90.361 45.1103 90.7192 45.227 91.1136 45.3759C91.512 45.5248 91.8924 45.728 92.2546 45.9856C92.6208 46.2392 92.9227 46.5652 93.1601 46.9636C93.3976 47.362 93.5163 47.851 93.5163 48.4306C93.5163 49.0987 93.3412 49.7024 92.9911 50.2417C92.645 50.781 92.1379 51.2096 91.4698 51.5275C90.8057 51.8455 89.9988 52.0044 89.049 52.0044C88.1636 52.0044 87.3969 51.8616 86.7489 51.5758C86.105 51.2901 85.5979 50.8916 85.2276 50.3805C84.8614 49.8694 84.6541 49.2757 84.6058 48.5996H86.1512C86.1915 49.0665 86.3485 49.4528 86.6221 49.7587C86.8998 50.0605 87.25 50.2859 87.6726 50.4348C88.0992 50.5797 88.558 50.6522 89.049 50.6522C89.6205 50.6522 90.1336 50.5596 90.5884 50.3745C91.0432 50.1853 91.4034 49.9237 91.669 49.5897C91.9346 49.2516 92.0674 48.8572 92.0674 48.4064C92.0674 47.9959 91.9527 47.6619 91.7233 47.4043C91.4939 47.1467 91.1921 46.9374 90.8178 46.7765C90.4435 46.6155 90.039 46.4746 89.6044 46.3539L88.0831 45.9192C87.1172 45.6415 86.3525 45.2451 85.789 44.7299C85.2256 44.2148 84.9439 43.5407 84.9439 42.7076C84.9439 42.0153 85.131 41.4116 85.5053 40.8965C85.8836 40.3773 86.3907 39.9748 87.0266 39.6891C87.6665 39.3993 88.3809 39.2544 89.1697 39.2544C89.9666 39.2544 90.6749 39.3973 91.2947 39.6831C91.9145 39.9648 92.4055 40.3511 92.7677 40.8422C93.134 41.3332 93.3271 41.8906 93.3473 42.5144H91.8984ZM103.249 42.5144C103.177 41.9026 102.883 41.4277 102.368 41.0897C101.853 40.7516 101.221 40.5826 100.472 40.5826C99.9249 40.5826 99.446 40.6711 99.0354 40.8482C98.629 41.0253 98.311 41.2688 98.0816 41.5787C97.8562 41.8886 97.7435 42.2407 97.7435 42.6351C97.7435 42.9651 97.822 43.2489 97.979 43.4863C98.14 43.7198 98.3452 43.9149 98.5948 44.0719C98.8443 44.2248 99.1059 44.3516 99.3796 44.4522C99.6532 44.5488 99.9048 44.6273 100.134 44.6877L101.39 45.0257C101.712 45.1103 102.07 45.227 102.464 45.3759C102.863 45.5248 103.243 45.728 103.605 45.9856C103.972 46.2392 104.273 46.5652 104.511 46.9636C104.748 47.362 104.867 47.851 104.867 48.4306C104.867 49.0987 104.692 49.7024 104.342 50.2417C103.996 50.781 103.489 51.2096 102.821 51.5275C102.157 51.8455 101.35 52.0044 100.4 52.0044C99.5144 52.0044 98.7477 51.8616 98.0997 51.5758C97.4558 51.2901 96.9487 50.8916 96.5784 50.3805C96.2122 49.8694 96.0049 49.2757 95.9566 48.5996H97.5021C97.5423 49.0665 97.6993 49.4528 97.9729 49.7587C98.2506 50.0605 98.6008 50.2859 99.0234 50.4348C99.45 50.5797 99.9088 50.6522 100.4 50.6522C100.971 50.6522 101.484 50.5596 101.939 50.3745C102.394 50.1853 102.754 49.9237 103.02 49.5897C103.285 49.2516 103.418 48.8572 103.418 48.4064C103.418 47.9959 103.304 47.6619 103.074 47.4043C102.845 47.1467 102.543 46.9374 102.169 46.7765C101.794 46.6155 101.39 46.4746 100.955 46.3539L99.4339 45.9192C98.468 45.6415 97.7033 45.2451 97.1399 44.7299C96.5764 44.2148 96.2947 43.5407 96.2947 42.7076C96.2947 42.0153 96.4818 41.4116 96.8561 40.8965C97.2344 40.3773 97.7415 39.9748 98.3774 39.6891C99.0173 39.3993 99.7317 39.2544 100.521 39.2544C101.317 39.2544 102.026 39.3973 102.646 39.6831C103.265 39.9648 103.756 40.3511 104.119 40.8422C104.485 41.3332 104.678 41.8906 104.698 42.5144H103.249ZM113.13 51.7871V39.4235H114.627V50.459H120.374V51.7871H113.13ZM123.009 51.7871V42.5144H124.434V51.7871H123.009ZM123.734 40.9689C123.456 40.9689 123.217 40.8743 123.015 40.6852C122.818 40.496 122.719 40.2686 122.719 40.003C122.719 39.7374 122.818 39.51 123.015 39.3208C123.217 39.1317 123.456 39.0371 123.734 39.0371C124.011 39.0371 124.249 39.1317 124.446 39.3208C124.647 39.51 124.748 39.7374 124.748 40.003C124.748 40.2686 124.647 40.496 124.446 40.6852C124.249 40.8743 124.011 40.9689 123.734 40.9689ZM133.88 55.2644V50.3624H133.759C133.655 50.5314 133.506 50.7447 133.313 51.0023C133.119 51.2559 132.844 51.4833 132.486 51.6845C132.127 51.8817 131.65 51.9803 131.055 51.9803C130.282 51.9803 129.6 51.7851 129.008 51.3947C128.417 51.0003 127.954 50.4449 127.62 49.7285C127.286 49.0081 127.119 48.1569 127.119 47.1749C127.119 46.2009 127.286 45.3558 127.62 44.6394C127.954 43.923 128.419 43.3696 129.014 42.9792C129.61 42.5888 130.298 42.3936 131.079 42.3936C131.683 42.3936 132.16 42.4943 132.51 42.6955C132.864 42.8927 133.134 43.1181 133.319 43.3716C133.508 43.6212 133.655 43.8264 133.759 43.9874H133.928V42.5144H135.305V55.2644H133.88ZM131.248 50.7005C131.82 50.7005 132.302 50.5516 132.697 50.2537C133.091 49.9519 133.391 49.5353 133.596 49.0041C133.802 48.4688 133.904 47.851 133.904 47.1507C133.904 46.4585 133.804 45.8528 133.602 45.3336C133.401 44.8104 133.103 44.4039 132.709 44.1142C132.315 43.8204 131.828 43.6735 131.248 43.6735C130.644 43.6735 130.141 43.8284 129.739 44.1383C129.34 44.4442 129.041 44.8607 128.839 45.388C128.642 45.9112 128.543 46.4988 128.543 47.1507C128.543 47.8108 128.644 48.4105 128.845 48.9498C129.051 49.485 129.352 49.9116 129.751 50.2296C130.153 50.5435 130.652 50.7005 131.248 50.7005ZM144.267 47.9959V42.5144H145.691V51.7871H144.267V50.2175H144.17C143.953 50.6884 143.615 51.0888 143.156 51.4189C142.697 51.7449 142.117 51.9078 141.417 51.9078C140.838 51.9078 140.322 51.7811 139.872 51.5275C139.421 51.2699 139.067 50.8836 138.809 50.3684C138.552 49.8493 138.423 49.1953 138.423 48.4064V42.5144H139.848V48.3098C139.848 48.986 140.037 49.5253 140.415 49.9277C140.797 50.3302 141.284 50.5314 141.876 50.5314C142.23 50.5314 142.59 50.4409 142.957 50.2598C143.327 50.0787 143.637 49.801 143.886 49.4267C144.14 49.0524 144.267 48.5755 144.267 47.9959ZM148.811 51.7871V42.5144H150.235V51.7871H148.811ZM149.535 40.9689C149.257 40.9689 149.018 40.8743 148.817 40.6852C148.62 40.496 148.521 40.2686 148.521 40.003C148.521 39.7374 148.62 39.51 148.817 39.3208C149.018 39.1317 149.257 39.0371 149.535 39.0371C149.813 39.0371 150.05 39.1317 150.248 39.3208C150.449 39.51 150.549 39.7374 150.549 40.003C150.549 40.2686 150.449 40.496 150.248 40.6852C150.05 40.8743 149.813 40.9689 149.535 40.9689ZM156.856 51.9803C156.084 51.9803 155.401 51.7851 154.81 51.3947C154.218 51.0003 153.755 50.4449 153.421 49.7285C153.087 49.0081 152.92 48.1569 152.92 47.1749C152.92 46.2009 153.087 45.3558 153.421 44.6394C153.755 43.923 154.22 43.3696 154.816 42.9792C155.411 42.5888 156.1 42.3936 156.88 42.3936C157.484 42.3936 157.961 42.4943 158.311 42.6955C158.665 42.8927 158.935 43.1181 159.12 43.3716C159.309 43.6212 159.456 43.8264 159.561 43.9874H159.682V39.4235H161.106V51.7871H159.73V50.3624H159.561C159.456 50.5314 159.307 50.7447 159.114 51.0023C158.921 51.2559 158.645 51.4833 158.287 51.6845C157.929 51.8817 157.452 51.9803 156.856 51.9803ZM157.05 50.7005C157.621 50.7005 158.104 50.5516 158.498 50.2537C158.893 49.9519 159.193 49.5353 159.398 49.0041C159.603 48.4688 159.706 47.851 159.706 47.1507C159.706 46.4585 159.605 45.8528 159.404 45.3336C159.203 44.8104 158.905 44.4039 158.51 44.1142C158.116 43.8204 157.629 43.6735 157.05 43.6735C156.446 43.6735 155.943 43.8284 155.54 44.1383C155.142 44.4442 154.842 44.8607 154.641 45.388C154.444 45.9112 154.345 46.4988 154.345 47.1507C154.345 47.8108 154.446 48.4105 154.647 48.9498C154.852 49.485 155.154 49.9116 155.552 50.2296C155.955 50.5435 156.454 50.7005 157.05 50.7005Z" fill="black"/>
<g clip-path="url(#clip0_1131_47)">
<path d="M4.60536 56.4001L0 0.105469L55 0.218597L50.1303 56.4001L27.7076 62.8941L4.60536 56.4001Z" fill="#1B73BA"/>
<path d="M27.707 57.4572V5.4668L50.3564 5.54222L46.3174 52.0581L27.707 57.4572Z" fill="#1C88C7"/>
<path d="M44.7327 12.1133H9.89062L10.8345 18.909H27.3682L11.0989 25.8941L12.0423 32.4636H36.013L35.1445 41.6381L27.0284 43.2241L19.6678 41.3364L19.1014 36.1258H12.3443L13.2501 46.9622L27.7457 51.002L41.6376 46.5847L43.4118 25.403H28.7268L44.7322 18.7582L44.7327 12.1133Z" fill="white"/>
</g>
<defs>
<clipPath id="clip0_1131_47">
<rect width="55" height="63" fill="white"/>
</clipPath>
</defs>
</svg>
