<svg xmlns="http://www.w3.org/2000/svg" width="37.586" height="37.949" viewBox="0 0 37.586 37.949"><defs><style>.a{fill:#fff;}</style></defs><path class="a" d="M-5873.887,744.635a21.341,21.341,0,0,1,.229-2.888.76.76,0,0,0-.083-.359c-.232-.548-.5-1.081-.706-1.639a9.7,9.7,0,0,1-.556-2.815,10.291,10.291,0,0,1,.271-3.077,10.645,10.645,0,0,1,3.359-5.547,10.567,10.567,0,0,1,3.746-2.138,9.659,9.659,0,0,1,3.609-.5,19.558,19.558,0,0,1,2.307.325,8.253,8.253,0,0,1,2.186.746,1.024,1.024,0,0,0,.6.039,20.989,20.989,0,0,1,3.478-.114,20.645,20.645,0,0,1,2.766.334,17.719,17.719,0,0,1,3.866,1.233,15.827,15.827,0,0,1,3.444,2.113,19.111,19.111,0,0,1,3.6,3.861,16.369,16.369,0,0,1,1.919,3.494c.318.82.6,1.657.841,2.5a11.629,11.629,0,0,1,.441,2.6c.035.734.094,1.469.091,2.2a11.1,11.1,0,0,1-.2,2.321.357.357,0,0,0,.031.206c.222.513.476,1.013.669,1.536a8.61,8.61,0,0,1,.512,2.436,11.66,11.66,0,0,1-.083,2.583,12.389,12.389,0,0,1-1.422,4.155,10.42,10.42,0,0,1-3.136,3.44,10.511,10.511,0,0,1-3.456,1.607,10.32,10.32,0,0,1-3.346.281,9.869,9.869,0,0,1-3.222-.8,6.312,6.312,0,0,1-.833-.412.807.807,0,0,0-.607-.109,16.21,16.21,0,0,1-3.366.173,15.808,15.808,0,0,1-2.658-.323,17.813,17.813,0,0,1-3.366-1.007,17.573,17.573,0,0,1-3.42-1.869,17.432,17.432,0,0,1-4.54-4.65,16.524,16.524,0,0,1-2.2-4.729,21.085,21.085,0,0,1-.554-2.526c-.135-.887-.173-1.789-.253-2.684Zm17.373-11.653a12.747,12.747,0,0,0-2.539.261,8.686,8.686,0,0,0-3.443,1.385,5.4,5.4,0,0,0-2.2,3.166,6.985,6.985,0,0,0-.1,2.966,4.805,4.805,0,0,0,1.229,2.521,7.377,7.377,0,0,0,3.516,1.946c.878.244,1.766.454,2.65.676.831.208,1.666.407,2.5.616a6.516,6.516,0,0,1,1.62.542,2.18,2.18,0,0,1,1.184,1.474,2.59,2.59,0,0,1-.87,2.518,4.165,4.165,0,0,1-2.847,1.095,10.09,10.09,0,0,1-1.687-.133,4.318,4.318,0,0,1-2.676-1.44c-.383-.431-.723-.9-1.075-1.36a2.307,2.307,0,0,0-2.049-1.043,1.946,1.946,0,0,0-1.509.83,1.991,1.991,0,0,0-.227,1.751,4.912,4.912,0,0,0,1.615,2.53,8.967,8.967,0,0,0,4.153,1.983,15.088,15.088,0,0,0,3.605.314,13.732,13.732,0,0,0,2.785-.316,8.007,8.007,0,0,0,3.436-1.616,5.94,5.94,0,0,0,1.883-2.813,7.533,7.533,0,0,0,.307-3.331,5.6,5.6,0,0,0-.934-2.466,6.684,6.684,0,0,0-3.971-2.546c-.9-.239-1.813-.414-2.72-.618-.711-.16-1.419-.343-2.136-.475a6.558,6.558,0,0,1-2.208-.767,2.013,2.013,0,0,1-.962-1.06,2.066,2.066,0,0,1,.513-2.124,3.084,3.084,0,0,1,1.751-.911,6.639,6.639,0,0,1,2.181-.062,4.919,4.919,0,0,1,2.386.882,9.442,9.442,0,0,1,1.41,1.423,2.38,2.38,0,0,0,1.369.88,2.994,2.994,0,0,0,1.385-.112,1.746,1.746,0,0,0,1.253-2.1,3.831,3.831,0,0,0-1.542-2.276,9.887,9.887,0,0,0-3.418-1.676A12.314,12.314,0,0,0-5856.514,732.981Z" transform="translate(5875.022 -725.654)"/></svg>