<svg width="66" height="61" viewBox="0 0 66 61" fill="none" xmlns="http://www.w3.org/2000/svg">
<mask id="mask0_73_1750" style="mask-type:luminance" maskUnits="userSpaceOnUse" x="0" y="0" width="66" height="61">
<path d="M0 0H66V60.842H0V0Z" fill="white"/>
</mask>
<g mask="url(#mask0_73_1750)">
<path fill-rule="evenodd" clip-rule="evenodd" d="M28.5436 25.872C28.5436 28.0016 30.2975 29.7287 32.4608 29.7287C34.6257 29.7287 36.3796 28.0016 36.3796 25.872C36.3796 23.7424 34.6257 22.0153 32.4608 22.0153C30.2975 22.0153 28.5436 23.7424 28.5436 25.872ZM30.4671 15.2375C30.0652 15.5634 29.4709 15.5064 29.1394 15.1114C28.8094 14.7149 28.8675 14.1292 29.2693 13.8033L32.4165 11.2577H18.7597C15.1664 11.2577 12.233 14.1442 12.233 17.6825V27.901C12.233 28.4161 11.8098 28.8336 11.2873 28.8336C10.7648 28.8336 10.3401 28.4161 10.3401 27.901V17.6825C10.3401 13.1155 14.1214 9.39393 18.7597 9.39393H32.4165L29.2693 6.84833C28.8675 6.52244 28.8094 5.93672 29.1394 5.54024C29.4709 5.14526 30.0652 5.08819 30.4671 5.41409L35.6416 9.59818C36.1076 9.96312 36.1198 10.666 35.6539 11.0429L30.4671 15.2375ZM34.4561 50.5305C34.8579 50.2046 35.4522 50.2617 35.7822 50.6581C36.1137 51.0531 36.0557 51.6388 35.6539 51.9647L32.5051 54.5103H46.1634C49.7568 54.5103 52.6886 51.6238 52.6886 48.0855V37.8671C52.6886 37.352 53.1133 36.9344 53.6358 36.9344C54.1583 36.9344 54.5815 37.352 54.5815 37.8671V48.0855C54.5815 52.6526 50.8018 56.3756 46.1634 56.3756H32.5066L35.6539 58.9212C36.0557 59.2456 36.1137 59.8313 35.7837 60.2278C35.4522 60.6243 34.8579 60.6798 34.4561 60.3554L29.2815 56.1698C28.8155 55.8049 28.8033 55.1036 29.2693 54.7251L34.4561 50.5305ZM48.3696 24.9258H50.4702V16.6718L47.7875 15.1459C47.3368 14.8906 47.1809 14.3244 47.4407 13.8799C47.7004 13.4353 48.2764 13.2822 48.7271 13.5375L51.4175 15.0663L54.1079 13.5375C54.5601 13.2822 55.1361 13.4353 55.3943 13.8799C55.654 14.3244 55.4982 14.8906 55.0475 15.1459L52.3647 16.6718V24.9258H54.4654C54.7404 21.2554 55.7625 19.698 56.6516 18.3433C57.2872 17.3761 57.8402 16.5321 57.8402 14.7885C57.8402 11.2952 54.965 8.4643 51.4175 8.4643C47.87 8.4643 44.9947 11.2952 44.9947 14.7885C44.9947 16.5321 45.5477 17.3761 46.1833 18.3433C47.0725 19.698 48.0946 21.2554 48.3696 24.9258ZM56.3384 25.2682C56.5661 25.486 56.7082 25.7909 56.7082 26.1258V28.7149C56.7082 29.3742 56.1597 29.9134 55.489 29.9134H54.2377V31.1164C54.2377 31.7396 53.7198 32.2487 53.0873 32.2487H49.7476C49.1151 32.2487 48.5972 31.7396 48.5972 31.1164V29.9134H47.3459C46.6752 29.9134 46.1268 29.3742 46.1268 28.7149V26.1258C46.1268 25.7909 46.2689 25.486 46.4965 25.2682C46.2719 21.8951 45.3782 20.5315 44.6005 19.348C43.8 18.1271 43.1018 17.0638 43.1018 14.7885C43.1018 10.2665 46.825 6.60053 51.4175 6.60053C56.01 6.60053 59.7332 10.2665 59.7332 14.7885C59.7332 17.0638 59.035 18.1271 58.2344 19.348C57.4568 20.5315 56.563 21.8951 56.3384 25.2682ZM52.3647 3.26497C52.3647 3.7801 51.94 4.19611 51.4175 4.19611C50.895 4.19611 50.4702 3.7801 50.4702 3.26497V0.932635C50.4702 0.417508 50.895 0 51.4175 0C51.94 0 52.3647 0.417508 52.3647 0.932635V3.26497ZM63.3311 10.5744C62.8789 10.8297 62.3029 10.6765 62.0432 10.232C61.785 9.78741 61.9408 9.22122 62.3915 8.96591L64.4433 7.79899C64.894 7.54368 65.47 7.69687 65.7297 8.14141C65.9894 8.58595 65.8336 9.15214 65.3829 9.40745L63.3311 10.5744ZM58.8409 5.47416C58.2191 6.53145 56.5859 5.59881 57.2077 4.54153L58.3918 2.52157C58.653 2.07703 59.2305 1.92534 59.6827 2.18366C60.1334 2.44047 60.2878 3.00966 60.0265 3.4542L58.8409 5.47416ZM40.4434 8.96591C40.8941 9.22122 41.05 9.78741 40.7918 10.232C40.5321 10.6765 39.9561 10.8297 39.5039 10.5744L37.4521 9.40745C37.0014 9.15214 36.8455 8.58595 37.1052 8.14141C37.365 7.69687 37.9409 7.54368 38.3916 7.79899L40.4434 8.96591ZM45.6272 4.54153C45.8884 4.98607 45.7357 5.55526 45.2834 5.81207C44.8327 6.07039 44.2552 5.9187 43.994 5.47416L42.8084 3.4542C42.5472 3.00966 42.7015 2.44047 43.1522 2.18366C43.6044 1.92534 44.1819 2.07703 44.4432 2.52157L45.6272 4.54153ZM22.6815 51.2138C20.373 51.2138 19.215 53.9667 20.8466 55.5736C21.1476 55.8695 21.1476 56.3501 20.8466 56.6459L19.189 58.2784C18.888 58.5743 18.4007 58.5743 18.0997 58.2784C16.468 56.6715 13.6722 57.8113 13.6722 60.0836C13.6722 60.5026 13.3269 60.842 12.9022 60.842H10.5586C10.1339 60.842 9.78858 60.5026 9.78858 60.0836C9.78858 57.8083 6.99428 56.67 5.35956 58.2784C5.06011 58.5743 4.57122 58.5743 4.27178 58.2784L2.61414 56.6459C2.31317 56.3501 2.31317 55.8695 2.61414 55.5736C4.24581 53.9667 3.08775 51.2138 0.779277 51.2138C0.354555 51.2138 0.00927734 50.8744 0.00927734 50.4554V48.1471C0.00927734 47.7296 0.354555 47.3902 0.779277 47.3902C3.08775 47.3902 4.24581 44.6358 2.61414 43.0304C2.31317 42.733 2.31317 42.2539 2.61414 41.9581L4.27178 40.3256C4.57122 40.0297 5.06011 40.0297 5.35956 40.3256C6.99275 41.9325 9.78858 40.7926 9.78858 38.5189C9.78858 38.1014 10.1339 37.762 10.5586 37.762H12.9022C13.3269 37.762 13.6722 38.1014 13.6722 38.5189C13.6722 40.7926 16.468 41.9325 18.1012 40.3256C18.4007 40.0297 18.888 40.0297 19.189 40.3256L20.8466 41.9581C21.1476 42.2539 21.1476 42.733 20.8466 43.0304C19.215 44.6373 20.373 47.3902 22.6815 47.3902C23.1062 47.3902 23.4515 47.7296 23.4515 48.1471V50.4554C23.4515 50.8744 23.1062 51.2138 22.6815 51.2138ZM11.7304 44.0441C8.78178 44.0441 6.39081 46.3975 6.39081 49.302C6.39081 52.205 8.78178 54.5599 11.7304 54.5599C14.679 54.5599 17.07 52.205 17.07 49.302C17.07 46.3975 14.679 44.0441 11.7304 44.0441ZM40.9369 40.2955C40.9369 35.6879 37.1419 31.9514 32.4608 31.9514C27.7812 31.9514 23.9862 35.6879 23.9862 40.2955C23.9862 44.9046 40.9369 44.9046 40.9369 40.2955Z" fill="#002244"/>
</g>
</svg>
