<svg width="59" height="59" viewBox="0 0 59 59" fill="none" xmlns="http://www.w3.org/2000/svg">
<path d="M57.3092 23.1606C55.5306 21.3634 52.3764 21.3826 50.5977 23.1606L33.8037 39.9555C33.731 40.0089 33.6959 40.0629 33.6232 40.1355C33.6232 40.1546 33.5857 40.1546 33.5857 40.1733C33.5506 40.1894 33.5506 40.2272 33.5319 40.2458C31.0456 42.8559 29.6865 46.2656 29.6865 49.8769C29.6865 50.3826 30.0849 50.7834 30.5934 50.7834C34.202 50.7834 37.5951 49.4222 40.224 46.9381C40.2432 46.9195 40.278 46.9195 40.2972 46.8817C40.3158 46.8817 40.3158 46.8469 40.332 46.8469C40.4046 46.7743 40.461 46.7389 40.515 46.6663L57.3092 29.8697C58.2162 28.9819 58.7058 27.7839 58.7058 26.514C58.7058 25.2626 58.1971 24.0305 57.3092 23.1606ZM56.0393 28.6022L39.6619 44.9603L35.5096 40.8079L51.8683 24.4288C52.4304 23.8847 53.173 23.5781 53.9535 23.5781C54.7339 23.5781 55.4952 23.8847 56.0393 24.4288C56.5828 24.9747 56.8923 25.7359 56.8923 26.514C56.8923 27.2944 56.5828 28.0395 56.0393 28.6022Z" fill="#1D92FB"/>
<path d="M28.7072 26.643L26.5303 25.5722C26.3124 24.8296 26.0054 24.1217 25.6422 23.4331L26.4225 21.1295C26.6404 20.4942 26.4577 19.7864 25.9866 19.3155L24.8994 18.2099C24.5549 17.8626 24.1003 17.6826 23.6293 17.6826C23.4466 17.6826 23.2473 17.7198 23.0669 17.7738L20.7635 18.5542C20.0746 18.1907 19.3669 17.8818 18.6241 17.6634L17.5532 15.4888C17.2439 14.889 16.6276 14.5098 15.9574 14.5098H14.3968C13.7266 14.5098 13.1103 14.889 12.801 15.4888L11.7301 17.6634C10.9873 17.8818 10.2796 18.1907 9.5907 18.5542L7.28728 17.7738C6.63347 17.556 5.94457 17.736 5.45483 18.2099L4.36754 19.3155C3.89652 19.7864 3.71373 20.4942 3.93167 21.1295L4.712 23.4331C4.34877 24.1217 4.04181 24.8296 3.82387 25.5722L1.64697 26.643C1.04942 26.9502 0.66748 27.5662 0.66748 28.2387V29.7972C0.66748 30.4697 1.04942 31.0857 1.64697 31.3953L3.82387 32.4637C4.04181 33.2087 4.34877 33.9142 4.712 34.6034L3.93167 36.907C3.71373 37.5417 3.89652 38.2495 4.36754 38.7204L5.45483 39.829C5.94457 40.2999 6.63347 40.4637 7.28728 40.2621L9.5907 39.484C10.2796 39.8452 10.9873 40.1547 11.7301 40.3725L12.801 42.5495C13.1103 43.1469 13.7266 43.5291 14.3968 43.5291H15.9574C16.6276 43.5291 17.2439 43.1469 17.5532 42.5495L18.6241 40.3725C19.3669 40.1547 20.0746 39.8452 20.7635 39.484L23.0669 40.2621C23.7207 40.4637 24.4096 40.2999 24.8994 39.829L25.9866 38.7204C26.4577 38.2495 26.6404 37.5417 26.4225 36.907L25.6422 34.6034C26.0054 33.9142 26.3124 33.2087 26.5303 32.4637L28.7072 31.3953C29.3048 31.0857 29.6867 30.4697 29.6867 29.7972V28.2387C29.6867 27.5662 29.3048 26.9502 28.7072 26.643ZM22.4319 29.0191C22.4319 33.0264 19.1865 36.2741 15.1771 36.2741C11.1677 36.2741 7.92231 33.0264 7.92231 29.0191C7.92231 25.0095 11.1677 21.7642 15.1771 21.7642C19.1865 21.7642 22.4319 25.0095 22.4319 29.0191Z" fill="#1D92FB"/>
<path d="M16.9902 29.0191C16.9902 29.2585 16.9433 29.49 16.8519 29.7126C16.7605 29.9351 16.6293 30.1301 16.4582 30.3011C16.2896 30.4696 16.0927 30.601 15.8701 30.6946C15.6475 30.7858 15.4178 30.8332 15.1765 30.8332C14.9351 30.8332 14.7055 30.7858 14.4829 30.6946C14.2603 30.601 14.0634 30.4696 13.8947 30.3011C13.7236 30.1301 13.5924 29.9351 13.501 29.7126C13.4096 29.49 13.3628 29.2585 13.3628 29.0191C13.3628 28.7779 13.4096 28.5458 13.501 28.3232C13.5924 28.1031 13.7236 27.9063 13.8947 27.7348C14.0634 27.5662 14.2603 27.4348 14.4829 27.3413C14.7055 27.2501 14.9351 27.2057 15.1765 27.2057C15.4178 27.2057 15.6475 27.2501 15.8701 27.3413C16.0927 27.4348 16.2896 27.5662 16.4582 27.7348C16.6293 27.9063 16.7605 28.1031 16.8519 28.3232C16.9433 28.5458 16.9902 28.7779 16.9902 29.0191Z" fill="#1D92FB"/>
<path d="M36.0341 3.62747H34.8156C34.0588 1.48593 32.0084 0 29.6862 0C27.364 0 25.3136 1.48593 24.5567 3.62747H23.3383C21.8386 3.62747 20.6177 4.84586 20.6177 6.34797V11.7888C20.6177 12.288 21.0231 12.6958 21.5245 12.6958H37.8479C38.3491 12.6958 38.7546 12.288 38.7546 11.7888V6.34797C38.7546 4.84586 37.5338 3.62747 36.0341 3.62747ZM29.6862 7.25497C28.6856 7.25497 27.8725 6.43912 27.8725 5.4409C27.8725 4.44031 28.6856 3.62747 29.6862 3.62747C30.6868 3.62747 31.4999 4.44031 31.4999 5.4409C31.4999 6.43912 30.6868 7.25497 29.6862 7.25497Z" fill="#1D92FB"/>
<path d="M46.9171 28.6394C46.7972 28.6394 46.6754 28.6161 46.5608 28.5669C46.2255 28.4241 46.0101 28.096 46.0101 27.733V12.6959H13.3635V17.79C13.3635 18.1607 13.1385 18.4931 12.7964 18.6316L9.16897 20.0912C8.89008 20.2039 8.57143 20.1685 8.32069 20.0024C8.06993 19.8314 7.92236 19.55 7.92236 19.2478V11.7888C7.92236 9.2885 9.95632 7.25488 12.4566 7.25488H21.5251C22.0266 7.25488 22.432 7.66043 22.432 8.1619C22.432 8.66103 22.0266 9.06836 21.5251 9.06836H12.4566C10.9569 9.06836 9.73604 10.2873 9.73604 11.7888V17.9052L11.5497 17.1764V11.7888C11.5497 11.2873 11.9551 10.8824 12.4566 10.8824H46.9171C47.4186 10.8824 47.8235 11.2873 47.8235 11.7888V25.6053L49.6376 23.8638V11.7888C49.6376 10.2873 48.4168 9.06836 46.9171 9.06836H37.8484C37.3469 9.06836 36.9416 8.66103 36.9416 8.1619C36.9416 7.66043 37.3469 7.25488 37.8484 7.25488H46.9171C49.4174 7.25488 51.451 9.2885 51.451 11.7888V24.2507C51.451 24.4967 51.3502 24.7336 51.1745 24.9046L47.547 28.3863C47.3712 28.5507 47.1463 28.6394 46.9171 28.6394Z" fill="#1D92FB"/>
<path d="M41.4754 18.1368H34.2208C33.7194 18.1368 33.314 17.7294 33.314 17.2303C33.314 16.7288 33.7194 16.3233 34.2208 16.3233H41.4754C41.9769 16.3233 42.3824 16.7288 42.3824 17.2303C42.3824 17.7294 41.9769 18.1368 41.4754 18.1368Z" fill="#1D92FB"/>
<path d="M41.4754 23.5782H24.9484C24.4469 23.5782 24.0415 23.1703 24.0415 22.6712C24.0415 22.1697 24.4469 21.7642 24.9484 21.7642H41.4754C41.9769 21.7642 42.3824 22.1697 42.3824 22.6712C42.3824 23.1703 41.9769 23.5782 41.4754 23.5782Z" fill="#1D92FB"/>
<path d="M41.4751 29.0191H28.7677C28.2686 29.0191 27.8608 28.6112 27.8608 28.1121C27.8608 27.6106 28.2686 27.2057 28.7677 27.2057H41.4751C41.9766 27.2057 42.3821 27.6106 42.3821 28.1121C42.3821 28.6112 41.9766 29.0191 41.4751 29.0191Z" fill="#1D92FB"/>
<path d="M26.9666 48.97H17.8981C17.3966 48.97 16.9912 48.562 16.9912 48.063C16.9912 47.5615 17.3966 47.1559 17.8981 47.1559H26.9666C27.4681 47.1559 27.8735 47.5615 27.8735 48.063C27.8735 48.562 27.4681 48.97 26.9666 48.97Z" fill="#1D92FB"/>
<path d="M46.9171 58.0384H12.4566C9.95632 58.0384 7.92236 56.0025 7.92236 53.5039V38.7883C7.92236 38.5051 8.05589 38.2376 8.28085 38.0642C8.50814 37.8956 8.80107 37.8393 9.0752 37.9166L12.7026 38.9406C13.0939 39.051 13.3635 39.4067 13.3635 39.8123V52.5975H46.0101V38.9946C46.0101 38.7535 46.1061 38.5213 46.2747 38.3527L49.9021 34.7253C50.1625 34.4649 50.5536 34.3851 50.8913 34.5285C51.2309 34.6689 51.451 34.9994 51.451 35.3671V53.5039C51.451 56.0025 49.4174 58.0384 46.9171 58.0384ZM9.73604 39.9856V53.5039C9.73604 55.0036 10.9569 56.225 12.4566 56.225H46.9171C48.4168 56.225 49.6376 55.0036 49.6376 53.5039V37.5561L47.8235 39.3695V53.5039C47.8235 54.0036 47.4186 54.4109 46.9171 54.4109H12.4566C11.9551 54.4109 11.5497 54.0036 11.5497 53.5039V40.4991L9.73604 39.9856Z" fill="#1D92FB"/>
</svg>
