<svg width="59" height="59" viewBox="0 0 59 59" fill="none" xmlns="http://www.w3.org/2000/svg">
<path d="M24.2362 9.63562C24.5314 8.12421 25.0773 6.6995 25.8014 5.39662L24.454 3.67665C23.688 2.70886 22.514 2.19098 21.3958 2.19098C20.5548 2.19098 19.7065 2.45109 18.9897 2.99944L1.90691 16.0726C0.892479 16.8529 0.383789 18.0222 0.383789 19.2103C0.383789 20.0164 0.660355 20.8271 1.19486 21.5161L13.6142 38.1325C13.6142 38.1205 14.4156 32.895 14.4222 32.8857L4.21522 19.0298L21.3328 5.92153L24.2339 9.63328L24.2362 9.63562Z" fill="#1D92FB"/>
<path d="M36.3456 41.373C36.0175 42.151 35.228 42.7089 34.3306 42.7089C33.126 42.7089 32.1416 41.7245 32.1416 40.5176C32.1416 39.313 33.126 38.3292 34.3306 38.3292C34.3306 37.6471 34.3936 36.7215 34.7595 36.1381H32.306L23.1836 43.1588C24.4746 46.0503 25.2646 48.1942 25.8219 51.4702C26.6635 51.4702 27.5747 51.229 28.3174 50.6591L38.6353 42.7623C37.9436 42.3454 37.1872 41.8859 36.3456 41.373Z" fill="#1D92FB"/>
<path d="M54.5937 20.8059C54.4203 20.8059 54.2469 20.7802 54.0759 20.7216C53.2133 20.4357 52.7496 19.5054 53.0334 18.6454C53.0424 18.6149 54.0454 15.5593 54.0454 12.5927C54.0454 9.80655 53.3729 7.1165 52.0442 4.59748C51.6201 3.79604 51.9296 2.80252 52.731 2.37834C53.5301 1.95892 54.5283 2.26353 54.95 3.06731C56.5295 6.06203 57.3285 9.26761 57.3285 12.5951C57.3285 16.1053 56.1989 19.5406 56.1497 19.6859C55.92 20.3724 55.2805 20.8083 54.5913 20.8083L54.5937 20.8059Z" fill="#1D92FB"/>
<path d="M38.1648 0C31.2122 0 25.5715 5.64026 25.5715 12.5951C25.5715 14.9009 26.202 17.0544 27.2848 18.9149L25.6141 23.7913C25.3844 24.6021 26.1156 25.3566 26.9333 25.1528L32.121 23.6413C33.9165 24.6256 35.9758 25.188 38.1648 25.188C45.1192 25.188 50.7599 19.5476 50.7599 12.5928C50.7599 5.63792 45.1192 0 38.1648 0ZM45.8973 15.3321H38.7785L40.6507 12.3889C41.1336 11.6227 40.9039 10.6034 40.1493 10.1113C39.3808 9.62856 38.364 9.84883 37.8691 10.6151L34.8697 15.3298H30.4342C30.1174 14.4768 29.9537 13.5559 29.9537 12.5928C29.9537 8.05855 33.6327 4.37961 38.1666 4.37961C42.7011 4.37961 46.3802 8.05855 46.3802 12.5928C46.3802 13.5559 46.2158 14.4768 45.8973 15.3298V15.3321Z" fill="#1D92FB"/>
<path d="M20.0955 39.4234V33.5277C20.0955 32.5505 19.3085 31.7772 18.3691 31.7585C17.5274 31.7421 16.7212 32.3349 16.5808 33.2582L15.0085 43.4798L7.1771 33.1949C6.5658 34.5751 5.86035 36.9489 5.86035 39.4234V41.6916C5.86035 45.1481 7.2335 48.4636 9.67741 50.9075L16.8106 58.0407H24.4776L23.8963 53.4013C22.882 45.2771 20.0979 43.7984 20.0979 39.4234H20.0955Z" fill="#1D92FB"/>
<path d="M44.1877 27.3789H40.94C38.7654 27.3789 36.6353 27.9694 34.7696 29.0895L31.946 30.7861C31.1961 31.1797 30.868 32.0585 31.1445 32.8341C31.4775 33.7714 32.5459 34.2119 33.4415 33.7878C36.9376 32.1335 37.2609 31.7585 38.3713 31.7585H42.4487C44.1805 31.7585 45.7528 32.7615 46.4865 34.3291L49.4223 40.607L38.9292 36.2318C38.0342 35.8897 37.0264 36.3209 36.6586 37.2161C36.3233 38.0245 36.6329 38.9759 37.4133 39.4258C44.6796 43.8967 45.9424 44.4846 47.883 46.7132C51.4985 50.8608 53.6335 51.6064 58.4253 53.661V41.6166L53.9682 33.4433C52.6209 30.9759 48.5693 27.3789 44.1902 27.3789H44.1877Z" fill="#1D92FB"/>
</svg>
