<svg viewBox="0 0 451 82" fill="none" xmlns="http://www.w3.org/2000/svg"><path fill-rule="evenodd" clip-rule="evenodd" d="M40.98 0H0v82h451V0H40.98Zm92.25 0a3.33 3.33 0 0 1 1.903.6c.565.39 1.007.946 1.273 1.599l9.734 24.081 24.923 2.242c.686.043 1.342.3 1.875.735.539.438.94 1.036 1.149 1.717.209.68.217 1.412.022 2.097a3.556 3.556 0 0 1-1.113 1.742l-18.64 17.212 5.661 25.527c.145.686.096 1.4-.142 2.06a3.603 3.603 0 0 1-1.194 1.643 3.327 3.327 0 0 1-3.773.203L133.23 67.862l-21.471 13.596a3.334 3.334 0 0 1-1.938.54 3.351 3.351 0 0 1-1.897-.68 3.595 3.595 0 0 1-1.217-1.67 3.779 3.779 0 0 1-.126-2.096l5.73-25.527-18.916-17.212a3.647 3.647 0 0 1-1.03-1.765 3.78 3.78 0 0 1 .062-2.068 3.62 3.62 0 0 1 1.135-1.693c.52-.434 1.16-.7 1.835-.765l24.854-2.242 9.803-24.08a3.58 3.58 0 0 1 1.273-1.6c.564-.39 1.226-.6 1.903-.6Zm92.25 0a3.33 3.33 0 0 1 1.903.6c.565.39 1.007.946 1.273 1.599l9.734 24.081 24.923 2.242c.686.043 1.342.3 1.875.735.539.438.94 1.036 1.149 1.717.209.68.217 1.412.022 2.097a3.556 3.556 0 0 1-1.113 1.742l-18.64 17.212 5.661 25.527c.145.686.096 1.4-.142 2.06a3.603 3.603 0 0 1-1.194 1.643 3.327 3.327 0 0 1-3.773.203L225.48 67.862l-21.471 13.596a3.334 3.334 0 0 1-1.938.54 3.351 3.351 0 0 1-1.897-.68 3.595 3.595 0 0 1-1.217-1.67 3.779 3.779 0 0 1-.126-2.096l5.73-25.527-18.916-17.212a3.651 3.651 0 0 1-1.03-1.765 3.777 3.777 0 0 1 .062-2.068 3.615 3.615 0 0 1 1.135-1.693c.521-.434 1.16-.7 1.835-.765l24.854-2.242 9.803-24.08a3.58 3.58 0 0 1 1.273-1.6c.564-.39 1.226-.6 1.903-.6Zm92.25 0a3.33 3.33 0 0 1 1.903.6c.565.39 1.007.946 1.273 1.599l9.734 24.081 24.923 2.242c.686.043 1.342.3 1.875.735.539.438.94 1.036 1.149 1.717.209.68.217 1.412.022 2.097a3.556 3.556 0 0 1-1.113 1.742l-18.64 17.212 5.661 25.527c.145.686.096 1.4-.142 2.06a3.603 3.603 0 0 1-1.194 1.643 3.327 3.327 0 0 1-3.773.203L317.73 67.862l-21.471 13.596a3.334 3.334 0 0 1-1.938.54 3.351 3.351 0 0 1-1.897-.68 3.595 3.595 0 0 1-1.217-1.67 3.779 3.779 0 0 1-.126-2.096l5.73-25.527-18.916-17.212a3.651 3.651 0 0 1-1.03-1.765 3.777 3.777 0 0 1 .062-2.068 3.615 3.615 0 0 1 1.135-1.693c.521-.434 1.16-.7 1.835-.765l24.854-2.242 9.803-24.08a3.58 3.58 0 0 1 1.273-1.6c.564-.39 1.226-.6 1.903-.6Zm92.25 0a3.33 3.33 0 0 1 1.903.6c.565.39 1.007.946 1.273 1.599l9.734 24.081 24.923 2.242c.686.043 1.342.3 1.875.735.539.438.94 1.036 1.149 1.717.209.68.217 1.412.022 2.097a3.556 3.556 0 0 1-1.113 1.742l-18.64 17.212 5.661 25.527c.145.686.096 1.4-.142 2.06a3.603 3.603 0 0 1-1.194 1.643 3.327 3.327 0 0 1-3.773.203L409.98 67.862l-21.471 13.596a3.334 3.334 0 0 1-1.938.54 3.351 3.351 0 0 1-1.897-.68 3.595 3.595 0 0 1-1.217-1.67 3.779 3.779 0 0 1-.126-2.096l5.73-25.527-18.916-17.212a3.651 3.651 0 0 1-1.03-1.765 3.777 3.777 0 0 1 .062-2.068 3.615 3.615 0 0 1 1.135-1.693c.521-.434 1.16-.7 1.835-.765l24.854-2.242 9.803-24.08a3.58 3.58 0 0 1 1.273-1.6c.564-.39 1.226-.6 1.903-.6Zm-369 0a3.33 3.33 0 0 1 1.903.6c.565.39 1.008.946 1.273 1.599L53.89 26.28l24.923 2.242c.686.043 1.342.3 1.875.735.54.438.94 1.036 1.15 1.717.208.68.216 1.412.021 2.097a3.557 3.557 0 0 1-1.113 1.742l-18.64 17.212 5.66 25.527c.145.686.097 1.4-.14 2.06a3.603 3.603 0 0 1-1.195 1.643 3.328 3.328 0 0 1-3.773.203L40.98 67.862 19.51 81.458a3.334 3.334 0 0 1-1.939.54 3.35 3.35 0 0 1-1.897-.68 3.595 3.595 0 0 1-1.217-1.67 3.778 3.778 0 0 1-.126-2.096l5.73-25.527L1.145 34.813a3.648 3.648 0 0 1-1.03-1.765 3.778 3.778 0 0 1 .062-2.068 3.62 3.62 0 0 1 1.135-1.693c.52-.434 1.16-.7 1.835-.765l24.854-2.242L37.804 2.2A3.582 3.582 0 0 1 39.077.6 3.34 3.34 0 0 1 40.98 0Z" fill="#fff"/></svg>